<svg width="16" height="16" viewBox="0 0 16 16" fill="none" xmlns="http://www.w3.org/2000/svg">
<path d="M1.3335 5.99967C1.3335 5.37969 1.3335 5.0697 1.40164 4.81537C1.58658 4.12519 2.12567 3.58609 2.81586 3.40116C3.07019 3.33301 3.38018 3.33301 4.00016 3.33301H12.0002C12.6201 3.33301 12.9301 3.33301 13.1845 3.40116C13.8747 3.58609 14.4137 4.12519 14.5987 4.81537C14.6668 5.0697 14.6668 5.37969 14.6668 5.99967C14.6668 6.15467 14.6668 6.23217 14.6498 6.29575C14.6036 6.4683 14.4688 6.60307 14.2962 6.6493C14.2327 6.66634 14.1552 6.66634 14.0002 6.66634H2.00016C1.84517 6.66634 1.76767 6.66634 1.70409 6.6493C1.53154 6.60307 1.39677 6.4683 1.35053 6.29575C1.3335 6.23217 1.3335 6.15467 1.3335 5.99967Z" fill="white"/>
<path fill-rule="evenodd" clip-rule="evenodd" d="M1.3335 10.6667C1.3335 12.5523 1.3335 13.4951 1.91928 14.0809C2.50507 14.6667 3.44788 14.6667 5.3335 14.6667H10.6668C12.5524 14.6667 13.4953 14.6667 14.081 14.0809C14.6668 13.4951 14.6668 12.5523 14.6668 10.6667V9C14.6668 8.52859 14.6668 8.29289 14.5204 8.14645C14.3739 8 14.1382 8 13.6668 8H2.3335C1.86209 8 1.62639 8 1.47994 8.14645C1.3335 8.29289 1.3335 8.5286 1.3335 9V10.6667ZM5.00016 11.3333C5.00016 10.781 5.44788 10.3333 6.00016 10.3333H7.00016V9.33333C7.00016 8.78105 7.44788 8.33333 8.00016 8.33333C8.55245 8.33333 9.00016 8.78105 9.00016 9.33333V10.3333H10.0002C10.5524 10.3333 11.0002 10.781 11.0002 11.3333C11.0002 11.8856 10.5524 12.3333 10.0002 12.3333H9.00016V13.3333C9.00016 13.8856 8.55245 14.3333 8.00016 14.3333C7.44788 14.3333 7.00016 13.8856 7.00016 13.3333V12.3333H6.00016C5.44788 12.3333 5.00016 11.8856 5.00016 11.3333Z" fill="white"/>
<path d="M4.6665 2L4.6665 4" stroke="white" stroke-width="2" stroke-linecap="round"/>
<path d="M11.3335 2L11.3335 4" stroke="white" stroke-width="2" stroke-linecap="round"/>
</svg>
