<svg width="24" height="24" viewBox="0 0 24 24" fill="none" xmlns="http://www.w3.org/2000/svg">
<g clip-path="url(#clip0_779_247)">
<path fill-rule="evenodd" clip-rule="evenodd" d="M11.9633 0.00195312C5.3578 0.00195312 0 5.35975 0 11.9653C0 17.2497 3.44954 21.7267 8.14679 23.3414C8.73394 23.4148 8.95413 23.0478 8.95413 22.7542C8.95413 22.4607 8.95413 21.7267 8.95413 20.6992C5.65138 21.4331 4.91743 19.0845 4.91743 19.0845C4.40367 17.69 3.59633 17.3231 3.59633 17.3231C2.49541 16.5891 3.66972 16.5891 3.66972 16.5891C4.84404 16.6625 5.50459 17.8368 5.50459 17.8368C6.6055 19.6717 8.29358 19.1579 8.95413 18.8643C9.02752 18.057 9.3945 17.5432 9.68807 17.2497C7.04587 16.9561 4.25688 15.9286 4.25688 11.3047C4.25688 9.9836 4.69725 8.95608 5.50459 8.07535C5.43119 7.85516 4.99083 6.60746 5.65138 4.99278C5.65138 4.99278 6.6789 4.6992 8.95413 6.24048C9.90826 5.94691 10.9358 5.87351 11.9633 5.87351C12.9908 5.87351 14.0183 6.0203 14.9725 6.24048C17.2477 4.6992 18.2752 4.99278 18.2752 4.99278C18.9358 6.60746 18.4954 7.85516 18.422 8.14874C19.156 8.95608 19.6697 10.057 19.6697 11.3781C19.6697 16.002 16.8807 16.9561 14.2385 17.2497C14.6789 17.6166 15.0459 18.3506 15.0459 19.4515C15.0459 21.0662 15.0459 22.3139 15.0459 22.7542C15.0459 23.0478 15.2661 23.4148 15.8532 23.3414C20.6239 21.7267 24 17.2497 24 11.9653C23.9266 5.35975 18.5688 0.00195312 11.9633 0.00195312Z" fill="white"/>
</g>
<defs>
<clipPath id="clip0_779_247">
<rect width="24" height="24" fill="white" transform="translate(0 0.00195312)"/>
</clipPath>
</defs>
</svg>
