<svg width="24" height="24" viewBox="0 0 24 24" fill="none" xmlns="http://www.w3.org/2000/svg">
<rect x="3.58691" y="3.6416" width="17.9341" height="16.7736" fill="white"/>
<path fill-rule="evenodd" clip-rule="evenodd" d="M12.9969 10.7812V10.7461C12.9898 10.7579 12.9799 10.7696 12.9736 10.7812H12.9969Z" fill="#0A66C2"/>
<path fill-rule="evenodd" clip-rule="evenodd" d="M0 0.00195312V24.002H24V0.00195312H0ZM7.4649 19.9405H3.90414V9.22776H7.4649V19.9405ZM5.68452 7.76561H5.66099C4.46653 7.76561 3.69231 6.9427 3.69231 5.91413C3.69231 4.86298 4.48916 4.06339 5.70783 4.06339C6.92677 4.06339 7.67583 4.86298 7.69915 5.91413C7.69915 6.9427 6.92677 7.76561 5.68452 7.76561ZM20.3077 19.9405H16.746V14.2092C16.746 12.7696 16.2314 11.787 14.9423 11.787C13.9578 11.787 13.3728 12.4486 13.1151 13.0895C13.0214 13.3184 12.9969 13.6366 12.9969 13.9577V19.9406H9.43453C9.43453 19.9406 9.48227 10.2328 9.43453 9.22782H12.9969V10.7458C13.4702 10.0175 14.3149 8.97632 16.2069 8.97632C18.5508 8.97632 20.3077 10.507 20.3077 13.7973V19.9405Z" fill="#0A66C2"/>
</svg>
