<svg viewBox="0 0 93 68" fill="none" xmlns="http://www.w3.org/2000/svg">
<defs>
    <style>
    #g258 {
      animation: blink 3s infinite ease-in-out;
    }
    @keyframes blink {
      0% { opacity: 1;}
      50% { opacity: 0.2;}
      100% {opacity: 1;};
    }
    </style>
</defs>
<g id="astro laptop">
<g id="g12">
<g id="g78">
<path id="path80" d="M39.0929 40.742C39.0929 40.742 37.9375 44.8237 34.1618 47.9094C31.2846 50.2596 27.2136 49.8861 27.167 52.468L47.6484 55.2875L39.0929 40.742Z" fill="white"/>
</g>
<g id="g82">
<path id="path84" d="M47.6478 55.2873L27.1675 52.468C27.2142 49.8854 31.2842 50.2593 34.1615 47.9086C35.9452 46.4502 37.1459 44.7701 37.9138 43.4028C38.4829 42.3907 38.8152 41.5507 38.9742 41.0996C39.0565 40.8703 39.0929 40.7418 39.0929 40.7418L41.5473 44.9146L42.2376 46.089L47.2778 54.6591L47.6478 55.2873Z" fill="white"/>
</g>
<g id="g86">
<g id="Clip path group">
<mask id="mask0_782_665" style="mask-type:luminance" maskUnits="userSpaceOnUse" x="38" y="46" width="4" height="7">
<g id="clipPath92">
<path id="path90" d="M41.9281 52.8504L38.9811 52.4071L39.0518 48.5859C39.3571 47.6455 39.444 46.728 39.3734 46.2146C39.4988 46.9145 39.6619 47.6314 39.8735 48.3321C39.7917 48.357 39.7408 48.4412 39.759 48.5266C39.9615 49.478 40.2767 50.4202 40.7664 51.2959C41.0771 51.8511 41.461 52.3872 41.9281 52.8504Z" fill="white"/>
</g>
</mask>
<g mask="url(#mask0_782_665)">
<g id="g88">
<g id="g94">
<path id="path96" d="M39.3729 46.2146L42.7766 46.6832L41.9277 52.8504L38.5239 52.3818" fill="#B9AFBE"/>
</g>
</g>
</g>
</g>
</g>
<g id="g98">
<path id="path100" d="M27.7352 52.0414L46.6953 54.6514L39.2008 41.9098C38.6014 43.3601 37.2071 46.0657 34.4781 48.2954C33.2106 49.3306 31.7621 49.8514 30.4842 50.3111C28.9536 50.8614 27.9917 51.2462 27.7352 52.0414ZM47.5805 55.7815L27.0989 52.962C26.8486 52.9276 26.6632 52.7113 26.6676 52.4581C26.7016 50.6092 28.3746 50.0077 30.1462 49.3708C31.3485 48.9389 32.7113 48.4484 33.846 47.5217C37.4582 44.5701 38.601 40.6444 38.6126 40.6052C38.6669 40.4133 38.8307 40.2718 39.0291 40.2462C39.2271 40.221 39.4221 40.3155 39.5238 40.4882L48.0787 55.0337C48.1761 55.1986 48.1702 55.4045 48.064 55.5636C47.9578 55.7231 47.77 55.8076 47.5805 55.7815Z" fill="#371A45"/>
</g>
<g id="g102">
<path id="path104" d="M88.4362 37.1504C87.9062 37.9383 86.8659 38.3458 85.3806 38.1501C83.4942 37.9008 83.418 38.1525 83.4222 38.2108C83.4238 38.2187 83.426 38.2228 83.426 38.2228C83.426 38.2228 83.6794 38.7705 84.0017 39.6594L84.0045 39.6688C84.018 39.7044 84.032 39.7419 84.0458 39.7803C84.0466 39.7843 84.0476 39.7869 84.0491 39.7909C85.0129 42.4961 86.4885 48.0632 83.7745 51.2745C80.4491 55.2054 67.6305 55.5987 63.1156 56.1406C59.4113 56.5859 52.7295 56.0869 47.2784 54.6588C46.0816 54.3451 44.9447 53.987 43.911 53.5836C40.5458 52.2724 39.4566 47.7059 39.1173 44.3668C38.9718 42.9327 38.9653 41.7256 38.9746 41.0993C38.9799 40.8052 38.989 40.6386 38.989 40.6386C38.989 40.6386 49.2826 34.0647 62.3073 35.0131C64.4406 35.1683 66.6464 35.5259 68.8929 36.1467C72.7493 37.213 75.1125 38.5771 75.1125 38.5771C75.9663 36.8983 74.3016 33.8244 75.9118 31.4773C77.8045 28.7183 86.9337 29.192 88.6091 34.3533C88.974 35.4779 88.9014 36.461 88.4362 37.1504Z" fill="white"/>
</g>
<g id="g106">
<path id="path108" d="M84.004 39.6696C84.0181 39.7053 84.032 39.7427 84.0457 39.7811C84.0267 39.743 84.0139 39.7075 84.004 39.6696Z" fill="white"/>
</g>
<g id="g110">
<path id="path112" d="M83.8836 38.0231C83.88 38.015 83.8779 38.0112 83.8779 38.0112C83.8779 38.0112 83.8806 38.0154 83.8836 38.0231ZM83.1767 37.7319C82.5594 36.5659 81.8452 35.4658 81.8452 35.4658C81.8452 35.4658 81.8926 35.4623 81.9887 35.4755C82.2894 35.5169 83.0647 35.7202 84.3566 36.696C84.8735 37.0863 85.7153 37.4697 86.5497 37.5846C86.6537 37.5989 86.7575 37.6092 86.8607 37.6146C86.577 37.6829 86.254 37.7108 85.8922 37.6945C85.1477 37.6423 84.4312 37.484 83.6534 37.5667C83.5032 37.5861 83.3186 37.6314 83.1767 37.7319Z" fill="#B9AFBE"/>
</g>
<g id="g114">
<path id="path116" d="M39.3095 45.8392C39.2653 45.5974 39.1997 45.3616 39.1153 45.1343L39.1272 44.4674C39.1738 44.9082 39.2335 45.3685 39.3095 45.8392Z" fill="#B9AFBE"/>
</g>
<g id="g118">
<path id="path120" d="M59.0101 55.4199L56.3807 55.0245C57.0813 54.4195 57.4053 53.7509 57.4088 53.7447C57.4189 53.759 57.5965 54.0038 57.9144 54.3577C57.9144 54.358 57.9144 54.358 57.915 54.3585C57.9155 54.3593 57.9167 54.3605 57.9173 54.3612C57.9178 54.362 57.9184 54.3625 57.9191 54.3629C57.9196 54.3636 57.9202 54.3641 57.9208 54.3648C57.9219 54.3661 57.9225 54.3672 57.9236 54.3684C58.1925 54.6668 58.5596 55.0411 59.0101 55.4199ZM47.1864 53.6412L44.3401 53.2132C42.1628 52.5041 40.9353 50.4536 40.077 48.4271C40.0539 48.372 40.0035 48.3337 39.9454 48.3257C39.927 48.3232 39.9073 48.324 39.888 48.3279C39.8833 48.329 39.8786 48.3301 39.8743 48.3316C39.6317 47.5296 39.4536 46.7072 39.3225 45.9121C39.3185 45.8876 39.3142 45.8633 39.3099 45.8391C39.2337 45.3683 39.1742 44.908 39.1276 44.4674L39.1545 43.0206C39.926 43.2671 40.7262 43.468 41.535 43.6188C41.8338 43.6742 42.135 43.7233 42.4381 43.765C43.1606 43.8645 43.8936 43.9239 44.6283 43.9429C44.9992 43.9511 45.376 43.9497 45.7509 43.9384C51.2227 43.7629 56.3088 41.3387 59.8474 37.386C60.2702 37.3756 60.6804 37.369 61.0814 37.3664C59.6536 39.8156 57.9324 41.8835 56.0146 43.4665C54.8863 43.6193 53.7304 44.0447 52.6223 44.8839C52.0656 45.3055 51.5416 45.7809 51.056 46.2909C49.1954 46.9214 47.2463 47.1335 45.2725 46.8618C43.3719 46.6002 41.4479 45.8901 39.5543 44.6728C40.1935 47.2794 41.4342 49.8486 43.822 50.7785C44.971 51.2263 46.2488 51.6194 47.5929 51.9566C47.389 52.5617 47.2511 53.1321 47.1864 53.6412ZM67.7102 55.2025C70.1091 52.3092 68.2153 47.6159 66.7541 44.9032C66.7965 44.8857 66.8387 44.8796 66.8806 44.8854C66.999 44.9017 67.1138 45.0122 67.2256 45.2365C69.0171 48.8274 71.199 50.7061 73.388 51.5453C72.9795 53.1088 72.4909 54.285 72.3036 54.7111C70.7511 54.914 69.1928 55.0672 67.7102 55.2025ZM76.3301 54.0372C76.6992 53.579 76.9963 52.9022 77.2194 52.0807C80.5149 51.8266 83.2475 49.9418 83.8587 49.1724C84.3144 48.5984 84.6042 47.9073 84.7959 47.1877C84.6358 49.1498 83.8983 50.9139 82.1463 51.9848C80.5715 52.9164 78.5404 53.5645 76.3301 54.0372Z" fill="#B9AFBE"/>
</g>
<g id="g122">
<path id="path124" d="M40.0773 48.4271C40.9614 50.5142 42.2371 52.6271 44.5393 53.2733C45.8701 53.7423 47.2506 54.1106 48.6227 54.4349C53.457 55.4992 58.4996 56.1342 63.4404 55.6019C68.8829 55.0144 77.5018 54.7325 82.1467 51.9848C86.259 49.4712 84.7821 43.1369 83.3683 39.3902C83.2472 39.0717 83.1164 38.7539 82.9783 38.4436C82.9936 38.4725 82.9541 38.4096 82.9316 38.2937C82.9056 38.1028 82.9641 37.9375 83.0916 37.805C83.2378 37.6522 83.4711 37.5903 83.6545 37.5664C84.4322 37.4841 85.1487 37.6423 85.8929 37.6943C87.946 37.7903 88.7436 36.435 88.1451 34.5461C87.3746 32.129 84.8205 30.8687 82.4521 30.4712C80.7028 30.1912 78.7585 30.2136 77.1617 31.0421C76.4078 31.4401 75.9803 32.169 75.7972 32.99C75.4936 34.3017 75.8527 35.7774 75.8715 37.1742C75.8759 37.6559 75.7886 39.4436 74.8626 39.0102C69.3791 36.1451 63.0212 35.0526 56.874 35.5359C50.6125 35.9306 44.7649 38.2701 39.0729 40.7811C38.9878 40.8178 38.8891 40.7784 38.8524 40.6936C38.822 40.6237 38.8434 40.5445 38.8992 40.4982C41.4041 38.511 44.4167 37.2941 47.4458 36.3542C53.5199 34.4841 60.0449 33.8287 66.3176 35.0403C69.448 35.6547 72.5437 36.6357 75.3625 38.145L74.6674 38.3511C74.827 38.04 74.8758 37.6209 74.8726 37.1795C74.7899 35.1292 74.1927 32.721 75.6986 30.9445C77.8689 28.6359 82.8637 29.0843 85.4906 30.3801C86.859 31.0359 88.1468 32.0971 88.8055 33.5138C89.8768 35.6733 89.3862 38.3489 86.648 38.6605C85.674 38.8098 84.6621 38.4456 83.7128 38.5708C83.8013 38.5318 83.887 38.4235 83.9095 38.3152C83.9243 38.2574 83.9281 38.2098 83.9172 38.1342C83.8953 38.0337 83.8658 37.9837 83.886 38.0265L83.8965 38.0499L83.916 38.093C84.4413 39.3005 84.8641 40.5489 85.1959 41.8237C85.9972 45.011 86.3909 48.8474 84.1683 51.5804C83.0819 52.831 81.4818 53.544 79.9687 54.0793C74.6694 55.8183 69.0459 56.0327 63.5484 56.5949C60.407 56.9694 57.2377 56.7674 54.1099 56.4343C51.2252 56.1076 48.3435 55.5988 45.5697 54.7115C45.2559 54.6143 44.5043 54.3514 44.1891 54.2241C43.7441 54.0686 43.2384 53.8475 42.8055 53.5585C41.92 52.9886 41.2538 52.1655 40.7668 51.2957C40.2772 50.42 39.962 49.4778 39.7594 48.5264C39.7402 48.436 39.798 48.3472 39.8884 48.328C39.9683 48.3111 40.047 48.3543 40.0773 48.4271Z" fill="#371A45"/>
</g>
<g id="g126">
<path id="path128" d="M41.002 60.6477L59.127 57.6806C59.9591 57.5884 60.6241 56.9453 60.744 56.1163L31.2499 51.8313L30.2034 59.4373L37.9761 60.5915C38.978 60.7402 39.9952 60.7591 41.002 60.6477Z" fill="#BCC6D2"/>
</g>
<g id="g130">
<path id="path132" d="M38.4917 60.2236C38.5737 60.1545 38.6522 60.0804 38.7267 60.0012C38.8165 59.9053 38.8993 59.8035 38.9738 59.6975C39.8555 59.806 40.7467 59.8142 41.6315 59.7219L59.7714 56.9037C59.8063 56.9001 59.8408 56.8958 59.8755 56.8901C59.6607 57.0872 59.3847 57.2177 59.0792 57.2519L40.9437 60.2201C40.1281 60.3094 39.3072 60.3126 38.4917 60.2236Z" fill="#BCC6D2"/>
</g>
<g id="g134">
<path id="path136" d="M30.6879 59.0736L38.0388 60.1649C39.0024 60.3115 39.9767 60.3262 40.9428 60.2203L59.0786 57.2522C59.5676 57.1978 59.9809 56.8953 60.1884 56.471L31.6176 52.3202L30.6879 59.0736ZM38.0404 61.0361C37.9979 61.0302 37.9548 61.0243 37.9124 61.0177L29.7172 59.8008L30.8816 51.3423L61.2315 55.7517L61.1702 56.178C61.023 57.1972 60.2072 57.989 59.1855 58.1077L41.0491 61.0761C40.0485 61.1868 39.037 61.1733 38.0404 61.0361Z" fill="#371A45"/>
</g>
<g id="g138">
<path id="path140" d="M40.7636 58.7655L60.6474 56.1243C60.6607 56.1231 60.6612 56.104 60.6483 56.1022L31.27 51.6827L30.4487 57.6484L38.1062 58.7026C38.9865 58.8237 39.8779 58.8448 40.7636 58.7655Z" fill="#BCC6D2"/>
</g>
<g id="g142">
<path id="path144" d="M37.3779 57.0115L50.0219 56.0367C50.2252 56.0278 50.2392 55.7318 50.0373 55.704L35.2399 53.5545L34.7607 57.0352L37.3779 57.0115Z" fill="#AFB2B1"/>
</g>
<g id="g146">
<path id="path148" d="M49.9892 55.6068C49.9845 55.6072 49.9794 55.6076 49.9747 55.6079L49.9892 55.6068ZM35.6079 54.0438L35.256 56.5996L37.3599 56.5808L47.6244 55.7892L35.6079 54.0438ZM34.2656 57.4707L34.872 53.0656L50.0995 55.2774C50.4054 55.3195 50.6269 55.5863 50.6124 55.8976C50.5978 56.209 50.3522 56.4536 50.041 56.4672L37.3823 57.4427L34.2656 57.4707Z" fill="#371A45"/>
</g>
<g id="g150">
<path id="path152" d="M60.5793 56.5277C60.5825 56.5281 60.5861 56.5286 60.5897 56.5291L60.5793 56.5277ZM30.9347 57.28L38.1651 58.2754C39.0091 58.3915 39.8667 58.4121 40.7164 58.3369L57.6519 56.0871L31.6376 52.1739L30.9347 57.28ZM38.0476 59.1295L29.9634 58.0166L30.9029 51.1917L61.0897 55.7325L61.089 56.1251C61.083 56.345 60.9177 56.5255 60.7012 56.5521L40.8021 59.195C39.8855 59.277 38.9584 59.2548 38.0476 59.1295Z" fill="#371A45"/>
</g>
<g id="g154">
<path id="path156" d="M75.3849 38.1588C77.4789 39.4354 79.1712 41.6071 80.0221 43.894C80.0955 44.1277 80.1798 44.3926 80.2442 44.6271C80.2549 44.6651 80.2329 44.7049 80.1951 44.7157C80.1614 44.7254 80.1273 44.7095 80.1116 44.6802C79.7634 44.1056 79.4186 43.5471 79.0079 43.0335C78.1221 41.8641 77.0539 40.86 75.9443 39.9116C75.6946 39.6972 75.0786 39.1921 74.8187 38.9782C74.355 38.5862 74.8551 37.8633 75.3849 38.1588Z" fill="#371A45"/>
</g>
<g id="g158">
<path id="path160" d="M81.7317 35.3049C82.5236 35.8243 83.0646 36.595 83.5473 37.3892C83.7265 37.7823 84.2995 38.5305 83.6676 38.7916C83.4614 38.8609 83.2399 38.7649 83.1453 38.5755C82.6557 37.5175 82.0226 36.4634 81.7317 35.3049Z" fill="#371A45"/>
</g>
<g id="g162">
<path id="path164" d="M59.8114 26.8403C62.034 25.37 71.4073 25.9524 75.3287 29.2496C78.9297 32.2782 78.8262 40.5286 76.5032 39.6706C71.2832 37.742 67.093 36.6195 58.9508 36.9119C53.7232 36.9189 57.5895 28.3108 59.8114 26.8403Z" fill="white"/>
</g>
<g id="g166">
<path id="path168" d="M76.7821 39.2344C76.7423 39.2289 76.7061 39.2153 76.6763 39.2045C76.2089 39.0321 75.7509 38.8665 75.2993 38.7086C74.4237 37.7635 73.5527 37.374 72.7899 37.269C72.1392 37.1795 71.5674 37.2966 71.1374 37.4498C69.9559 37.157 68.7555 36.9218 67.4817 36.7465C67.0696 36.6897 66.6498 36.6393 66.2205 36.5956C65.4411 36.4643 65.193 36.0139 65.1603 35.2438C65.1323 34.4387 65.2958 33.5814 65.4533 32.7718C65.4735 32.6739 65.4975 32.5624 65.5233 32.4413C65.6219 32.3137 65.7175 32.1813 65.8094 32.0448C65.8116 32.042 65.8137 32.0398 65.816 32.0371C65.928 33.1503 66.2236 34.2985 66.9299 34.7875C67.755 35.3591 69.1447 35.6554 70.6879 35.885C70.7542 36.2907 70.8844 36.5806 71.0854 36.6722C71.5767 36.8945 72.8023 37.2192 73.9134 37.3721C74.7612 37.4888 75.5416 37.506 75.878 37.3012C75.9805 37.2392 76.0802 37.1479 76.1746 37.0332C76.1753 37.0327 76.1754 37.0321 76.1761 37.031C76.1767 37.031 76.1768 37.0304 76.1768 37.0304C76.23 36.9653 76.2816 36.8938 76.331 36.8159C76.5193 36.8707 76.6996 36.9299 76.872 36.9935C76.9451 37.0202 77.0156 37.0385 77.0843 37.0479C77.2946 37.0769 77.4847 37.0251 77.6515 36.9056C77.6191 37.7613 77.4686 38.4755 77.2168 38.9087C77.0424 39.2076 76.8942 39.2498 76.7821 39.2344ZM60.6948 36.3727C61.1333 35.8099 61.543 35.2204 61.9197 34.6067C62.72 34.5327 63.4804 34.2322 64.163 33.7552C64.0121 34.7315 63.9883 35.7161 64.342 36.4469C63.2089 36.3824 62.0028 36.3576 60.6948 36.3727Z" fill="#B9AFBE"/>
</g>
<g id="g170">
<path id="path172" d="M67.4822 36.7465C70.7201 37.1922 73.4837 38.0238 76.6766 39.204C76.7894 39.2458 76.98 39.3163 77.2172 38.9078C78.146 37.3102 77.6976 31.8956 75.0074 29.6338C71.2071 26.4379 62.0518 25.9589 60.0874 27.2592C58.6807 28.1894 56.2464 32.7947 56.9623 35.1691C57.2146 36.0064 57.8631 36.4139 58.9419 36.4145C62.319 36.2934 65.0362 36.4097 67.4822 36.7465ZM76.6446 40.2205C76.5411 40.2063 76.4362 40.18 76.3304 40.1411C70.7283 38.0713 66.7017 37.1351 58.9692 37.413C58.9629 37.4133 58.9573 37.4132 58.9517 37.413C57.0057 37.4154 56.2754 36.3513 56.006 35.4574C55.1881 32.7452 57.7128 27.6325 59.5363 26.4258C62.0423 24.7676 71.6365 25.4942 75.6506 28.8693C78.6142 31.3615 79.3288 37.2633 78.081 39.4104C77.7319 40.0101 77.2099 40.2983 76.6446 40.2205Z" fill="#371A45"/>
</g>
<g id="g174">
<path id="path176" d="M71.8429 31.0662C70.6751 32.2255 70.2207 36.2787 71.0859 36.6713C71.9511 37.064 75.1011 37.7729 75.8775 37.3017C76.6546 36.8299 77.2652 34.6868 76.7528 33.4484C76.2353 32.1978 72.7016 30.2139 71.8429 31.0662Z" fill="white"/>
</g>
<g id="g178">
<path id="path180" d="M70.6885 35.8849C70.5488 35.0245 70.6963 33.643 71.0574 32.5302C71.0574 32.5308 71.0572 32.5319 71.0571 32.5324C70.696 33.6447 70.5488 35.0245 70.6885 35.8849Z" fill="#B9AFBE"/>
</g>
<g id="g182">
<path id="path184" d="M73.9135 37.3716C72.8029 37.2187 71.5769 36.8946 71.0859 36.6716C70.8845 36.5804 70.7545 36.2905 70.6883 35.8842C70.7552 36.29 70.8845 36.5798 71.086 36.671C71.577 36.894 72.8035 37.2188 73.9147 37.3717C74.7618 37.4884 75.5418 37.505 75.8774 37.3016C75.9804 37.239 76.08 37.1475 76.175 37.0331C76.08 37.1475 75.9804 37.239 75.8781 37.3011C75.5417 37.5056 74.7612 37.4883 73.9135 37.3716Z" fill="#8C7B94"/>
</g>
<g id="g186">
<path id="path188" d="M73.9148 37.3719C72.8032 37.2188 71.5769 36.894 71.0862 36.6711C70.8845 36.5796 70.755 36.2904 70.6883 35.8843C70.5487 35.0244 70.6956 33.6443 71.0574 32.5323C71.046 33.5499 71.2677 34.4181 71.7043 34.4782C71.7133 34.4794 71.7223 34.48 71.7313 34.4807C72.4489 34.5236 73.0233 33.0804 73.0233 33.0804C73.0233 33.0804 72.9473 34.9594 73.5588 35.7556C73.8311 36.1106 74.2319 36.2811 74.6565 36.3401C75.4208 36.4453 76.2648 36.1876 76.5834 35.9941C76.6371 35.9615 76.691 35.9179 76.7438 35.8651C76.6065 36.3336 76.4071 36.7498 76.1773 37.0302C76.1768 37.0301 76.1767 37.0307 76.1767 37.0307C76.1759 37.0318 76.1752 37.0323 76.1746 37.0329C76.0805 37.1474 75.9804 37.2392 75.8778 37.3016C75.5421 37.5048 74.7619 37.4885 73.9148 37.3719Z" fill="#B9AFBE"/>
</g>
<g id="g190">
<path id="path192" d="M72.7231 31.2238C72.4181 31.1818 72.1852 31.2122 72.086 31.311C71.284 32.1071 70.807 34.595 71.0368 35.8713C71.0999 36.2255 71.1993 36.3438 71.2292 36.3571C72.1238 36.7634 75.1069 37.3661 75.6989 37.0066C76.2976 36.6432 76.8978 34.7001 76.4343 33.58C76.1001 32.7731 74.1717 31.5101 72.8767 31.2492C72.8237 31.2389 72.7723 31.2306 72.7231 31.2238ZM73.8422 37.707C72.6681 37.5454 71.4177 37.2008 70.944 36.9851C70.6486 36.8515 70.4517 36.518 70.3575 35.9937C70.1214 34.6786 70.5485 31.8651 71.5998 30.8215C71.8959 30.5277 72.371 30.4444 73.0126 30.5731C74.4184 30.8559 76.6115 32.2037 77.0718 33.3161C77.657 34.73 76.9773 37.0377 76.057 37.596C75.6418 37.8483 74.766 37.8342 73.8422 37.707Z" fill="#371A45"/>
</g>
<g id="g194">
<path id="path196" d="M73.2235 32.6162C73.0979 33.5033 72.4469 36.4862 73.3323 36.928C73.5333 36.991 73.6555 37.2082 73.5645 37.4066C73.448 37.6669 73.1622 37.6246 72.9453 37.5305C72.4803 37.3434 72.2388 36.7952 72.1948 36.3525C72.0884 35.0116 72.5681 33.7609 73.1303 32.5833C73.1553 32.5337 73.2365 32.5608 73.2235 32.6162Z" fill="#371A45"/>
</g>
<g id="g198">
<path id="path200" d="M66.8853 27.847C66.5392 28.7596 66.149 29.6272 65.942 30.5348C65.8078 31.1083 65.5775 32.185 65.454 32.772C65.2966 33.5814 65.1326 34.4391 65.1608 35.244C65.194 36.02 65.4453 36.472 66.2393 36.5982C66.864 36.7297 66.7194 37.6491 66.0854 37.5848C62.9805 37.1881 64.2426 33.2694 64.7193 31.2533C64.8252 30.8773 64.9511 30.313 65.0847 29.9501C65.4059 29.0713 65.8699 28.2998 66.4602 27.585C66.5503 27.4792 66.7096 27.4661 66.8159 27.5563C66.9026 27.63 66.9268 27.7483 66.8853 27.847Z" fill="#371A45"/>
</g>
<g id="g202">
<path id="path204" d="M75.9772 54.3892C74.1017 55.8417 72.2243 54.8849 72.2243 54.8849C72.2243 54.8849 73.3355 52.5447 73.8111 49.5298C73.9399 48.7169 74.0219 47.8534 74.023 46.9739C74.0307 41.5263 70.3171 37.8653 70.3171 37.8653C70.3171 37.8653 72.8414 35.9562 75.3792 38.7964C77.2652 40.9077 77.9806 45.822 77.6354 49.6316C77.4356 51.85 76.8739 53.6936 75.9772 54.3892Z" fill="white"/>
</g>
<g id="g206">
<path id="path208" d="M73.1923 55.1592C72.6042 55.0783 72.2251 54.8851 72.2251 54.8851C72.2251 54.8851 73.3363 52.5449 73.8118 49.5299C74.0307 50.3614 74.3488 51.2065 74.7348 51.2597C74.7703 51.2645 74.8062 51.2625 74.8423 51.2536C75.4571 51.1001 75.6214 49.0629 75.7593 48.447C75.7627 48.4314 75.7692 48.4246 75.7778 48.4258C75.8758 48.4393 76.2793 49.535 76.2103 51.1244C76.2002 51.3608 76.2388 51.4663 76.311 51.4763C76.5598 51.5105 77.2042 50.4202 77.6361 49.6317C77.6105 49.9132 77.5794 50.1888 77.5425 50.4567C77.2882 52.2997 76.7608 53.7822 75.9775 54.3893C74.9454 55.1889 73.9128 55.2584 73.1923 55.1592Z" fill="#B9AFBE"/>
</g>
<g id="g210">
<path id="path212" d="M72.897 54.5969C73.4854 54.7492 74.5729 54.8457 75.6717 53.9947C76.3889 53.439 76.9368 51.7979 77.1377 49.6046C77.463 46.0468 76.8274 41.1672 75.0071 39.1311C73.4078 37.3407 71.867 37.6558 71.1062 37.9897C72.1226 39.1771 74.5291 42.4667 74.5229 46.9753C74.5179 50.3353 73.3877 53.4168 72.897 54.5969ZM73.1313 55.6578C72.4741 55.5673 72.0381 55.3514 71.9982 55.3313L71.5659 55.1113L71.7739 54.672C71.7909 54.6354 73.5178 50.9439 73.524 46.9736C73.5314 41.7954 70.0019 38.2563 69.9666 38.2213L69.5548 37.8157L70.0158 37.4674C70.0445 37.4457 72.9399 35.3188 75.7522 38.4648C77.7817 40.7362 78.4859 45.8335 78.1325 49.6956C77.998 51.1652 77.5789 53.7811 76.2828 54.7845C75.1166 55.6881 73.9517 55.7707 73.1313 55.6578Z" fill="#371A45"/>
</g>
<g id="g214">
<path id="path216" d="M36.6933 44.4132L36.1438 41.7804C36.1693 41.7936 36.1948 41.8065 36.2203 41.8197C36.7384 42.082 37.2694 42.3222 37.8078 42.5376C37.5253 43.0963 37.158 43.739 36.6933 44.4132Z" fill="#9ABCDE"/>
</g>
<g id="g218">
<path id="path220" d="M37.978 50.569L36.9687 45.7353C37.4999 45.0521 37.9342 44.3822 38.2857 43.7689C38.646 44.1694 38.9283 44.6319 39.1154 45.1342L39.0518 48.5857C38.824 49.2864 38.4745 50 37.978 50.569Z" fill="#FEFADE"/>
</g>
<g id="g222">
<path id="path224" d="M38.9809 52.407L38.3409 52.3107L37.9777 50.5689C38.4745 50 38.8235 49.2862 39.0515 48.5858L38.9809 52.407Z" fill="#C6BAAA"/>
</g>
<g id="g226">
<path id="path228" d="M36.9693 45.7357L36.6935 44.4138C37.1583 43.7397 37.5252 43.0971 37.808 42.5381C37.9612 42.5992 38.1158 42.659 38.27 42.7161C38.161 42.9259 38.0418 43.1524 37.9145 43.4026L37.9259 43.4129C38.0532 43.5252 38.1732 43.6441 38.2859 43.7692C37.9344 44.3826 37.5 45.0525 36.9693 45.7357Z" fill="#5E4349"/>
</g>
<g id="g230">
<path id="path232" d="M39.1157 45.1346C38.9283 44.6323 38.6464 44.1696 38.2858 43.769C38.4631 43.4597 38.6189 43.1648 38.7555 42.8895C38.8366 42.9168 38.9177 42.944 38.9985 42.9705C39.0029 42.9719 39.007 42.9732 39.0114 42.9742C39.0336 43.4016 39.0673 43.8712 39.1176 44.3673C39.1211 44.4008 39.1245 44.4343 39.1276 44.4677L39.1157 45.1346Z" fill="#C6BAAA"/>
</g>
<g id="g234">
<path id="path236" d="M38.2853 43.7689C38.1726 43.6436 38.0526 43.5249 37.9252 43.4124L37.9137 43.4021C38.0412 43.1522 38.1605 42.9256 38.2692 42.716C38.4311 42.7759 38.5926 42.8335 38.7551 42.8889C38.6184 43.1645 38.4624 43.4594 38.2853 43.7689Z" fill="#5E4349"/>
</g>
<g id="g238">
<path id="path240" d="M39.1272 44.4673C39.1237 44.4339 39.1203 44.4004 39.1168 44.367C39.0666 43.8708 39.0331 43.4014 39.0106 42.9741C39.0583 42.9899 39.106 43.0053 39.1541 43.0207L39.1272 44.4673Z" fill="#C6BAAA"/>
</g>
<g id="g242">
<path id="path244" d="M38.9579 53.659L38.6121 53.6087L38.5292 53.2106L38.9649 53.2764L38.9579 53.659Z" fill="#329EDE"/>
</g>
<g id="g246">
<path id="path248" d="M38.9304 55.1348L38.7996 54.5072L38.9416 54.5275L38.9304 55.1348Z" fill="#BEBDA0"/>
</g>
<g id="g250">
<path id="path252" d="M38.9423 54.5284L38.8001 54.5077L38.6126 53.6095L38.9583 53.6594L38.9423 54.5284Z" fill="#5E4349"/>
</g>
<g id="g254">
<path id="path256" d="M38.9649 53.2771L38.529 53.2116L38.341 52.3115L38.9809 52.4078L38.9649 53.2771Z" fill="#5E4349"/>
</g>
<g id="g258">
<path id="path260" d="M26.5823 30.6384L7.0999 27.8278C11.5705 24.7728 24.6925 15.8088 30.6916 11.7567C29.5891 12.9631 28.6384 14.309 27.8688 15.7623C26.7938 17.7907 26.1042 19.9477 25.803 22.143C25.7063 22.8476 25.6495 23.5566 25.6329 24.2665C25.5732 25.7193 25.6449 27.4465 26.1038 28.9177C26.2355 29.4957 26.395 30.0696 26.5823 30.6384Z" fill="#9ABCDE"/>
</g>
<g id="g262">
<path id="path264" d="M27.828 32.3323C29.1182 35.1917 31.1394 37.7427 33.7968 39.6906C34.3388 40.0876 34.9051 40.4596 35.4978 40.8031C35.7854 40.9715 36.0816 41.132 36.3829 41.2887C37.2935 41.7556 38.2245 42.1417 39.1696 42.45C39.9836 42.7181 40.808 42.9266 41.6353 43.0805C42.634 43.2667 43.639 43.3699 44.6402 43.3956C45.0057 43.4038 45.3701 43.4024 45.733 43.3911C52.3852 43.1779 58.7393 39.5249 62.0424 33.2879C66.9104 24.1002 63.3139 12.7873 54.0115 8.01778C52.2196 7.10009 50.3452 6.48933 48.4532 6.17316C48.2328 6.1342 48.0098 6.10121 47.7868 6.0728C47.191 5.99366 46.5937 5.94246 45.9981 5.92022C44.6202 5.86785 43.2469 5.96604 41.9047 6.20469C40.5628 6.44222 39.2482 6.8214 37.9896 7.33351C37.5891 7.49612 37.1942 7.67213 36.8046 7.86209C36.2208 8.14768 35.6511 8.46049 35.0963 8.80637C32.3304 10.5197 29.9733 12.9574 28.3523 16.0187C25.5515 21.3034 25.553 27.291 27.828 32.3323Z" fill="white"/>
</g>
<g id="g266">
<path id="path268" d="M27.8779 32.3102C29.19 35.2179 31.248 37.7546 33.8292 39.6465C34.376 40.0471 34.9466 40.4205 35.5248 40.7558C35.7924 40.9124 36.0816 41.0706 36.4077 41.2401C37.3029 41.6988 38.2379 42.0887 39.1869 42.3982C39.981 42.6597 40.8084 42.871 41.6452 43.0266C42.6243 43.2094 43.6325 43.3148 44.6417 43.341C45.0017 43.3487 45.368 43.3476 45.7316 43.3368C52.5877 43.1164 58.8192 39.2563 61.9937 33.2626C64.3314 28.85 64.7973 23.8078 63.3044 19.0639C61.7996 14.2815 58.4903 10.3763 53.9864 8.06744C52.2288 7.1673 50.3641 6.54847 48.4446 6.22789C48.2358 6.1911 48.0123 6.15745 47.7801 6.12779C47.1879 6.04914 46.5874 5.99752 45.9961 5.97533C44.635 5.92364 43.2617 6.01972 41.9146 6.25966C40.579 6.49544 39.2656 6.87396 38.0103 7.38521C37.6068 7.54926 37.209 7.72616 36.8286 7.91236C36.2355 8.20207 35.6625 8.51867 35.1252 8.85343C32.2862 10.612 29.961 13.0988 28.4008 16.0446C25.702 21.1369 25.5114 27.0661 27.8779 32.3102ZM42.5051 43.2776C42.2095 43.237 41.916 43.1892 41.6251 43.1352C40.7827 42.9786 39.9509 42.7659 39.1524 42.5028C38.1985 42.1915 37.2579 41.7996 36.3574 41.3382C36.0285 41.1677 35.7383 41.0083 35.4697 40.8512C34.8878 40.5136 34.314 40.1386 33.7641 39.7352C31.1677 37.8326 29.0975 35.2805 27.7777 32.3556C25.3971 27.0797 25.5886 21.1162 28.3031 15.9932C29.8727 13.0298 32.2114 10.5287 35.067 8.76034C35.6074 8.42315 36.1839 8.10471 36.7799 7.81311C37.1632 7.62616 37.563 7.44781 37.9686 7.28347C39.2313 6.76921 40.5523 6.3883 41.8951 6.15063C43.2504 5.91008 44.6312 5.81389 46.0002 5.86554C46.595 5.88763 47.1984 5.93964 47.7939 6.01875C48.0279 6.04808 48.2526 6.08189 48.4631 6.11891C50.3937 6.44217 52.2689 7.06417 54.0367 7.96917C58.5669 10.292 61.8955 14.22 63.4096 19.0306C64.9112 23.8027 64.4429 28.8751 62.0912 33.3139C58.8982 39.3425 52.6313 43.2255 45.7349 43.4469C45.3695 43.4578 45.0009 43.459 44.6393 43.4509C43.9238 43.4329 43.2092 43.3746 42.5051 43.2776Z" fill="#371A45"/>
</g>
<g id="g270">
<path id="path272" d="M39.7153 41.9787C39.5768 41.9597 39.4375 41.939 39.2993 41.9174C38.389 41.6177 37.4921 41.2427 36.6352 40.8036C36.347 40.654 36.0896 40.5137 35.8499 40.3754L35.8022 40.1464C37.1327 40.6364 38.501 40.9786 39.879 41.1683C42.9481 41.5908 46.0697 41.2571 48.9538 40.1191C52.8491 38.5819 55.7958 35.7738 57.4527 32.1326C57.6376 32.4276 57.843 32.7033 58.0673 32.9577C56.9407 35.2462 55.3079 37.2048 53.2163 38.7485C49.5094 41.4841 44.611 42.6532 39.7153 41.9787ZM46.8829 42.7711C49.4311 42.2015 51.8183 41.1408 53.8661 39.629C56.0147 38.0436 57.7093 36.052 58.905 33.7326C59.449 34.1378 60.0423 34.4081 60.6662 34.5375C57.5947 39.1912 52.5103 42.2388 46.8829 42.7711ZM63.1394 20.2933C62.9572 20.2421 62.7723 20.2039 62.5851 20.1781C62.5761 20.1769 62.567 20.1756 62.5585 20.1744C62.5869 19.5816 62.5876 18.9901 62.5592 18.4012C62.6569 18.6683 62.7491 18.9387 62.8352 19.2119C62.9479 19.5705 63.0491 19.9311 63.1394 20.2933Z" fill="#B9AFBE"/>
</g>
<g id="g274">
<path id="path276" d="M28.2145 32.1583C29.5005 35.008 31.5173 37.4943 34.0473 39.3483C34.5836 39.7413 35.1431 40.1075 35.7101 40.4366C35.9735 40.5902 36.2568 40.7455 36.5778 40.9125C37.4539 41.3614 38.3708 41.7435 39.3009 42.047C40.0805 42.3036 40.8911 42.5109 41.7127 42.6637C42.6727 42.8425 43.6614 42.9463 44.6511 42.9718C45.0033 42.9795 45.3636 42.978 45.72 42.9675C52.4438 42.7516 58.5549 38.9666 61.6673 33.0894C63.9587 28.7653 64.4151 23.8233 62.952 19.1745C61.4768 14.4872 58.2328 10.6592 53.8178 8.39567C52.0947 7.51326 50.2657 6.90653 48.3831 6.59198C48.1769 6.55551 47.9598 6.52274 47.7334 6.49446C47.1503 6.4165 46.5615 6.36662 45.9817 6.34451C44.6474 6.29415 43.3008 6.38753 41.9785 6.62278C40.6688 6.85456 39.3806 7.22607 38.1493 7.72719C37.7533 7.88795 37.3635 8.06168 36.9903 8.24404C36.4092 8.52821 35.8471 8.83866 35.3204 9.16726C32.5363 10.8911 30.2564 13.3296 28.7268 16.2176C26.0824 21.2082 25.8958 27.019 28.2145 32.1583ZM42.455 43.6435C42.1537 43.602 41.854 43.5534 41.5574 43.498C40.6993 43.3384 39.8507 43.1217 39.0369 42.8538C38.0649 42.5365 37.1064 42.1369 36.1889 41.6666C35.8534 41.4923 35.5576 41.3305 35.2836 41.1702C34.6912 40.8265 34.1061 40.4439 33.5458 40.033C30.8978 38.0929 28.787 35.4898 27.441 32.5072C25.0128 27.1271 25.2085 21.0446 27.977 15.8201C29.5768 12.7991 31.9615 10.2493 34.8724 8.44594C35.4227 8.10327 36.0104 7.77845 36.618 7.48176C37.0084 7.2908 37.416 7.10914 37.8294 6.94096C39.1159 6.41744 40.4622 6.02909 41.8304 5.7869C43.2118 5.54133 44.619 5.4436 46.0137 5.49592C46.6204 5.51943 47.2359 5.57184 47.8424 5.65243C48.08 5.68284 48.3113 5.71756 48.5271 5.75535C50.492 6.08412 52.4033 6.71831 54.2045 7.64036C58.8239 10.0088 62.2177 14.0143 63.7615 18.9201C65.2932 23.7872 64.8154 28.9606 62.4171 33.4864C59.1622 39.632 52.7745 43.5901 45.7464 43.8156C45.3743 43.8271 44.999 43.8284 44.6307 43.8205C43.9009 43.8015 43.1727 43.7423 42.455 43.6435Z" fill="#371A45"/>
</g>
<g id="g278">
<path id="path280" d="M28.3267 32.1081C29.6043 34.9382 31.6074 37.4082 34.1203 39.2497C34.6528 39.6402 35.2087 40.0034 35.7722 40.3303C36.0338 40.4832 36.3153 40.6376 36.6352 40.8034C37.5042 41.2493 38.4153 41.6288 39.3394 41.9304C40.114 42.1853 40.9195 42.3913 41.7354 42.5432C42.6893 42.7205 43.6708 42.8239 44.6544 42.849C45.0041 42.8567 45.362 42.8552 45.7166 42.8448C52.3958 42.6305 58.4664 38.8702 61.5585 33.0322C63.8343 28.7373 64.2875 23.8287 62.8345 19.2119C61.3696 14.5564 58.1477 10.7542 53.7618 8.50581C52.05 7.62928 50.2329 7.02606 48.3631 6.71376C48.1578 6.6774 47.9426 6.6449 47.7182 6.6169C47.1377 6.53987 46.5534 6.48949 45.9774 6.46741C44.6516 6.41782 43.3138 6.51046 42.0004 6.74458C40.6991 6.9746 39.4192 7.34395 38.1957 7.84182C37.8023 8.00091 37.4151 8.17414 37.0445 8.35486C36.4671 8.63714 35.9087 8.94573 35.3855 9.27187C32.6197 10.9848 30.3553 13.4065 28.836 16.2752C26.2091 21.2325 26.0234 27.0038 28.3267 32.1081ZM42.438 43.7657C42.1345 43.724 41.8333 43.6749 41.5346 43.6195C40.6714 43.4589 39.8179 43.2404 38.998 42.9709C38.0208 42.6519 37.0562 42.2496 36.1331 41.7766C35.7949 41.6012 35.4972 41.438 35.2212 41.2768C34.6258 40.9313 34.0373 40.5461 33.4731 40.1328C30.8085 38.1795 28.6838 35.561 27.329 32.5584L27.3287 32.5584C24.8851 27.1429 25.0818 21.0213 27.8685 15.7629C29.4785 12.723 31.878 10.1563 34.808 8.34171C35.3613 7.99659 35.9528 7.67003 36.5641 7.37105C36.9571 7.17896 37.3672 6.99675 37.7833 6.82691C39.0779 6.30068 40.4325 5.90983 41.8096 5.66599C43.1987 5.41918 44.6154 5.32062 46.0188 5.37338C46.6287 5.39667 47.2484 5.45018 47.8591 5.53078C48.0976 5.56131 48.3303 5.59623 48.5487 5.63438C50.5247 5.96476 52.4484 6.60347 54.2607 7.53081C58.9099 9.91488 62.3256 13.946 63.879 18.883C65.4208 23.7819 64.9404 28.989 62.5264 33.5451C59.2508 39.7295 52.8225 43.712 45.7508 43.9391C45.376 43.9505 44.9984 43.9518 44.628 43.9436C43.8937 43.9247 43.1605 43.8652 42.438 43.7657Z" fill="#371A45"/>
</g>
<g id="g282">
<path id="path284" d="M30.3604 36.428C40.855 44.903 56.3945 40.5681 58.2429 27.4205C59.5008 18.4754 51.5917 10.3841 42.8042 9.77139C36.408 9.3253 29.9565 11.6488 26.5085 21.2483C26.5085 21.2483 25.647 25.7282 26.6494 28.8275C27.6514 31.9268 29.1573 34.7724 29.1573 34.7724L30.3604 36.428Z" fill="#371A45"/>
</g>
<g id="g286">
<path id="path288" d="M58.2431 27.4209C56.3943 40.5682 40.8547 44.9022 30.3604 36.4286L30.1169 36.0929C42.1636 39.1491 54.9131 32.8394 57.0326 19.5795C58.1469 21.9814 58.6301 24.6604 58.2431 27.4209Z" fill="#220F2D"/>
</g>
<g id="g290">
<path id="path292" d="M39.2988 41.9167C44.3316 42.7168 49.4037 41.5612 53.2157 38.7477C56.7925 36.108 59.0285 32.2566 59.6823 27.6093C60.279 23.3695 58.9928 19.0405 56.0613 15.4208C52.7801 11.3693 47.8345 8.74135 42.8332 8.3936C40.0656 8.20077 37.5434 8.50619 35.3365 9.30196C32.5935 11.0127 30.3465 13.4224 28.8361 16.2747C26.2092 21.2318 26.0239 27.003 28.3268 32.1076C29.6043 34.938 31.6075 37.4078 34.1202 39.2493C34.6529 39.6396 35.2092 40.0033 35.7722 40.3299C36.0342 40.483 36.3158 40.637 36.6348 40.803C37.492 41.2425 38.3891 41.6174 39.2988 41.9167ZM39.5571 43.0617C39.3985 43.0398 39.2412 43.0164 39.0831 42.9908L38.9995 42.9706C38.0207 42.6514 37.0562 42.2492 36.1331 41.7761C35.795 41.6007 35.4977 41.4375 35.2215 41.2763C34.626 40.931 34.0372 40.5454 33.4732 40.1321C30.8085 38.1793 28.6839 35.56 27.3288 32.5578C24.8852 27.1423 25.0818 21.0207 27.8685 15.7624C29.4787 12.7221 31.8781 10.156 34.808 8.34153L34.8556 8.31192L34.9084 8.29263C37.2732 7.42933 39.9651 7.09641 42.909 7.30108C48.2095 7.67137 53.4436 10.4486 56.9122 14.7316C60.0368 18.5898 61.4062 23.2179 60.7671 27.7621C60.0711 32.7069 57.6851 36.8106 53.8663 39.6288C49.9286 42.5346 44.7375 43.7748 39.5571 43.0617Z" fill="#371A45"/>
</g>
<g id="g294">
<path id="path296" d="M30.7604 36.0475C35.957 40.2127 42.7674 41.383 48.5513 39.1009C53.5956 37.1102 56.9303 32.825 57.7013 27.3447C58.2288 23.5888 57.0895 19.7543 54.4921 16.5469C51.5831 12.9554 47.1991 10.6273 42.7657 10.3178C35.1737 9.78857 29.8827 13.5142 27.0388 21.392C26.9587 21.8377 26.2726 25.8831 27.17 28.6597C28.089 31.5006 29.4537 34.1574 29.6239 34.4838L30.7604 36.0475ZM39.8786 41.1678C36.3806 40.6862 32.9513 39.2238 30.0164 36.8541L29.9604 36.8083L28.6733 35.0292C28.6112 34.9112 27.1337 32.1051 26.1285 28.9963C25.0949 25.8001 25.9346 21.334 25.971 21.1455L25.9934 21.0634C29.0192 12.64 34.6879 8.65673 42.8419 9.2257C47.5723 9.55507 52.2462 12.0348 55.3428 15.8578C58.1336 19.3036 59.3561 23.4371 58.7851 27.4973C57.9582 33.379 54.3749 37.98 48.9536 40.119C46.0698 41.257 42.9479 41.5903 39.8786 41.1678Z" fill="#371A45"/>
</g>
<g id="g298">
<path id="path300" d="M66.7134 27.2224C66.6492 30.9186 64.3811 33.988 61.6479 34.0758C58.914 34.1641 56.7502 31.2386 56.8145 27.5419C56.8145 27.5186 56.8156 27.4944 56.8167 27.4708C56.908 23.8059 59.1658 20.7757 61.8801 20.688C63.9924 20.6196 65.7636 22.3503 66.4311 24.8448C66.6274 25.5798 66.7279 26.3817 66.7134 27.2224Z" fill="white"/>
</g>
<g id="g302">
<path id="path304" d="M61.1001 33.5006C60.3813 33.4017 59.7027 33.0515 59.1144 32.4714C58.0587 31.4318 57.4177 29.7608 57.3642 27.9446C57.4856 28.009 57.6182 28.0553 57.7633 28.0752C57.9003 28.0941 58.0488 28.0891 58.2079 28.0524C58.5218 27.9804 58.9085 27.7343 59.3021 27.4187C59.1885 28.3269 59.2554 29.2315 59.4798 30.0509C59.4882 30.0878 59.4969 30.1259 59.5053 30.1633C59.7675 31.2733 60.334 32.1092 61.0612 32.5963C61.2277 32.7286 61.4046 32.8453 61.5915 32.9458C61.9403 33.1328 62.3027 33.2512 62.6718 33.302C62.6861 33.3039 62.6998 33.3058 62.7136 33.3077C62.3659 33.4404 62.0027 33.5164 61.6302 33.5279C61.4514 33.5339 61.2748 33.5247 61.1001 33.5006Z" fill="#B9AFBE"/>
</g>
<g id="g306">
<path id="path308" d="M62.4274 21.262C62.2532 21.238 62.077 21.229 61.8987 21.2344C59.4568 21.3137 57.4215 24.1467 57.3623 27.5507C57.328 29.5169 57.9829 31.3564 59.1143 32.4715C59.8459 33.1923 60.7157 33.5581 61.6302 33.5278C64.072 33.449 66.1074 30.616 66.1665 27.212C66.2009 25.2458 65.5461 23.4058 64.4146 22.2913C63.8253 21.7109 63.1472 21.3611 62.4274 21.262ZM60.9446 34.5849C59.994 34.4541 59.1069 34.0009 58.346 33.251C56.9849 31.9105 56.2276 29.8255 56.2674 27.5312C56.3364 23.5531 58.847 20.2377 61.8637 20.1401C63.0844 20.1002 64.2321 20.5751 65.1829 21.5112C66.5435 22.8522 67.3013 24.9367 67.2616 27.231C67.1919 31.2096 64.6818 34.525 61.6652 34.622C61.4219 34.6299 61.1813 34.6175 60.9446 34.5849Z" fill="#371A45"/>
</g>
<g id="g310">
<path id="path312" d="M67.0013 29.922C66.0467 32.646 63.6368 33.9771 61.6185 32.8949C59.6003 31.8131 58.7376 28.7271 59.6922 26.0031C60.6469 23.2786 63.0568 21.9474 65.075 23.0297C67.0933 24.1114 67.9559 27.1974 67.0013 29.922Z" fill="white"/>
</g>
<g id="g314">
<path id="path316" d="M64.0066 22.7359C63.4953 22.6655 62.9708 22.7304 62.4527 22.9316C61.2577 23.3962 60.2714 24.5225 59.7461 26.0214C58.8018 28.716 59.654 31.777 61.6452 32.844C62.4635 33.2827 63.3608 33.3342 64.2408 32.9916C65.4352 32.5275 66.4215 31.4011 66.9473 29.9023C67.8911 27.2076 67.0389 24.1467 65.0477 23.0796C64.7116 22.899 64.3625 22.7849 64.0066 22.7359ZM62.6717 33.3021C62.3024 33.2513 61.9398 33.132 61.5908 32.9452C59.5524 31.852 58.676 28.7293 59.6378 25.9836C60.1745 24.4529 61.185 23.3015 62.411 22.8253C63.3227 22.4708 64.2537 22.5236 65.102 22.9784C67.1404 24.0717 68.0169 27.1944 67.0551 29.9401C66.5189 31.4708 65.5079 32.6221 64.2824 33.0984C63.7446 33.3078 63.2012 33.375 62.6717 33.3021Z" fill="#371A45"/>
</g>
<g id="g318">
<path id="path320" d="M61.0611 32.5959C60.3341 32.1087 59.7674 31.2728 59.5052 30.1627C59.4966 30.1255 59.4881 30.0877 59.48 30.0505C59.7667 31.0938 60.3096 31.9992 61.0611 32.5959Z" fill="#8C7B94"/>
</g>
<g id="g322">
<path id="path324" d="M62.2603 33.0569C62.1711 33.0447 62.0826 33.0276 61.9952 33.0068C61.877 32.9607 61.7599 32.9065 61.645 32.8444C60.2444 32.0936 59.4071 30.3569 59.3627 28.4547C59.3883 28.016 59.4589 27.5781 59.5701 27.1533C60.0358 28.5713 61.0366 29.4564 62.2029 29.6169C62.8398 29.7046 63.5259 29.5766 64.2019 29.2019C65.44 28.5167 66.3576 27.1614 66.7548 25.6431C66.8011 25.7811 66.8409 25.9263 66.8765 26.0748C67.4666 28.5727 66.2949 31.5128 64.2587 32.6413C63.5832 33.0166 62.8971 33.1446 62.2603 33.0569Z" fill="#B9AFBE"/>
</g>
<g id="g326">
<path id="path328" d="M61.9961 33.0058C61.6651 32.9273 61.3505 32.7889 61.0614 32.5954C60.3098 31.9984 59.767 31.0934 59.4804 30.0499C59.3687 29.5281 59.3322 28.99 59.3634 28.4535C59.4085 30.3556 60.2453 32.0928 61.6458 32.8434C61.7611 32.9056 61.8781 32.9592 61.9961 33.0058Z" fill="#371A45"/>
</g>
<g id="g330">
<path id="path332" d="M63.8631 22.9307C63.7456 22.9145 63.6273 22.9086 63.5085 22.9136C61.7614 22.9836 60.2373 25.3062 60.1801 27.9854C60.1445 29.6381 60.6556 31.1474 61.5471 32.0224C62.0456 32.512 62.6279 32.7578 63.2315 32.7337C64.9786 32.6637 66.5027 30.3412 66.5598 27.6625C66.595 26.0092 66.0838 24.4999 65.1923 23.6249C64.7926 23.232 64.338 22.9961 63.8631 22.9307ZM62.7205 33.8011C62.0144 33.7039 61.3524 33.3657 60.7803 32.8036C59.6773 31.7213 59.0441 29.9114 59.0855 27.9621C59.1573 24.613 61.0808 21.9152 63.4645 21.8191C64.3776 21.7829 65.2396 22.1372 65.9592 22.8431C67.0627 23.9261 67.6959 25.7359 67.6544 27.6858C67.5827 31.0344 65.6592 33.7322 63.2755 33.8278C63.0881 33.8353 62.9029 33.8262 62.7205 33.8011Z" fill="#371A45"/>
</g>
<g id="g334">
<path id="path336" d="M31.3016 30.7476C29.4282 28.8295 28.4327 26.7127 28.5699 23.8545C28.584 23.5725 28.6093 23.2824 28.645 22.9853C28.6527 22.9171 28.6623 22.8491 28.6727 22.7813L28.674 22.7772C28.7889 22.1803 28.9694 21.4023 29.2478 20.5407C30.0853 17.9415 31.8023 14.5848 35.2479 13.1677C38.0853 12.001 40.8017 11.9093 42.9251 12.2016C45.6221 12.5728 47.3639 13.5628 47.1921 13.7544C47.1921 13.7544 38.8464 13.6977 33.924 18.0948C33.918 18.0993 33.9131 18.104 33.9077 18.1086C32.8728 19.0349 32.1095 20.2202 31.6896 21.5338C31.1344 23.2709 31.0095 24.5473 30.9433 25.6752C30.7441 29.1055 31.3016 30.7476 31.3016 30.7476Z" fill="#C1C1C0"/>
</g>
<g id="g338">
<path id="path340" d="M51.9039 25.5626C50.8134 25.4124 49.8481 24.4792 49.5781 23.1961C49.2464 21.6184 50.0922 20.108 51.4663 19.8229C51.7226 19.7697 51.9794 19.7631 52.2296 19.7975C53.32 19.9476 54.2854 20.8804 54.5549 22.1639C54.887 23.7416 54.0414 25.2516 52.6672 25.5367C52.4109 25.5899 52.154 25.597 51.9039 25.5626Z" fill="#C1C1C0"/>
</g>
<g id="g342">
<path id="path344" d="M53.081 28.9268C52.963 28.7899 52.8687 28.6226 52.8117 28.4328C52.6195 27.7955 52.9136 27.1453 53.4694 26.9807C53.5999 26.9423 53.7323 26.9337 53.8625 26.9516C54.0211 26.9735 54.1753 27.0349 54.3135 27.1283C53.9327 27.7569 53.5218 28.3559 53.081 28.9268Z" fill="#C1C1C0"/>
</g>
<g id="g346">
<path id="path348" d="M53.7727 29.3195C53.5135 29.2838 53.267 29.1428 53.0812 28.927C53.522 28.3561 53.9331 27.7574 54.3136 27.1291C54.5445 27.2853 54.732 27.5327 54.8237 27.8379C55.0159 28.4758 54.7217 29.1257 54.1661 29.2904C54.036 29.3286 53.9026 29.3373 53.7727 29.3195Z" fill="#918796"/>
</g>
<g id="g350">
<path id="path352" d="M36.3554 60.3604L10.8163 56.6634C9.85941 56.524 9.09184 55.8021 8.89369 54.8562L8.61269 53.5076L4.01836 31.4998C3.6402 29.6891 5.17635 28.0543 7.00655 28.3188L31.7777 31.8918C31.9158 31.912 32.0497 31.9417 32.1802 31.9823C33.0977 32.2636 33.8055 33.0242 34.0064 33.9843L38.9379 57.6134C39.2644 59.1762 37.9377 60.5893 36.3554 60.3604Z" fill="#BCC6D2"/>
</g>
<g id="g354">
<path id="path356" d="M36.1013 59.8193L10.8883 56.1696C10.5896 56.1263 10.3137 56.0094 10.0801 55.8372L9.63452 53.7019C10.2397 53.8104 10.9398 53.9241 11.7105 54.0302C17.0386 54.7637 25.7202 55.1154 29.4244 50.5248C32.9064 46.208 32.7758 38.144 32.3324 33.4073L32.8552 33.4828C32.8557 33.4844 32.8562 33.4865 32.8564 33.4881L37.7875 57.1171C38.0496 58.3714 37.2468 59.5296 36.1013 59.8193Z" fill="#8997B1"/>
</g>
<g id="g358">
<path id="path360" d="M9.63475 53.7022C9.46342 53.6714 9.30004 53.6413 9.14458 53.6119L4.50715 31.3992C4.36079 30.6982 4.55806 29.9965 5.04855 29.4741C5.53557 28.9557 6.21743 28.7147 6.92118 28.8116C6.92605 28.8123 6.93104 28.813 6.93588 28.8136L31.7068 32.3869C31.8945 32.414 32.0745 32.4652 32.2443 32.5378C32.2742 32.8123 32.3042 33.1031 32.3328 33.4074L6.77889 29.7207C6.77559 29.7203 6.77213 29.7198 6.76887 29.7193C5.69599 29.5717 4.79725 30.5316 5.01986 31.5939L9.63475 53.7022ZM33.3283 33.5509L32.8555 33.4826C32.7966 33.2034 32.6946 32.941 32.5569 32.7022C32.8831 32.9101 33.1515 33.2033 33.3283 33.5509Z" fill="#D4DEEA"/>
</g>
<g id="g362">
<path id="path364" d="M10.0799 55.8377C9.72991 55.58 9.47519 55.1982 9.38276 54.7552L9.14409 53.6123C9.29956 53.6417 9.46296 53.6718 9.63429 53.7025L10.0799 55.8377ZM32.855 33.4834L32.3319 33.4078C32.3036 33.1039 32.2738 32.8129 32.2438 32.5382C32.3523 32.5847 32.4568 32.6398 32.5563 32.7025C32.6938 32.9413 32.7961 33.204 32.855 33.4834Z" fill="#A1B0CB"/>
</g>
<g id="g366">
<path id="path368" d="M36.4274 59.8667C36.4318 59.8673 36.4362 59.8679 36.4402 59.8685C37.0257 59.9491 37.5929 59.7487 37.9979 59.3174C38.4062 58.8831 38.5704 58.2993 38.449 57.7155L33.5169 34.0873C33.3312 33.2 32.6038 32.5163 31.7062 32.3871L6.93549 28.8137C6.93066 28.8131 6.92567 28.8124 6.92081 28.8117C6.21704 28.7148 5.53518 28.9561 5.04821 29.4742C4.5577 29.9967 4.3604 30.6983 4.50681 31.3992L9.38285 54.7549C9.537 55.4932 10.142 56.0617 10.8881 56.1697L36.4274 59.8667ZM36.3032 60.8578C36.2972 60.857 36.2908 60.8561 36.2841 60.8551L10.7451 57.1581C9.58501 56.9904 8.64466 56.1063 8.40509 54.959L3.52908 31.6034C3.31515 30.5788 3.60342 29.5535 4.32002 28.7908C5.03178 28.0332 6.02821 27.6807 7.05672 27.8223C7.06386 27.8233 7.07097 27.8243 7.07803 27.8252L31.8489 31.3982C33.1607 31.5877 34.2237 32.586 34.4945 33.8831L39.4266 57.5118C39.6131 58.4053 39.3511 59.3363 38.726 60.0014C38.1048 60.6623 37.2008 60.9813 36.3032 60.8578Z" fill="#371A45"/>
</g>
<g id="g378">
<path id="path380" d="M78.5982 42.3195C78.46 42.3005 78.3419 42.1986 78.3092 42.0549C78.2663 41.8694 78.3821 41.6844 78.568 41.6418C78.7251 41.6053 82.4553 40.7681 84.9554 42.0003C85.1265 42.0844 85.1964 42.2911 85.1124 42.4619C85.0284 42.6331 84.8208 42.7034 84.6504 42.619C82.3722 41.4974 78.7582 42.3057 78.7219 42.314C78.68 42.3235 78.6386 42.3251 78.5982 42.3195Z" fill="#371A45"/>
</g>
<g id="g382">
<path id="path384" d="M65.47 42.7832C65.47 42.7832 72.3741 52.545 66.46 56.2876C61.4872 59.4344 57.4086 53.7453 57.4086 53.7453C57.4086 53.7453 56.6433 55.3331 54.9073 55.835C52.777 56.451 50.6321 54.5056 50.6321 54.5056C50.6321 54.5056 49.4411 56.7162 47.7585 55.7769C45.9589 54.7726 48.2588 48.1879 52.6221 44.8845C57.6706 41.0624 63.6932 45.8265 63.6932 45.8265L65.47 42.7832Z" fill="white"/>
</g>
<g id="g386">
<path id="path388" d="M53.5465 55.9207C52.7805 55.8152 52.0789 55.4854 51.5562 55.1705C52.0789 55.4851 52.7805 55.8152 53.5465 55.9203C53.9862 55.9809 54.4469 55.9674 54.9069 55.8343C55.02 55.8019 55.1289 55.7646 55.2334 55.7237L55.2339 55.7238C55.1289 55.7646 55.02 55.8022 54.9068 55.835C54.4469 55.9677 53.9862 55.9812 53.5465 55.9207ZM50.0599 55.2719L50.0594 55.2718C50.1536 55.1737 50.237 55.0749 50.3092 54.9828L50.3097 54.9829C50.2375 55.0749 50.1536 55.1737 50.0599 55.2719Z" fill="#1364BE"/>
</g>
<g id="g390">
<path id="path392" d="M48.6675 56.0078C49.2409 55.9795 49.7191 55.6283 50.0599 55.2725L50.0604 55.2725C49.7195 55.6284 49.2413 55.9799 48.6675 56.0078Z" fill="#371A45"/>
</g>
<g id="g394">
<path id="path396" d="M55.2343 55.7241L55.2334 55.7239C55.5303 55.6075 55.7942 55.4604 56.0269 55.2992C55.7942 55.4607 55.5303 55.6075 55.2343 55.7241ZM51.5565 55.1708C50.9891 54.8292 50.6326 54.5058 50.6326 54.5058C50.6326 54.5058 50.518 54.718 50.3098 54.9832L50.3093 54.9831C50.5175 54.718 50.6321 54.5054 50.6321 54.5054C50.6321 54.5054 50.9891 54.8292 51.5565 55.1708Z" fill="#371A45"/>
</g>
<g id="g398">
<path id="path400" d="M62.6657 57.1866C62.1424 57.1146 61.6454 56.9686 61.1817 56.7756C61.6454 56.9686 62.1418 57.1145 62.6652 57.1866C63.6806 57.3263 64.7964 57.1875 65.9694 56.5717C64.7969 57.1873 63.6806 57.3263 62.6657 57.1866Z" fill="#677CBE"/>
</g>
<g id="g406">
<path id="path408" d="M61.0262 56.7083C60.9152 56.6589 60.8057 56.6066 60.6985 56.5525L60.6991 56.5523C60.8057 56.6066 60.9152 56.6589 61.0262 56.7083Z" fill="#371A45"/>
</g>
<g id="g410">
<path id="path412" d="M60.699 56.5532C60.0795 56.2388 59.5285 55.8507 59.063 55.4643C59.5285 55.8507 60.0795 56.2388 60.6996 56.5529L60.699 56.5532ZM59.0606 55.4626C59.0602 55.4621 59.0592 55.4613 59.0587 55.4609C59.0592 55.4617 59.0602 55.4621 59.0606 55.4626Z" fill="#371A45"/>
</g>
<g id="g414">
<path id="path416" d="M57.9203 54.3648C57.9204 54.3642 57.9194 54.3637 57.919 54.3629C57.9194 54.3637 57.9199 54.3641 57.9203 54.3648ZM57.9142 54.3577C57.5962 54.0038 57.4189 53.759 57.4087 53.7447C57.4087 53.7447 57.587 53.9932 57.9142 54.3577Z" fill="#8C7B94"/>
</g>
<g id="g418">
<path id="path420" d="M48.3877 55.9952C48.1872 55.9675 47.9769 55.8985 47.7584 55.7765C46.992 55.3484 46.9691 53.9096 47.5341 52.1424C47.3837 53.4097 47.5722 54.3268 48.1674 54.5358C48.2558 54.5671 48.3394 54.5874 48.4186 54.5983C49.8393 54.7938 49.9314 51.9579 49.9314 51.9579C49.9314 51.9579 50.5734 54.2843 52.6535 54.5706C52.9905 54.617 53.3653 54.6101 53.7809 54.5308C56.7035 53.9731 57.7616 51.1769 57.7616 51.1769C57.7616 51.1769 60.73 54.5942 64.0275 55.0482C64.9953 55.1817 65.9921 55.0593 66.9501 54.52C67.8065 54.0367 68.4015 53.4067 68.7889 52.6796C68.5896 54.0901 67.9091 55.3705 66.4595 56.2877C66.2952 56.3918 66.1317 56.4862 65.9688 56.5717C64.7959 57.1876 63.6801 57.3264 62.665 57.1867C62.1415 57.1146 61.6447 56.9686 61.1813 56.7756C61.1288 56.7538 61.0775 56.7317 61.0262 56.7091C60.9151 56.6596 60.8061 56.6074 60.6991 56.553C60.0789 56.2389 59.5279 55.8508 59.0625 55.4644C59.0615 55.4639 59.061 55.4631 59.0599 55.4626C59.0594 55.4622 59.0589 55.4617 59.0584 55.461C59.0569 55.4597 59.0558 55.4589 59.0543 55.4577L59.0538 55.4572C58.5833 55.066 58.2013 54.6771 57.9237 54.3691C57.9222 54.3678 57.9218 54.3667 57.9202 54.3655C57.9197 54.3647 57.9192 54.3643 57.9188 54.3635C57.9188 54.3632 57.9177 54.3627 57.9173 54.3619C57.9162 54.3611 57.9153 54.3599 57.9148 54.3591C57.9143 54.3587 57.9138 54.3583 57.9138 54.3583C57.5868 53.9937 57.4086 53.7454 57.4086 53.7454C57.4086 53.745 57.4081 53.7446 57.4081 53.7446C57.4081 53.7446 56.9763 54.6404 56.0264 55.2995C55.7936 55.4607 55.5301 55.6078 55.233 55.7243C55.1289 55.7653 55.0196 55.8025 54.9069 55.835C54.4468 55.968 53.9858 55.9814 53.5466 55.921C52.7809 55.816 52.0788 55.4857 51.5566 55.1712C50.9889 54.8295 50.6316 54.5057 50.6316 54.5057C50.6316 54.5057 50.5171 54.7183 50.3088 54.9834C50.2366 55.0755 50.1532 55.1743 50.0596 55.2725C49.7181 55.6282 49.2405 55.9795 48.667 56.0078C48.5766 56.012 48.4827 56.0082 48.3877 55.9952Z" fill="#B9AFBE"/>
</g>
<g id="g422">
<path id="path424" d="M65.6057 42.6864C68.4495 45.5152 71.0975 52.4768 67.8525 55.7859C67.3106 56.3535 66.63 56.8164 65.9206 57.1473C62.856 58.6529 59.6257 57.0504 57.5438 54.6926C57.3563 54.4823 57.1842 54.2803 57.0027 54.0357L57.8584 53.9617C57.2398 55.1162 56.1607 56.0541 54.8699 56.3537C53.1891 56.7304 51.5487 55.9191 50.2962 54.8753L51.0715 54.7422C50.9762 54.9108 50.8924 55.034 50.7926 55.1713C50.1882 56.0302 49.1093 56.7752 48.0049 56.4196C46.9348 56.134 46.6109 55.168 46.6457 54.1741C46.8555 50.7507 49.3584 46.9239 51.9499 44.779C54.4802 42.6018 57.7735 42.4811 60.7946 43.6221C61.3693 43.8436 61.9191 44.1219 62.4305 44.4579C62.9379 44.8013 63.4136 45.1878 63.7959 45.6954C63.8996 45.8281 63.7534 46.021 63.5993 45.9601C61.9407 45.345 60.4924 44.5058 58.8009 44.1038C55.7905 43.4126 53.38 44.4812 51.3416 46.7189C49.6496 48.48 47.2318 52.4341 47.7227 54.9172C47.785 55.1288 47.8826 55.2675 47.9948 55.3345C48.6165 55.725 49.2938 55.3925 49.7421 54.8795C49.9029 54.7036 50.0816 54.4664 50.1936 54.2656C50.3452 53.9864 50.7329 53.9225 50.9674 54.1354C51.9103 54.9238 53.1961 55.5889 54.4382 55.4264C55.4507 55.2566 56.3247 54.5648 56.86 53.7007C56.8983 53.6395 56.938 53.568 56.9606 53.5238C57.0879 53.276 57.3916 53.1782 57.6397 53.3057C57.7104 53.3419 57.77 53.3943 57.8146 53.4537C58.1019 53.8375 58.4633 54.2322 58.8158 54.5725C60.8708 56.5758 63.5689 57.5379 66.1456 55.892C67.6835 54.9522 68.4014 53.3964 68.3489 51.6097C68.2282 48.4823 66.5089 45.7218 65.3341 42.8788C65.2534 42.7194 65.4772 42.5549 65.6057 42.6864Z" fill="#371A45"/>
</g>
<g id="g426">
<path id="path428" d="M50.0149 51.6844C50.1939 52.6485 50.5256 53.4573 50.9868 54.2815C51.0877 54.4983 50.9937 54.7558 50.7773 54.8569C50.2899 55.0579 49.9784 54.4103 49.8184 54.0583C49.6176 53.5363 49.599 52.9714 49.676 52.4325C49.6919 52.3304 49.8654 51.3981 50.0149 51.6844Z" fill="#371A45"/>
</g>
<g id="g430">
<path id="path432" d="M57.9425 51.0716C58.2798 51.9727 58.2697 53.0501 57.8076 53.9082C57.564 54.3119 56.933 54.0785 57.0038 53.619C57.0318 53.4049 57.1034 53.184 57.175 52.9697C57.4053 52.342 57.6437 51.7354 57.8196 51.0815C57.8324 51.0223 57.9207 51.0157 57.9425 51.0716Z" fill="#371A45"/>
</g>
<g id="g434">
<path id="path436" d="M64.206 57.5869C64.1317 57.5767 64.0595 57.5469 63.9963 57.4968C63.8101 57.3483 63.7797 57.0771 63.9283 56.8907C67.1974 52.7941 61.5522 45.0127 61.4951 44.9348C61.3536 44.7427 61.3953 44.4733 61.5866 44.3322C61.7791 44.1913 62.0485 44.2324 62.1895 44.4238C62.4398 44.7645 68.2783 52.8214 64.6024 57.4288C64.504 57.5521 64.3518 57.607 64.206 57.5869Z" fill="#371A45"/>
</g>
</g>
</g>
</svg>
