<svg width="71" height="126" viewBox="0 0 71 126" fill="none" xmlns="http://www.w3.org/2000/svg">
<path d="M59.7747 52.0736V69.7107C59.7747 72.0603 57.872 73.9629 55.523 73.9629H36.9278C34.5816 73.9629 32.6772 72.0603 32.6772 69.7107V52.0736C32.6772 51.0848 33.0157 50.1709 33.5854 49.4496C33.5911 49.4411 33.5968 49.4354 33.6024 49.4286C34.0256 48.8959 34.577 48.4665 35.208 48.1871C35.7334 47.9536 36.3155 47.823 36.9278 47.823H55.523C56.5998 47.823 57.5818 48.2229 58.3309 48.8817C58.3679 48.9123 58.4031 48.9464 58.4389 48.9794C58.9529 49.4621 59.3453 50.0732 59.5679 50.7616C59.7025 51.1739 59.7747 51.6158 59.7747 52.0736Z" fill="white"/>
<path d="M37.5801 48.3883C35.1892 48.3883 33.2441 50.3329 33.2441 52.7243V69.0592C33.2441 71.45 35.1892 73.3952 37.5801 73.3952H54.872C57.2629 73.3952 59.208 71.45 59.208 69.0592V52.7243C59.208 50.3329 57.2629 48.3883 54.872 48.3883H37.5801ZM54.872 74.5283H37.5801C34.5641 74.5283 32.1104 72.0752 32.1104 69.0592V52.7243C32.1104 49.7083 34.5641 47.2546 37.5801 47.2546H54.872C57.888 47.2546 60.3418 49.7083 60.3418 52.7243V69.0592C60.3418 72.0752 57.888 74.5283 54.872 74.5283Z" fill="#371A45"/>
<path d="M39.9102 46.757L39.5174 47.8223L38.8662 49.5913L38.2681 51.209L38.118 51.6169L36.2476 56.6939C36.2476 56.6939 35.4594 56.7533 34.1295 56.5707C33.7004 56.5106 33.2124 56.4274 32.6769 56.3067C32.6163 56.2923 32.5537 56.2785 32.4912 56.2648C30.7853 55.8675 28.6122 55.1094 26.2333 53.6843C17.3848 48.3897 15.7695 39.5693 15.7695 39.5693L25.2598 34.3228C25.8621 39.7889 29.5131 42.8979 33.0197 44.6376C33.1517 44.7026 33.285 44.7665 33.4163 44.829C33.7285 44.976 34.0356 45.1093 34.3403 45.2356C35.3875 45.6691 36.3834 45.9838 37.2354 46.2134C37.6332 46.3178 37.9985 46.406 38.3232 46.4755C39.2984 46.6894 39.9102 46.757 39.9102 46.757Z" fill="white"/>
<path d="M34.8927 56.084C33.2168 55.9295 30.1036 55.3421 26.5251 53.1997C23.3747 51.3146 21.1619 48.9549 19.623 46.7265L22.2603 46.3808C22.5672 46.3408 22.7852 46.0619 22.7498 45.754L22.4622 43.2793C23.2108 45.4479 23.9927 47.7187 25.2309 49.4847C26.9858 51.9891 30.3854 53.5831 33.0628 53.5831C34.1346 53.5831 35.0914 53.3281 35.7798 52.7727C35.3923 53.855 35.1158 54.964 34.8927 56.084ZM17.7632 43.5064C17.4562 42.8605 17.2095 42.2633 17.0127 41.7369C17.0383 41.7027 17.0605 41.6643 17.0784 41.6231C17.0817 41.6144 17.085 41.6062 17.0883 41.5981C17.2153 41.6399 17.3543 41.6818 17.5029 41.7224L17.7632 43.5064Z" fill="#C3BAC7"/>
<path d="M35.8727 57.2705C34.6155 57.2705 30.6918 57.0149 25.9419 54.1717C16.9766 48.8052 15.2799 40.0414 15.212 39.671L15.1387 39.2702L25.7303 33.4146L25.8233 34.2603C26.9651 44.6398 39.8418 46.1785 39.9718 46.193C40.283 46.2271 40.5077 46.5073 40.4729 46.8178C40.4389 47.1296 40.158 47.3543 39.8475 47.3189C39.7061 47.3038 36.346 46.9175 32.7852 45.1535C28.2949 42.9295 25.5543 39.5056 24.8137 35.2165L16.417 39.859C16.8557 41.5991 19.0583 48.7301 26.5242 53.1991C31.8625 56.3945 36.1636 56.1313 36.2065 56.1282C36.5221 56.1042 36.7897 56.3409 36.8124 56.6526C36.8351 56.9644 36.6016 57.2352 36.2899 57.2585C36.2596 57.261 36.1157 57.2705 35.8727 57.2705Z" fill="#371A45"/>
<path d="M24.5079 53.1123C24.2633 53.1123 24.0373 52.9528 23.9643 52.7064C23.8756 52.4063 24.0468 52.0907 24.3468 52.0021C27.8558 50.9627 30.9623 46.0199 30.776 43.7394C30.7508 43.4279 30.9829 43.154 31.2945 43.1289C31.6066 43.102 31.8805 43.3358 31.9056 43.6474C32.1492 46.6276 28.5475 51.9398 24.6686 53.0889C24.6154 53.1049 24.5611 53.1123 24.5079 53.1123Z" fill="#371A45"/>
<path d="M12.6567 39.0358C12.6969 39.1038 12.7385 39.1736 12.7834 39.2422C12.7601 39.1789 12.7382 39.1169 12.7174 39.059L12.6567 39.0358Z" fill="white"/>
<path d="M25.478 38.2768C23.2951 43.4105 17.9825 42.0092 16.5574 41.3996C13.5858 40.1269 13.0112 37.0298 13.0112 37.0298L16.0621 34.1457L17.4719 32.5441L18.8655 32.3675C20.2263 30.6413 22.8078 28.8572 23.9561 29.8313C23.9561 29.8313 27.3604 33.8524 25.478 38.2768Z" fill="white"/>
<path d="M17.5021 41.7227C17.3535 41.682 17.2145 41.6402 17.0874 41.5983C17.0874 41.5983 17.0874 41.5983 17.0874 41.5978C17.2148 41.6396 17.3535 41.6808 17.5017 41.7215L17.5021 41.7227Z" fill="#998AA0"/>
<path d="M17.5018 41.7207C17.3536 41.6801 17.2149 41.6384 17.0875 41.5972C17.1926 41.3151 17.059 40.998 16.7798 40.8781C15.5839 40.366 14.8645 39.4345 14.4355 38.5713C14.9648 38.7686 15.5913 38.8945 16.272 38.9333C16.4158 38.9417 16.5582 38.9454 16.698 38.9454C16.8327 38.9454 16.9655 38.9417 17.0955 38.9345L17.5018 41.7207ZM21.9116 38.5453L21.8047 37.6234C21.8843 37.7638 21.9777 37.9042 22.0869 38.0441C22.1055 38.0689 22.1248 38.0931 22.1445 38.1173C22.0635 38.2541 21.9843 38.3927 21.9116 38.5453Z" fill="#C3BAC7"/>
<path d="M23.9553 29.8316C22.431 28.5393 18.3854 32.1016 18.0142 33.9426C17.7309 35.3473 19.2071 36.8056 21.5082 35.3374C23.8396 33.8494 26.3492 31.8623 23.9553 29.8316Z" fill="white"/>
<path d="M21.5476 37.0449L21.6491 37.0071C21.5885 36.9412 21.5334 36.8771 21.4819 36.8106C21.5005 36.8869 21.5217 36.9656 21.5476 37.0449Z" fill="white"/>
<path d="M13.0112 37.0335C13.0171 37.064 13.0649 37.3021 13.1879 37.6589L13.2762 37.6924L13.0112 37.0335Z" fill="white"/>
<path d="M25.4775 38.8438C25.4034 38.8438 25.3282 38.8299 25.2556 38.7989C24.9675 38.6762 24.8336 38.3432 24.9562 38.0556C26.5795 34.2381 23.8842 30.6542 23.5542 30.2373C23.2749 30.0388 22.8212 30.1331 22.4828 30.2505C20.8493 30.8171 18.7884 32.9679 18.5694 34.0541C18.5026 34.3852 18.6442 34.68 18.9483 34.8423C19.4294 35.0989 20.3778 35.0078 21.4684 33.9084C21.6885 33.6861 22.0477 33.6848 22.27 33.9051C22.4919 34.1254 22.4934 34.4842 22.273 34.7064C20.7449 36.2465 19.2779 36.3025 18.415 35.8422C17.6678 35.4431 17.2921 34.6537 17.4583 33.8305C17.7784 32.2437 20.1701 29.8535 22.1112 29.1794C23.2548 28.7824 23.9444 29.0798 24.3214 29.3997C24.3452 29.4195 24.3674 29.4419 24.3875 29.4657C24.5357 29.6405 27.9947 33.8075 25.9991 38.4988C25.9075 38.7145 25.6976 38.8438 25.4775 38.8438Z" fill="#371A45"/>
<path d="M16.5566 41.9658C16.4821 41.9658 16.4062 41.9511 16.3336 41.9203C13.0907 40.5313 12.7114 36.8622 12.6968 36.7066C12.6676 36.3949 12.8965 36.1188 13.2083 36.0899C13.5178 36.0598 13.7955 36.2891 13.8251 36.6002C13.8295 36.6421 14.1693 39.7602 16.78 40.8781C17.0676 41.0017 17.2008 41.3343 17.0779 41.6221C16.9855 41.8373 16.7763 41.9658 16.5566 41.9658Z" fill="#371A45"/>
<path d="M65.0837 69.4381C63.2632 62.3238 60.556 56.5433 58.169 52.3277C57.7389 51.5685 50.3639 40.0891 52.5399 57.2328C53.4077 64.0702 57.1297 71.0162 57.1297 71.0162C57.1297 71.0162 54.3076 74.2149 55.4731 75.5192C56.7661 76.9669 58.5094 74.9778 58.5094 74.9778C58.5094 74.9778 59.3496 77.0092 61.7774 77.9773C65.289 79.3779 69.0914 77.1665 69.325 74.3967C69.5592 71.6272 66.0168 73.0835 65.0837 69.4381Z" fill="white"/>
<path d="M64.0329 77.8447C63.3417 77.8447 62.6455 77.7148 61.9871 77.4523C59.8273 76.5913 59.0395 74.7789 59.0326 74.7629C58.9868 74.653 58.9088 74.5621 58.8115 74.5004C58.8258 74.3359 58.8394 74.1705 58.8518 74.0064C58.892 73.9636 58.9267 73.9376 58.9527 73.9352C58.9911 73.9296 59.0295 73.9277 59.0673 73.9277C60.3036 73.9277 61.0995 76.4672 64.0013 77.0556C64.2856 77.1132 64.5662 77.1402 64.8418 77.1402C66.0582 77.1402 67.1843 76.6161 68.1579 75.8941C67.8427 76.3255 67.4147 76.7168 66.8919 77.0399C66.0291 77.5728 65.035 77.8447 64.0329 77.8447Z" fill="#C3BAC7"/>
<path d="M58.5084 74.4119C58.5393 74.4119 58.5702 74.4145 58.6017 74.4199C58.7942 74.4521 58.9569 74.5809 59.032 74.7616C59.039 74.7776 59.8263 76.59 61.9859 77.4511C63.5985 78.0939 65.4319 77.9399 66.8912 77.0386C67.9915 76.3586 68.6723 75.3785 68.7593 74.3491C68.835 73.4505 68.4931 73.2493 67.4931 72.8004C66.4754 72.3443 65.0811 71.7184 64.5335 69.5784C63.0282 63.6965 60.7203 57.9868 57.6749 52.6071C56.8686 51.1831 54.4586 48.1352 53.5179 48.45C53.2737 48.5308 52.1072 49.332 53.1009 57.1609C53.945 63.8119 57.5917 70.68 57.6283 70.7487C57.7399 70.9576 57.7103 71.2137 57.5538 71.3916C56.5507 72.5304 55.3292 74.5098 55.8939 75.142C56.1008 75.373 56.3128 75.4807 56.5614 75.4807H56.5633C57.174 75.4793 57.8674 74.847 58.0825 74.6036C58.1917 74.4809 58.3469 74.4119 58.5084 74.4119ZM64.0313 78.9766C63.1973 78.9766 62.3594 78.8203 61.5657 78.5042C59.8383 77.8147 58.8478 76.6349 58.3633 75.8851C57.926 76.2297 57.2825 76.6104 56.5709 76.6141C56.0018 76.6232 55.4706 76.3688 55.0491 75.8969C53.7854 74.4824 55.6409 71.9241 56.4504 70.9399C55.6838 69.4383 52.7482 63.3835 51.9766 57.3041C51.1735 50.9755 51.5381 47.9131 53.1602 47.3743C55.4592 46.6116 58.6301 51.9938 58.6611 52.0487C61.7563 57.5149 64.102 63.3186 65.6319 69.2977C66.0439 70.9077 67.0161 71.3443 67.9568 71.7664C68.9316 72.2036 70.0363 72.6995 69.8893 74.4448C69.7713 75.8352 68.8962 77.132 67.4868 78.0026C66.4433 78.6477 65.242 78.9766 64.0313 78.9766Z" fill="#371A45"/>
<path d="M54.9349 66.6885C54.8006 66.6885 54.6657 66.6405 54.5574 66.5441C54.3243 66.3358 54.3036 65.9779 54.5118 65.7448C54.6663 65.5714 58.3493 61.515 63.1187 62.2717C63.4276 62.3208 63.6388 62.6107 63.5897 62.9202C63.5406 63.229 63.2483 63.4408 62.9406 63.3911C58.789 62.732 55.3916 66.4619 55.3573 66.4997C55.2455 66.6246 55.0905 66.6885 54.9349 66.6885Z" fill="#371A45"/>
<path d="M29.8524 124.987C29.7813 124.978 29.7102 124.969 29.6387 124.96C29.6283 124.958 29.6176 124.957 29.6072 124.955C29.6176 124.957 29.6283 124.958 29.6387 124.959C29.6829 124.965 29.7275 124.971 29.7717 124.977C29.7986 124.98 29.8255 124.984 29.8524 124.987ZM28.0916 124.742C27.9686 124.725 27.8456 124.706 27.7226 124.688C27.6088 124.67 27.4954 124.653 27.3828 124.636C27.6184 124.672 27.8544 124.707 28.0916 124.742ZM26.9919 124.575C26.9873 124.574 26.9842 124.574 26.9807 124.573C26.9815 124.573 26.9819 124.573 26.9823 124.573C26.9838 124.574 26.9854 124.574 26.9869 124.574C26.988 124.574 26.9907 124.574 26.9919 124.574V124.575ZM26.9588 124.569C26.8912 124.559 26.8232 124.549 26.7559 124.538C25.6785 124.365 24.6199 124.178 23.5813 123.977C24.6852 124.19 25.8111 124.388 26.9588 124.569ZM19.6464 123.13C19.2182 123.029 18.7939 122.924 18.3745 122.817C18.7939 122.924 19.2186 123.029 19.6464 123.13Z" fill="#6B83C7"/>
<path d="M45.8581 126C43.4894 126 41.1594 125.936 38.8775 125.813C41.1594 125.936 43.4894 126 45.8581 126C51.8068 126 57.5149 125.597 62.8143 124.858C57.5149 125.597 51.8068 126 45.8581 126ZM30.2821 125.041C30.139 125.023 29.9959 125.005 29.8527 124.986C29.8257 124.983 29.7988 124.979 29.7718 124.976C29.9419 124.998 30.112 125.02 30.2821 125.041ZM28.9464 124.864C28.6602 124.824 28.3751 124.783 28.0918 124.741C27.8542 124.706 27.6184 124.671 27.3826 124.635C27.2523 124.614 27.1221 124.594 26.9925 124.574H26.9919C26.9907 124.574 26.9884 124.573 26.9872 124.573C26.9884 124.573 26.9907 124.573 26.9925 124.573C27.2347 124.611 27.4782 124.649 27.7234 124.686C28.1281 124.747 28.5364 124.806 28.9464 124.864ZM26.9825 124.572C26.9819 124.572 26.9819 124.572 26.9807 124.572V124.572C26.9731 124.571 26.9661 124.57 26.959 124.568C25.8114 124.387 24.6853 124.19 23.5815 123.976C22.5678 123.781 21.5735 123.572 20.6 123.351C22.5715 123.798 24.6272 124.195 26.7572 124.536C26.8312 124.548 26.9057 124.56 26.9807 124.572C26.9813 124.572 26.9819 124.572 26.9825 124.572ZM19.8363 123.175C19.7731 123.16 19.7097 123.145 19.6465 123.129C19.2187 123.028 18.7942 122.923 18.3747 122.816C18.3371 122.806 18.2995 122.797 18.2619 122.787L18.2616 122.786C18.2236 122.777 18.1853 122.767 18.147 122.757C18.1853 122.767 18.2233 122.777 18.2616 122.786C18.7799 122.919 19.3052 123.049 19.8363 123.175Z" fill="#C39A44"/>
<path d="M42.3741 89.0527C42.2713 89.0527 42.1671 89.0244 42.0736 88.9657C39.8985 87.5996 36.6884 88.2052 36.6558 88.2117C36.3502 88.2717 36.0516 88.0717 35.9906 87.7647C35.9306 87.4577 36.1302 87.1604 36.4372 87.1C36.586 87.0702 40.1157 86.398 42.676 88.0056C42.9411 88.1722 43.0212 88.5224 42.8546 88.7871C42.7472 88.9588 42.5625 89.0527 42.3741 89.0527Z" fill="#371A45"/>
<path d="M46.2309 83.9554C46.2309 83.9554 46.2264 84.2576 46.2264 84.7427C46.2252 84.2623 46.2213 83.9554 46.2213 83.9554V75.2928H46.2309V83.9554ZM55.9071 87.6549C55.9071 87.6549 57.5286 80.7544 58.0868 75.506C58.261 73.8619 58.3492 72.1991 58.3667 70.5443C58.3718 70.0958 58.3718 69.6484 58.3656 69.2028C58.3543 68.131 58.3141 67.0661 58.2525 66.013C57.9465 60.8392 57.0948 55.9794 56.2787 52.2755C55.9682 50.8712 55.6633 49.6326 55.3947 48.6056C54.8563 46.5582 54.4643 45.353 54.4643 45.353H37.9878C37.9878 45.353 37.6157 46.4977 37.0993 48.4506C36.8245 49.4946 36.5083 50.7711 36.1854 52.2274C35.3636 55.9426 34.5062 60.8302 34.2002 66.0339C34.1386 67.0723 34.1001 68.1226 34.0883 69.179C34.0832 69.6286 34.082 70.0794 34.0871 70.5319C34.1041 72.1906 34.1912 73.8579 34.366 75.506C34.9247 80.7544 36.5468 87.6549 36.5468 87.6549C36.5468 87.6549 34.0023 88.4916 33.4209 90.2805C33.3225 90.5828 33.2806 90.9131 33.3163 91.2708C33.3225 91.3369 33.4933 93.9184 40.3841 93.6606C43.3047 93.5511 44.9651 92.9919 45.6766 91.4552C45.9249 90.9157 46.064 89.7596 46.1387 88.5529C46.2128 87.376 46.2264 85.8608 46.2264 84.8975C46.2297 86.6704 46.2965 90.4156 46.7766 91.4552C47.4881 92.9919 49.4732 93.5511 52.3938 93.6606C59.2829 93.9184 59.1297 91.3369 59.1359 91.2708C59.3853 88.8011 55.9071 87.6549 55.9071 87.6549Z" fill="white"/>
<path d="M39.2561 93.1094C39.1182 93.1094 38.982 93.1024 38.8452 93.0966L38.3081 93.0755C37.9504 93.0601 37.6011 93.0101 37.2468 92.9794L36.7288 92.8907C36.643 92.8758 36.5561 92.8634 36.4709 92.8458L36.2197 92.7823C35.5526 92.6235 34.9067 92.3753 34.4341 91.9979C34.1998 91.8128 34.0142 91.5891 33.9256 91.3715C33.9026 91.3189 33.8892 91.2646 33.8825 91.2313L33.8701 91.0346C33.874 90.9382 33.8774 90.8422 33.8914 90.7477C34.3517 91.0616 35.1646 91.3839 36.5976 91.5806C37.429 91.6949 38.2744 91.7584 39.0902 91.7584C41.7543 91.7584 44.1011 91.0817 44.5961 89.277C45.0822 87.503 45.8828 77.9695 43.1884 76.8185C39.0223 75.0379 37.4929 73.6067 38.6512 73.3762C38.7145 73.3633 38.7891 73.3577 38.8777 73.3577C39.6177 73.3577 41.3742 73.7468 46.2253 73.7468C51.0759 73.7468 52.8329 73.3577 53.5724 73.3577C53.6615 73.3577 53.7355 73.3633 53.7989 73.3762C54.9577 73.6067 53.4277 75.0379 49.2622 76.8185C46.5678 77.9695 47.3684 87.503 47.8545 89.277C48.349 91.0813 50.6963 91.7584 53.3599 91.7584C54.1762 91.7584 55.0216 91.6949 55.8524 91.5806C57.2871 91.3835 58.1006 91.0612 58.5603 90.7469C58.5743 90.8437 58.5782 90.9415 58.581 91.04L58.5676 91.2937C58.5653 91.3146 58.5642 91.3358 58.5575 91.3617C58.5536 91.3861 58.5496 91.4113 58.5384 91.4383C58.4768 91.6515 58.3181 91.8753 58.091 92.0581L58.0098 92.1297C57.98 92.1515 57.9458 92.1713 57.9144 92.1925L57.7227 92.3187C57.5792 92.3888 57.439 92.464 57.2893 92.5286L56.8184 92.6984L56.3217 92.8276C55.3625 93.0396 54.3483 93.1039 53.3262 93.1039C52.9052 93.1039 52.4831 93.0929 52.0626 93.0769C51.3439 93.0375 50.6274 92.9733 49.9451 92.8312C49.602 92.7644 49.2734 92.6706 48.9556 92.5622C48.6444 92.445 48.3495 92.3052 48.0911 92.1326C47.8321 91.9614 47.6224 91.7493 47.4592 91.5091C47.4144 91.4518 47.3808 91.3868 47.3477 91.3219L47.295 91.2259C47.2804 91.1938 47.2731 91.1612 47.2613 91.1295L47.2271 91.0339C47.2142 91.005 47.2036 90.9678 47.1958 90.9258L47.1397 90.6867C47.0035 90.0228 46.9457 89.2861 46.8975 88.5645C46.8084 87.1106 46.7865 85.637 46.7949 84.1707L46.7971 75.8604C49.1069 75.7584 50.6481 75.0727 50.6481 75.0727C50.6481 75.0727 49.4596 74.1342 46.2259 74.1342C42.9921 74.1342 41.812 75.0727 41.812 75.0727C41.812 75.0727 43.3459 75.7584 45.6546 75.8604L45.6568 84.1575C45.6658 85.6216 45.6434 87.0934 45.5553 88.5451C45.5082 89.2668 45.4488 89.9997 45.3165 90.667C45.2448 91.0108 45.1724 91.2342 45.0009 91.5069C44.8422 91.7613 44.6415 91.9804 44.396 92.1603C43.9026 92.5191 43.2579 92.7345 42.5801 92.8666C41.8989 92.9973 41.1847 93.0583 40.4643 93.089C40.1043 93.101 39.7438 93.1002 39.3828 93.1072C39.3408 93.1086 39.2981 93.1094 39.2561 93.1094Z" fill="#C3BAC7"/>
<path d="M56.658 52.9152C56.9128 53.6094 57.1172 54.3155 57.296 55.0278C57.477 55.7401 57.628 56.4581 57.7591 57.1806C58.0122 58.6263 58.2404 60.0787 58.4203 61.538C58.7876 64.4553 59.0061 67.3983 58.9987 70.3508C58.9947 73.3 58.6973 76.2656 58.22 79.162C57.9878 80.6134 57.7063 82.0535 57.4152 83.4902C57.1223 84.928 56.8078 86.3552 56.4582 87.785L56.0842 87.1174H56.0847C56.2976 87.1912 56.4684 87.2631 56.654 87.3452C56.8351 87.4266 57.0127 87.5146 57.1875 87.6091C57.5377 87.7982 57.8777 88.0132 58.199 88.268C58.5202 88.5206 58.8216 88.8174 59.0804 89.1645C59.3336 89.5153 59.5453 89.9234 59.6418 90.3731C59.6968 90.5957 59.7122 90.8265 59.7156 91.0539L59.7071 91.2221L59.7019 91.3065C59.6985 91.3517 59.7042 91.3094 59.7008 91.3536C59.6957 91.4255 59.6883 91.4963 59.6753 91.5605C59.6639 91.6273 59.6497 91.693 59.6293 91.7533C59.4817 92.253 59.1679 92.6406 58.8256 92.9235L58.6973 93.0334C58.6536 93.0663 58.6076 93.094 58.5622 93.1247L58.2898 93.302C58.1031 93.3969 57.9158 93.4951 57.7268 93.5762C57.536 93.6455 57.3453 93.7189 57.1535 93.7828L56.5774 93.9335C55.037 94.2708 53.5136 94.2661 52.0049 94.2102C51.2483 94.1683 50.4866 94.1018 49.7198 93.9434C49.3367 93.8682 48.9525 93.7609 48.5705 93.6291C48.1902 93.4868 47.8116 93.3104 47.4546 93.0714C47.0976 92.8345 46.7712 92.5158 46.5209 92.1442C46.4534 92.054 46.4 91.9558 46.3478 91.8566L46.2695 91.708C46.2462 91.6561 46.2275 91.5992 46.2071 91.5448C46.1151 91.3156 46.0788 91.1214 46.0317 90.9206C45.8722 90.1343 45.8194 89.3908 45.7677 88.6385C45.6758 87.1394 45.6542 85.6537 45.6627 84.1626L45.6645 75.2934L46.2315 75.8598H46.2224L46.7894 75.2934L46.7911 84.149C46.8002 85.6383 46.7786 87.1218 46.6878 88.6184C46.6373 89.3689 46.5822 90.1128 46.4284 90.8954C46.3779 91.0988 46.349 91.2868 46.257 91.5164L46.1963 91.681C46.1741 91.7324 46.1475 91.7785 46.1225 91.8273C46.0714 91.923 46.0254 92.0212 45.9619 92.1114C45.7303 92.4833 45.4215 92.8166 45.0713 93.0732C44.3624 93.5853 43.5638 93.8281 42.7999 93.9806C42.0296 94.1277 41.2679 94.1901 40.5136 94.223C40.1356 94.2354 39.7576 94.2354 39.3802 94.242C39.1917 94.2485 39.0016 94.2387 38.8114 94.2311L38.241 94.2084C37.8613 94.1916 37.4782 94.1383 37.0968 94.104L36.5229 94.0069C36.4276 93.9898 36.3317 93.9755 36.2363 93.9558L35.9497 93.8843C35.1897 93.6977 34.4127 93.4247 33.7225 92.8812C33.3836 92.6078 33.0652 92.2595 32.8734 91.7908C32.8251 91.6733 32.7871 91.5488 32.7627 91.4006C32.7502 91.3163 32.7508 91.2718 32.7462 91.2134L32.7383 91.0451C32.7423 90.8177 32.7581 90.5877 32.8138 90.3654C32.9108 89.9164 33.1237 89.5102 33.3762 89.1601C33.6356 88.8141 33.9365 88.518 34.2577 88.2662C34.5784 88.0117 34.9178 87.7971 35.2674 87.6084C35.4423 87.5139 35.6199 87.4262 35.8004 87.3448C35.9854 87.2631 36.1563 87.1912 36.3691 87.1178L36.3697 87.1174L35.9957 87.785C35.642 86.337 35.3236 84.8915 35.0279 83.4358C34.7328 81.9804 34.4501 80.5222 34.2151 79.0519C33.7355 76.1175 33.4449 73.1127 33.454 70.1261C33.454 67.1366 33.6901 64.1579 34.0715 61.2048C34.2588 59.7279 34.4961 58.2585 34.7572 56.7952C35.0222 55.3326 35.3566 53.8818 35.8878 52.4805C35.944 52.3323 36.1092 52.2574 36.2579 52.3136C36.3776 52.3596 36.4491 52.477 36.4418 52.5991C36.3544 54.089 36.1194 55.5397 35.877 56.9905C35.6335 58.4401 35.415 59.8937 35.2447 61.3512C34.8974 64.2663 34.6982 67.1973 34.7243 70.1221C34.7152 70.8543 34.7509 71.5836 34.7674 72.3147L34.8293 73.4079C34.8406 73.59 34.848 73.7722 34.8627 73.9544L34.911 74.4999C35.0245 75.9529 35.2305 77.4037 35.457 78.8544C35.9088 81.7552 36.4798 84.6535 37.099 87.5259L37.2086 88.0347L36.7244 88.1939C36.5876 88.241 36.4174 88.3107 36.2647 88.379C36.1092 88.449 35.9554 88.525 35.8055 88.606C35.5053 88.7677 35.2186 88.9498 34.9609 89.155C34.4427 89.5609 34.038 90.0676 33.9189 90.6173C33.8825 90.7538 33.8763 90.8947 33.8712 91.036L33.8837 91.2327C33.8905 91.2659 33.9035 91.3203 33.9268 91.3729C34.0153 91.5904 34.2009 91.8142 34.4348 91.9993C34.9076 92.3767 35.5535 92.625 36.221 92.7837L36.4719 92.8472C36.557 92.8648 36.6444 92.8771 36.7301 92.8921L37.2477 92.9808C37.6019 93.0115 37.9515 93.0615 38.3097 93.0768L38.8461 93.098C39.0248 93.1056 39.2036 93.1151 39.3841 93.1086C39.7445 93.1017 40.1055 93.1024 40.4654 93.0903C41.1856 93.0597 41.8997 92.9987 42.5808 92.8681C43.259 92.7359 43.9038 92.5205 44.3976 92.1617C44.6428 91.9818 44.8432 91.7627 45.0021 91.5083C45.1735 91.2356 45.2456 91.0122 45.3177 90.6684C45.4499 90.0011 45.5089 89.2681 45.5566 88.5465C45.6446 87.0948 45.6667 85.623 45.6576 84.1589L45.6554 75.2934V74.7269H46.2224H46.2315H46.7985L46.7979 75.2934L46.7956 84.172C46.7877 85.6383 46.8093 87.112 46.8989 88.5659C46.9472 89.2875 47.0045 90.0241 47.1407 90.6881L47.1969 90.9272C47.2049 90.9692 47.2151 91.0064 47.2281 91.0352L47.2622 91.1308C47.2741 91.1626 47.2815 91.1951 47.2963 91.2272L47.3485 91.3233C47.382 91.3882 47.4154 91.4532 47.4609 91.5105C47.6232 91.7507 47.8332 91.9628 48.0926 92.134C48.3508 92.3066 48.6454 92.4465 48.957 92.5636C49.2743 92.672 49.6035 92.7658 49.9463 92.8326C50.6285 92.9746 51.3448 93.0388 52.064 93.0783C53.5039 93.1338 54.9683 93.1283 56.3231 92.829L56.8198 92.6998L57.2903 92.53C57.4401 92.4654 57.5803 92.3902 57.7239 92.3201L57.9158 92.1938C57.947 92.1726 57.981 92.153 58.0111 92.131L58.0923 92.0595C58.3187 91.8767 58.4782 91.6529 58.5401 91.4397C58.5509 91.4127 58.5549 91.3875 58.5588 91.363C58.5656 91.3371 58.5662 91.3159 58.5685 91.2951L58.5821 91.0415C58.5776 90.8998 58.5713 90.7589 58.5361 90.622C58.4181 90.0712 58.014 89.5635 57.4952 89.1568C57.2369 88.9513 56.9497 88.7688 56.6495 88.6067C56.4991 88.5257 56.3458 88.4494 56.1892 88.3793C56.0371 88.311 55.8662 88.241 55.7294 88.1939L55.2441 88.0395L55.3548 87.5259C55.9667 84.6897 56.5297 81.8275 56.9798 78.9634C57.4469 76.0982 57.7285 73.2342 57.7296 70.3418C57.767 67.4539 57.5826 64.5586 57.25 61.6799C56.9514 58.7909 56.3084 55.962 56.1035 53.0316C56.0927 52.8744 56.2113 52.7376 56.3691 52.7268C56.4991 52.7177 56.6149 52.7966 56.6574 52.913L56.658 52.9152Z" fill="#371A45"/>
<path d="M55.7972 88.2104C55.5862 88.1926 55.338 88.1663 55.1057 88.1506C54.8696 88.1327 54.6329 88.1177 54.3951 88.109C53.9212 88.0867 53.4478 88.0885 52.9755 88.1097C52.5032 88.1356 52.0381 88.1998 51.5768 88.2929C51.1154 88.3904 50.6722 88.5404 50.2295 88.7248L50.212 88.7321C50.0668 88.7923 49.9002 88.7237 49.8399 88.5788C49.7901 88.4576 49.8295 88.3214 49.9282 88.2448C50.3473 87.9192 50.8157 87.6432 51.3132 87.4468C51.8113 87.2556 52.3285 87.1088 52.8522 87.0267C53.3755 86.9398 53.9042 86.9029 54.4313 86.9095C54.6943 86.9161 54.9572 86.9299 55.2197 86.9606C55.4854 86.9898 55.7342 87.0285 56.0163 87.0986C56.3204 87.1738 56.5056 87.4811 56.4305 87.7848C56.3626 88.0593 56.1051 88.2374 55.8317 88.2137L55.7972 88.2104Z" fill="#371A45"/>
<path d="M36.4878 87.0987C36.7699 87.0278 37.0192 86.9903 37.2847 86.9579C37.5469 86.9282 37.8096 86.9101 38.0732 86.9046C38.6004 86.8916 39.1295 86.9287 39.6544 87.0098C40.1784 87.0936 40.6983 87.2354 41.1958 87.4314C41.6939 87.6297 42.1641 87.9076 42.576 88.2449C42.6983 88.3445 42.7164 88.5238 42.6168 88.6461C42.5366 88.7439 42.4055 88.7749 42.2939 88.7323L42.2749 88.7249C41.8255 88.5521 41.3835 88.4038 40.923 88.3088C40.4615 88.2199 39.9987 88.1509 39.527 88.1263C39.0563 88.0994 38.5833 88.098 38.1089 88.1143C37.8726 88.1235 37.6349 88.1346 37.3991 88.1532C37.166 88.1662 36.9182 88.193 36.7074 88.2106L36.6722 88.2134C36.3604 88.2394 36.0866 88.0072 36.0606 87.695C36.037 87.4142 36.2228 87.1645 36.4878 87.0987Z" fill="#371A45"/>
<path d="M50.8979 72.002H40.8685C39.8588 72.002 39.0329 71.1427 39.0329 70.0935V69.8619C39.5316 70.5073 40.3131 70.9239 41.1901 70.9239H50.5758C51.4534 70.9239 52.2348 70.5073 52.7336 69.8608V70.0935C52.7336 71.1427 51.9071 72.002 50.8979 72.002ZM37.2921 69.6103C36.4057 69.6108 35.5281 69.5331 34.801 69.4414C34.7749 69.4381 34.7483 69.4336 34.7222 69.4298C34.7233 69.0732 34.7277 68.7166 34.7349 68.36C35.4981 68.4555 36.389 68.5322 37.2866 68.5322C37.6865 68.5322 38.0875 68.5172 38.4796 68.4816C38.5185 68.8554 38.6329 69.207 38.8073 69.5203C38.3175 69.5847 37.8031 69.6103 37.2921 69.6103ZM55.2008 69.6097C54.451 69.6097 53.6951 69.5542 53.0191 69.4048C53.1724 69.0954 53.2691 68.7527 53.294 68.3906C53.9034 68.4922 54.5549 68.5322 55.2025 68.5322C55.2036 68.5322 55.2047 68.5322 55.2053 68.5322C56.089 68.5322 56.9665 68.4578 57.7214 68.3644C57.7291 68.7216 57.733 69.0782 57.7341 69.4353C57.7197 69.4375 57.7047 69.4392 57.6903 69.4414C56.9638 69.5325 56.0862 69.6097 55.2008 69.6097Z" fill="#CDC6D0"/>
<path d="M57.7341 69.4355C57.733 69.0787 57.729 68.7219 57.7212 68.3645C57.7346 68.3628 57.7475 68.3617 57.7604 68.36C57.9651 68.3343 58.1619 68.2817 58.3476 68.2051C58.356 68.5373 58.3622 68.8695 58.3661 69.2034C58.1765 69.3198 57.9639 69.4009 57.7341 69.4355ZM34.7226 69.43C34.491 69.3891 34.2774 69.3035 34.0889 69.1799C34.0928 68.8494 34.0989 68.5188 34.1079 68.1894C34.3042 68.2744 34.5139 68.3326 34.7315 68.36C34.7326 68.36 34.7337 68.36 34.7349 68.3606C34.7276 68.7168 34.7237 69.0731 34.7226 69.43Z" fill="#371A45"/>
<path d="M40.3529 67.4888C38.8121 68.1368 36.4272 68.0013 34.8017 67.7966C33.8264 67.6741 33.142 66.7402 33.2856 65.7308C33.4167 64.8103 34.1972 64.1403 35.0925 64.1842C36.613 64.2579 38.8938 64.2924 40.3381 63.9598L40.3529 67.4888Z" fill="white"/>
<path d="M37.2805 67.3984C36.5512 67.3984 35.7424 67.3442 34.8723 67.2349C34.5658 67.196 34.2899 67.0351 34.0958 66.7807C33.8851 66.5052 33.7967 66.1611 33.8466 65.8109C33.8545 65.7563 33.8654 65.7029 33.8798 65.6509C34.1312 65.8739 34.4473 66.0256 34.8015 66.0702C35.5277 66.1616 36.4065 66.2389 37.294 66.2389C37.6867 66.2389 38.0815 66.2236 38.4649 66.1878V67.3438C38.0994 67.3801 37.7033 67.3984 37.2805 67.3984Z" fill="#C3BAC7"/>
<path d="M35.0092 64.7493C34.4293 64.7493 33.934 65.196 33.8465 65.8108C33.7966 66.161 33.885 66.5053 34.096 66.7808C34.2896 67.0353 34.5657 67.196 34.8724 67.2349C37.1676 67.5233 39.0357 67.4281 40.133 66.9667C40.2818 66.9044 40.404 66.6769 40.4685 66.3427C40.6004 65.657 40.4351 64.85 40.2758 64.5533C38.794 64.8518 36.6412 64.8271 35.0651 64.7502C35.0463 64.7493 35.028 64.7493 35.0092 64.7493ZM37.2862 68.5322C36.3871 68.5322 35.4949 68.4558 34.7309 68.3596C34.1203 68.2827 33.5751 67.9664 33.1947 67.4688C32.8037 66.9575 32.6325 66.2951 32.7246 65.6515C32.8976 64.4343 33.9317 63.5586 35.1196 63.6181C37.3443 63.7262 39.1529 63.652 40.2113 63.408C40.463 63.3494 41.0888 63.3339 41.4472 64.443C41.8139 65.5797 41.7896 67.4995 40.572 68.0113H40.5724C39.6455 68.4013 38.4599 68.5322 37.2862 68.5322Z" fill="#371A45"/>
<path d="M52.1382 67.4887C53.6793 68.1366 56.0639 68.0014 57.6898 67.7968C58.6645 67.6741 59.3491 66.7402 59.2055 65.731C59.0743 64.8101 58.2936 64.1402 57.3987 64.1843C55.8779 64.2578 53.5973 64.2928 52.1529 63.9598L52.1382 67.4887Z" fill="white"/>
<path d="M55.211 67.3984C54.4897 67.3984 53.8465 67.3451 53.3003 67.2401V66.0939C53.8998 66.2017 54.5509 66.2427 55.197 66.2427C56.0839 66.2427 56.9623 66.1647 57.6898 66.0737C58.0435 66.0294 58.36 65.8767 58.6121 65.6527C58.6255 65.7044 58.6362 65.7566 58.6446 65.811C58.694 66.1607 58.6059 66.5054 58.3948 66.781C58.2012 67.0353 57.925 67.1964 57.6185 67.2351C56.7485 67.344 55.9402 67.3984 55.211 67.3984Z" fill="#C3BAC7"/>
<path d="M52.2158 64.5535C52.0566 64.8503 51.8912 65.6564 52.0231 66.3425C52.0873 66.6768 52.2095 66.9041 52.3585 66.9667C53.4562 67.4283 55.3247 67.5238 57.6196 67.235C57.926 67.1963 58.2017 67.0355 58.3955 66.7808C58.6064 66.5051 58.6946 66.1612 58.6451 65.811C58.5576 65.1965 58.0624 64.7491 57.482 64.7491C57.4633 64.7491 57.4451 64.7497 57.4269 64.7502C55.85 64.827 53.6972 64.852 52.2158 64.5535ZM55.2053 68.5322C54.0315 68.5322 52.8462 68.4015 51.919 68.0115C50.702 67.4999 50.6775 65.5802 51.0447 64.4433C51.4029 63.3342 52.0276 63.3501 52.2806 63.4081C53.3385 63.652 55.1468 63.7264 57.3717 63.6184C58.5678 63.5616 59.5939 64.4347 59.7673 65.6512C59.8588 66.2947 59.6877 66.9576 59.2966 67.4692C58.9168 67.9666 58.3711 68.2832 57.7606 68.3594C56.9971 68.4555 56.1046 68.5322 55.2053 68.5322Z" fill="#371A45"/>
<path d="M52.733 62.7941V68.4499C52.733 69.4999 51.906 70.3584 50.8964 70.3584H40.8678C39.8572 70.3584 39.0317 69.4999 39.0317 68.4499V62.7941C39.0317 61.7462 39.8572 60.8877 40.8678 60.8877H50.8964C51.7035 60.8877 52.3935 61.4355 52.638 62.1911C52.6989 62.3811 52.733 62.5837 52.733 62.7941Z" fill="white"/>
<path d="M50.5762 69.79H41.1901C40.3128 69.79 39.5991 69.0764 39.5991 68.1986V66.8547C40.895 67.5251 42.8008 68.2669 44.8927 68.2669C45.783 68.2669 46.7062 68.1329 47.631 67.8019C48.0381 67.6554 48.4598 67.424 48.8648 67.156C49.0421 67.2274 49.2344 67.2665 49.4361 67.2665C50.2035 67.2665 50.8431 66.6994 50.9885 65.9472C50.9885 65.9477 50.989 65.9482 50.989 65.9487C51.0094 65.8435 51.0198 65.7345 51.0198 65.6224C51.0198 65.5385 51.014 65.4561 51.0026 65.3764C51.1532 65.2263 51.2387 65.1345 51.2387 65.1345C51.2387 65.1345 51.3117 67.2671 51.6151 67.2671C51.6172 67.2671 51.6198 67.2671 51.6224 67.2665C51.8653 67.2394 52.0389 66.8714 52.1671 66.3428V68.1986C52.1671 69.0764 51.453 69.79 50.5762 69.79Z" fill="#C3BAC7"/>
<path d="M41.19 61.4547C40.3121 61.4547 39.5984 62.1684 39.5984 63.0458V68.2002C39.5984 69.0776 40.3121 69.7912 41.19 69.7912H50.5755C51.4529 69.7912 52.1665 69.0776 52.1665 68.2002V63.0458C52.1665 62.1684 51.4529 61.4547 50.5755 61.4547H41.19ZM50.5755 70.9248H41.19C39.6872 70.9248 38.4648 69.7025 38.4648 68.2002V63.0458C38.4648 61.5435 39.6872 60.3212 41.19 60.3212H50.5755C52.0778 60.3212 53.3001 61.5435 53.3001 63.0458V68.2002C53.3001 69.7025 52.0778 70.9248 50.5755 70.9248Z" fill="#371A45"/>
<path d="M51.0192 65.623C51.0192 66.5312 50.3101 67.2676 49.4359 67.2676C48.5607 67.2676 47.8521 66.5312 47.8521 65.623C47.8521 64.7144 48.5607 63.978 49.4359 63.978C50.3101 63.978 51.0192 64.7144 51.0192 65.623Z" fill="#22A7F0"/>
<path d="M51.0193 65.6232C51.0193 65.7348 51.009 65.8438 50.9884 65.9492C50.8418 65.1964 50.2016 64.6292 49.4349 64.6292C48.6682 64.6292 48.0285 65.1964 47.8829 65.9492C47.8624 65.8438 47.8516 65.7348 47.8516 65.6232C47.8516 64.7145 48.5607 63.9776 49.4349 63.9776C50.3096 63.9776 51.0193 64.7145 51.0193 65.6232Z" fill="white"/>
<path d="M49.4363 67.2666C48.6699 67.2666 48.0299 66.7011 47.8839 65.9486C47.9137 65.7923 47.9656 65.6438 48.035 65.507C48.3013 66.0288 48.8292 66.384 49.4363 66.384C50.0429 66.384 50.5713 66.0288 50.8371 65.507C50.9065 65.6438 50.9584 65.7913 50.9887 65.947C50.8433 66.7001 50.2033 67.2666 49.4363 67.2666ZM47.8551 65.7152C47.8531 65.6844 47.8525 65.6535 47.8525 65.6217C47.8525 65.4695 47.8731 65.3209 47.9101 65.1816C47.8726 65.322 47.8525 65.47 47.8525 65.6227C47.8525 65.6535 47.8536 65.6849 47.8551 65.7152Z" fill="#2976B4"/>
<path d="M47.8834 65.9492C47.8685 65.8731 47.8587 65.795 47.8546 65.7158C47.8531 65.6854 47.8521 65.6541 47.8521 65.6232C47.8521 65.4705 47.8721 65.3224 47.9096 65.182C47.94 65.2961 47.9822 65.4046 48.0346 65.5075C47.9652 65.6443 47.9132 65.7929 47.8834 65.9492ZM50.9884 65.9477C50.958 65.7919 50.9061 65.6438 50.8367 65.5075C50.8891 65.4046 50.9313 65.2956 50.9616 65.182C50.9987 65.3213 51.0192 65.47 51.0192 65.6222C51.0192 65.7338 51.0084 65.8428 50.9884 65.9477Z" fill="#B9AFBE"/>
<path d="M49.4357 64.4032C48.7969 64.4032 48.2769 64.9505 48.2769 65.6229C48.2769 66.2954 48.7969 66.8422 49.4357 66.8422C50.0745 66.8422 50.5939 66.2954 50.5939 65.6229C50.5939 64.9505 50.0745 64.4032 49.4357 64.4032ZM49.4357 67.6924C48.3281 67.6924 47.4272 66.7641 47.4272 65.6229C47.4272 64.4818 48.3281 63.553 49.4357 63.553C50.5433 63.553 51.4441 64.4818 51.4441 65.6229C51.4441 66.7641 50.5433 67.6924 49.4357 67.6924Z" fill="#371A45"/>
<path d="M44.9484 70.9238C44.6351 70.9238 44.3814 70.6701 44.3814 70.3569V67.4626C44.3814 66.923 44.1359 66.4084 43.7237 66.0865L43.469 65.8871C42.7844 65.3519 42.3755 64.5039 42.3755 63.6184V60.8869C42.3755 60.5737 42.6297 60.32 42.9424 60.32C43.2552 60.32 43.5094 60.5737 43.5094 60.8869V63.6184C43.5094 64.1579 43.7554 64.6725 44.1671 64.9944L44.4218 65.1933C45.1064 65.7286 45.5148 66.5771 45.5148 67.4626V70.3569C45.5148 70.6701 45.2612 70.9238 44.9484 70.9238Z" fill="#371A45"/>
<path d="M40.4059 80.4453C38.5207 80.4453 36.434 80.1178 34.5214 79.0919C34.2452 78.9438 34.1416 78.6001 34.2897 78.3245C34.4373 78.0488 34.7814 77.9447 35.0566 78.0933C39.7896 80.6315 45.9728 78.3865 46.0343 78.364C46.3266 78.255 46.6531 78.4046 46.7626 78.6979C46.8716 78.9917 46.7221 79.3177 46.4283 79.4267C46.2567 79.4902 43.6251 80.4453 40.4059 80.4453Z" fill="#371A45"/>
<path d="M52.0517 80.4453C48.8324 80.4453 46.2012 79.4907 46.0291 79.4264C45.7356 79.3179 45.5863 78.9915 45.6953 78.698C45.8043 78.4051 46.1302 78.2547 46.4231 78.3637C46.4919 78.3889 52.6806 80.6249 57.4008 78.0932C57.6764 77.945 58.0196 78.049 58.1683 78.3246C58.3158 78.6002 58.2124 78.944 57.9369 79.0921C56.024 80.1173 53.9372 80.4453 52.0517 80.4453Z" fill="#371A45"/>
<path d="M41.8135 75.0738C41.8135 75.0738 43.6033 75.874 46.2266 75.874C48.8504 75.874 50.6495 75.0738 50.6495 75.0738C50.6495 75.0738 49.4607 74.1349 46.2266 74.1349C42.993 74.1349 41.8135 75.0738 41.8135 75.0738Z" fill="white"/>
<path d="M46.2266 75.874C43.6033 75.874 41.8135 75.0738 41.8135 75.0738C41.8135 75.0738 42.993 74.1349 46.2266 74.1349C49.4607 74.1349 50.6495 75.0738 50.6495 75.0738C50.6495 75.0738 48.8504 75.874 46.2266 75.874Z" fill="#C3BAC7"/>
<path d="M41.2666 74.746C42.0784 74.9534 42.9342 75.1075 43.773 75.2159C44.6174 75.3165 45.4634 75.3767 46.31 75.3731C46.7322 75.3689 47.156 75.3627 47.5782 75.3279C48.002 75.3113 48.4226 75.2543 48.8454 75.2102C49.6841 75.1013 50.54 74.9488 51.3538 74.746L51.371 74.7418C51.524 74.7039 51.678 74.7963 51.7164 74.9493C51.7475 75.0748 51.69 75.2019 51.5841 75.2636C51.1728 75.5048 50.7599 75.6724 50.331 75.8316C49.902 75.981 49.4652 76.1112 49.0207 76.2071C48.5772 76.3088 48.127 76.3783 47.6747 76.4302C47.2213 76.4784 46.7659 76.4981 46.31 76.5049C45.3981 76.4966 44.4867 76.4048 43.5992 76.2046C43.1552 76.1086 42.7184 75.9779 42.2895 75.829C41.86 75.6713 41.4471 75.5033 41.0353 75.2636C40.8994 75.1848 40.8532 75.0105 40.932 74.8741C40.9979 74.762 41.1286 74.7107 41.2484 74.7413L41.2666 74.746Z" fill="#371A45"/>
<path d="M65.2095 40.8575C65.0129 40.8405 64.8694 40.6616 64.8884 40.4578L65.8909 29.8362C65.9099 29.6324 66.0849 29.481 66.2815 29.4981C68.3422 29.6757 69.8493 31.5516 69.6475 33.6884L69.3055 37.3107C69.1043 39.4474 67.2703 41.0351 65.2095 40.8575Z" fill="white"/>
<path d="M65.2178 40.7562C67.2137 40.9281 69.0083 39.3788 69.2044 37.3009L69.5461 33.6789C69.6438 32.6459 69.3395 31.6482 68.6895 30.8697C68.0749 30.1318 67.2156 29.6812 66.2725 29.5998C66.1288 29.5867 66.0062 29.6982 65.9924 29.8458L64.9901 40.4683C64.9829 40.5417 65.0046 40.6132 65.0505 40.6683C65.0938 40.7195 65.1528 40.7503 65.2178 40.7562ZM65.5227 40.9727C65.4158 40.9727 65.3083 40.9687 65.2007 40.9589C65.0807 40.949 64.9718 40.892 64.8944 40.7982C64.8131 40.7011 64.775 40.5771 64.7875 40.4486L65.789 29.8268C65.814 29.5684 66.037 29.3742 66.2902 29.3972C67.2878 29.4831 68.1962 29.9593 68.8462 30.7392C69.531 31.5597 69.8511 32.6105 69.7488 33.698L69.407 37.3199C69.2109 39.3972 67.5023 40.9727 65.5227 40.9727Z" fill="#371A45"/>
<path d="M65.7529 40.2959C65.9574 39.7187 66.1319 39.1303 66.2746 38.5307C66.332 38.3187 66.3856 38.1062 66.4361 37.8905C67.3555 37.7833 68.1907 37.3283 68.7997 36.6464L68.7417 37.2572C68.5859 38.9084 67.2925 40.18 65.7529 40.2959Z" fill="#C3BAC7"/>
<path d="M65.473 40.3045C65.4895 40.3045 65.506 40.3045 65.5231 40.3045C67.1624 40.3045 68.5783 38.9901 68.7417 37.2572L69.0837 33.6354C69.1693 32.7268 68.9031 31.8498 68.3332 31.1672C67.8424 30.5795 67.1756 30.2007 66.437 30.088L65.473 40.3045ZM65.5231 41.4385C65.4032 41.4385 65.2826 41.4332 65.1607 41.4227C64.9169 41.4016 64.6956 41.2856 64.5374 41.0965C64.376 40.9035 64.3009 40.6577 64.3246 40.4054L65.3268 29.7836C65.3755 29.2717 65.8255 28.8908 66.3302 28.9336C67.453 29.0305 68.4729 29.5662 69.2036 30.4412C69.9685 31.3577 70.3263 32.5298 70.2117 33.7421L69.8704 37.364C69.6516 39.6806 67.7389 41.4385 65.5231 41.4385Z" fill="#371A45"/>
<path d="M32.4664 26.5844C32.6632 26.6019 32.8067 26.7806 32.7873 26.9841L31.7853 37.6062C31.766 37.8098 31.5911 37.9615 31.3947 37.9439C29.3342 37.7666 27.827 35.8906 28.0289 33.7536L28.3705 30.1316C28.572 27.9953 30.4059 26.4071 32.4664 26.5844Z" fill="white"/>
<path d="M32.1539 26.6725C30.2784 26.6725 28.6588 28.1691 28.4726 30.1407L28.1306 33.7628C28.0331 34.7966 28.3372 35.7939 28.9869 36.5725C29.6023 37.31 30.4608 37.7608 31.4041 37.8424C31.5479 37.8552 31.671 37.7439 31.6845 37.5961L32.6868 26.9741C32.6938 26.8998 32.6722 26.829 32.6258 26.7737C32.5831 26.7224 32.5236 26.6914 32.4583 26.686C32.3564 26.6772 32.255 26.6725 32.1539 26.6725ZM31.4253 38.0469C31.4125 38.0469 31.3997 38.0462 31.3866 38.0449C30.3886 37.9592 29.4812 37.4828 28.8303 36.7028C28.1459 35.8823 27.8254 34.8317 27.9279 33.7439L28.2696 30.1218C28.4762 27.9329 30.3649 26.302 32.4758 26.4828C32.5955 26.493 32.7043 26.5503 32.7821 26.6434C32.8635 26.7406 32.9015 26.8648 32.8894 26.993L31.8874 37.615C31.864 37.8606 31.6607 38.0469 31.4253 38.0469Z" fill="#371A45"/>
<path d="M31.0086 37.3105C30.3627 37.1594 29.7826 36.8008 29.3439 36.2752C28.7741 35.5928 28.5076 34.7162 28.5934 33.8073L28.6511 33.1957C29.1434 33.9161 29.8739 34.4556 30.7385 34.6852C30.7676 35.57 30.8581 36.4472 31.0086 37.3105Z" fill="#C3BAC7"/>
<path d="M32.154 27.1379C30.515 27.1379 29.0991 28.4528 28.9355 30.1851L28.5935 33.807C28.5077 34.7159 28.7742 35.5929 29.344 36.2754C29.8346 36.863 30.5019 37.2419 31.2403 37.3551L32.2043 27.1386C32.1875 27.1379 32.1707 27.1379 32.154 27.1379ZM31.4254 38.5127C31.3994 38.5127 31.3731 38.5113 31.3469 38.5086C30.2244 38.4124 29.2042 37.877 28.4738 37.0013C27.709 36.085 27.3509 34.9125 27.4652 33.7006L27.8068 30.0787C28.0372 27.6367 30.1525 25.8143 32.5153 26.0203C32.7595 26.0413 32.9811 26.1565 33.1392 26.3456C33.3005 26.5388 33.376 26.7841 33.3527 27.0369L32.3503 37.6594C32.3044 38.1447 31.8977 38.5127 31.4254 38.5127Z" fill="#371A45"/>
<path d="M58.4052 51.6338C58.1744 51.2735 57.8029 50.718 57.3447 50.1225C57.5676 49.9964 57.7877 49.8658 58.005 49.7301C58.4164 50.1602 58.7407 50.6752 58.9478 51.2448C58.7688 51.3782 58.5881 51.5077 58.4052 51.6338Z" fill="#C3BAC7"/>
<path d="M58.9474 51.2441C58.74 50.6741 58.4158 50.1595 58.0044 49.7294C58.2452 49.5798 58.4821 49.4245 58.7156 49.2636C59.0947 49.6937 59.3871 50.2014 59.5679 50.7602C59.3644 50.9262 59.1576 51.0877 58.9474 51.2441Z" fill="#371A45"/>
<path d="M56.5306 52.7627C56.4885 52.7389 56.4398 52.7256 56.3883 52.7256C56.3849 52.7256 56.3805 52.7256 56.3772 52.7256C56.344 52.5739 56.3118 52.4244 56.2786 52.276C56.1679 51.7743 56.0577 51.2937 55.9497 50.8363C56.0732 50.7798 56.195 50.7228 56.3168 50.663C56.7593 51.2134 57.1624 51.7787 57.4564 52.2444C57.153 52.4266 56.844 52.5999 56.5306 52.7627Z" fill="#C3BAC7"/>
<path d="M57.4567 52.2441C57.1624 51.778 56.7595 51.2129 56.3169 50.6623C56.6649 50.4933 57.0079 50.3131 57.3448 50.1223C57.8025 50.7177 58.174 51.2733 58.4046 51.6337C58.0946 51.8474 57.7784 52.0511 57.4567 52.2441Z" fill="#371A45"/>
<path d="M36.7353 49.8818C36.1898 49.3514 35.6799 48.7846 35.208 48.1867C34.5348 47.3364 33.9391 46.4237 33.4287 45.4591C34.0071 45.7221 34.5755 45.9489 35.1205 46.1456C35.7507 46.8951 36.4339 47.5855 37.1633 48.2124C37.1427 48.2904 37.1215 48.3701 37.0998 48.4509C36.9844 48.8883 36.8624 49.367 36.7353 49.8818Z" fill="#C3BAC7"/>
<path d="M35.1207 46.1455C34.5758 45.9493 34.0074 45.7221 33.4288 45.459C33.286 45.1891 33.1499 44.9153 33.02 44.6375C33.1522 44.7027 33.2854 44.7663 33.417 44.8287C33.7285 44.976 34.036 45.1092 34.3408 45.2352C34.3706 45.2476 34.4004 45.2599 34.4302 45.2717C34.6523 45.5714 34.8828 45.8627 35.1207 46.1455Z" fill="#371A45"/>
<path d="M48.6076 54.7217C47.7136 54.7217 46.8087 54.65 45.8994 54.5039C43.0287 54.0422 40.4404 52.8801 38.2683 51.2098C37.7311 50.7978 37.2195 50.3547 36.7354 49.8831C36.8623 49.3677 36.9843 48.8895 37.0997 48.4518C37.1216 48.3709 37.1424 48.291 37.1632 48.2133C39.6109 50.318 42.5779 51.7099 45.8086 52.2302C46.7441 52.3812 47.6753 52.4539 48.5955 52.4539C51.1751 52.4539 53.6716 51.8806 55.9503 50.8367C56.0581 51.2941 56.1686 51.7744 56.2796 52.2767C56.3125 52.4249 56.3447 52.5743 56.3776 52.7258C56.3748 52.7264 56.3716 52.7264 56.3688 52.7264C56.2293 52.7362 56.1199 52.8446 56.1046 52.9786C53.7996 54.1018 51.2495 54.7217 48.6076 54.7217Z" fill="#C3BAC7"/>
<path d="M56.1045 52.9775C56.1198 52.8433 56.2295 52.7348 56.3692 52.7254C56.3719 52.7249 56.3747 52.7249 56.378 52.7249C56.3813 52.7249 56.3856 52.7249 56.3889 52.7249C56.4405 52.7249 56.4892 52.738 56.5314 52.7622C56.39 52.8361 56.2475 52.9074 56.1045 52.9775Z" fill="#371A45"/>
<path d="M66.1329 36.5066C64.508 46.4191 55.4492 53.2084 45.8991 51.6704C36.349 50.1323 29.9241 40.8496 31.5485 30.9371C33.1733 21.0246 42.2323 14.2353 51.7823 15.7734C61.3324 17.3114 67.7578 26.5941 66.1329 36.5066Z" fill="white"/>
<path d="M49.0852 15.659C40.6398 15.659 33.109 22.045 31.6489 30.9537C30.8466 35.849 31.969 40.7167 34.8104 44.661C37.5017 48.3962 41.4454 50.8499 45.915 51.5693C46.8136 51.7147 47.71 51.7844 48.5951 51.7844C57.0413 51.7852 64.5717 45.3977 66.0316 36.4898C66.8343 31.5944 65.7116 26.726 62.8705 22.7825C60.1784 19.0472 56.2349 16.5936 51.7659 15.8741C50.8666 15.7287 49.9703 15.659 49.0852 15.659ZM48.5951 51.9883C47.6987 51.9883 46.7926 51.9171 45.8821 51.7709C41.3593 51.0417 37.3685 48.5596 34.645 44.7794C31.7722 40.7916 30.6367 35.87 31.4478 30.9207C33.079 20.9681 42.209 14.1287 51.7982 15.6725C56.3211 16.401 60.3119 18.8839 63.0353 22.6633C65.9087 26.6511 67.0441 31.5734 66.2332 36.5228C64.7568 45.5296 57.138 51.9883 48.5951 51.9883Z" fill="#371A45"/>
<path d="M48.5952 51.3203C47.7341 51.3198 46.8632 51.2514 45.9889 51.1107C42.494 50.5481 39.3296 48.8944 36.8623 46.3792C39.324 48.0819 42.6231 49.638 46.3039 50.1366C47.3977 50.2844 48.465 50.3512 49.4965 50.3512C52.1011 50.3512 54.4751 49.9259 56.4586 49.3186C54.0702 50.6038 51.3834 51.3203 48.5952 51.3203Z" fill="#B9AFBE"/>
<path d="M49.0866 16.1225C40.8647 16.1225 33.5309 22.3473 32.1084 31.0275C31.3262 35.8006 32.4198 40.5452 35.1885 44.3875C37.8072 48.0221 41.6429 50.4091 45.9893 51.1089C55.2143 52.5951 64.0021 46.0024 65.5741 36.4132C66.3559 31.6407 65.2625 26.8962 62.4933 23.0531C59.8753 19.4185 56.039 17.0315 51.6925 16.3317C50.8181 16.191 49.9475 16.1225 49.0866 16.1225ZM48.596 52.4521C47.6756 52.4521 46.7448 52.3792 45.8087 52.2279C41.1633 51.4799 37.0647 48.9312 34.2686 45.0505C31.3228 40.9613 30.1585 35.9165 30.9896 30.8438C32.6622 20.6398 42.0305 13.6279 51.8731 15.2127C56.5191 15.9607 60.6173 18.5102 63.4136 22.3902C66.3589 26.4793 67.5238 31.5241 66.6923 36.5968C65.179 45.8316 57.3627 52.4521 48.596 52.4521Z" fill="#371A45"/>
<path d="M66.0022 36.9579C65.4774 40.4786 63.8895 43.5867 61.6039 46.0179C59.8896 47.8401 53.557 50.5469 46.3805 49.5744C39.7266 48.6726 34.2281 44.1194 33.1185 41.8881C31.6379 38.9107 31.0239 35.4834 31.5485 31.9634C32.9363 22.6477 41.2239 19.9044 50.7388 21.2839C60.253 22.6634 67.3903 27.6429 66.0022 36.9579Z" fill="#371A45"/>
<path d="M46.3541 21.5264C40.7635 21.5264 33.4183 23.2596 32.1089 32.0462C31.6187 35.3377 32.1433 38.6528 33.626 41.6354C34.6754 43.7453 40.0065 48.1386 46.4569 49.0127C53.6094 49.9817 59.6752 47.241 61.1907 45.6291C63.4812 43.1938 64.9511 40.1662 65.4413 36.8747C65.9465 33.4854 65.3014 30.5549 63.524 28.1645C61.0944 24.8979 56.6455 22.7131 50.6575 21.8447C49.5122 21.6784 48.0095 21.5264 46.3541 21.5264ZM49.4973 50.3506C48.4655 50.3506 47.398 50.2842 46.3042 50.1358C39.3671 49.1961 33.7862 44.5031 32.6112 42.1399C31.0248 38.9489 30.463 35.4012 30.9879 31.8792C31.6731 27.2811 33.9808 23.9924 37.8472 22.1037C41.2159 20.4583 45.7019 19.9809 50.8194 20.723C57.1129 21.6349 61.8201 23.9746 64.4331 27.4881C66.3974 30.1289 67.1138 33.3434 66.5623 37.0416C66.0378 40.563 64.4659 43.801 62.0163 46.4061C60.5564 47.9581 55.6772 50.3506 49.4973 50.3506Z" fill="#371A45"/>
<path d="M60.1012 38.0205C59.9242 38.0205 59.7484 37.9923 59.5785 37.9339C58.4041 37.5318 57.9063 35.8385 58.4663 34.1523C58.9448 32.7111 60.0409 31.7413 61.0831 31.7413C61.2595 31.7413 61.4353 31.7695 61.6059 31.8279C62.5545 32.1531 63.0618 33.321 62.9259 34.6474C62.6796 35.4068 62.3922 36.1464 62.067 36.8634C61.5225 37.5844 60.799 38.0205 60.1012 38.0205Z" fill="#9B8DA2"/>
<path d="M56.7548 42.2295C56.5925 42.2295 56.4313 42.1932 56.2815 42.1165C55.6797 41.8079 55.4816 40.9652 55.839 40.2337C56.1072 39.6849 56.6121 39.3548 57.1015 39.3548C57.2639 39.3548 57.425 39.3911 57.5749 39.4678C58.1767 39.7764 58.3747 40.6191 58.0179 41.3506C57.7497 41.8994 57.2449 42.2295 56.7548 42.2295Z" fill="#9B8DA2"/>
<path d="M49.4719 49.2148C48.4964 49.2148 47.4873 49.1522 46.4564 49.0124C44.5081 48.7485 42.6627 48.1635 41.0059 47.4176C41.5836 47.4512 42.1568 47.4677 42.7214 47.4677C50.1538 47.4683 56.2936 44.6725 58.1529 42.6945C59.753 40.9935 61.0833 39.0307 62.066 36.8634C62.3345 36.5086 62.5594 36.0845 62.717 35.6089C62.8252 35.2858 62.8931 34.9626 62.9254 34.6473C63.2849 33.5386 63.5579 32.3864 63.7347 31.1972C63.8593 30.3642 63.9293 29.5589 63.9484 28.7806C65.4014 31.0521 65.9033 33.7708 65.441 36.8746C64.9503 40.1658 63.4808 43.1938 61.1901 45.6289C59.8928 47.0086 55.2634 49.2148 49.4719 49.2148Z" fill="#1C1A31"/>
<path d="M49.4398 49.7793C48.4453 49.7793 47.4221 49.7161 46.3797 49.5749C43.8461 49.2321 41.4803 48.3594 39.46 47.2857C39.9792 47.3442 40.4951 47.3882 41.0057 47.4181C42.6625 48.1644 44.5085 48.7488 46.4562 49.0131C47.4874 49.1522 48.4965 49.2148 49.4718 49.2148C55.2631 49.2148 59.8929 47.0087 61.1903 45.6295C63.4809 43.1937 64.9508 40.1662 65.4414 36.8751C65.9033 33.7711 65.4014 31.0525 63.9482 28.7812C63.9569 28.443 63.9562 28.1102 63.9462 27.7826C65.7409 30.1731 66.5584 33.2166 66.0012 36.9577C65.4766 40.4784 63.8883 43.5865 61.6037 46.0175C60.1379 47.5759 55.2971 49.7793 49.4398 49.7793Z" fill="#1C1A31"/>
<path d="M62.0669 36.8633C62.3918 36.1462 62.6792 35.4066 62.9255 34.6471C62.8937 34.962 62.8251 35.2857 62.7173 35.6087C62.5601 36.0845 62.335 36.5085 62.0669 36.8633Z" fill="#3B3D4D"/>
<path d="M65.7377 29.1426C65.5777 29.1426 65.4192 29.075 65.3073 28.9441C65.2964 28.9317 65.284 28.9157 65.2745 28.9027L65.2266 28.8219C62.9567 24.1871 57.7133 20.9561 50.8391 19.9593C43.9279 18.9574 37.9549 20.6427 34.4558 24.5833L34.4072 24.6313C34.1849 24.8305 33.8429 24.8232 33.629 24.6095C33.4111 24.3914 33.4074 24.0402 33.6188 23.8185C37.3771 19.5958 43.7127 17.7811 51.002 18.8375C58.2411 19.8873 63.7906 23.3357 66.2328 28.2999C66.3615 28.5311 66.3142 28.8278 66.1063 29.0059C65.9994 29.0975 65.8678 29.1426 65.7377 29.1426Z" fill="#371A45"/>
<path d="M34.5914 38.0654C34.5914 38.0654 33.1806 28.4726 38.4985 25.5023C41.3706 23.8984 44.6932 23.4554 47.1063 23.4554C49.1622 23.4554 50.557 23.7766 50.4518 23.9766C50.4518 23.9766 42.566 24.7838 38.6626 30.5887C35.6529 35.0646 34.5914 38.0654 34.5914 38.0654Z" fill="#9B8DA2"/>
<path d="M22.1864 45.8174L18.739 46.2695L17.7769 39.6732L16.2766 29.3816L12.1646 1.18878L16.9297 0.565117L20.248 29.1318L21.4012 39.0571L22.1864 45.8174Z" fill="#E0772F"/>
<path d="M18.6228 39.7314C18.5334 39.7314 18.4444 39.7295 18.3564 39.7255L18.2162 38.7664C18.836 38.6076 19.3496 38.3461 19.6985 37.999C20.2205 37.4812 20.2804 36.9575 20.2384 36.6097C20.1862 36.1782 19.9559 35.8067 19.7008 35.5175C19.9197 35.4951 20.1534 35.4371 20.3976 35.3389L20.8587 39.3066C20.1713 39.5806 19.4153 39.7314 18.6228 39.7314ZM19.3325 31.8219C18.7021 31.5038 17.9016 31.2903 17.1101 31.1816L16.8188 29.1837C17.3862 29.0071 17.9925 28.9123 18.6228 28.9123C18.9769 28.9123 19.3244 28.9426 19.6613 29.0005L19.9216 31.2396C19.7153 31.4273 19.5171 31.623 19.3325 31.8219Z" fill="#AD5B36"/>
<path d="M16.2973 25.6045L16.0049 23.5996C17.0018 23.4823 17.9958 23.3526 18.989 23.209L19.2226 25.2209L16.2973 25.6045Z" fill="#AD5B36"/>
<path d="M12.8077 1.67799L19.2178 45.6371L21.5581 45.3302L16.4324 1.20301L12.8077 1.67799ZM18.7371 46.8379C18.4601 46.8379 18.2181 46.6347 18.1772 46.3529L11.6031 1.27242C11.5812 1.1219 11.6206 0.969707 11.7122 0.848457C11.8035 0.727203 11.94 0.648602 12.0904 0.628532L16.8554 0.00471115C17.0069 -0.0145226 17.1584 0.0264511 17.2777 0.120106C17.3975 0.212925 17.4745 0.350071 17.4921 0.501427L22.7488 45.7541C22.7841 46.0619 22.5662 46.3412 22.2593 46.3813L18.8113 46.8329C18.7864 46.8362 18.7616 46.8379 18.7371 46.8379Z" fill="#371A45"/>
<path d="M30.2674 5.64325L31.8768 17.9309C32.0206 19.0295 31.2708 20.1713 30.206 20.4447C21.7185 22.5289 13.1944 23.6438 4.45646 23.8163C3.35579 23.8269 2.33731 22.9171 2.19343 21.8184L0.584129 9.53079C0.440086 8.43052 1.18993 7.28957 2.25634 7.01776C10.744 4.93279 19.268 3.81626 28.006 3.64536C28.6098 3.63803 29.1916 3.91147 29.6129 4.34034C29.9618 4.69191 30.2024 5.14764 30.2674 5.64325Z" fill="#E0772F"/>
<path d="M28.0242 4.2108C28.0198 4.2108 28.015 4.2108 28.0107 4.2108C19.2694 4.38242 10.8873 5.48079 2.39127 7.5664C1.61113 7.76662 1.03857 8.63209 1.14645 9.45587L2.75576 21.7439C2.86282 22.5628 3.63119 23.2493 4.43732 23.2493C4.44173 23.2493 4.44648 23.2493 4.45081 23.2493C13.191 23.0777 21.5724 21.9801 30.0672 19.8945C30.8517 19.6918 31.4229 18.8264 31.3152 18.0042L29.7058 5.71617C29.5985 4.89647 28.8306 4.2108 28.0242 4.2108ZM4.4428 24.3828C3.06787 24.3828 1.81217 23.2705 1.63173 21.891L0.0224928 9.60297C-0.15918 8.21611 0.77967 6.80963 2.11545 6.46721C10.6994 4.35954 19.1625 3.25136 27.9939 3.07728C28.0023 3.07728 28.0107 3.07728 28.0187 3.07728C29.3937 3.07728 30.6491 4.18956 30.8298 5.56906L32.4392 17.8571C32.6209 19.244 31.6818 20.6505 30.3461 20.9929L30.3407 20.9945C21.7621 23.1006 13.2991 24.2087 4.46764 24.3828C4.45963 24.3828 4.45121 24.3828 4.4428 24.3828Z" fill="#371A45"/>
<path d="M7.91322 13.571L7.82376 12.7116C7.81102 12.6124 7.80659 12.5208 7.80109 12.4216C7.80109 12.3597 7.81682 12.3033 7.8314 12.2399C7.84162 12.2002 7.87665 12.172 7.9223 12.1666C8.21692 12.1201 8.49902 12.0369 8.79067 11.9682C8.81227 11.9575 8.84257 11.9529 8.86554 11.9506L9.34297 11.888C9.43387 11.8758 9.47692 11.9087 9.50394 11.998C9.50577 12.0132 9.50867 12.0354 9.52585 12.0491C9.5547 12.0911 9.56057 12.1369 9.55981 12.1911C9.55432 12.2071 9.55722 12.23 9.55943 12.2453L9.69453 12.8055C9.70033 12.8513 9.71315 12.8879 9.71895 12.9337L9.83871 13.9664C9.84856 14.042 9.85108 14.1191 9.85329 14.1954C9.88359 14.6618 9.95954 15.1228 10.0285 15.5914C10.0614 15.8418 10.1103 16.0975 10.1734 16.344C10.1771 16.3738 10.1887 16.4035 10.1928 16.4333L10.2731 17.0477C10.2829 17.1233 10.2749 17.1782 10.203 17.2187C10.2059 17.2416 10.2088 17.2645 10.2033 17.2805C10.1971 17.3507 10.1643 17.3935 10.0972 17.4103C9.96831 17.4271 9.8394 17.4439 9.71895 17.4675C9.45471 17.5095 9.19772 17.5507 8.93454 17.6011C8.84364 17.6125 8.76334 17.6461 8.67205 17.6583C8.52169 17.6858 8.47788 17.6454 8.45888 17.5011C8.42201 17.221 8.37789 16.9409 8.34209 16.6684L8.21547 15.9372C8.21433 15.9295 8.20486 15.915 8.20303 15.8998C8.15739 15.9059 8.11105 15.9044 8.06541 15.9105L7.06011 16.0654L7.06813 16.1257C7.11087 16.4516 7.1459 16.7783 7.19628 17.1034C7.21528 17.2477 7.24047 17.3828 7.26597 17.5187L7.27406 17.579C7.27078 17.6721 7.23788 17.7148 7.15537 17.7339C7.10316 17.7484 7.04477 17.7713 6.99081 17.7705C6.81518 17.7858 6.65131 17.8301 6.4885 17.8827C6.47354 17.8843 6.45927 17.8942 6.45164 17.895C6.15702 17.9415 5.87491 18.0247 5.57739 18.0484L5.56976 18.0491C5.46351 18.0629 5.41207 18.0232 5.39085 17.9186L5.35986 17.6835C5.29086 17.2141 5.22186 16.7455 5.13645 16.2707C5.08424 15.9303 5.01013 15.6013 4.94258 15.2632C4.91923 15.1426 4.90358 15.0213 4.88862 14.9075C4.81557 14.4084 4.74329 13.9168 4.67872 13.4237C4.65208 13.2192 4.6404 13.0123 4.62102 12.807C4.61628 12.7689 4.613 12.746 4.594 12.7177C4.53851 12.6483 4.56118 12.5834 4.6243 12.5368C4.64582 12.5261 4.67544 12.5147 4.69803 12.5116L5.57556 12.3811C5.77851 12.401 5.98658 12.3429 6.19541 12.346C6.24937 12.3468 6.30158 12.3323 6.35455 12.3254C6.45415 12.3201 6.50346 12.3445 6.52499 12.4498C6.55819 12.5841 6.58452 12.7269 6.60345 12.8711C6.6294 13.1299 6.68413 13.3695 6.74733 13.6153C6.78121 13.7573 6.80022 13.9015 6.81884 14.0458L6.83273 14.1519C7.20979 14.087 7.58028 14.0305 7.95848 13.9733C7.93947 13.8298 7.93031 13.7 7.91322 13.571Z" fill="white"/>
<path d="M14.0646 13.7978C14.0613 13.714 14.0288 13.641 13.9744 13.5788C13.9018 13.4958 13.8236 13.4289 13.7247 13.3797C13.6513 13.3513 13.5758 13.3613 13.5094 13.3851C13.4583 13.4074 13.4149 13.4281 13.3696 13.4343C13.3002 13.4358 13.2426 13.4666 13.1932 13.5034C13.0407 13.6318 12.9305 13.7924 12.8615 13.9715C12.8381 14.0283 12.8308 14.0906 12.8312 14.1528C12.8268 14.2381 12.8388 14.3288 12.8432 14.421C12.8469 14.5671 12.929 14.6639 13.0261 14.7592C13.1217 14.8391 13.2403 14.8622 13.3524 14.8937C13.5462 14.9613 13.6985 14.8867 13.8295 14.7699C14.0142 14.5909 14.1015 14.3719 14.0978 14.1098C14.0898 14.0491 14.0894 13.9876 14.0806 13.9192L14.0646 13.7978ZM16.0054 14.5463C15.9714 14.8745 15.8908 15.2011 15.7616 15.5115C15.6028 15.8866 15.3933 16.2301 15.1163 16.529C14.8994 16.758 14.6253 16.9018 14.3311 17.0093C14.0956 17.0939 13.8584 17.11 13.6098 17.0962C13.3681 17.0739 13.1345 17.0585 12.8936 17.0432C12.8473 17.0416 12.7998 17.0324 12.7523 17.0232L12.1062 16.7995C11.9522 16.7427 11.8237 16.6435 11.6883 16.5536L11.3806 16.3238C11.2532 16.2332 11.1604 16.114 11.0743 15.9865C10.8618 15.6599 10.7137 15.2933 10.648 14.909C10.5786 14.5555 10.5468 14.1974 10.6151 13.8339C10.6563 13.6203 10.6815 13.4005 10.7078 13.1891C10.7465 12.9524 10.8257 12.7342 10.9374 12.5267C11.0754 12.2854 11.2133 12.0433 11.4028 11.8412C11.6675 11.5676 11.962 11.344 12.3143 11.2056C12.4161 11.1611 12.5213 11.1395 12.6399 11.1626C12.664 11.1672 12.6942 11.1634 12.7245 11.1595C12.837 11.1372 12.9509 11.1219 13.0571 11.108C13.1859 11.0911 13.3094 11.0904 13.4294 11.0673C13.7091 11.0227 13.985 11.0711 14.2558 11.1365C14.4467 11.1803 14.634 11.2563 14.8005 11.3501C15.0746 11.4992 15.2929 11.6944 15.4506 11.9588C15.6375 12.2662 15.7656 12.5958 15.8871 12.9348C15.9014 12.987 15.9247 13.0454 15.9317 13.0984C15.9551 13.2191 15.9708 13.3405 15.981 13.4158C16.0584 13.8301 16.0434 14.1866 16.0054 14.5463Z" fill="white"/>
<path d="M21.3295 12.8703L21.1561 13.3709C21.128 13.4514 21.1003 13.5326 21.0645 13.6146C20.9455 13.8228 20.8747 14.0479 20.8275 14.2777C20.8119 14.3334 20.7962 14.3899 20.7962 14.451C20.8043 14.5122 20.7703 14.547 20.7108 14.5624C20.6889 14.5733 20.6673 14.5841 20.6542 14.6011C20.606 14.646 20.5625 14.6669 20.5009 14.6677L19.8686 14.7273C19.8533 14.7288 19.8318 14.7396 19.8091 14.7427C19.7647 14.7559 19.7171 14.7466 19.6807 14.7056C19.5463 14.5609 19.4193 14.4154 19.278 14.28C19.0912 14.0889 18.8966 13.8986 18.6944 13.709C18.6838 13.6873 18.6666 13.6742 18.6334 13.6548L18.6414 13.716L18.7057 14.2081L18.8119 15.135L18.9002 15.9869C18.8988 16.0341 18.9046 16.079 18.8955 16.127C18.8908 16.1502 18.8794 16.1827 18.8663 16.1997C18.7824 16.2647 18.706 16.3289 18.5988 16.3351C18.5447 16.3343 18.4841 16.3428 18.432 16.3568C18.3261 16.3707 18.2199 16.3846 18.1118 16.3838C18.0727 16.3807 18.0274 16.3869 17.983 16.4001C17.8387 16.4194 17.6957 16.4457 17.5431 16.4581C17.4522 16.4697 17.3448 16.4759 17.2511 16.4651C17.1572 16.4542 17.0744 16.4117 17.0605 16.3049C17.0576 16.2825 17.046 16.2531 17.043 16.2306L16.9149 15.2526C16.8773 14.9648 16.8547 14.6746 16.8093 14.3876C16.6783 13.5643 16.5863 12.7434 16.479 11.9248C16.4513 11.7127 16.4622 11.5031 16.4575 11.288C16.4579 11.2338 16.4739 11.1773 16.4659 11.117C16.459 11.0636 16.5079 11.0264 16.5761 11.0179C16.6218 11.0117 16.6758 11.0125 16.7287 11.0056C17.0397 10.9645 17.3503 10.9243 17.6548 10.8918C17.6924 10.8872 17.7314 10.8895 17.7617 10.8856C17.8928 10.8841 17.9742 10.8578 18.0965 10.8493C18.1114 10.8477 18.1334 10.8369 18.171 10.8322C18.2242 10.8253 18.2699 10.8191 18.3126 10.8516C18.3308 10.8725 18.3553 10.8848 18.3812 10.905C18.3995 10.9251 18.4184 10.9537 18.429 10.9754C18.4575 11.0179 18.4852 11.0527 18.5057 11.0891C18.7791 11.469 19.1014 11.8126 19.4098 12.1654L19.5197 12.2977C19.5379 12.3186 19.5711 12.3372 19.5978 12.3642C19.6427 12.4122 19.6741 12.4161 19.6931 12.4447C19.7314 12.5012 19.78 12.5182 19.8183 12.5747C19.8361 12.5956 19.8555 12.6234 19.8782 12.6211C19.9008 12.618 19.8902 12.5964 20.1132 12.1197C20.1917 11.9549 20.2716 11.7979 20.3363 11.6431C20.4137 11.4713 20.4914 11.2988 20.594 11.1394C20.6192 11.0976 20.6294 11.0574 20.6483 11.0241C20.7214 10.8756 20.786 10.7208 20.8513 10.573C20.8823 10.5158 20.9246 10.4864 20.9922 10.4701C21.1276 10.4446 21.2707 10.4183 21.4021 10.3626C21.4605 10.3394 21.5139 10.3324 21.5734 10.3169L22.1117 10.2465C22.2556 10.2272 22.4052 10.1923 22.5501 10.1815C22.6487 10.1684 22.7418 10.1715 22.8425 10.1738C22.944 10.1838 22.9812 10.2326 22.9637 10.3355C22.9524 10.3672 22.9564 10.3982 22.9604 10.4283C23.0251 10.9212 23.0969 11.4125 23.1539 11.9062C23.19 12.2412 23.2272 12.5832 23.271 12.9167C23.3137 13.2424 23.3649 13.5752 23.4087 13.9086C23.4444 14.1818 23.4726 14.4557 23.5167 14.735C23.5335 14.8642 23.5657 14.9911 23.5825 15.1195C23.5944 15.2108 23.5923 15.3114 23.604 15.402C23.6065 15.4786 23.6163 15.5544 23.6263 15.6302C23.6303 15.6612 23.6331 15.6836 23.6211 15.7084C23.6072 15.7795 23.5419 15.8113 23.47 15.7896C23.3966 15.761 23.336 15.7687 23.2699 15.7927C23.2261 15.8144 23.1656 15.8221 23.1126 15.8291C23.0009 15.8592 22.8881 15.8817 22.7754 15.9041C22.6399 15.9296 22.5045 15.9544 22.3756 15.9714C22.2771 15.9846 22.1767 15.9823 22.0847 15.9869C22.0544 15.9908 22.0314 15.9939 22.0022 16.0047C21.9198 16.0233 21.8617 15.9923 21.8435 15.9103C21.8318 15.8809 21.8201 15.8515 21.788 15.8407C21.746 15.8151 21.7325 15.7703 21.7266 15.7254C21.7234 15.641 21.7197 15.5559 21.708 15.4654C21.6 14.7009 21.4999 13.9349 21.3985 13.162C21.3857 13.0637 21.3653 12.9654 21.3521 12.8672L21.3295 12.8703Z" fill="white"/>
<path d="M26.0798 13.8812C26.1101 13.8773 26.132 13.8664 26.1546 13.864C26.4237 13.7979 26.685 13.7324 26.9576 13.6966L27.2004 13.6655C27.2533 13.6585 27.3067 13.6515 27.3435 13.639C27.365 13.6281 27.387 13.6172 27.4095 13.6149C27.491 13.5884 27.5585 13.6335 27.5705 13.7247C27.5786 13.7854 27.5789 13.8469 27.5869 13.9077C27.614 14.174 27.6498 14.4465 27.6844 14.7121L27.726 15.0306C27.74 15.1365 27.6994 15.1801 27.6009 15.1933C27.4351 15.2229 27.2599 15.2377 27.0876 15.2759C26.666 15.3545 26.2386 15.3872 25.8217 15.4418C25.7458 15.4519 25.6863 15.4675 25.6104 15.4768C25.5344 15.4869 25.452 15.5056 25.3687 15.5165L25.2113 15.5523C25.0259 15.6076 24.8394 15.6551 24.6405 15.666L24.6102 15.6699C24.5247 15.6652 24.4693 15.5959 24.4963 15.5072C24.5141 15.4667 24.5167 15.4277 24.5039 15.3904C24.4171 15.1396 24.3681 14.8842 24.3346 14.6264C24.2664 14.1646 24.2057 13.7029 24.1451 13.2403L24.0411 12.4444C24.0083 12.1937 23.9605 11.946 23.9276 11.6961C23.8798 11.2701 23.8327 10.8519 23.7779 10.4353C23.7728 10.3356 23.7673 10.2359 23.7546 10.1378C23.7509 10.0537 23.6955 9.92212 23.7663 9.87384C23.8513 9.81699 24.1944 9.7874 24.2766 9.76871C24.5835 9.69785 24.8858 9.65034 25.1964 9.60985C25.7122 9.5421 26.2349 9.47357 26.7496 9.39882C26.8482 9.38558 26.9544 9.37156 27.0537 9.36611C27.1445 9.35443 27.1982 9.40894 27.2015 9.49382C27.2029 9.56235 27.204 9.63166 27.2121 9.6924C27.2566 9.97196 27.2782 10.2546 27.2844 10.5389L27.307 10.8293C27.3037 10.922 27.2698 10.957 27.18 10.9765L26.9792 11.0341C26.7642 11.1003 26.5397 11.1533 26.3145 11.1977C26.1269 11.2382 25.9487 11.2919 25.7556 11.348L25.8363 11.9624C25.841 11.9616 25.8462 11.9616 25.8513 11.9616C25.8622 11.9624 25.8746 11.9624 25.8892 11.9554L26.2349 11.8869L26.7638 11.802C26.8547 11.7903 26.9474 11.7934 27.0321 11.7903C27.0785 11.7918 27.1241 11.7856 27.1694 11.7802C27.2691 11.7747 27.3194 11.8066 27.3321 11.9055C27.3814 12.2225 27.4234 12.541 27.4651 12.8595C27.4778 12.9576 27.445 13.0004 27.3416 13.037C27.0303 13.132 26.7113 13.2278 26.3816 13.3018C26.2539 13.3267 26.1462 13.3867 26.0221 13.442L26.0798 13.8812Z" fill="white"/>
<path d="M4.36605 9.08203C4.06894 9.08203 3.95281 9.02791 4.0722 8.89897C4.96944 7.92794 10.9916 6.55259 15.3003 6.55259C16.2122 6.55259 17.0474 6.61388 17.7409 6.75396C19.6029 7.13043 14.5579 7.72658 11.1847 8.14444C8.24808 8.50897 5.33843 9.08203 4.36605 9.08203Z" fill="#F3C9AC"/>
<path d="M13.5422 37.3322C14.5348 38.5742 18.1222 38.7686 19.3005 37.5975C20.3025 36.6002 19.0603 35.6409 18.7106 35.4014C18.6562 35.3628 18.6227 35.3441 18.6227 35.3441C18.6227 35.3441 19.9203 34.764 20.016 33.5993C20.0222 33.5233 20.0236 33.4461 20.0182 33.3643C19.9389 32.0438 16.3 31.344 14.7425 31.796C13.5783 32.134 13.1848 32.6735 13.1371 33.2047C13.0856 33.7706 13.4261 34.3268 13.6441 34.6198C13.7448 34.7537 13.8179 34.8316 13.8179 34.8316C13.8179 34.8316 12.7465 36.3382 13.5422 37.3322Z" fill="white"/>
<path d="M17.2008 34.9033C15.7287 34.9033 14.523 34.4951 14.1576 34.3571C14.0233 34.1902 13.8265 33.8959 13.7407 33.5967C14.6183 34.0717 15.5987 34.2355 16.5335 34.2355C17.0406 34.2355 17.5341 34.187 17.9908 34.1145C17.9882 34.1473 17.9871 34.1807 17.9871 34.2135C17.9874 34.4409 18.0473 34.6557 18.1568 34.8435C17.8297 34.8851 17.5096 34.9033 17.2008 34.9033Z" fill="#C3BAC7"/>
<path d="M16.6783 37.8115C16.5655 37.8115 16.4512 37.8085 16.3359 37.8017C15.2758 37.7423 14.3308 37.4115 13.9848 36.979C13.8585 36.8215 13.8128 36.631 13.815 36.4338C14.4487 36.96 15.6003 37.24 16.7191 37.24C17.6331 37.24 18.5253 37.0531 19.094 36.6592C19.1035 36.6892 19.1101 36.7186 19.1133 36.7487C19.1203 36.8062 19.1382 36.96 18.9002 37.1965H18.8998C18.5176 37.5769 17.6518 37.8115 16.6783 37.8115Z" fill="#C3BAC7"/>
<path d="M15.9139 32.2211C15.5324 32.2211 15.1816 32.258 14.8998 32.3395C14.7856 32.3718 14.6742 32.41 14.5669 32.4527C14.0646 32.6481 13.7792 32.8894 13.7146 33.1714C13.6069 33.6398 14.0643 34.2647 14.2329 34.4459C14.4158 34.6432 14.4366 34.9434 14.2804 35.1627C14.273 35.1724 13.4758 36.3433 13.9847 36.9786C14.3308 37.4108 15.2758 37.7414 16.3358 37.8015C17.4444 37.8636 18.473 37.621 18.8997 37.196H18.9001C19.1381 36.9592 19.1202 36.8059 19.1133 36.7483C19.0713 36.3893 18.5665 35.9739 18.3285 35.8284C18.1489 35.7191 18.0442 35.5185 18.0573 35.3083C18.0708 35.098 18.1989 34.9123 18.3912 34.8263C18.4 34.8224 19.5046 34.3062 19.4513 33.3992C19.448 33.339 19.4064 33.2749 19.3717 33.2322C18.9202 32.6642 17.2341 32.2211 15.9139 32.2211ZM16.6979 38.9453C16.5581 38.9453 16.4158 38.9414 16.2719 38.9337C14.8458 38.8528 13.6598 38.387 13.0999 37.687C12.3238 36.7179 12.8035 35.4881 13.1302 34.8793C12.8316 34.4582 12.4301 33.7129 12.6086 32.9237C12.7608 32.2502 13.2798 31.7372 14.1512 31.3982C14.2902 31.3425 14.4388 31.2921 14.5877 31.25C16.0117 30.8379 19.2535 31.2623 20.2576 32.5251C20.4577 32.7742 20.5675 33.0472 20.5832 33.3345C20.6402 34.3081 20.0828 34.9874 19.5853 35.3943C19.8831 35.6977 20.1788 36.1143 20.2387 36.6105C20.2806 36.9586 20.2208 37.4819 19.6988 38.0001C19.0932 38.6024 17.9908 38.9453 16.6979 38.9453Z" fill="#371A45"/>
<path d="M19.8141 32.8779C19.0208 31.8804 16.0952 31.4045 14.742 31.7957C14.6019 31.8354 14.4734 31.8804 14.3565 31.9268C14.0138 31.4469 13.601 30.5771 14.2324 29.6763C15.1282 28.3968 19.264 28.7377 20.5152 30.3144C21.3719 31.3953 20.6317 32.3597 19.8141 32.8779Z" fill="white"/>
<path d="M15.9097 31.0984C17.2457 31.0984 18.9226 31.4462 19.8534 32.142C20.1118 31.9101 20.2794 31.653 20.3199 31.4144C20.3608 31.1739 20.2794 30.9294 20.071 30.667C19.4906 29.9355 17.9173 29.4173 16.4109 29.4631C15.5815 29.4876 14.9088 29.6996 14.6971 30.0024C14.4306 30.3814 14.4014 30.7989 14.6087 31.2448C14.9566 31.1474 15.4092 31.0984 15.9097 31.0984ZM19.8143 33.4453C19.6468 33.4453 19.4814 33.3711 19.3705 33.2313C18.7897 32.5011 16.1572 31.977 14.8997 32.3408C14.7854 32.3732 14.6744 32.411 14.5668 32.4534C14.3244 32.5508 14.047 32.4693 13.8955 32.2566C13.2012 31.2859 13.1548 30.227 13.7685 29.3517C14.2032 28.7302 15.1297 28.3678 16.3769 28.33C17.9228 28.2843 20.0166 28.7746 20.959 29.9627C21.4745 30.6127 21.5037 31.2143 21.4376 31.6039C21.2858 32.4984 20.5455 33.0868 20.1173 33.3572C20.0235 33.4168 19.9184 33.4453 19.8143 33.4453Z" fill="#371A45"/>
<path d="M17.1882 36.0371C15.1967 36.0371 13.6709 35.3857 13.592 35.3512C13.3047 35.2266 13.1733 34.8927 13.2982 34.6058C13.423 34.319 13.7562 34.1874 14.0432 34.3121C14.0709 34.3233 16.1826 35.2147 18.5199 34.7856C18.8268 34.7292 19.1232 34.9328 19.1798 35.241C19.2364 35.5492 19.0324 35.8442 18.7246 35.9006C18.1942 35.9976 17.677 36.0371 17.1882 36.0371Z" fill="#371A45"/>
<path d="M25.4774 38.276L22.287 38.2812C22.2155 38.2027 22.1476 38.1235 22.0867 38.043C20.7028 36.271 21.8253 34.3821 21.8702 34.3088C19.695 36.4986 17.7311 35.3457 18.0141 33.9419C18.064 33.6951 18.1805 33.4159 18.3488 33.1215C19.4264 31.232 22.6364 28.7109 23.9556 29.8315C23.9556 29.8315 27.3587 33.8521 25.4774 38.276Z" fill="white"/>
<path d="M22.0868 38.0449C21.9776 37.9045 21.8842 37.7647 21.8046 37.6243C21.5013 37.0906 21.398 36.56 21.3983 36.0854C21.3987 35.1018 21.8426 34.3559 21.8703 34.3101C21.7334 34.448 21.5977 34.5725 21.463 34.6844C21.0943 34.9912 20.7362 35.2041 20.3978 35.3407C20.0693 35.4722 19.7597 35.5313 19.4794 35.5313C19.3706 35.5313 19.2658 35.5224 19.1662 35.5053C18.707 35.4278 18.3522 35.1793 18.1566 34.8445C18.047 34.657 17.9872 34.4423 17.9868 34.2142C17.9868 34.1258 17.9956 34.035 18.0142 33.9435C18.0642 33.6963 18.1807 33.4174 18.3489 33.1232C18.4416 33.5432 18.7121 33.9244 19.3959 33.9244C19.4386 33.9244 19.4827 33.9232 19.5287 33.92C20.8095 33.8336 21.7411 32.7204 22.4106 32.7204C22.6161 32.7204 22.7968 32.8252 22.9552 33.0965C23.6407 34.2694 22.0386 36.5321 22.0868 38.0449Z" fill="#C3BAC7"/>
<path d="M24.9565 38.0542C25.2203 37.4149 25.4007 36.7421 25.4525 36.0535C25.512 35.3656 25.4598 34.6664 25.3131 33.9811C25.1711 33.2958 24.9291 32.6262 24.625 31.985C24.4721 31.6651 24.3016 31.3524 24.1162 31.0489C24.0234 30.8981 23.927 30.7493 23.8263 30.6045C23.7285 30.4636 23.616 30.3102 23.523 30.197L23.5891 30.2628C23.4858 30.1786 23.3561 30.1318 23.1732 30.1246C22.9922 30.1174 22.7761 30.1569 22.5575 30.226C22.1173 30.3675 21.6686 30.6164 21.2492 30.906C20.4108 31.4887 19.6351 32.2352 19.0591 33.0581C18.9185 33.2635 18.7923 33.4748 18.6984 33.6822C18.6521 33.7849 18.6127 33.8876 18.5896 33.9798L18.5711 34.0496L18.5667 34.1101C18.5667 34.149 18.5491 34.1904 18.5576 34.228C18.5532 34.3846 18.6193 34.5229 18.7123 34.6414C18.8098 34.7566 18.9419 34.8613 19.1175 34.9054C19.4566 35.0193 19.8998 34.9423 20.3089 34.7533C20.7232 34.5611 21.1112 34.2543 21.469 33.9074C21.6668 33.6783 22.0125 33.6526 22.2417 33.8501C22.4104 33.9962 22.4688 34.2227 22.4082 34.4235L22.3531 34.6052C22.3407 34.646 22.306 34.727 22.2823 34.7922C22.2567 34.8626 22.2315 34.933 22.2085 35.0054C22.1833 35.0765 22.1669 35.1503 22.1428 35.222L22.0888 35.4406C22.0224 35.7322 21.9939 36.0252 22.0027 36.3155C22.0096 36.6058 22.0618 36.8922 22.1509 37.1812C22.1757 37.2523 22.184 37.332 22.218 37.4018C22.248 37.4735 22.2753 37.5479 22.3016 37.6249C22.3574 37.7764 22.4385 37.9199 22.4966 38.0891L22.5122 38.1358C22.5637 38.2872 22.4827 38.4525 22.3308 38.5045C22.2436 38.5341 22.1509 38.519 22.079 38.4729C21.7479 38.2576 21.4478 37.9686 21.2347 37.6091C21.1175 37.4347 21.0408 37.2378 20.9642 37.0397C20.9054 36.8376 20.8474 36.6302 20.8262 36.4195C20.7699 35.9982 20.7955 35.5703 20.889 35.1661C20.9408 34.9653 20.9985 34.7665 21.0813 34.5769C21.1208 34.4821 21.1638 34.3879 21.2142 34.2958C21.2653 34.1997 21.3116 34.1213 21.3898 34.0074L22.2738 34.7053H22.2735C21.8446 35.1226 21.3649 35.5117 20.7816 35.7829C20.6345 35.8488 20.4896 35.9172 20.3261 35.9581L20.087 36.0272C20.0038 36.0423 19.9183 36.0535 19.834 36.066C19.6676 36.0989 19.488 36.0897 19.3121 36.0877C19.2245 36.0884 19.1332 36.064 19.0441 36.0515C18.9547 36.0364 18.8653 36.0219 18.7773 35.987C18.4214 35.8876 18.0819 35.6605 17.8322 35.3563C17.5848 35.0515 17.4234 34.6532 17.4245 34.2569C17.4146 34.1582 17.4351 34.0627 17.4424 33.966C17.4478 33.9172 17.453 33.8679 17.4606 33.8218L17.4935 33.6914C17.538 33.5183 17.5986 33.3642 17.6647 33.2168C17.7979 32.9238 17.9563 32.6638 18.1246 32.4156C18.4648 31.9238 18.851 31.4887 19.2638 31.0811C19.6803 30.6783 20.1231 30.3037 20.6071 29.9719C20.8484 29.8053 21.0992 29.6486 21.3657 29.5097C21.6318 29.3695 21.9092 29.2405 22.2147 29.1457C22.5188 29.0509 22.8484 28.9798 23.2171 28.9923C23.5803 29.0008 24.003 29.1252 24.322 29.3985L24.3301 29.4057C24.3509 29.4228 24.3713 29.4439 24.3881 29.4643C24.533 29.6407 24.6411 29.7915 24.7578 29.9587C24.8717 30.1213 24.9787 30.2879 25.0824 30.4564C25.2886 30.7935 25.4773 31.1397 25.6478 31.4966C25.9862 32.2102 26.2585 32.962 26.422 33.7461C26.5892 34.5275 26.652 35.3412 26.5823 36.1483C26.5202 36.9567 26.3089 37.7527 25.9997 38.4979C25.88 38.7869 25.5482 38.9245 25.259 38.804C24.97 38.6842 24.8327 38.3531 24.9528 38.0634L24.9565 38.0542Z" fill="#371A45"/>
<path d="M4.45118 23.249C4.44677 23.249 4.44203 23.249 4.43769 23.249C3.63159 23.249 2.86315 22.5632 2.75609 21.744L2.40625 19.0727C4.02849 20.0028 6.60558 20.8798 10.5529 20.8798C11.5082 20.8798 12.5431 20.8284 13.6651 20.7143C20.5294 20.0148 24.4527 17.9283 26.6896 15.339C26.8225 15.3205 26.9553 15.3004 27.0878 15.2763C27.2601 15.2386 27.4354 15.2233 27.601 15.1936C27.6996 15.1808 27.7401 15.1366 27.7262 15.0306L27.6846 14.7125C27.6587 14.5134 27.632 14.3094 27.6087 14.1078C29.4323 11.2623 29.6277 8.01603 29.6225 5.37694C29.6627 5.48617 29.6912 5.59941 29.7061 5.71587L31.3155 18.0038C31.4232 18.8262 30.852 19.6912 30.0675 19.8935C21.5727 21.9793 13.1913 23.0772 4.45118 23.249Z" fill="#AD5B36"/>
<path d="M4.43802 23.8164C3.34431 23.8164 2.33633 22.9098 2.19329 21.8178L1.78271 18.6826C1.97262 18.8121 2.1801 18.9433 2.40586 19.0728L2.75573 21.7441C2.86282 22.5625 3.6312 23.249 4.43729 23.249C4.44166 23.249 4.44644 23.249 4.45081 23.249C13.191 23.0773 21.5723 21.9797 30.0672 19.8936C30.8516 19.6912 31.4229 18.8267 31.3152 18.0034L29.7058 5.71532C29.6908 5.59957 29.6624 5.48623 29.6223 5.37695C29.6215 5.01915 29.6171 4.67269 29.6127 4.33999C29.9617 4.69131 30.2023 5.14706 30.2673 5.64247L31.8766 17.9306C32.0205 19.0291 31.2707 20.1705 30.2059 20.4441C21.7184 22.5285 13.1942 23.6432 4.45631 23.8156C4.45008 23.8164 4.44425 23.8164 4.43802 23.8164Z" fill="#371A45"/>
<path d="M26.689 15.3389C27.0339 14.9393 27.3387 14.5286 27.6081 14.1081C27.6315 14.3097 27.6581 14.5136 27.684 14.713L27.7256 15.0308C27.7395 15.1372 27.699 15.1815 27.6004 15.1942C27.4347 15.2234 27.2595 15.2384 27.0872 15.2767C26.9547 15.3014 26.8218 15.3216 26.689 15.3389Z" fill="#C3BAC7"/>
</svg>
