<svg width="122" height="98" viewBox="0 0 122 98" fill="none" xmlns="http://www.w3.org/2000/svg">
<path d="M77.5016 38.3485C77.5016 38.3485 88.0475 37.54 91.149 39.6872C96.739 43.5569 98.3056 64.4987 93.9649 71.9206C90.7783 77.3688 71.251 74.5566 71.251 74.5566L77.5016 38.3485Z" fill="white"/>
<path d="M95.0651 67.0762L90.6941 67.0398C90.581 67.0386 90.4679 67.0374 90.3548 67.0362C90.3316 66.7086 90.307 66.3834 90.2803 66.061C90.9997 66.5304 91.8766 66.7633 92.7619 66.7633C93.6345 66.7633 94.5149 66.5372 95.2611 66.0894C95.2007 66.4253 95.1353 66.7542 95.0651 67.0762Z" fill="#B9AFBE"/>
<path d="M81.6689 75.8926C81.5828 75.8926 81.4974 75.8922 81.4106 75.8918C76.1488 75.8703 71.2134 75.1679 71.1639 75.1607C70.8309 75.1127 70.5999 74.8035 70.6479 74.4703C70.6953 74.1371 71.0038 73.9054 71.3382 73.9537C76.6568 74.7188 90.9958 75.7903 93.4391 71.613C97.6992 64.3278 95.9742 43.7703 90.8021 40.1896C88.4047 38.5299 80.4218 38.7373 77.5487 38.9569C77.215 38.9813 76.9201 38.7315 76.8943 38.3957C76.8685 38.0599 77.1203 37.7664 77.4554 37.7406C77.8953 37.7076 88.254 36.942 91.4959 39.1865C94.2428 41.088 96.2591 46.784 96.8884 54.4224C97.367 60.2304 96.9889 67.9582 94.4917 72.2286C93.0695 74.6601 88.7556 75.8926 81.6689 75.8926Z" fill="#371A45"/>
<path d="M95.8866 56.9295L90.4721 57.3484C89.9882 57.3855 89.5907 57.7437 89.505 58.2211C89.1932 59.969 88.6815 64.0437 90.3843 65.3849C91.7973 66.4983 94.0882 66.3621 95.4277 65.2231C96.9257 63.949 97.0634 59.9534 97.0349 57.9759C97.0256 57.3613 96.5003 56.8817 95.8866 56.9295Z" fill="white"/>
<path d="M92.7622 65.5459C92.0288 65.5459 91.306 65.3346 90.7629 64.9059C90.4397 64.6514 90.2098 64.2375 90.0556 63.7173C90.0337 63.5127 90.0097 63.309 89.9863 63.1069C90.0853 63.2131 90.2027 63.2722 90.3428 63.2722C90.3689 63.2722 90.3965 63.2699 90.4248 63.2659C90.7063 63.2219 91.0585 62.462 91.0585 62.462C91.0585 62.462 92.0649 63.9985 93.6052 63.9982C94.2608 63.9982 95.014 63.7197 95.8274 62.9259C95.8917 62.8627 95.9554 62.7953 96.0162 62.7233C95.7793 63.7037 95.4462 64.4069 95.0331 64.7585C94.4193 65.2806 93.5833 65.5459 92.7622 65.5459Z" fill="#B9AFBE"/>
<path d="M95.9337 57.538L90.5189 57.9567C90.3116 57.9726 90.1415 58.1257 90.1057 58.3287C89.6465 60.8975 89.5783 63.9742 90.7622 64.9063C91.9144 65.8148 93.8703 65.7477 95.0326 64.7589C95.9545 63.9746 96.4754 61.4425 96.4245 57.9855C96.423 57.858 96.37 57.741 96.2767 57.6555C96.1827 57.5699 96.0593 57.5272 95.9337 57.538ZM92.7625 66.7637C91.7609 66.7637 90.7708 66.466 90.0067 65.8647C88.1104 64.3705 88.5028 60.3674 88.9053 58.1141C89.0388 57.3646 89.6637 56.8 90.4249 56.7405L95.8405 56.3222C96.3018 56.287 96.7588 56.4441 97.0989 56.7548C97.439 57.065 97.6377 57.5069 97.6442 57.9675C97.6851 60.7485 97.4017 64.345 95.8225 65.6882C94.9831 66.4021 93.866 66.7637 92.7625 66.7637Z" fill="#371A45"/>
<path d="M92.8329 66.624C92.713 66.5557 92.6526 66.509 92.5736 66.4498C92.5001 66.3931 92.4294 66.3352 92.3642 66.2745C92.2304 66.1542 92.1083 66.0271 91.996 65.8937C91.772 65.6264 91.573 65.3432 91.4191 65.0403C91.0987 64.4407 90.906 63.7954 90.811 63.1502C90.7701 62.8266 90.7347 62.5046 90.7326 62.1826C90.716 61.859 90.7326 61.5498 90.7437 61.2325C90.759 60.9169 90.7846 60.6013 90.8269 60.2861C90.8741 59.9673 90.9185 59.666 91.0363 59.3335C91.0655 59.2496 91.157 59.206 91.2409 59.2358C91.3192 59.2635 91.3622 59.3446 91.3435 59.4237L91.3387 59.4447C91.2756 59.7056 91.2527 60.0248 91.2416 60.3213C91.2326 60.6237 91.2381 60.9277 91.2548 61.2317C91.2887 61.8442 91.3539 62.4423 91.4967 63.0124C91.6403 63.5821 91.8684 64.1219 92.1832 64.5873C92.3344 64.8242 92.5188 65.0331 92.713 65.2221C92.81 65.3164 92.9134 65.4031 93.0188 65.4794C93.0708 65.5193 93.1242 65.5537 93.1775 65.5869C93.2247 65.6164 93.2947 65.654 93.3114 65.6592C93.5984 65.7475 93.76 66.0515 93.6719 66.3387C93.5846 66.626 93.2795 66.7878 92.9924 66.6995C92.9543 66.6879 92.9189 66.6727 92.8856 66.6539L92.8329 66.624Z" fill="#371A45"/>
<path d="M83.8564 42.1396C83.6252 42.1396 83.4043 42.0083 83.3017 41.784C83.1615 41.4782 83.2955 41.1157 83.602 40.9754C88.5461 38.7106 91.5757 39.3871 91.7022 39.4172C92.0299 39.4945 92.233 39.8229 92.1557 40.1512C92.0777 40.4782 91.7515 40.6813 91.4245 40.6047C91.378 40.5944 88.6179 40.0192 84.1102 42.0842C84.0274 42.1226 83.9413 42.1396 83.8564 42.1396Z" fill="#371A45"/>
<path d="M55.9356 42.2015C55.9356 42.2015 51.0926 56.7409 37.8018 61.4341V70.3525H55.9356V42.2015Z" fill="white"/>
<path d="M55.9356 42.2003V70.3516H37.8027V61.4325C51.0926 56.7404 55.9356 42.2003 55.9356 42.2003Z" fill="white"/>
<path d="M50.4793 66.7656H48.9922L48.168 63.4191C48.4199 63.1028 48.6653 62.7817 48.9032 62.4592C48.9292 63.346 49.297 64.1702 49.9406 64.7807C50.1846 65.0124 50.4573 65.2027 50.7498 65.3485C50.6533 65.8551 50.563 66.3278 50.4793 66.7656ZM51.0295 59.2537C51.4894 58.4828 51.914 57.7145 52.3039 56.9652C52.1761 57.6749 52.0497 58.3687 51.9264 59.0422C51.6123 59.0713 51.3114 59.144 51.0295 59.2537Z" fill="#B9AFBE"/>
<path d="M38.4114 69.7433H55.3255V45.2326C54.6545 46.6405 53.681 48.4546 52.3573 50.4012C49.737 54.2515 45.2073 59.3281 38.4114 61.862V69.7433ZM56.5451 70.9629H37.1924V61.0031L37.5991 60.8591C50.444 56.3233 55.3089 42.1513 55.3571 42.0084L56.5451 38.4517V70.9629Z" fill="#371A45"/>
<path d="M89.9192 70.3516H50.4023C50.4023 70.3516 52.578 59.4146 54.554 47.6081C54.8601 45.7788 55.1622 43.9273 55.4502 42.094C57.8529 26.7823 80.7532 36.7668 80.7532 36.7668C80.7532 36.7668 81.6481 37.9913 82.8793 40.406C85.426 45.399 89.4162 55.4853 89.9192 70.3516Z" fill="white"/>
<path d="M51.144 69.7435H89.2865C88.4693 49.8025 81.262 38.5954 80.3545 37.2601C78.8529 36.6376 66.9364 31.9068 60.3199 35.5401C57.9788 36.8256 56.5431 39.0623 56.052 42.1889C54.2 53.9889 51.7564 66.6185 51.144 69.7435ZM90.5504 70.9629H49.6592L49.804 70.2341C49.833 70.0884 52.7286 55.498 54.8474 41.9996C55.3998 38.4802 57.0443 35.947 59.7338 34.4703C67.2948 30.3196 80.4421 35.9659 80.9979 36.2078L81.1495 36.2745L81.2472 36.4072C81.3348 36.5278 83.4233 39.42 85.6249 45.069C87.6474 50.2586 90.1394 58.8544 90.5288 70.3324L90.5504 70.9629Z" fill="#371A45"/>
<path d="M49.4023 62.4362C49.4429 64.0008 50.7452 65.2369 52.3102 65.1963C53.8753 65.1557 55.1114 63.8534 55.0708 62.2884C55.0297 60.7229 53.7279 59.4873 52.1624 59.5279C50.5974 59.5685 49.3617 60.8707 49.4023 62.4362Z" fill="white"/>
<path d="M52.2339 64.6982C51.6292 64.6982 51.0653 64.4714 50.6281 64.0564C50.1758 63.6271 49.9171 63.0469 49.9012 62.4232C49.895 62.1866 49.9247 61.9567 49.9849 61.7397C50.5054 62.3713 51.2943 62.7731 52.1714 62.7731C52.1962 62.7731 52.2215 62.7727 52.2463 62.7722C52.4868 62.7656 52.7194 62.7297 52.9408 62.6672L52.8407 64.619C52.6662 64.6655 52.4846 64.6925 52.2968 64.6974C52.2755 64.6982 52.2547 64.6982 52.2339 64.6982Z" fill="#B9AFBE"/>
<path d="M52.2372 60.0261C52.2166 60.0261 52.1959 60.0261 52.1752 60.027C50.8875 60.0605 49.8677 61.135 49.9012 62.4227C49.9169 63.0461 50.1755 63.6263 50.628 64.0558C51.08 64.4853 51.6685 64.7127 52.2965 64.6967C53.5837 64.6631 54.604 63.5882 54.5705 62.3009C54.5548 61.6776 54.2962 61.0973 53.8437 60.6678C53.4064 60.2525 52.8381 60.0261 52.2372 60.0261ZM52.2336 65.6963C51.3759 65.6963 50.5646 65.3729 49.9403 64.7798C49.2944 64.167 48.926 63.3392 48.9025 62.4484C48.8543 60.6109 50.311 59.076 52.149 59.0287C53.9857 58.9786 55.5209 60.4367 55.5692 62.2748C55.617 64.1128 54.1607 65.6476 52.3227 65.6949C52.2924 65.6958 52.263 65.6963 52.2336 65.6963Z" fill="#371A45"/>
<path d="M54.0146 57.084C54.029 56.8424 54.0412 56.603 54.0515 56.365C54.0623 56.5782 54.0713 56.7929 54.0794 57.0097C54.0574 57.0345 54.0358 57.0588 54.0146 57.084Z" fill="#B9AFBE"/>
<path d="M56.3387 70.6143L71.144 71.3756C72.8964 71.4663 74.4049 70.106 74.4956 68.3513L74.9003 60.4725C74.979 58.9363 73.9452 57.5903 72.5096 57.2186C72.3061 57.1642 72.0945 57.133 71.8759 57.1214L57.073 56.36C55.3182 56.2692 53.8097 57.6297 53.7213 59.3844L53.3992 65.6246L53.3148 67.2632C53.2241 69.0173 54.5862 70.5241 56.3387 70.6143Z" fill="white"/>
<path d="M64.5095 66.9414L64.0474 66.9409C64.2027 66.9147 64.3532 66.8869 64.5013 66.8566C64.5038 66.8849 64.5069 66.9131 64.5095 66.9414ZM56.547 66.7656H53.9521L53.9948 65.9341C54.6922 66.2589 55.5659 66.5446 56.6596 66.7584L56.547 66.7656Z" fill="#B9AFBE"/>
<path d="M71.1748 70.7669C72.5957 70.8408 73.8129 69.7424 73.8862 68.3204L74.2913 60.4413C74.3647 59.0192 73.2675 57.8026 71.8448 57.7293L57.0412 56.9685C55.6174 56.8946 54.4031 57.993 54.3292 59.415L53.9241 67.2942C53.8891 67.9799 54.1249 68.64 54.5888 69.154C55.0527 69.6679 55.6855 69.9706 56.3706 70.0055L71.1748 70.7669ZM71.3099 71.9902C71.2441 71.9902 71.1783 71.9883 71.112 71.9851L56.3077 71.2239C55.2972 71.172 54.3647 70.7269 53.6831 69.9712C53.0009 69.2151 52.654 68.2424 52.7063 67.2313L53.1115 59.3522C53.2192 57.259 55.005 55.6478 57.1034 55.7502L71.9077 56.5116C74.0015 56.6193 75.6173 58.4103 75.5097 60.5035L75.1045 68.3833C75.0003 70.4107 73.3169 71.9902 71.3099 71.9902Z" fill="#371A45"/>
<path d="M55.748 70.5257C55.9377 70.576 56.1343 70.6055 56.339 70.6148L71.1444 71.3758C72.4281 71.4409 73.5811 70.7299 74.1409 69.6514C74.345 69.2594 74.4705 68.8193 74.4942 68.3515L74.6752 64.8514L74.7347 63.6967L74.9007 60.4729C74.9909 58.718 73.6285 57.2116 71.8765 57.1214L68.677 56.9578C70.1371 57.3111 71.1935 58.6688 71.1143 60.2203L70.8969 64.4761L70.7101 68.1012C70.6194 69.8538 69.1107 71.2159 67.3586 71.1253L55.748 70.5257Z" fill="white"/>
<path d="M70.1151 70.7121L71.1763 70.7669C71.8591 70.8024 72.5203 70.5663 73.0343 70.1028C73.5489 69.6388 73.851 69.0061 73.8859 68.3204L74.291 60.4413C74.3649 59.0192 73.2677 57.8032 71.8445 57.7293L70.891 57.6804C71.4586 58.3871 71.7729 59.294 71.7234 60.2527L71.3189 68.1312C71.2682 69.1202 70.8416 70.0341 70.1151 70.7121ZM71.3131 71.9902C71.2461 71.9902 71.1798 71.9883 71.1128 71.9846L56.308 71.2236C56.0711 71.2124 55.8307 71.1768 55.5967 71.1177L55.7789 69.9177L67.391 70.5155C68.0749 70.551 68.735 70.3152 69.249 69.8519C69.7635 69.3874 70.0656 68.7546 70.1006 68.0695L70.5051 60.1898C70.5692 58.9523 69.7403 57.8416 68.5348 57.5489L68.7094 56.3468L71.9074 56.511C74.0023 56.6198 75.6176 58.4109 75.5088 60.5041L75.1042 68.3833C75.0524 69.3938 74.6077 70.3263 73.8515 71.0086C73.1455 71.6455 72.2502 71.9902 71.3131 71.9902Z" fill="#371A45"/>
<path d="M65.0707 63.9245C65.0577 64.2157 65.3602 66.5873 65.3602 66.5873C65.3602 66.5873 66.105 66.6215 67.0203 66.6633C68.1637 66.7155 69.1447 65.5737 69.2115 64.1136C69.2778 62.6535 68.4054 61.4275 67.262 61.3748C66.4901 61.34 65.6014 61.2993 65.6014 61.2993C65.6014 61.2993 65.0924 63.4498 65.0707 63.9245Z" fill="#22A7F0"/>
<path d="M65.529 63.9449C65.5279 63.9853 65.5356 64.2726 65.7524 66.0282C65.7606 66.0981 65.8184 66.151 65.8894 66.1538L67.0422 66.2067C67.4507 66.2248 67.8537 66.0304 68.1737 65.6585C68.5215 65.2533 68.7279 64.6979 68.7552 64.0934C68.8104 62.8872 68.1316 61.8731 67.2421 61.8327L66.0827 61.7797C66.0216 61.7786 65.9506 61.8234 65.9348 61.8922C65.5738 63.4769 65.5329 63.863 65.529 63.9449ZM67.0984 67.123C67.0662 67.123 67.0329 67.122 67.0002 67.1203L65.8474 67.0679C65.3292 67.0444 64.9071 66.654 64.8443 66.1401C64.6029 64.1781 64.6116 63.9793 64.6155 63.904C64.6275 63.626 64.7716 62.8806 65.043 61.6885C65.1572 61.1878 65.6104 60.841 66.1248 60.8662L67.2836 60.9186C68.6771 60.9825 69.7474 62.4252 69.6693 64.1349C69.6322 64.9431 69.3477 65.6956 68.8672 66.2542C68.3839 66.8167 67.7592 67.123 67.0984 67.123Z" fill="#371A45"/>
<path d="M63.4108 63.849C63.3442 65.3094 64.2172 66.5354 65.3605 66.5881C66.5038 66.6404 67.4846 65.4987 67.5512 64.0382C67.6178 62.5778 66.7453 61.3519 65.602 61.3001C64.4587 61.2474 63.4774 62.3891 63.4108 63.849Z" fill="#22A7F0"/>
<path d="M67.5521 64.0377C67.5383 64.341 67.485 64.6294 67.3981 64.8975C67.4269 63.4765 66.5671 62.2996 65.4468 62.2479C64.5412 62.2063 63.7374 62.9157 63.4096 63.9386C63.4085 63.9082 63.4096 63.8789 63.4112 63.8485C63.4784 62.3881 64.4586 61.248 65.6024 61.2997C66.7457 61.3514 67.6177 62.5767 67.5521 64.0377Z" fill="white"/>
<path d="M64.4126 65.6201C64.3751 65.576 64.3387 65.5298 64.3038 65.4805C63.9947 65.0462 63.8397 64.4743 63.8674 63.8696C63.869 63.8275 63.8715 63.7854 63.8756 63.7438C64.0065 63.9451 64.1616 64.1201 64.3356 64.2628C64.3402 64.4209 64.3469 64.5785 64.3551 64.7361C64.3649 64.9256 64.3767 65.115 64.3905 65.3029C64.3987 65.4091 64.4059 65.5149 64.4126 65.6201Z" fill="#2976B4"/>
<path d="M65.526 61.7556C64.66 61.7556 63.9221 62.6891 63.868 63.8701C63.8406 64.4746 63.9955 65.047 64.3047 65.481C64.5893 65.8813 64.9719 66.1123 65.3813 66.131C65.7848 66.1493 66.1921 65.9553 66.5126 65.5823C66.8598 65.1777 67.0667 64.6225 67.0945 64.0175C67.1492 62.8118 66.4702 61.7974 65.5812 61.7566C65.5624 61.7556 65.5442 61.7556 65.526 61.7556ZM65.4376 67.0469C65.4049 67.0469 65.3722 67.0463 65.3395 67.0447C64.6429 67.0131 64.0105 66.646 63.5593 66.0115C63.1322 65.4119 62.9173 64.6365 62.9543 63.8284C63.032 62.1183 64.2329 60.776 65.6225 60.8429C67.0163 60.9062 68.0864 62.3493 68.0082 64.0593C67.9712 64.8674 67.6867 65.6198 67.2065 66.1782C66.7232 66.7414 66.0978 67.0469 65.4376 67.0469Z" fill="#371A45"/>
<path d="M60.9441 71.252C60.9402 71.252 60.9357 71.252 60.9317 71.252C60.6789 71.245 60.48 71.0343 60.487 70.7819L60.6318 65.5566L58.1738 63.8286L58.5279 56.4415C58.5398 56.1891 58.7574 55.9927 59.0064 56.0066C59.2587 56.0185 59.4531 56.2332 59.4412 56.4851L59.1115 63.3699L61.56 65.0905L61.4013 70.8072C61.3944 71.0556 61.1911 71.252 60.9441 71.252Z" fill="#371A45"/>
<path d="M87.7535 60.3399C87.7535 60.3399 89.1236 61.4304 89.1842 63.1122C89.2534 65.0571 88.0371 65.8457 88.0371 65.8457C88.0371 65.8457 82.7118 68.572 74.169 66.7606C74.169 66.7606 71.6545 63.5829 74.4559 61.7892C74.4559 61.7892 83.4721 63.0276 87.7535 60.3399Z" fill="white"/>
<path d="M85.0264 66.1982C85.4506 65.5311 85.7882 64.8212 86.0556 64.0848C87.1285 63.6869 87.9116 62.816 88.1638 61.7791C88.3775 62.1491 88.5556 62.6098 88.5741 63.1332C88.6258 64.5659 87.8639 65.2127 87.7256 65.3181C87.5383 65.4068 86.5977 65.8319 85.0264 66.1982Z" fill="#B9AFBE"/>
<path d="M74.5269 66.2119C82.2502 67.7848 87.2645 65.5375 87.7251 65.3189C87.8637 65.2135 88.6257 64.5666 88.5741 63.134C88.5407 62.2067 88.0063 61.4765 87.6622 61.0982C83.4875 63.3617 76.0555 62.599 74.6079 62.4233C74.1285 62.7761 73.8533 63.1935 73.7689 63.6945C73.6002 64.7021 74.249 65.7988 74.5269 66.2119ZM79.9563 67.9961C78.2141 67.9961 76.2336 67.8215 74.0428 67.3573L73.8272 67.3113L73.6906 67.1391C73.6324 67.0652 72.2624 65.3082 72.5664 63.4927C72.7177 62.5874 73.2427 61.8412 74.1265 61.275L74.316 61.1545L74.5383 61.1846C74.626 61.1966 83.3864 62.3609 87.4292 59.8234L87.7948 59.5937L88.1329 59.8622C88.1978 59.9144 89.7231 61.1498 89.7927 63.0901C89.8744 65.3545 88.4295 66.3173 88.3679 66.3573L88.315 66.3884C88.1463 66.4747 85.0951 67.9961 79.9563 67.9961Z" fill="#371A45"/>
<path d="M64.3303 49.793C63.856 49.793 63.3805 49.778 62.9043 49.7474C61.887 49.6838 60.8629 49.5527 59.8426 49.3468C58.6599 49.1121 57.4811 48.7795 56.3134 48.3464C55.9277 48.2016 55.5464 48.0493 55.1745 47.8877C55.1595 47.8808 55.1439 47.8746 55.1289 47.8677C55.2419 47.1931 55.3548 46.5153 55.4659 45.8369C55.5133 45.8544 55.5614 45.8719 55.6088 45.8894C55.6119 45.89 55.6151 45.8912 55.6176 45.8925C55.6375 45.8993 55.6569 45.9062 55.6762 45.9131C56.759 46.2975 57.8717 46.6046 58.9869 46.8261C60.0123 47.0327 61.0701 47.1712 62.1298 47.238C62.6147 47.2686 63.1034 47.2836 63.5939 47.2836C64.3584 47.2836 65.126 47.2467 65.8905 47.1718C66.3398 47.1263 66.7923 47.0682 67.2373 46.9996C72.8515 46.1165 77.8672 43.2595 81.4725 39.0919C81.7652 39.6124 82.0997 40.2346 82.461 40.9585C78.8407 45.5873 73.5885 48.6185 67.8788 49.5159C67.4426 49.5833 67.0051 49.6394 66.5664 49.6838C65.8262 49.7555 65.0798 49.793 64.3303 49.793Z" fill="#B9AFBE"/>
<path d="M55.129 47.8672C54.9353 47.7838 54.7436 47.6974 54.5537 47.6078C54.6653 46.9454 54.7755 46.2799 54.8846 45.6138C55.0381 45.6746 55.1973 45.736 55.3652 45.7993C55.3991 45.8118 55.4323 45.8243 55.4655 45.8369C55.3546 46.5149 55.2418 47.1923 55.129 47.8672ZM82.4606 40.9578C82.099 40.2341 81.7657 39.6118 81.4724 39.0917C81.6159 38.9256 81.7569 38.7577 81.896 38.5879C82.1855 39.0904 82.5176 39.697 82.8792 40.4058C82.742 40.5925 82.6029 40.7761 82.4606 40.9578Z" fill="#371A45"/>
<path d="M43.9067 35.588C45.9011 38.8802 48.7261 41.688 52.2222 43.6663C52.9354 44.0689 53.6741 44.4377 54.4392 44.7687C54.8112 44.9299 55.1923 45.0817 55.5787 45.2279C56.7456 45.6611 57.9245 45.993 59.1084 46.228C60.128 46.4333 61.1518 46.5646 62.1692 46.6283C63.399 46.7069 64.6232 46.6825 65.8302 46.5646C66.2705 46.5206 66.7084 46.4647 67.1433 46.3971C75.1052 45.1445 82.1755 39.7467 85.1783 31.6527C89.6035 19.7302 83.5255 6.47897 71.6046 2.05297C69.3087 1.20221 66.9608 0.736732 64.6382 0.633732C64.3669 0.61879 64.094 0.61171 63.8212 0.610924C63.0923 0.603062 62.3674 0.629799 61.6471 0.691128C59.9833 0.833447 58.348 1.15739 56.772 1.64804C55.1955 2.13711 53.6745 2.79601 52.241 3.60746C51.7848 3.86536 51.3374 4.13899 50.8987 4.42834C50.2414 4.86316 49.605 5.33021 48.9922 5.83422C45.9334 8.33382 43.4784 11.6567 42.005 15.6282C39.4589 22.487 40.3898 29.7829 43.9067 35.588Z" fill="white"/>
<path d="M63.5763 0.671394C62.932 0.671394 62.2862 0.698139 61.6521 0.752419C60.008 0.892445 58.372 1.2142 56.7891 1.70743C55.2201 2.19359 53.7 2.85124 52.2701 3.66151C51.811 3.9211 51.3604 4.19644 50.9313 4.47964C50.2634 4.92174 49.6233 5.39374 49.03 5.88147C45.8898 8.44836 43.4803 11.8263 42.0617 15.6503C39.6074 22.2606 40.2986 29.516 43.9582 35.5568C45.9869 38.9057 48.8547 41.6913 52.2517 43.6131C52.9709 44.019 53.7148 44.3895 54.4631 44.7121C54.8063 44.8615 55.1782 45.0118 55.5993 45.1707C56.746 45.5963 57.9305 45.9314 59.1195 46.1682C60.1158 46.368 61.1424 46.5033 62.1729 46.5678C63.3781 46.6441 64.6061 46.6229 65.823 46.5041C66.2604 46.46 66.701 46.4034 67.1328 46.3365C75.3417 45.0456 82.2337 39.4115 85.1199 31.6314C89.526 19.7606 83.453 6.51789 71.5822 2.11099C69.33 1.27634 66.992 0.799622 64.6344 0.694996C64.3779 0.680836 64.105 0.673752 63.8202 0.672176C63.7392 0.671391 63.6574 0.671394 63.5763 0.671394ZM63.5944 46.7354C63.1161 46.7354 62.6386 46.7204 62.1643 46.6905C61.1298 46.6252 60.0969 46.4899 59.0955 46.2885C57.9002 46.051 56.7091 45.7135 55.5566 45.2855C55.1327 45.1258 54.7592 44.9756 54.414 44.8253C53.6625 44.5004 52.9146 44.1283 52.1914 43.7193C48.7759 41.788 45.8926 38.9875 43.8531 35.6206C40.1744 29.5475 39.4796 22.2535 41.9466 15.607C43.3729 11.7634 45.7952 8.36655 48.9522 5.78629C49.549 5.2962 50.1922 4.82183 50.8638 4.37737C51.2953 4.0926 51.7483 3.81569 52.2098 3.55452C53.6473 2.74032 55.1754 2.07952 56.7527 1.59022C58.344 1.09383 59.9891 0.771301 61.6411 0.629704C62.3601 0.56913 63.0941 0.541595 63.821 0.549461C64.1073 0.551033 64.3834 0.558117 64.6407 0.572277C67.0101 0.677689 69.3607 1.15676 71.6255 1.99535C83.5592 6.42664 89.6653 19.7402 85.2348 31.6739C82.3336 39.4957 75.4046 45.1604 67.1525 46.4577C66.7175 46.5253 66.2754 46.582 65.8356 46.626C65.0899 46.6984 64.341 46.7354 63.5944 46.7354Z" fill="#371A45"/>
<path d="M67.4763 45.7227C70.767 44.6855 73.7645 42.9604 76.198 40.6445C78.5933 38.3647 80.3573 35.64 81.4448 32.5773C82.1972 33.0201 82.9942 33.2716 83.8061 33.3248C80.7002 39.8078 74.6238 44.4574 67.4763 45.7227ZM60.0531 45.6369C59.7626 45.6369 59.4701 45.6313 59.1782 45.6206C58.9543 45.576 58.7318 45.5278 58.5094 45.4754C58.5087 45.4754 58.5073 45.4754 58.5066 45.4754C58.4988 45.4733 58.4917 45.4719 58.4839 45.4697C58.4811 45.469 58.4789 45.4683 58.4768 45.4676C58.4711 45.4669 58.4648 45.4655 58.4584 45.4634C58.4541 45.4627 58.4506 45.4619 58.4463 45.4605C58.4421 45.4598 58.4378 45.4591 58.4336 45.4577C58.4279 45.4563 58.4223 45.4549 58.4166 45.4534C58.4138 45.4534 58.4102 45.452 58.4074 45.4513C58.4003 45.4499 58.3932 45.4485 58.3861 45.4464C58.3847 45.4464 58.3833 45.4456 58.3819 45.4456C57.5062 45.2359 56.6377 44.9717 55.7918 44.6578C55.3795 44.502 55.016 44.3553 54.6795 44.2087C54.0943 43.9565 53.512 43.6738 52.9424 43.3678C55.2944 44.1187 57.7124 44.497 60.1041 44.497C63.6938 44.497 67.2248 43.6448 70.3795 41.9261C74.852 39.4883 77.9791 35.6343 79.4172 30.9472C79.4406 30.9153 79.464 30.8827 79.4866 30.8501C79.7721 31.2065 80.081 31.5331 80.4126 31.825C79.3988 34.8493 77.6978 37.533 75.3571 39.761C71.4067 43.5208 65.8709 45.6369 60.0531 45.6369ZM84.5514 15.7261C84.2914 15.6829 84.0292 15.6595 83.7657 15.6567C83.7055 14.8604 83.6035 14.0705 83.4611 13.2905C83.8727 14.0797 84.2368 14.8937 84.5514 15.7261Z" fill="#B9AFBE"/>
<path d="M63.5774 1.08227C62.9429 1.08227 62.3084 1.1091 61.6865 1.16198C60.0727 1.30008 58.4659 1.61497 56.9113 2.09953C55.37 2.57778 53.8766 3.22334 52.4727 4.01884C52.0213 4.27454 51.579 4.54445 51.1579 4.82303C50.5019 5.25708 49.8734 5.72034 49.2909 6.19859C46.2063 8.72005 43.8404 12.037 42.4472 15.7928C40.0369 22.2854 40.7157 29.411 44.3098 35.3434C46.3022 38.6319 49.1184 41.368 52.4539 43.2542C53.1603 43.6535 53.891 44.0166 54.6257 44.3346C54.9637 44.4814 55.3296 44.629 55.7443 44.7852C56.8681 45.2027 58.0316 45.5326 59.1993 45.7646C60.1784 45.9611 61.1862 46.0929 62.1979 46.1568C63.3817 46.2318 64.5884 46.2113 65.7832 46.0937C66.2118 46.0511 66.645 45.9951 67.0696 45.9296C75.1304 44.6621 81.8993 39.1283 84.734 31.4882C89.0612 19.8303 83.0973 6.82441 71.4394 2.4957C69.2265 1.67653 66.9307 1.20854 64.6152 1.10595C64.3627 1.09174 64.0959 1.08464 63.8181 1.08385C63.7376 1.08227 63.6579 1.08227 63.5774 1.08227ZM63.594 47.1465C63.1063 47.1465 62.6202 47.1315 62.138 47.1007C61.0844 47.0336 60.0332 46.8963 59.014 46.6911C57.7983 46.4496 56.5862 46.1063 55.4131 45.6715C54.9809 45.5081 54.6009 45.355 54.2494 45.2011C53.4854 44.872 52.7244 44.4932 51.9885 44.0773C48.5119 42.1107 45.577 39.2601 43.5012 35.8334C39.7565 29.6525 39.0493 22.2286 41.5607 15.4637C43.0121 11.5509 45.4779 8.09422 48.6913 5.4678C49.2982 4.96903 49.953 4.48605 50.6365 4.03384C51.076 3.74421 51.537 3.46167 52.0069 3.1965C53.4695 2.36786 55.0252 1.69468 56.6304 1.1967C58.2497 0.69241 59.9243 0.363319 61.606 0.219685C62.3376 0.157341 63.0826 0.129711 63.8253 0.138393C64.1149 0.139183 64.3982 0.147079 64.6618 0.161282C67.0712 0.268612 69.4632 0.755543 71.7677 1.60945C83.9149 6.11967 90.1289 19.6701 85.6203 31.8165C82.6672 39.7778 75.615 45.5429 67.2156 46.864C66.7737 46.9318 66.3238 46.9894 65.8764 47.0352C65.1172 47.1094 64.3532 47.1465 63.594 47.1465Z" fill="#371A45"/>
<path d="M63.5779 1.21922C62.9475 1.21922 62.3171 1.24529 61.6985 1.29822C60.0939 1.43489 58.4974 1.74853 56.9525 2.22966C55.4204 2.70525 53.9362 3.34755 52.5407 4.13836C52.092 4.39196 51.6525 4.66056 51.2338 4.93707C50.5818 5.36843 49.9573 5.82822 49.3784 6.30461C46.3126 8.81057 43.9606 12.1073 42.5763 15.8402C40.1804 22.2931 40.8552 29.3757 44.4273 35.2717C46.4072 38.54 49.2067 41.2593 52.5219 43.1348C53.2238 43.5314 53.9501 43.8924 54.6804 44.2076C55.0168 44.3546 55.3804 44.5015 55.7931 44.6572C56.9097 45.0711 58.0659 45.399 59.2262 45.6297C60.199 45.8248 61.2015 45.956 62.2072 46.02C63.3836 46.0942 64.5828 46.0737 65.7703 45.9575C66.1961 45.9141 66.6266 45.8588 67.0493 45.7932C75.0609 44.5339 81.7888 39.0338 84.6052 31.44C88.9069 19.8527 82.9794 6.92635 71.3921 2.62467C69.1926 1.80936 66.911 1.34483 64.6097 1.24213C64.3577 1.22869 64.0938 1.22158 63.8181 1.22001C63.7375 1.21922 63.6577 1.21922 63.5779 1.21922ZM63.5937 47.2832C63.1039 47.2832 62.6149 47.2674 62.1306 47.2374C61.0704 47.1702 60.0126 47.032 58.9873 46.8258C57.7647 46.5824 56.5458 46.2372 55.3656 45.7995C54.9306 45.6352 54.5486 45.4812 54.195 45.3271C53.4271 44.9953 52.6613 44.6145 51.9213 44.1966C48.4244 42.2184 45.4724 39.3506 43.3841 35.9037C39.6179 29.6878 38.9067 22.2197 41.4324 15.416C42.8927 11.4801 45.3729 8.00316 48.6054 5.36132C49.215 4.85965 49.8738 4.37458 50.561 3.91952C51.0037 3.62721 51.4676 3.34359 51.9398 3.07656C53.4108 2.24309 54.9753 1.56683 56.5902 1.06516C58.2186 0.557968 59.9027 0.227737 61.595 0.0831642C62.3305 0.020752 63.0802 -0.00690079 63.8268 0.000999451C64.1183 0.00178909 64.4035 0.00969315 64.6697 0.0239105C67.0912 0.132145 69.4976 0.621956 71.8155 1.48071C84.034 6.01704 90.2839 19.6473 85.7492 31.8643C82.7787 39.8712 75.6851 45.6708 67.2373 46.9988C66.7925 47.0675 66.3399 47.1252 65.8911 47.171C65.1264 47.2461 64.3585 47.2832 63.5937 47.2832Z" fill="#371A45"/>
<path d="M47.5855 40.2011C61.5141 48.9653 79.5188 41.3661 79.7006 25.068C79.8248 13.9792 69.0632 5.29684 58.4054 5.86041C50.6487 6.27021 43.2552 10.0637 40.6004 22.2759C40.6004 22.2759 40.26 27.8639 41.9456 31.4915C43.6308 35.1199 45.8824 38.3635 45.8824 38.3635L47.5855 40.2011Z" fill="#371A45"/>
<path d="M79.6994 25.0679C79.5176 41.3659 61.5124 48.9648 47.584 40.2019L47.2393 39.8286C62.1929 41.7585 76.5374 32.1673 77.0272 15.6924C78.7393 18.4534 79.7368 21.6458 79.6994 25.0679Z" fill="#220F2D"/>
<path d="M59.1791 45.6205C65.3145 45.8435 71.2106 43.708 75.3584 39.76C79.3196 35.9908 81.4473 30.9169 81.5132 25.0889C81.5728 19.7572 79.3072 14.6152 75.1315 10.6099C70.5602 6.22512 64.2397 3.79466 58.219 4.11521C54.855 4.29252 51.8638 5.04357 49.3281 6.34591C46.2874 8.84606 43.9534 12.1275 42.5763 15.8401C40.1804 22.2938 40.8552 29.3761 44.4272 35.2722C46.4072 38.5405 49.2066 41.2597 52.5218 43.1351C53.2238 43.5315 53.9501 43.8931 54.6804 44.2082C55.0168 44.3553 55.3804 44.5017 55.7931 44.6573C56.8945 45.0661 58.0344 45.3905 59.1791 45.6205ZM60.0486 46.8555C59.7272 46.8555 59.4067 46.85 59.0846 46.8377L58.9886 46.826C57.7647 46.5829 56.5457 46.2376 55.3656 45.7993C54.9305 45.636 54.5486 45.4811 54.195 45.327C53.4272 44.9956 52.6613 44.6147 51.9213 44.1966C48.4244 42.2183 45.4724 39.3511 43.3841 35.904C39.6179 29.6874 38.9067 22.2202 41.4325 15.4158C42.8927 11.4809 45.3729 8.00365 48.6053 5.3618L48.6541 5.32154L48.7104 5.29212C51.4136 3.89145 54.5909 3.08541 58.155 2.89726C64.5046 2.55968 71.1657 5.11558 75.9763 9.72951C80.3967 13.971 82.7961 19.4305 82.7327 25.1028C82.6637 31.2677 80.4044 36.6419 76.1985 40.6434C72.022 44.6193 66.1801 46.8555 60.0486 46.8555Z" fill="#371A45"/>
<path d="M47.9777 39.7281C54.8454 44.0168 63.1992 44.4513 69.7971 40.8546C75.6271 37.6772 79.0149 31.9209 79.0909 25.0617C79.1433 20.3362 77.1341 15.7786 73.4333 12.229C69.3794 8.34058 63.7705 6.18787 58.4373 6.46968C49.2041 6.95734 43.4068 12.3034 41.2062 22.3583C41.1803 22.8877 40.9761 27.9596 42.4983 31.235C44.0496 34.5742 46.1159 37.6263 46.3596 37.9818L47.9777 39.7281ZM60.1061 44.4961C55.7215 44.4961 51.2489 43.2276 47.2605 40.7178L47.1926 40.6753L45.3812 38.7117C45.2881 38.5773 43.0804 35.3824 41.392 31.7492C39.6617 28.0241 39.9769 22.4737 39.9913 22.2398L40.004 22.1471C42.328 11.4572 48.5082 5.77312 58.3727 5.25204C64.0386 4.95275 69.9855 7.23156 74.278 11.3486C78.2242 15.1345 80.367 20.0096 80.3108 25.0754C80.2287 32.3888 76.61 38.5309 70.3813 41.9256C67.2266 43.6446 63.6953 44.4961 60.1061 44.4961Z" fill="#371A45"/>
<path d="M89.8507 23.5632C90.3469 28.0782 88.0967 32.1559 84.8256 32.6709C81.5532 33.1858 78.4984 29.9431 78.0022 25.4281C77.506 20.9131 79.7562 16.8354 83.0286 16.3205C86.2997 15.8056 89.3545 19.0482 89.8507 23.5632Z" fill="white"/>
<path d="M84.1415 32.1152C83.244 32.1152 82.354 31.7934 81.5373 31.1702C80.2101 30.1546 79.2209 28.4384 78.7871 26.4512C78.9691 26.4736 79.153 26.4859 79.3377 26.4859C79.5631 26.4859 79.7905 26.4682 80.0193 26.4329C80.3669 26.3779 80.7199 26.2849 81.0743 26.158C81.1693 26.8009 81.3364 27.42 81.5645 27.9957C81.5896 28.0718 81.6161 28.1471 81.6439 28.2225C82.1429 29.5667 82.9799 30.5137 83.9589 30.989C84.1592 31.1084 84.3683 31.211 84.5848 31.2965C85.0499 31.4791 85.5224 31.5701 85.9922 31.5701C86.039 31.5701 86.0859 31.5694 86.1327 31.5674C85.6962 31.8186 85.2271 31.991 84.7315 32.0684C84.5346 32.0996 84.3384 32.1152 84.1415 32.1152ZM87.1531 18.6006C86.9915 18.5415 86.8293 18.494 86.6663 18.4573C86.6684 18.3419 86.6677 18.2258 86.6643 18.109C86.834 18.2611 86.9969 18.4254 87.1531 18.6006Z" fill="#B9AFBE"/>
<path d="M83.7128 16.8768C83.5161 16.8768 83.3202 16.8921 83.1235 16.9234C80.1735 17.3876 78.1484 21.1729 78.6085 25.3613C78.8774 27.8019 79.972 29.9736 81.537 31.1695C82.5314 31.9298 83.6363 32.2411 84.7309 32.0681C87.6802 31.6039 89.7059 27.8186 89.2452 23.6302C88.9769 21.1896 87.8824 19.0179 86.3174 17.8219C85.5016 17.1978 84.6113 16.8768 83.7128 16.8768ZM84.1332 33.335C82.9699 33.335 81.8295 32.9284 80.7968 32.139C78.9441 30.7234 77.7051 28.3015 77.3965 25.4947C76.8663 20.6677 79.35 16.2819 82.9338 15.7183C84.3646 15.4932 85.792 15.8851 87.0582 16.8525C88.9102 18.2681 90.1486 20.6899 90.4571 23.4968C90.9881 28.3238 88.5037 32.7088 84.9206 33.2731C84.6572 33.3141 84.3945 33.335 84.1332 33.335Z" fill="#371A45"/>
<path d="M90.6163 26.81C89.8919 30.2721 87.2013 32.254 84.6074 31.2358C82.0142 30.2183 80.4985 26.5858 81.223 23.1237C81.9474 19.6616 84.6374 17.6797 87.2312 18.6979C89.8251 19.7154 91.3408 23.3479 90.6163 26.81Z" fill="white"/>
<path d="M85.8464 18.4926C85.2442 18.4926 84.6467 18.6474 84.0757 18.9563C82.7028 19.6977 81.6844 21.222 81.2838 23.1373C80.5668 26.5647 82.068 30.1714 84.6297 31.1769C85.6767 31.5877 86.7589 31.5191 87.7604 30.978C89.1339 30.2365 90.1517 28.7123 90.5523 26.7976C91.2693 23.3695 89.7688 19.7629 87.2064 18.7574C86.7569 18.5808 86.3 18.4926 85.8464 18.4926ZM85.9904 31.5693C85.5205 31.5693 85.0486 31.4784 84.5829 31.2957C81.9655 30.2685 80.4297 26.5973 81.1589 23.1109C81.5676 21.1589 82.6085 19.6034 84.0153 18.8436C85.0507 18.2841 86.171 18.2135 87.2532 18.6386C89.8706 19.6658 91.4064 23.3376 90.6772 26.8234C90.2685 28.7754 89.2276 30.3309 87.8208 31.0907C87.2308 31.4091 86.613 31.5693 85.9904 31.5693Z" fill="#371A45"/>
<path d="M83.9582 30.9883C82.9798 30.5133 82.1426 29.566 81.6436 28.2216C81.6157 28.1469 81.5892 28.0715 81.5645 27.9955C82.0787 29.2905 82.9082 30.3645 83.9582 30.9883Z" fill="#8C7B94"/>
<path d="M85.4556 31.3379C85.3136 31.3379 85.1729 31.3284 85.0329 31.3108C84.8983 31.2743 84.7638 31.2297 84.6299 31.1769C82.8452 30.477 81.5759 28.5145 81.2121 26.2295C81.1681 25.6682 81.1837 25.1015 81.254 24.5443C82.0439 26.2227 83.4065 27.1539 84.853 27.1539C85.6158 27.1539 86.4023 26.8949 87.1401 26.3499C88.521 25.3301 89.4137 23.5427 89.6558 21.633C89.7328 21.794 89.8032 21.9651 89.8688 22.1402C90.9657 25.0968 90.0135 28.8547 87.7413 30.5338C87.0042 31.0789 86.2177 31.3379 85.4556 31.3379Z" fill="#B9AFBE"/>
<path d="M85.0331 31.3115C84.6627 31.2642 84.3018 31.156 83.9575 30.989C82.9075 30.3645 82.0776 29.2909 81.5638 27.9958C81.3744 27.427 81.2593 26.8313 81.2119 26.2298C81.576 28.5147 82.8455 30.4772 84.63 31.1772C84.7644 31.2296 84.8988 31.2744 85.0331 31.3115Z" fill="#371A45"/>
<path d="M85.7164 18.6966C85.5831 18.6966 85.4498 18.7068 85.3172 18.7294C83.203 19.0793 81.7122 22.1662 82.0628 25.4712C82.2802 27.5259 83.1469 29.3134 84.3814 30.2533C85.0629 30.7714 85.8059 30.9819 86.5319 30.8623C88.6461 30.5123 90.1369 27.4247 89.7862 24.1205C89.5689 22.0658 88.7021 20.2776 87.4676 19.3377C86.9105 18.9146 86.3124 18.6966 85.7164 18.6966ZM86.1245 32.1152C85.2639 32.1152 84.4163 31.8124 83.6425 31.2239C82.1462 30.0844 81.1018 27.9818 80.8495 25.5997C80.4189 21.5394 82.2946 17.9932 85.1183 17.5263C86.1839 17.35 87.2516 17.6405 88.2059 18.3678C89.7028 19.5066 90.7466 21.6091 90.9995 23.992C91.4295 28.0516 89.5545 31.5978 86.7308 32.0653C86.5284 32.0988 86.3261 32.1152 86.1245 32.1152Z" fill="#371A45"/>
<path d="M47.0573 33.499C44.4189 31.3693 42.8408 28.8531 42.5524 25.2269C42.5252 24.87 42.51 24.4997 42.5064 24.1199C42.5052 24.032 42.506 23.9455 42.5084 23.8583L42.5092 23.8531C42.5559 23.0824 42.6558 22.0729 42.8636 20.943C43.488 17.5363 45.0849 13.0382 49.1424 10.72C52.3681 8.87699 55.6143 8.31463 58.2532 8.31463C61.8218 8.31463 64.2818 9.34107 64.0934 9.61671C64.0934 9.61671 53.7037 10.8331 48.2866 17.1373C48.281 17.144 48.2755 17.1506 48.2699 17.1572C47.1308 18.4852 46.3717 20.0976 46.0605 21.8195C45.6486 24.0955 45.6981 25.725 45.7972 27.1579C46.1001 31.5141 47.0573 33.499 47.0573 33.499Z" fill="#C3BAC7"/>
<path d="M72.8826 23.3418C71.534 23.3418 70.2075 22.3438 69.6788 20.804C69.0348 18.9308 69.8161 16.9645 71.4243 16.4123C71.7107 16.3143 72.004 16.2674 72.296 16.2674C73.6439 16.2674 74.9711 17.2647 75.5005 18.8045C76.1437 20.6784 75.3618 22.6447 73.7543 23.1969C73.4679 23.2949 73.1746 23.3418 72.8826 23.3418Z" fill="#C3BAC7"/>
<path d="M74.0396 27.1221C73.835 26.9628 73.661 26.7441 73.5446 26.4799C73.214 25.7316 73.4672 24.8951 74.1094 24.6118C74.2545 24.5478 74.4067 24.5178 74.5596 24.5178C74.7751 24.5178 74.9913 24.5779 75.1889 24.6885C74.8481 25.5295 74.4637 26.3418 74.0396 27.1221Z" fill="#C3BAC7"/>
<path d="M74.8545 27.417C74.569 27.417 74.2823 27.311 74.0391 27.122C74.4624 26.3424 74.8474 25.5302 75.1884 24.6892C75.4725 24.8489 75.719 25.1126 75.8691 25.4548C76.1992 26.2032 75.9463 27.039 75.304 27.3225C75.159 27.3863 75.0071 27.417 74.8545 27.417Z" fill="#BCB7C0"/>
<path d="M119.11 67.9268C111.301 84.856 88.3426 97.1191 61.2351 97.1191C34.1274 97.1191 11.1692 84.856 3.36035 67.9268H119.11Z" fill="#371A45"/>
<path d="M79.4068 86.785L78.6864 86.8965C78.5423 86.9184 78.4285 87.0319 78.4067 87.1761L78.2954 87.8965L78.184 87.1761C78.1622 87.0319 78.049 86.9184 77.9043 86.8965L77.1846 86.785L77.9043 86.6739C78.049 86.6516 78.1622 86.5385 78.184 86.3943L78.2954 85.674L78.4067 86.3943C78.4285 86.5385 78.5423 86.6516 78.6864 86.6739L79.4068 86.785Z" fill="#FFE266"/>
<path d="M60.8299 83.5887L60.1095 83.7002C59.9656 83.7222 59.8521 83.8356 59.8299 83.9798L59.7184 84.7002L59.6074 83.9798C59.5848 83.8356 59.4717 83.7222 59.3278 83.7002L58.6074 83.5887L59.3278 83.4777C59.4717 83.4553 59.5848 83.3422 59.6074 83.198L59.7184 82.4777L59.8299 83.198C59.8521 83.3422 59.9656 83.4553 60.1095 83.4777L60.8299 83.5887Z" fill="#FFE266"/>
<path d="M67.7364 90.7138L67.0116 90.8257C66.8664 90.848 66.7522 90.9623 66.7297 91.1073L66.6182 91.832L66.5061 91.1073C66.4837 90.9623 66.3695 90.848 66.2248 90.8257L65.5 90.7138L66.2248 90.6019C66.3695 90.5796 66.4837 90.4657 66.5061 90.3203L66.6182 89.5955L66.7297 90.3203C66.7522 90.4657 66.8664 90.5796 67.0116 90.6019L67.7364 90.7138Z" fill="#FFE266"/>
<path d="M100.571 82.5332L99.5943 82.6842C99.3988 82.7147 99.2444 82.868 99.2143 83.0638L99.0635 84.041L98.9128 83.0638C98.8819 82.868 98.729 82.7147 98.5327 82.6842L97.5557 82.5332L98.5327 82.3822C98.729 82.3523 98.8819 82.1985 98.9128 82.0027L99.0635 81.0255L99.2143 82.0027C99.2444 82.1985 99.3988 82.3523 99.5943 82.3822L100.571 82.5332Z" fill="#FFE266"/>
<path d="M12.6592 70.9478L11.8114 71.0789C11.6415 71.1049 11.5082 71.2383 11.482 71.4081L11.3511 72.2559L11.2201 71.4081C11.1939 71.2383 11.0606 71.1049 10.8908 71.0789L10.043 70.9478L10.8908 70.8168C11.0606 70.7908 11.1939 70.6574 11.2201 70.4876L11.3511 69.6398L11.482 70.4876C11.5082 70.6574 11.6415 70.7908 11.8114 70.8168L12.6592 70.9478Z" fill="#FFE266"/>
<path d="M49.2549 80.8262L48.3364 80.9682C48.1527 80.9964 48.0081 81.1406 47.9796 81.3251L47.8379 82.2432L47.6958 81.3251C47.6677 81.1406 47.5235 80.9964 47.3394 80.9682L46.4209 80.8262L47.3394 80.6845C47.5235 80.6559 47.6677 80.5113 47.6958 80.3276L47.8379 79.4092L47.9796 80.3276C48.0081 80.5113 48.1527 80.6559 48.3364 80.6845L49.2549 80.8262Z" fill="#FFE266"/>
<path d="M89.7456 87.0243L88.8716 87.1593C88.6964 87.1861 88.5586 87.3236 88.5318 87.4989L88.3967 88.373L88.2617 87.4989C88.2349 87.3236 88.0971 87.1861 87.9226 87.1593L87.0479 87.0243L87.9226 86.8893C88.0971 86.8621 88.2349 86.7247 88.2617 86.5497L88.3967 85.6755L88.5318 86.5497C88.5586 86.7247 88.6964 86.8621 88.8716 86.8893L89.7456 87.0243Z" fill="#FFE266"/>
<path d="M36.4536 80.6126L35.7336 80.7236C35.5894 80.746 35.4759 80.8591 35.4536 81.0033L35.3425 81.7236L35.2314 81.0033C35.2091 80.8591 35.0956 80.746 34.9514 80.7236L34.2314 80.6126L34.9514 80.5011C35.0956 80.4787 35.2091 80.3657 35.2314 80.2214L35.3425 79.5011L35.4536 80.2214C35.4759 80.3657 35.5894 80.4787 35.7336 80.5011L36.4536 80.6126Z" fill="#FFE266"/>
<path d="M38.339 89.5225L37.86 88.9731C37.7641 88.8633 37.6079 88.8281 37.4741 88.886L36.8057 89.1769L37.355 88.6983C37.4653 88.6024 37.5004 88.4462 37.4421 88.3123L37.1512 87.6439L37.6303 88.1933C37.7261 88.3035 37.8824 88.3387 38.0162 88.2804L38.6842 87.9895L38.1349 88.4681C38.025 88.5644 37.9898 88.7206 38.0482 88.8545L38.339 89.5225Z" fill="#FFE266"/>
<path d="M51.9915 90.406L51.1579 90.5346C50.9909 90.5606 50.8598 90.6916 50.8335 90.8586L50.705 91.6924L50.5765 90.8586C50.5507 90.6916 50.42 90.5606 50.253 90.5346L49.4189 90.406L50.253 90.2773C50.42 90.2513 50.5507 90.1203 50.5765 89.9533L50.705 89.1199L50.8335 89.9533C50.8598 90.1203 50.9909 90.2513 51.1579 90.2773L51.9915 90.406Z" fill="#FFE266"/>
<path d="M25.6913 83.3583L24.9709 83.4697C24.8267 83.4917 24.7136 83.6052 24.6913 83.7494L24.5802 84.4697L24.4687 83.7494C24.4468 83.6052 24.3333 83.4917 24.1891 83.4697L23.4688 83.3583L24.1891 83.2472C24.3333 83.2248 24.4468 83.1118 24.4687 82.9675L24.5802 82.2472L24.6913 82.9675C24.7136 83.1118 24.8267 83.2248 24.9709 83.2472L25.6913 83.3583Z" fill="#FFE266"/>
<path d="M111.273 71.7532L110.42 71.885C110.25 71.9113 110.115 72.0452 110.089 72.2162L109.958 73.0684L109.826 72.2162C109.8 72.0452 109.666 71.9113 109.495 71.885L108.643 71.7532L109.495 71.6217C109.666 71.5953 109.8 71.4615 109.826 71.2905L109.958 70.4383L110.089 71.2905C110.115 71.4615 110.25 71.5953 110.42 71.6217L111.273 71.7532Z" fill="#FFE266"/>
<path d="M94.0059 82.584H66.585L67.9741 79.1278L70.0379 73.9944L87.7212 74.1806L91.7863 79.6156L94.0059 82.584Z" fill="white"/>
<path d="M67.487 81.9736H92.7887L87.4148 74.7879L70.4489 74.6085L67.487 81.9736ZM95.2238 83.1934H65.6826L69.6286 73.3804L88.0301 73.5745L95.2238 83.1934Z" fill="#371A45"/>
<path d="M90.2515 80.614C89.4056 80.6164 88.5597 80.6 87.7138 80.5937L85.1769 80.5417C84.3317 80.5293 83.4844 80.4925 82.6426 80.4722C81.7987 80.4562 80.9542 80.4471 80.109 80.4467C78.4193 80.4219 76.7282 80.4266 75.0371 80.4127L72.5008 80.3903C71.6549 80.3739 70.8091 80.3687 69.9639 80.3463C70.8084 80.3008 71.6536 80.2768 72.4995 80.2437L75.0358 80.1821C76.7275 80.1486 78.4193 80.1458 80.111 80.147C80.9569 80.1565 81.8034 80.175 82.65 80.2001C83.4979 80.2341 84.3411 80.264 85.1863 80.3124L87.7192 80.4474C88.5631 80.5034 89.4076 80.5489 90.2515 80.614Z" fill="#371A45"/>
<path d="M89.1202 78.7501C88.3429 78.7581 87.5656 78.7469 86.7876 78.7457L84.455 78.7097C82.8998 78.6838 81.3478 78.6186 79.7939 78.5735L75.1361 78.4157C74.3594 78.3902 73.5848 78.3673 72.8082 78.3845C72.5389 78.3837 72.2689 78.3841 71.9989 78.3845C71.4916 78.3853 70.9843 78.3861 70.4756 78.3785C72.0255 78.281 73.5821 78.1672 75.1394 78.1852C76.6953 78.184 78.2499 78.2259 79.8045 78.2743C81.3578 78.327 82.9117 78.4001 84.4637 78.4804L86.7916 78.5995C87.5676 78.6502 88.3442 78.6906 89.1202 78.7501Z" fill="#371A45"/>
<path d="M87.9517 77.1416C87.2367 77.1376 86.5244 77.1144 85.8114 77.1016L83.6743 77.0301L79.3989 76.9007L75.1247 76.75C74.4124 76.7229 73.7007 76.7013 72.9883 76.6929C72.2733 76.6674 71.5597 76.6518 70.8486 76.6174C72.276 76.5635 73.6987 76.5144 75.1287 76.5195C76.556 76.5187 77.9827 76.5574 79.4087 76.6014C80.8341 76.6541 82.2595 76.7069 83.6842 76.8011L85.8199 76.9558C86.531 77.0181 87.242 77.07 87.9517 77.1416Z" fill="#371A45"/>
<path d="M86.9063 75.5961C85.614 75.728 84.314 75.6768 83.0197 75.6577C81.7255 75.6317 80.4319 75.5877 79.1384 75.549L75.2577 75.408C74.6109 75.3812 73.9647 75.3576 73.3186 75.3445C72.6757 75.322 72.0146 75.3261 71.3848 75.2833L73.318 75.1978C73.966 75.181 74.6141 75.179 75.2622 75.1774C76.5584 75.1763 77.8533 75.2102 79.1475 75.2494C80.4424 75.2961 81.7359 75.348 83.0289 75.4283C83.6756 75.4687 84.3205 75.5066 84.9672 75.537C85.6134 75.5722 86.2595 75.6125 86.9063 75.5961Z" fill="#371A45"/>
<path d="M107.716 78.2891H80.2949L83.7499 69.6995L86.3939 69.727L101.432 69.8868L107.716 78.2891Z" fill="white"/>
<path d="M64.2027 69.3344L54.3428 78.234C54.3428 78.234 63.1302 77.7814 67.2089 77.793C70.5345 77.8025 81.6582 78.6543 81.6582 78.6543L84.2452 69.6999L64.2027 69.3344Z" fill="white"/>
<path d="M81.8112 79.9814C81.8112 79.9814 72.8711 79.2954 68.624 79.1468L68.9048 78.4481C73.2473 78.6238 81.5149 79.2551 81.611 79.2623L82.1056 79.3002L82.2219 78.8987H90.4888L91.0247 79.6155H81.9161L81.8112 79.9814Z" fill="#B9AFBE"/>
<path d="M91.787 79.6152H91.0253L90.4898 78.8985H91.2508L91.787 79.6152ZM68.6246 79.1466C68.3929 79.1386 68.1756 79.1319 67.9746 79.1274L68.2573 78.4239C68.4617 78.4307 68.6784 78.4386 68.9059 78.4478L68.6246 79.1466Z" fill="#371A45"/>
<path d="M107.716 78.2891H80.2949L83.7499 69.6995L86.3939 69.727L101.432 69.8868L107.716 78.2891Z" fill="white"/>
<path d="M81.1984 77.6787H106.499L101.125 70.493L84.1603 70.3136L81.1984 77.6787ZM108.935 78.8984H79.3926L83.3392 69.0855L101.741 69.2797L108.935 78.8984Z" fill="#371A45"/>
<path d="M103.962 76.32C103.116 76.3229 102.27 76.3061 101.424 76.2996L98.8871 76.2481C98.0427 76.2353 97.1953 76.1986 96.3531 76.1786C95.5087 76.1622 94.6642 76.1531 93.8198 76.1526C92.1294 76.1283 90.4391 76.133 88.748 76.1187L86.2116 76.0967C85.3657 76.0799 84.5205 76.0747 83.6738 76.0524C84.519 76.0068 85.3642 75.9828 86.2101 75.9497L88.7464 75.8885C90.4383 75.8546 92.1294 75.8522 93.8221 75.8534C94.6673 75.863 95.514 75.8814 96.3607 75.9065C97.2089 75.9401 98.0518 75.9704 98.8962 76.0188L101.429 76.1538C102.274 76.2098 103.118 76.2553 103.962 76.32Z" fill="#371A45"/>
<path d="M102.83 74.4551C102.052 74.4631 101.275 74.452 100.497 74.4508L98.1649 74.4152C96.6092 74.3892 95.0579 74.3241 93.5044 74.279L88.8453 74.1211C88.0693 74.0956 87.2948 74.0724 86.5173 74.09C86.2462 74.0892 85.975 74.0896 85.7031 74.09C85.1975 74.0908 84.6919 74.0912 84.1855 74.084C85.7361 73.9865 87.2926 73.8723 88.8491 73.8907C90.4056 73.8891 91.9599 73.9314 93.5141 73.9797C95.0684 74.0321 96.6219 74.1052 98.1739 74.1859L100.502 74.305C101.278 74.3553 102.054 74.396 102.83 74.4551Z" fill="#371A45"/>
<path d="M101.662 73.0469C100.947 73.0429 100.234 73.0197 99.5215 73.0065L97.3841 72.9354L93.1087 72.8059L88.8348 72.6549C88.1226 72.6282 87.4111 72.6066 86.6982 72.5982C85.9837 72.5727 85.2701 72.5571 84.5586 72.5227C85.986 72.4687 87.4089 72.4196 88.8392 72.4248C90.2666 72.424 91.6932 72.4628 93.1191 72.5067C94.545 72.559 95.9701 72.6122 97.3945 72.7061L99.5296 72.8607C100.241 72.923 100.953 72.9754 101.662 73.0469Z" fill="#371A45"/>
<path d="M100.617 71.7013C99.3246 71.8335 98.0243 71.7824 96.7307 71.7628C95.4355 71.7373 94.1426 71.6933 92.8489 71.6541L88.9686 71.5132C88.3222 71.4868 87.675 71.4632 87.0292 71.4501C86.3864 71.4276 85.7253 71.4312 85.0957 71.3889L87.0285 71.3034C87.6772 71.2862 88.3251 71.2842 88.973 71.283C90.2689 71.2818 91.5641 71.3158 92.8585 71.355C94.1529 71.4017 95.4473 71.4532 96.7402 71.5339C97.386 71.5743 98.0317 71.6122 98.6774 71.6426C99.3239 71.6778 99.9704 71.7177 100.617 71.7013Z" fill="#371A45"/>
<path d="M0.529862 67.3869L4.28674 67.319L8.04361 67.2674L15.5574 67.1663L30.5848 67.0405C35.5939 66.9898 40.6035 66.9861 45.6126 66.9602L60.64 66.9354L75.6674 66.9594C80.6763 66.9861 85.686 66.989 90.6949 67.0401L105.722 67.1659L113.236 67.2674L116.993 67.3185L120.75 67.3869C121.048 67.3921 121.285 67.6382 121.28 67.9363C121.274 68.2271 121.039 68.46 120.75 68.4656L116.993 68.5339L113.236 68.585L105.722 68.6865L90.6949 68.8127C85.686 68.8635 80.6763 68.8663 75.6674 68.893L60.64 68.917L45.6126 68.8922C40.6035 68.8663 35.5939 68.8627 30.5848 68.812L15.5574 68.6861L8.04361 68.585L4.28674 68.5335L0.529862 68.4656C0.231864 68.4603 -0.00525737 68.2142 8.86483e-05 67.9166C0.00543467 67.6254 0.241263 67.3924 0.529862 67.3869Z" fill="#371A45"/>
<path d="M51.3298 76.9297L59.9561 68.9104C59.9906 68.8783 60.01 68.8335 60.01 68.7863V67.3453C60.01 67.2476 59.9279 67.1702 59.8301 67.1761L32.2379 68.8603L19.4316 76.9297H51.3298Z" fill="#BCC6D2"/>
<path d="M51.298 76.127L51.0703 75.2033L59.3568 68.6349L51.298 76.127Z" fill="#8897B1"/>
<path d="M21.5449 76.3197H51.0914L59.4018 68.5935V67.8133L32.4323 69.459L21.5449 76.3197ZM51.5712 77.5391H17.3213L32.0461 68.2607L32.202 68.2509L59.7949 66.567C60.009 66.5528 60.2208 66.6312 60.3761 66.7777C60.532 66.9243 60.6216 67.1311 60.6216 67.3452V68.7861C60.6216 69.0012 60.531 69.209 60.3737 69.3561L51.5712 77.5391Z" fill="#371A45"/>
<path d="M51.3298 73.54L60.01 67.1655H32.2379L19.4316 73.54H51.3298Z" fill="#BCC6D2"/>
<path d="M49.0918 72.7354L54.7387 68.5881H36.6722L28.3418 72.7354H49.0918Z" fill="white"/>
<path d="M21.1327 73.1404H51.2009L58.7931 67.5652H32.3337L21.1327 73.1404ZM51.4629 73.9395H17.7344L32.1453 66.7661H59.4948C59.7417 66.7661 59.9589 66.9233 60.0354 67.1576C60.1123 67.3918 60.0305 67.6474 59.8318 67.7935L51.4629 73.9395Z" fill="#371A45"/>
<path d="M50.5084 77.3066H14.222C13.9872 77.3066 13.7722 77.2107 13.6167 77.0508C13.5146 76.9471 13.4383 76.8129 13.4002 76.6618L7.2973 51.8936C7.03358 50.8248 7.8416 49.7928 8.94235 49.7928H42.8183C43.9346 49.7928 44.9119 50.52 45.2428 51.5733C45.2597 51.6237 45.2748 51.6756 45.2869 51.7274L51.3302 76.2562C51.4629 76.7902 51.0574 77.3066 50.5084 77.3066Z" fill="#BCC6D2"/>
<path d="M50.5074 77.3076H15.2307L15.1804 77.1036C15.5442 77.1102 15.9377 77.1149 16.3577 77.1149C22.5999 77.1149 34.6544 76.1718 40.9104 69.4225C45.6159 64.3454 45.7139 56.4054 45.2489 51.6427C45.2537 51.6431 45.2584 51.6436 45.2631 51.6446C45.2589 51.6289 45.2541 51.6133 45.2494 51.5982C45.2636 51.6408 45.2759 51.6843 45.2859 51.7279L51.3293 76.2571C51.3468 76.3257 51.3544 76.3944 51.3548 76.4616C51.3553 76.9156 50.986 77.3076 50.5074 77.3076ZM14.2163 77.3076C14.2158 77.3076 14.2152 77.3076 14.2147 77.3076C14.2152 77.3076 14.2158 77.3076 14.2163 77.3076ZM14.2062 77.3076C14.2055 77.3076 14.2048 77.3076 14.204 77.3076C14.2047 77.3076 14.2055 77.3076 14.2062 77.3076ZM14.2013 77.3076C14.2005 77.3076 14.1997 77.3076 14.1988 77.3071C14.1996 77.3076 14.2005 77.3076 14.2013 77.3076ZM14.1971 77.3071C14.1932 77.3071 14.1893 77.3071 14.1855 77.3067C14.1893 77.3071 14.1932 77.3071 14.1971 77.3071ZM14.1804 77.3067C14.1025 77.3024 14.027 77.2887 13.9557 77.2645C14.0271 77.2882 14.1026 77.3024 14.1804 77.3067Z" fill="#8897B1"/>
<path d="M14.205 77.3066C14.204 77.3066 14.2032 77.3066 14.2023 77.3066C14.2032 77.3066 14.2041 77.3066 14.205 77.3066ZM14.1997 77.3062C14.1991 77.3062 14.1986 77.3062 14.198 77.3062C14.1986 77.3062 14.1992 77.3062 14.1997 77.3062ZM13.9566 77.2639C13.9558 77.2639 13.9549 77.2635 13.9541 77.2631C13.9549 77.2635 13.9557 77.2635 13.9566 77.2639Z" fill="#7D6A86"/>
<path d="M13.9527 77.2627C13.6834 77.1724 13.4709 76.9491 13.4002 76.6618C13.4384 76.8128 13.5146 76.9471 13.6167 77.0505C13.7101 77.1468 13.825 77.2199 13.9527 77.2627Z" fill="#7D6A86"/>
<path d="M45.2516 51.5977C45.2492 51.5894 45.2463 51.5817 45.2439 51.5734C44.9309 50.5778 44.0404 49.8738 43.0016 49.7992C44.0491 49.8738 44.9464 50.5889 45.2516 51.5977ZM42.9284 49.7953C42.9274 49.7953 42.926 49.7948 42.9245 49.7948C42.9265 49.7948 42.9274 49.7953 42.9284 49.7953ZM42.909 49.7943C42.9081 49.7943 42.9061 49.7943 42.9051 49.7938C42.9061 49.7943 42.9076 49.7943 42.909 49.7943ZM42.8426 49.7929C42.8417 49.7929 42.8407 49.7929 42.8397 49.7929C42.8402 49.7929 42.8417 49.7929 42.8426 49.7929Z" fill="#DEF4FF"/>
<path d="M15.181 77.1025C14.5702 77.0904 14.0425 77.071 13.6167 77.0502C13.5146 76.9465 13.4383 76.8123 13.4003 76.6611L12.0166 71.0462L11.9658 70.8398L7.29731 51.893C7.26335 51.7554 7.24717 51.6178 7.24707 51.4836C7.24678 50.5751 7.98348 49.7922 8.94237 49.7922H42.8183C42.8207 49.7922 42.8227 49.7922 42.8251 49.7922C42.8256 49.7922 42.8261 49.7922 42.8265 49.7922C42.8285 49.7922 42.8299 49.7922 42.8319 49.7922C42.8328 49.7922 42.8338 49.7922 42.8348 49.7922C42.8362 49.7922 42.8372 49.7922 42.8387 49.7922C42.8396 49.7922 42.8406 49.7922 42.8416 49.7922C42.843 49.7922 42.844 49.7922 42.845 49.7922C42.8459 49.7922 42.8474 49.7922 42.8484 49.7922C42.8493 49.7922 42.8503 49.7922 42.8517 49.7922C42.8527 49.7922 42.8542 49.7926 42.8551 49.7926C42.8561 49.7926 42.8571 49.7926 42.858 49.7926C42.859 49.7926 42.8605 49.7926 42.8614 49.7926C42.8629 49.7926 42.8639 49.7926 42.8648 49.7926C42.8663 49.7926 42.8672 49.7926 42.8682 49.7926C42.8692 49.7926 42.8706 49.7926 42.8711 49.7926C42.8726 49.7926 42.8735 49.7926 42.875 49.7926C42.8755 49.7931 42.8769 49.7931 42.8779 49.7931C42.8794 49.7931 42.8803 49.7931 42.8818 49.7931C42.8823 49.7931 42.8837 49.7931 42.8842 49.7931C42.8857 49.7931 42.8866 49.7931 42.8881 49.7931C42.889 49.7931 42.89 49.7931 42.891 49.7931C42.8924 49.7931 42.8934 49.7931 42.8949 49.7931C42.8958 49.7931 42.8968 49.7931 42.8978 49.7931C42.8987 49.7931 42.9002 49.7931 42.9012 49.7931C42.9021 49.7931 42.9031 49.7931 42.9041 49.7931C42.905 49.7936 42.907 49.7936 42.9079 49.7936C42.9089 49.7936 42.9094 49.7936 42.9109 49.7936C42.9118 49.7936 42.9133 49.7936 42.9142 49.7936C42.9152 49.7936 42.9162 49.7941 42.9172 49.7941C42.9186 49.7941 42.9201 49.7941 42.921 49.7941C42.922 49.7941 42.923 49.7941 42.9235 49.7941C42.9249 49.7941 42.9264 49.7946 42.9273 49.7946C42.9283 49.7946 42.9293 49.7946 42.9297 49.7946C42.9317 49.7946 42.9331 49.7946 42.9346 49.7946C42.9351 49.7951 42.936 49.7951 42.9365 49.7951C42.938 49.7951 42.9394 49.7951 42.9409 49.7951C42.9414 49.7951 42.9423 49.7951 42.9433 49.7951C42.9448 49.7955 42.9457 49.7955 42.9477 49.7955C42.9482 49.7955 42.9491 49.7955 42.9496 49.7955C42.9511 49.7955 42.9525 49.7955 42.9545 49.7955C42.9549 49.7955 42.9554 49.7955 42.9559 49.7955C42.9574 49.7955 42.9593 49.796 42.9608 49.796C42.9617 49.796 42.9617 49.796 42.9622 49.796C42.9641 49.796 42.9656 49.796 42.9675 49.7965C42.968 49.7965 42.9685 49.7965 42.9685 49.7965C42.9709 49.7965 42.9724 49.7965 42.9738 49.797C42.9743 49.797 42.9748 49.797 42.9753 49.797C42.9772 49.797 42.9787 49.797 42.9801 49.7975C42.9806 49.7975 42.9816 49.7975 42.9821 49.7975C42.9835 49.7975 42.985 49.798 42.9869 49.798C42.9874 49.798 42.9874 49.798 42.9879 49.798C42.9898 49.798 42.9918 49.798 42.9937 49.798C42.9937 49.798 42.9937 49.798 42.9942 49.798C42.9961 49.798 42.9981 49.7985 43.0005 49.7985C44.0393 49.8731 44.9298 50.5771 45.2428 51.5727C45.2447 51.5955 45.2472 51.6183 45.2496 51.641C45.1478 51.6289 45.0456 51.6217 44.941 51.6217H9.9486C9.41651 51.6217 9.02469 52.1202 9.15279 52.6372L15.181 77.1025Z" fill="#8897B1"/>
<path d="M15.2307 77.3066H14.2214C14.2197 77.3066 14.2181 77.3066 14.2163 77.3066C14.2158 77.3066 14.2153 77.3066 14.2147 77.3066C14.2136 77.3066 14.2125 77.3066 14.2113 77.3066C14.2107 77.3066 14.2099 77.3066 14.2092 77.3066C14.2082 77.3066 14.2073 77.3066 14.2063 77.3066C14.2055 77.3066 14.2047 77.3066 14.204 77.3066C14.2032 77.3066 14.2022 77.3066 14.2014 77.3066C14.2006 77.3066 14.1997 77.3066 14.1988 77.3062C14.1982 77.3062 14.1977 77.3062 14.1971 77.3062C14.1933 77.3062 14.1893 77.3062 14.1855 77.3062C14.1853 77.3062 14.1851 77.3062 14.1848 77.3062C14.1834 77.3062 14.182 77.3062 14.1805 77.3062C14.1805 77.3062 14.1805 77.3062 14.1804 77.3062C14.1026 77.3019 14.0272 77.2877 13.9557 77.264C13.9548 77.2635 13.954 77.2635 13.9532 77.2631C13.9529 77.2631 13.9525 77.2631 13.9522 77.2626C13.8244 77.22 13.7096 77.147 13.6162 77.0504C14.042 77.0713 14.5697 77.0912 15.1805 77.103L15.2307 77.3066ZM45.2634 51.6436C45.2586 51.6432 45.2539 51.6422 45.2487 51.6417C45.2463 51.619 45.244 51.5963 45.2421 51.5735C45.2444 51.5816 45.2473 51.5896 45.2496 51.5977C45.2544 51.6128 45.2586 51.6285 45.2634 51.6436Z" fill="#8A9EDC"/>
<path d="M8.94238 50.4027C8.60666 50.4027 8.2953 50.554 8.08833 50.8186C7.88117 51.0828 7.80861 51.4211 7.88878 51.7473L13.9915 76.5157C14.0179 76.6222 14.1126 76.6964 14.2223 76.6964H50.5076C50.6082 76.6964 50.6683 76.6397 50.6946 76.6056C50.7215 76.5714 50.762 76.5001 50.7381 76.4024L44.6945 51.8728C44.4816 51.0071 43.7102 50.4027 42.8182 50.4027H8.94238ZM50.5076 77.916H14.2223C13.5498 77.916 12.9681 77.4605 12.8074 76.8077L6.70463 52.0393C6.53399 51.3469 6.68847 50.6277 7.12819 50.0663C7.56805 49.5053 8.22934 49.183 8.94238 49.183H42.8182C44.2727 49.183 45.5309 50.1693 45.8785 51.5808L51.9226 76.1105C52.0305 76.5484 51.9328 77.003 51.6545 77.3575C51.3767 77.7129 50.9588 77.916 50.5076 77.916Z" fill="#371A45"/>
<path d="M84.0979 77.6787H82.5752L84.7016 70.3192L86.2192 70.3352L85.9254 71.3523L85.0958 71.3892C85.3611 71.4071 85.6316 71.4167 85.9047 71.4235L85.5986 72.4846C85.2523 72.4966 84.9061 72.5094 84.5593 72.5225C84.8977 72.539 85.2368 72.5509 85.5759 72.5617L85.154 74.0223C84.8311 74.0427 84.5088 74.0635 84.1865 74.0839C84.503 74.0883 84.8188 74.0899 85.1346 74.0903L84.58 76.0099C84.2778 76.0223 83.9756 76.0355 83.674 76.0519C83.9704 76.0599 84.2661 76.0655 84.5625 76.0703L84.0979 77.6787Z" fill="#B9AFBE"/>
<path d="M83.9217 78.2891H82.3984L82.5748 77.679H84.098L83.9217 78.2891ZM86.219 70.3355L84.7009 70.3195L84.8772 69.7111L86.3946 69.7271L86.219 70.3355Z" fill="#371A45"/>
<path d="M84.5625 76.0703C84.2663 76.0655 83.9701 76.0599 83.6738 76.052C83.9758 76.0356 84.2778 76.0224 84.5797 76.01L84.5625 76.0703Z" fill="#371A45"/>
<path d="M85.1336 74.0898C84.8185 74.0895 84.502 74.0879 84.1855 74.0835C84.5084 74.0631 84.8306 74.0423 85.1535 74.0219L85.1336 74.0898Z" fill="#371A45"/>
<path d="M85.575 72.5615C85.236 72.5507 84.897 72.5388 84.5586 72.5223C84.9053 72.5092 85.2514 72.4964 85.5976 72.4844L85.575 72.5615Z" fill="#371A45"/>
<path d="M85.9033 71.4229C85.631 71.4161 85.36 71.4065 85.0947 71.3885L85.924 71.3517L85.9033 71.4229Z" fill="#371A45"/>
<path d="M64.2027 69.3344L54.3428 78.234C54.3428 78.234 63.1302 77.7814 67.2089 77.793C70.5345 77.8025 81.6582 78.6543 81.6582 78.6543L84.2452 69.6999L64.2027 69.3344Z" fill="white"/>
<path d="M67.0537 77.1828C67.1075 77.1828 67.1593 77.1828 67.2112 77.1828C70.1595 77.1912 78.9924 77.8416 81.2105 78.0086L83.4395 70.2947L64.433 69.9479L56.0206 77.5412C58.7437 77.4133 64.0663 77.1828 67.0537 77.1828ZM82.1071 79.2998L81.6124 79.2619C81.5017 79.2535 70.4731 78.4117 67.208 78.4025C63.1909 78.3909 54.4629 78.838 54.3746 78.8424L52.6602 78.9307L63.9735 68.7198L85.0529 69.1042L82.1071 79.2998Z" fill="#371A45"/>
<path d="M69.4995 69.4568C69.5033 70.8117 69.2387 72.1443 68.7317 73.3189L68.5204 73.8058C68.2791 74.3642 67.6741 74.3642 67.4328 73.8058L67.2156 73.3015C66.7129 72.1388 66.4482 70.8188 66.4482 69.4758V55.6195C66.4482 55.1435 67.1224 54.7569 67.9546 54.7569C68.7856 54.7569 69.4592 55.1435 69.4592 55.6195C69.4592 55.6424 69.4576 55.6652 69.4538 55.6881L69.4995 69.4568Z" fill="#371A45"/>
<path d="M80.0495 76.1094C79.2129 76.0958 78.3776 76.0634 77.5423 76.0407L75.0387 75.9408C73.3705 75.8585 71.7005 75.8061 70.0304 75.7574C68.361 75.6891 66.6909 75.6388 65.0221 75.5861C64.1868 75.5544 63.3551 75.5493 62.5179 75.5341C61.6814 75.5089 60.8455 75.4946 60.0107 75.4606C61.6826 75.4058 63.3502 75.3543 65.0258 75.3559C66.6988 75.3607 68.3695 75.4135 70.0408 75.4582L72.5461 75.5644C73.3809 75.5988 74.2156 75.6455 75.0497 75.7115L77.5514 75.8948C78.3843 75.9667 79.2178 76.0287 80.0495 76.1094Z" fill="#371A45"/>
<path d="M80.9361 74.6338C79.8819 74.6218 78.8295 74.5911 77.7789 74.5411C77.2527 74.5199 76.7278 74.488 76.2028 74.4616C75.6772 74.432 75.1529 74.394 74.6285 74.3729L71.4787 74.2187C70.4281 74.1731 69.3782 74.1124 68.3252 74.0837C69.3764 73.9961 70.4318 73.9782 71.4848 73.985C72.5385 73.9902 73.5909 74.0241 74.6439 74.074C75.6969 74.1312 76.745 74.2183 77.7937 74.3085C78.843 74.398 79.8905 74.5064 80.9361 74.6338Z" fill="#371A45"/>
<path d="M83.6157 42.2022C83.6157 42.2022 86.4088 48.347 86.8798 55.322C87.3593 62.4251 86.6646 72.5236 70.1231 71.1544C64.3242 70.6742 64.6062 68.2104 64.391 65.3035C64.1241 61.7016 64.5355 57.5663 68.7435 57.4112C76.3484 57.1319 78.6202 55.4744 79.7008 50.8111L83.6157 42.2022Z" fill="white"/>
<path d="M78.7367 70.5918C78.7379 70.5914 78.7379 70.5918 78.7391 70.5914C78.7379 70.5914 78.7379 70.5918 78.7367 70.5918ZM78.7464 70.5894C79.1362 70.4808 79.5072 70.3609 79.8617 70.2295H79.8623C79.5078 70.3605 79.1356 70.4808 78.7464 70.5894Z" fill="#B9AFBE"/>
<path d="M86.0547 64.0859C86.3531 63.2651 86.5631 62.4108 86.7061 61.5442H86.7068C86.5631 62.4108 86.3537 63.2644 86.0553 64.0856C86.0553 64.0856 86.0553 64.0855 86.0547 64.0859Z" fill="#B9AFBE"/>
<path d="M85.0254 66.1992C85.4492 65.5316 85.7878 64.8221 86.0553 64.0855H86.056C85.7885 64.8217 85.4505 65.5316 85.0267 66.1988C85.0267 66.1992 85.026 66.1992 85.0254 66.1992Z" fill="#8C7B94"/>
<path d="M84.4613 66.9961C84.4606 66.9961 84.46 66.9961 84.46 66.9961C84.6635 66.7384 84.8515 66.4719 85.0244 66.199C85.0251 66.199 85.0258 66.1991 85.0258 66.1987C84.8528 66.4719 84.6642 66.738 84.4613 66.9961Z" fill="#371A45"/>
<path d="M82.2151 69.0527H82.2139C82.3075 68.9908 82.3986 68.9285 82.4885 68.8646C82.4892 68.8646 82.4892 68.8646 82.4898 68.8646C82.3999 68.9285 82.3081 68.9908 82.2151 69.0527Z" fill="#371A45"/>
<path d="M82.4883 68.8643C83.2678 68.3117 83.9188 67.6825 84.4597 66.9957C84.4603 66.9957 84.4603 66.9957 84.461 66.9957C83.9201 67.6821 83.2691 68.3117 82.4896 68.8643C82.4889 68.8643 82.4883 68.8643 82.4883 68.8643Z" fill="#371A45"/>
<path d="M64.5002 66.8564C64.4997 66.8467 64.4986 66.8375 64.498 66.8278C64.4986 66.8375 64.4997 66.8467 64.5007 66.8564H64.5002Z" fill="#B9AFBE"/>
<path d="M64.4976 66.8291C64.4683 66.5146 64.4483 66.1898 64.4277 65.8579C64.4483 66.1898 64.4683 66.5141 64.4976 66.8291Z" fill="#371A45"/>
<path d="M64.9392 68.7373H64.9386C64.686 68.1975 64.5734 67.591 64.5078 66.9411V66.9417C64.5739 67.591 64.686 68.1975 64.9392 68.7373Z" fill="#371A45"/>
<path d="M79.861 70.2295C80.747 69.9019 81.5283 69.5056 82.2131 69.0529H82.2143C81.5283 69.5056 80.7482 69.9019 79.861 70.2295Z" fill="#371A45"/>
<path d="M73.0257 71.2803C72.1174 71.2803 71.1512 71.2396 70.1236 71.1548C68.0849 70.9858 66.798 70.572 65.9764 69.9799C65.9751 69.9786 65.9738 69.9779 65.9725 69.9771C65.4825 69.6227 65.1587 69.2052 64.9404 68.7382C64.6876 68.198 64.5755 67.5919 64.5091 66.9423C64.5058 66.914 64.5032 66.8856 64.5006 66.8572C64.5 66.848 64.4986 66.8389 64.498 66.8297C64.4687 66.5148 64.4491 66.1904 64.4283 65.8584C64.4165 65.6755 64.4048 65.4905 64.3911 65.3035C64.3768 65.1157 64.3651 64.9268 64.3553 64.737C64.3468 64.5796 64.341 64.4218 64.3358 64.264C64.326 63.93 64.324 63.5953 64.3325 63.263C64.3325 63.2617 64.3325 63.261 64.3325 63.2604C64.3332 63.2578 64.3331 63.2558 64.3331 63.2532C64.3331 63.2506 64.3331 63.2473 64.3338 63.2441C64.3338 63.2441 64.3338 63.2441 64.3338 63.2434C64.369 61.9351 64.5677 60.6678 65.074 59.65C65.0818 60.0788 65.1026 60.5069 65.1352 60.9278C65.3502 63.8337 65.0681 66.2987 70.8658 66.7777C71.8946 66.8628 72.8622 66.9036 73.7711 66.9036C82.1053 66.9036 85.5912 63.4728 86.9426 59.2858C86.908 59.9661 86.8442 60.6508 86.7412 61.3285C86.7302 61.4008 86.7184 61.4725 86.7067 61.5442C86.5627 62.4107 86.3529 63.2649 86.0551 64.0862C85.7873 64.8225 85.4492 65.532 85.025 66.1996C84.8517 66.4725 84.664 66.739 84.4601 66.9967C83.9193 67.6834 83.2684 68.3127 82.4884 68.8652C82.3992 68.9291 82.3073 68.9914 82.2141 69.0534C81.5287 69.5061 80.7475 69.9023 79.8613 70.2299C79.5069 70.3614 79.1355 70.4813 78.7458 70.5899C78.7439 70.5903 78.7406 70.5911 78.7387 70.5919C78.7374 70.5923 78.7374 70.5919 78.7367 70.5923C77.1469 71.0338 75.2606 71.2803 73.0257 71.2803Z" fill="#B9AFBE"/>
<path d="M77.8735 53.9713C77.9993 53.7087 78.147 53.4662 78.2923 53.214C78.4357 52.9623 78.5937 52.7113 78.7402 52.4469C79.038 51.9212 79.3097 51.3614 79.6312 50.7949C79.6513 50.7591 79.6969 50.7463 79.7327 50.7664C79.7552 50.7791 79.7686 50.8028 79.7704 50.8272C79.8069 51.4818 79.7364 52.1315 79.579 52.7745C79.4975 53.0942 79.3991 53.4164 79.2502 53.719C79.1031 54.0217 78.9225 54.3153 78.68 54.5596C78.4837 54.7578 78.164 54.759 77.9659 54.562C77.8091 54.4071 77.7756 54.1749 77.8656 53.9865L77.8735 53.9713Z" fill="#371A45"/>
<path d="M72.9861 71.8877C72.0575 71.8877 71.0863 71.8457 70.0724 71.7618C64.1565 71.272 63.9864 68.5653 63.8222 65.9477C63.8098 65.7503 63.7973 65.5505 63.7822 65.3484C63.5333 61.9856 64.0153 59.6767 65.2564 58.2898C66.0917 57.3567 67.2579 56.8557 68.721 56.8018C73.5593 56.6239 76.1112 55.8792 77.5276 54.2296C77.7469 53.9735 78.1324 53.9453 78.3872 54.1646C78.6433 54.384 78.6722 54.7688 78.4522 55.0242C76.7888 56.9607 73.9829 57.8289 68.7656 58.0206C67.6309 58.0626 66.7799 58.4166 66.1652 59.1034C65.1572 60.2296 64.7757 62.243 64.999 65.2581C65.0141 65.465 65.0266 65.6696 65.0397 65.8714C65.2012 68.4439 65.3076 70.1438 70.1729 70.5464C76.2458 71.0487 80.6441 70.0027 83.2492 67.437C86.4379 64.2961 86.5391 59.3346 86.2712 55.3631C85.8135 48.5862 83.0876 42.514 83.06 42.4536C82.9208 42.1469 83.0568 41.7851 83.3628 41.6465C83.6701 41.5073 84.0312 41.6426 84.1705 41.9493C84.286 42.204 87.0152 48.2756 87.488 55.2803C87.7736 59.5125 87.6475 64.817 84.1048 68.306C81.6876 70.6871 77.9544 71.8877 72.9861 71.8877Z" fill="#371A45"/>
<path d="M84.6125 67.4072C84.6035 67.4072 84.5945 67.4072 84.5855 67.4068C84.2488 67.3924 83.9879 67.1076 84.0027 66.7712C84.4364 56.7429 78.2501 55.116 77.986 55.0517C77.6596 54.9721 77.4585 54.6431 77.5362 54.3167C77.6153 53.9896 77.9417 53.7879 78.2681 53.865C78.3465 53.8836 80.2002 54.3372 81.9832 56.1922C83.5973 57.8718 85.4696 61.08 85.221 66.8239C85.2068 67.1516 84.9369 67.4072 84.6125 67.4072Z" fill="#371A45"/>
</svg>
