<svg width="64" height="95" viewBox="0 0 64 95" fill="none" xmlns="http://www.w3.org/2000/svg">
<path d="M49.4559 66.5429L24.7602 69.4071C22.1432 69.7113 19.7753 67.8351 19.4729 65.2183L17.3524 46.9397L16.9609 43.5637L16.7034 41.344C16.511 39.6785 17.2001 38.1146 18.4003 37.1186C19.0867 36.5495 19.941 36.1659 20.8937 36.0556L26.2918 35.43L43.6874 33.4134L45.5883 33.1922C46.1447 33.1275 46.6907 33.1615 47.2082 33.2811C49.1195 33.7201 50.639 35.3219 50.8772 37.3814L51.1697 39.904L52.029 47.3156L53.6451 61.2554C53.9491 63.8726 52.0729 66.2401 49.4559 66.5429Z" fill="white"/>
<path d="M46.1468 33.6811C45.9815 33.6811 45.8151 33.6905 45.6487 33.7103L20.9534 36.5737C18.6254 36.8437 16.9508 38.9575 17.2208 41.2858L19.989 65.1595C20.259 67.4874 22.374 69.1621 24.7011 68.8921L49.3964 66.0282C50.5244 65.8976 51.534 65.3353 52.2388 64.4453C52.9436 63.5553 53.2599 62.444 53.1293 61.3164L50.3608 37.4427C50.2302 36.3147 49.6675 35.3057 48.7776 34.6003C48.0193 33.9996 47.1002 33.6811 46.1468 33.6811ZM24.2079 69.9609C21.5606 69.9609 19.2683 67.9711 18.9561 65.2793L16.1873 41.4054C15.8516 38.5073 17.9359 35.8766 20.8338 35.5404L45.5291 32.6765C46.9326 32.514 48.3158 32.9074 49.424 33.7853C50.5316 34.6626 51.2309 35.919 51.394 37.3231L54.1626 61.1966C54.3251 62.6002 53.9317 63.9836 53.0544 65.0913C52.1765 66.199 50.9201 66.8985 49.516 67.0616L24.8213 69.9252C24.6152 69.9491 24.4102 69.9609 24.2079 69.9609Z" fill="#371A45"/>
<path d="M55.6557 47.3545L52.0286 47.3159L17.352 46.9401L15.1377 46.9166C15.1377 46.9166 15.5903 45.5381 16.9605 43.5635C17.872 42.2476 19.1917 40.6672 21.0546 39.055C22.4666 37.8314 24.193 36.5899 26.2912 35.4301C27.144 34.9592 28.0583 34.5017 29.037 34.065C34.5639 31.5988 39.3928 31.3762 43.6871 33.4135C44.5008 33.7982 45.2938 34.2652 46.07 34.8138C47.8612 36.0776 49.5568 37.7743 51.169 39.9039C52.7382 41.9764 54.2297 44.4594 55.6557 47.3545Z" fill="white"/>
<path d="M15.9129 46.4069L54.8089 46.8277C51.4795 40.2889 47.8683 36.1022 43.7852 34.0421C39.5495 31.9043 34.7946 32.068 29.2493 34.5422C20.1768 38.5905 16.8235 44.439 15.9129 46.4069ZM55.6555 47.877H55.6499L15.1323 47.4381C14.9666 47.4365 14.8114 47.356 14.7148 47.221C14.6183 47.0865 14.592 46.9138 14.6436 46.7557C14.7513 46.4289 17.409 38.6867 28.8257 33.5926C34.6742 30.9828 39.7205 30.8264 44.2538 33.1132C48.7015 35.3579 52.5839 39.9418 56.1219 47.1276C56.2018 47.2896 56.1917 47.4815 56.0955 47.6345C56.0004 47.7858 55.8339 47.877 55.6555 47.877Z" fill="#371A45"/>
<path d="M43.923 43.3479C43.923 43.3479 39.455 43.3479 38.3908 45.1624C37.4275 46.8049 38.6734 47.4247 38.6734 47.4247L43.0153 47.5957L43.923 43.3479Z" fill="white"/>
<path d="M43.9239 43.3469L43.7003 44.3935L43.0152 47.5957L38.6738 47.4237C38.6738 47.4237 38.2981 47.2371 38.1188 46.7961C37.9721 46.4346 37.9566 45.9015 38.3907 45.1619C39.4553 43.3469 43.9239 43.3469 43.9239 43.3469Z" fill="white"/>
<path d="M41.2774 45.2852H39.4326C40.0532 44.9562 40.8208 44.7482 41.5449 44.6159C41.4282 44.8205 41.3375 45.0432 41.2774 45.2852Z" fill="#B9AFBE"/>
<path d="M38.836 46.9089L42.5992 47.0576L43.2762 43.8885C41.8604 43.9753 39.4747 44.3413 38.8404 45.424C38.5829 45.8625 38.4926 46.2466 38.578 46.5351C38.6344 46.724 38.7575 46.8471 38.836 46.9089ZM43.0167 48.1143C43.0093 48.1143 43.0024 48.1143 42.9956 48.1143L38.6535 47.9426C38.5799 47.9401 38.5078 47.9215 38.4421 47.8886C38.3768 47.8562 37.795 47.5486 37.5811 46.8319C37.4089 46.252 37.5306 45.6011 37.9432 44.8976C39.1235 42.8843 43.4361 42.8264 43.9237 42.8264C44.0807 42.8264 44.2294 42.897 44.328 43.0192C44.4271 43.1418 44.4653 43.3017 44.4325 43.4553L43.5249 47.7032C43.4734 47.9435 43.2605 48.1143 43.0167 48.1143Z" fill="#371A45"/>
<path d="M20.3501 43.3478C20.3501 43.3478 24.818 43.3478 25.882 45.1622C26.8453 46.8047 25.5997 47.4247 25.5997 47.4247L21.2575 47.5957L20.3501 43.3478Z" fill="white"/>
<path d="M26.1554 46.7933C25.9772 47.2355 25.6001 47.4239 25.6001 47.4239L21.2579 47.5957L20.5727 44.3881L20.3501 43.347C20.3501 43.347 24.8176 43.347 25.8824 45.1618C26.315 45.9003 26.3023 46.4318 26.1554 46.7933Z" fill="white"/>
<path d="M24.851 45.2852H22.9955C22.9348 45.0409 22.8426 44.8161 22.7246 44.61C23.4537 44.7426 24.2278 44.9528 24.851 45.2852Z" fill="#B9AFBE"/>
<path d="M20.9978 43.8891L21.675 47.0582L25.438 46.9093C25.5182 46.8462 25.6448 46.72 25.6994 46.523C25.7791 46.2365 25.687 45.8565 25.4338 45.4246C24.7988 44.3419 22.4135 43.9756 20.9978 43.8891ZM21.2575 48.1152C21.0132 48.1152 20.8008 47.9442 20.7496 47.7037L19.8414 43.4559C19.809 43.3019 19.8469 43.142 19.9459 43.0201C20.0444 42.8977 20.1932 42.8269 20.3501 42.8269C20.8383 42.8269 25.1502 42.8849 26.3309 44.898C26.7437 45.6016 26.8656 46.2522 26.6925 46.8322C26.4793 47.5494 25.8973 47.8564 25.8316 47.8892C25.7659 47.9221 25.6939 47.9404 25.6205 47.9434L21.2784 48.1148C21.2716 48.1152 21.2643 48.1152 21.2575 48.1152Z" fill="#371A45"/>
<path d="M61.2665 61.2199L62.071 66.4665C62.1411 66.9231 61.711 67.2964 61.2689 67.1631L58.9178 66.4527H5.09431L2.75378 67.162C2.31135 67.296 1.88071 66.9224 1.95092 66.4655L2.75516 61.2199H61.2665Z" fill="#EF962B"/>
<path d="M61.4516 66.6699C61.4415 66.6699 61.4302 66.6683 61.4183 66.6649L59.5205 66.0915L59.8046 61.7396H60.8198L61.5564 66.5451C61.5636 66.5936 61.541 66.6251 61.5201 66.6429C61.5052 66.6561 61.482 66.6699 61.4516 66.6699ZM2.56929 66.6689C2.53856 66.6689 2.51564 66.6554 2.50045 66.6419C2.47985 66.624 2.45692 66.5926 2.46431 66.544L3.20073 61.7396H4.20613L4.48994 66.0918L2.6024 66.6638C2.59055 66.6672 2.57941 66.6689 2.56929 66.6689Z" fill="#AF6B34"/>
<path d="M61.4523 67.7119C61.3409 67.7119 61.2283 67.6957 61.1181 67.6623L58.8403 66.9742H5.17115L2.90458 67.661C2.52489 67.776 2.11925 67.6896 1.81952 67.4298C1.51955 67.1699 1.37679 66.7805 1.43682 66.3882L2.24075 61.1427C2.28459 60.8589 2.55024 60.6634 2.83371 60.7073C3.11754 60.7508 3.31262 61.0164 3.26909 61.3003L2.4648 66.5459C2.45739 66.5945 2.48033 66.6259 2.50092 66.6438C2.52121 66.6617 2.5556 66.6798 2.60286 66.6657L4.94337 65.9567C4.99232 65.9418 5.0429 65.934 5.0942 65.934H58.9174C58.9686 65.934 59.0192 65.9418 59.0679 65.9563L61.4192 66.6667C61.4667 66.6809 61.5004 66.6626 61.5209 66.6447C61.5414 66.6269 61.5643 66.5955 61.5564 66.5469L60.7526 61.3003C60.7087 61.0164 60.9038 60.7508 61.1879 60.7073C61.4709 60.6641 61.7371 60.8589 61.781 61.1427L62.5848 66.3893C62.645 66.7811 62.5017 67.1703 62.2025 67.4301C61.99 67.6147 61.7244 67.7119 61.4523 67.7119Z" fill="#371A45"/>
<path d="M59.8166 52.2025L58.8442 67.618L57.3367 91.5435C57.2642 92.6909 56.3122 93.585 55.1625 93.585H8.84998C7.69982 93.585 6.74813 92.6909 6.67556 91.5435L5.168 67.618L4.19531 52.2025H59.8166Z" fill="#371A45"/>
<path d="M18.5289 70.4935L18.9889 70.4815C20.2349 70.4483 20.8457 70.392 20.8406 70.3114L20.8552 70.3329C20.8643 70.3329 20.7928 70.1697 20.6409 69.843C20.4887 69.5151 20.3142 69.1581 20.1163 68.7707C19.9181 68.3819 19.7695 68.1285 19.6705 68.011C19.5628 68.1888 19.4741 68.3396 19.404 68.4622C19.3339 68.5853 19.2627 68.7269 19.1901 68.8875C19.1174 69.0482 19.0612 69.1752 19.0211 69.2687C18.9809 69.3625 18.9068 69.5429 18.7991 69.809C18.6907 70.0766 18.6005 70.3048 18.5289 70.4935ZM15.6568 74.3597C15.6473 74.2064 15.6601 74.0286 15.6963 73.8267C15.732 73.6252 15.7748 73.4521 15.8244 73.3072C15.8737 73.163 15.946 72.9545 16.0405 72.6818C16.1347 72.4098 16.2019 72.2083 16.2421 72.0773C16.4571 71.3522 16.7419 70.537 17.096 69.6345L17.4921 68.6886C17.6662 68.168 17.851 67.7072 18.0459 67.3064C18.2401 66.9066 18.3606 66.6368 18.4074 66.4955C18.4446 66.3542 18.6728 66.2856 19.0893 66.2896C19.4113 66.2926 19.7545 66.3327 20.1181 66.4094C20.4795 66.486 20.6895 66.5569 20.7475 66.6229L23.9066 73.3864C23.9635 73.477 23.9953 73.5682 24.0015 73.661C24.0095 73.7891 23.9723 73.9027 23.889 74.0005C23.8058 74.0987 23.708 74.1509 23.597 74.1578C23.4429 74.1673 23.3257 74.0951 23.2465 73.941C23.2461 73.9341 23.1275 73.8435 22.8905 73.669L21.2313 71.3544L21.1644 71.357C20.9764 71.3632 20.607 71.3891 20.0517 71.4343C19.4913 71.4796 19.0933 71.5066 18.8619 71.5147C18.4793 71.5282 18.2767 71.5092 18.2544 71.4573C17.7984 72.7172 17.2563 73.6938 16.6265 74.3838C16.548 74.5182 16.3582 74.5949 16.057 74.6127C15.8905 74.6226 15.7667 74.6032 15.6846 74.5547C15.6714 74.5091 15.6627 74.4441 15.6568 74.3597Z" fill="white"/>
<path d="M26.0947 72.6582C26.4541 72.5293 26.9412 72.2869 27.5527 71.9342C28.2643 71.5471 28.5915 70.9693 28.5409 70.1976C28.5176 69.8426 28.41 69.4892 28.2189 69.1367C28.0261 68.7829 27.7712 68.4765 27.4527 68.2175C27.3331 68.1011 26.9914 68.0132 26.4232 67.9537L26.1413 67.9345L26.1216 68.1963C26.0923 68.3709 26.0674 68.7416 26.0473 69.3077L26.0361 71.7664L26.0947 72.6582ZM24.3516 70.4461L24.3368 70.222C24.3151 69.8888 24.305 69.539 24.3062 69.1732C24.3075 68.8074 24.3183 68.3938 24.3388 67.9329C24.3593 67.4719 24.3709 67.1394 24.3745 66.9338L24.3556 66.6467L24.6118 66.5214C24.75 66.4664 24.8941 66.4391 25.0439 66.4407C25.2262 66.4423 25.4049 66.4909 25.5803 66.5873C25.7546 66.6824 25.9124 66.7776 26.0534 66.8728C26.1939 66.9675 26.3047 67.0185 26.3866 67.0254C27.3118 67.0426 28.0639 67.2229 28.6489 67.5646C29.2284 67.9027 29.5994 68.4075 29.766 69.0809C29.8479 69.4033 29.9005 69.7402 29.923 70.0907C29.9532 70.5493 29.9118 70.9625 29.7986 71.3319C29.6849 71.7025 29.5191 72.0202 29.3014 72.2846C29.0826 72.5505 28.7943 72.7888 28.4361 72.9991C28.0751 73.2113 27.6973 73.3892 27.303 73.5327C26.905 73.6771 26.44 73.8107 25.9068 73.9336C25.2081 73.9116 24.7865 73.4246 24.6484 72.4719L24.3516 70.4461Z" fill="white"/>
<path d="M31.6536 70.0754C31.7105 70.7183 31.8803 71.2354 32.1627 71.6255C32.4437 72.0139 32.894 72.3079 33.5098 72.5073C33.6774 72.5644 33.8459 72.5883 34.0153 72.5796C34.1976 72.5705 34.3559 72.5232 34.491 72.4388C34.8392 72.2212 35.1108 71.8702 35.3064 71.3862C35.5012 70.9043 35.5812 70.3994 35.5465 69.8699C35.5061 69.257 35.318 68.7359 34.9805 68.3039C34.6653 67.9269 34.2425 67.7392 33.7085 67.7405C33.3475 67.7418 33.011 67.833 32.6997 68.0143C32.3863 68.1973 32.18 68.4379 32.0835 68.7359L31.6536 70.0754ZM30.4461 70.0865C30.4078 69.4963 30.5141 68.934 30.7644 68.4021C30.9542 67.9934 31.3659 67.6489 31.9937 67.3701C32.6139 67.0949 33.2502 66.9602 33.9011 66.9629C34.7378 66.9664 35.3376 67.2052 35.7088 67.6765C36.08 67.9735 36.3695 68.3373 36.5784 68.768C36.7865 69.1969 36.9057 69.6468 36.9363 70.1193C36.9719 70.6606 36.899 71.1699 36.7167 71.6481C36.534 72.129 36.2303 72.5353 35.8039 72.8674C35.3736 73.2033 34.8494 73.3902 34.2292 73.427C33.223 73.4871 32.3565 73.1908 31.6371 72.531C30.9084 71.8627 30.5088 71.0457 30.4461 70.0865Z" fill="white"/>
<path d="M38.766 67.6413L38.9336 69.0372L38.9855 69.6842L39.1283 69.6808C39.2483 69.6778 39.5182 69.6471 39.9343 69.5884C40.3466 69.5303 40.5784 69.4857 40.6318 69.454C40.7794 69.3602 40.8522 69.1652 40.8512 68.8688C40.8498 68.8506 40.8498 68.825 40.8503 68.7915C40.8517 68.7585 40.8512 68.7328 40.8503 68.7146C40.835 68.4851 40.7827 68.265 40.6922 68.0541C40.6013 67.8429 40.4932 67.7099 40.3661 67.6559C40.1762 67.5833 39.8753 67.5472 39.4625 67.5479C39.3302 67.5482 39.214 67.5573 39.114 67.5762L38.766 67.6413ZM37.2021 66.4615L37.3169 66.4065C37.4635 66.3458 37.5987 66.3157 37.7225 66.3171C37.8268 66.3184 37.9348 66.3427 38.0481 66.3906C38.161 66.4382 38.2428 66.4794 38.2933 66.5138C38.3438 66.5482 38.4361 66.6124 38.5704 66.7062L38.7018 66.8088L38.9669 66.7828L39.1379 66.7838C41.0659 66.7959 42.0319 67.2759 42.0943 68.2232C42.1009 68.3245 42.0985 68.4287 42.0876 68.5364C42.0666 68.7575 42.0428 68.9397 42.0162 69.0835C41.99 69.2276 41.9481 69.3852 41.8905 69.5573C41.8324 69.7291 41.7605 69.8658 41.6739 69.967C41.5872 70.0686 41.472 70.1564 41.3283 70.2296C41.1845 70.3035 41.015 70.3437 40.8193 70.3497C40.6784 70.3541 40.4875 70.3568 40.2462 70.3582C40.0034 70.3599 39.8348 70.3619 39.741 70.3649C39.4897 70.3727 39.305 70.3953 39.1869 70.4327C39.0683 70.4705 39.0126 70.5418 39.0198 70.6464L39.1079 72.1357L38.9436 72.8502C38.9527 72.8934 38.8779 72.944 38.718 73.0028C38.5575 73.0621 38.4028 73.0959 38.2547 73.1047C38.0924 73.1141 37.9996 73.0855 37.9753 73.0176C37.7592 72.8104 37.6092 72.0774 37.5268 70.8192C37.5078 70.531 37.4859 70.0959 37.4611 69.5135C37.4359 68.9313 37.4154 68.5178 37.3997 68.2739C37.3669 67.7733 37.3269 67.4105 37.2793 67.1851L37.2021 66.4615Z" fill="white"/>
<path d="M42.6816 67.4447L42.7333 66.8858C42.7915 66.8804 42.8746 66.8763 42.982 66.874C43.0899 66.8716 43.1613 66.8706 43.1957 66.8706L45.9615 66.6985C46.156 66.6773 46.3156 66.6671 46.4402 66.6681C46.8332 66.6712 47.0352 66.7856 47.0499 67.011C47.056 67.1015 47.0464 67.1818 47.0221 67.252C46.9968 67.3225 46.9542 67.3789 46.8924 67.4214C46.8311 67.4636 46.7694 67.4994 46.7066 67.5274C46.6437 67.5561 46.5592 67.5773 46.4523 67.5918C46.3444 67.6063 46.2543 67.6164 46.1813 67.6222C46.1084 67.6283 46.0076 67.6344 45.88 67.6401C45.7514 67.6462 45.6566 67.6523 45.5969 67.6583L45.609 68.3552C45.5538 68.6026 45.5477 69.0596 45.5913 69.7258C45.605 69.9323 45.6288 70.2367 45.6637 70.6384C45.6982 71.04 45.721 71.3265 45.7326 71.4989C45.764 71.987 45.7539 72.2985 45.7022 72.4338C45.6506 72.5752 45.5503 72.6505 45.4004 72.6593C45.2555 72.6677 45.1081 72.6167 44.9577 72.506C44.8068 72.3953 44.7202 72.2674 44.6994 72.1227C44.5561 71.745 44.4568 71.1368 44.4016 70.2989C44.393 70.1706 44.3819 69.9786 44.3682 69.7224C44.3545 69.4662 44.3434 69.2799 44.3358 69.1635C44.3307 69.1696 44.3342 69.0515 44.3469 68.8095C44.3596 68.5679 44.3748 68.3232 44.392 68.0758C44.4102 67.8288 44.4219 67.7052 44.4274 67.7052L44.044 67.7066C43.9985 67.7066 43.8956 67.7042 43.7346 67.6988C43.5735 67.6934 43.4646 67.688 43.4094 67.6823C43.3542 67.6766 43.2722 67.6651 43.1643 67.6475C43.0549 67.63 42.9648 67.6053 42.8923 67.5729C42.8204 67.5409 42.7495 67.498 42.6816 67.4447Z" fill="white"/>
<path d="M27.131 79.3713C27.019 77.6599 27.0216 76.6609 27.1383 76.3743L27.2099 76.1921C27.3 75.9984 27.5768 75.884 28.038 75.8492C28.3015 75.8289 28.5092 75.8543 28.6606 75.9245C28.9777 76.0635 29.2613 76.2718 29.5124 76.5495C29.7616 76.8259 30.0118 77.1516 30.2619 77.5262C30.5112 77.8995 30.7275 78.1806 30.9111 78.3696C30.9635 78.3777 31.0201 78.3352 31.0806 78.2417L32.4893 75.7082C32.7218 75.5458 32.951 75.456 33.1771 75.4392C33.4444 75.4189 33.6671 75.4962 33.8469 75.6707C34.0254 75.8445 34.1249 76.0858 34.1451 76.3949C34.1558 76.5559 34.1477 76.7024 34.1215 76.8344C34.0756 77.0915 34.0657 77.4203 34.0919 77.8198C34.1099 78.0973 34.1614 78.5336 34.2459 79.1283C34.3296 79.7222 34.3806 80.1546 34.3982 80.4249C34.4411 81.0756 34.3785 81.562 34.2112 81.8849C34.0884 82.0391 33.9396 82.1289 33.7654 82.1539C33.5126 82.19 33.335 82.0773 33.2324 81.8151C33.2071 81.7594 33.1539 81.4097 33.0728 80.7655C32.9909 80.1205 32.9158 79.4894 32.8467 78.8721L32.7437 77.9548L32.709 78.077C32.6854 78.1584 32.6618 78.2397 32.6386 78.3214C32.615 78.4027 32.6034 78.4469 32.6043 78.4533L32.5133 78.5519C32.2855 78.8208 32.1083 79.024 31.983 79.1603C31.8568 79.2974 31.6959 79.4354 31.4998 79.5744C31.3025 79.7142 31.1192 79.7938 30.9498 79.8134C30.5275 79.8626 30.0959 79.5883 29.6544 78.9865C29.5883 78.9055 29.4763 78.7068 29.318 78.3898C29.1592 78.0723 29.0022 77.8181 28.8473 77.6281C28.692 77.4378 28.5255 77.3501 28.3478 77.3662C28.3388 77.5866 28.344 77.8435 28.3633 78.1364C28.3895 78.5387 28.4568 79.1833 28.5658 80.0702C28.6739 80.9565 28.7387 81.5555 28.7593 81.8687C28.7701 82.0321 28.7735 82.2099 28.7705 82.4026C28.7602 82.4799 28.689 82.5514 28.5568 82.6183C28.4246 82.6851 28.2848 82.7287 28.1367 82.7496C27.9261 82.7792 27.8051 82.7442 27.7746 82.6446C27.4717 82.3807 27.2567 81.2896 27.131 79.3713Z" fill="white"/>
<path d="M35.134 75.5703C35.1257 75.4491 35.1317 75.3881 35.1524 75.3863C36.4712 75.2156 37.5721 75.0165 38.4689 74.7883C38.5376 74.7708 38.632 74.7576 38.7518 74.7488C39.1276 74.7215 39.3216 74.8177 39.3363 75.0377C39.3428 75.1413 39.3027 75.2426 39.2152 75.3418C39.1276 75.441 39.0037 75.5156 38.843 75.5655C38.6385 75.632 38.4634 75.7053 38.3188 75.7853C38.1737 75.8659 38.0286 75.928 37.8835 75.9712C37.7379 76.0151 37.497 76.0512 37.1598 76.0799C36.7747 76.1129 36.5592 76.1535 36.5159 76.2014C36.491 76.2287 36.4809 76.2709 36.4841 76.3273C36.4859 76.3526 36.4974 76.4292 36.5191 76.5568C36.5407 76.6847 36.5555 76.8052 36.5628 76.9182C36.5707 77.0377 36.5707 77.1895 36.5628 77.3738L36.6223 78.28L37.7342 78.1322L38.1668 78.0859C38.7946 78.0188 39.1737 78.015 39.3096 78.0745C39.3741 78.1045 39.4086 78.15 39.4123 78.2111C39.4197 78.3212 39.3119 78.4501 39.089 78.5989C38.8646 78.7484 38.6454 78.8449 38.4312 78.8882C38.2667 78.9259 38.1014 78.9546 37.9351 78.9739C37.7545 78.9948 37.5187 79.0113 37.2248 79.0232C36.9295 79.0353 36.742 79.0457 36.6628 79.0549L36.7066 80.4862L36.7499 80.69L37.8803 80.5125C38.1299 80.4733 38.3469 80.4416 38.5311 80.4173C38.86 80.3741 39.0714 80.3555 39.1663 80.3616C39.4261 80.3829 39.5606 80.473 39.5712 80.632C39.5846 80.8399 39.463 80.9924 39.2046 81.0903C39.1802 81.0997 38.9121 81.1682 38.3962 81.2968C37.8683 81.4274 37.4376 81.5168 37.105 81.5641C36.0806 81.7089 35.5449 81.5405 35.5131 81.0558L35.508 80.9796C35.5379 80.2884 35.5264 79.5483 35.4748 78.7589C35.4366 78.1733 35.3712 77.5135 35.2791 76.7785C35.1869 76.0434 35.1381 75.6405 35.134 75.5703Z" fill="white"/>
<path d="M55.5543 93.0645H8.45707C7.80337 93.0645 7.25798 92.5538 7.21542 91.9015L7.18639 91.455H39.6542C47.7486 91.455 54.4486 85.1634 54.9575 77.085L55.3039 71.5903C55.4398 69.4381 53.731 67.6183 51.5745 67.6183H46.2253C46.2895 67.6123 46.3653 67.6035 46.452 67.5917C46.559 67.5772 46.644 67.5559 46.7065 67.5272C46.7689 67.4992 46.8308 67.4634 46.8927 67.4213C46.954 67.3788 46.9968 67.3224 47.0216 67.2518C47.0465 67.1816 47.0558 67.1013 47.05 67.0108C47.0349 66.7854 46.8325 66.671 46.4399 66.668C46.4341 66.668 46.4283 66.668 46.4225 66.668C46.3011 66.668 46.1473 66.6781 45.9611 66.6983L43.1957 66.8705C43.1928 66.8705 43.1905 66.8705 43.187 66.8705C43.1494 66.8705 43.0817 66.8718 42.9817 66.8738C42.8741 66.8762 42.7914 66.8803 42.733 66.8856L42.6816 67.4446C42.7492 67.4979 42.8198 67.5407 42.8921 67.5728C42.9308 67.59 42.9748 67.6052 43.0239 67.6183H41.8905C41.51 67.0706 40.6009 66.7925 39.1378 66.7831L38.9666 66.7821L38.7018 66.808L38.5705 66.7055C38.4358 66.6116 38.3432 66.5475 38.2935 66.5131C38.2426 66.4786 38.1611 66.4375 38.0483 66.3899C37.935 66.342 37.8262 66.3176 37.7227 66.3163C37.7198 66.3163 37.7169 66.3163 37.7141 66.3163C37.5926 66.3163 37.4602 66.3463 37.3168 66.4057L37.2023 66.4608L37.2792 67.1843C37.3023 67.2954 37.3243 67.4402 37.344 67.6183H35.66C35.2852 67.186 34.7017 66.9667 33.9002 66.9633C33.8939 66.9633 33.8875 66.9633 33.8811 66.9633C33.2364 66.9633 32.6072 67.0983 31.993 67.3706C31.819 67.4483 31.6611 67.5306 31.52 67.6183H28.7378C28.7089 67.5998 28.6788 67.5816 28.6488 67.564C28.0635 67.2225 27.3118 67.0422 26.3865 67.0251C26.3044 67.018 26.1934 66.967 26.0534 66.8725C25.9123 66.7773 25.7544 66.6821 25.5798 66.5867C25.4046 66.4904 25.2259 66.4419 25.0437 66.4402C25.0402 66.4402 25.0368 66.4402 25.0333 66.4402C24.8876 66.4402 24.7465 66.4672 24.6112 66.5212L24.355 66.6464L24.3741 66.9332C24.3712 67.0888 24.3642 67.317 24.3521 67.6183H21.2125L20.7474 66.6221C20.6894 66.5559 20.4798 66.4851 20.1184 66.4084C19.7546 66.3318 19.4113 66.2917 19.0893 66.2886C19.0779 66.2883 19.0667 66.2883 19.0559 66.2883C18.6607 66.2883 18.4437 66.3571 18.4073 66.4945C18.3607 66.6359 18.2402 66.9059 18.0462 67.3055C17.9972 67.406 17.949 67.5103 17.9014 67.6183H5.63194L5.24854 61.7406H34.6595C34.6792 61.7406 34.6977 61.7396 34.7162 61.7376C34.7347 61.7396 34.7538 61.7406 34.7723 61.7406H58.7627L56.7959 91.9015C56.7531 92.5535 56.2078 93.0645 55.5543 93.0645ZM40.2481 67.6183H38.8851L39.1141 67.5755C39.2141 67.5566 39.3298 67.5475 39.4622 67.5472C39.4663 67.5472 39.4692 67.5472 39.4732 67.5472C39.804 67.5472 40.0619 67.5707 40.2481 67.6183Z" fill="#371A45"/>
<path d="M21.214 67.6172H17.9028C17.9505 67.5093 17.9989 67.405 18.0476 67.3044C18.2417 66.9046 18.3621 66.6347 18.4087 66.4934C18.4452 66.356 18.6623 66.2871 19.0576 66.2871C19.0684 66.2871 19.0795 66.2871 19.091 66.2874C19.4128 66.2906 19.7562 66.3306 20.1198 66.4075C20.4813 66.484 20.6907 66.555 20.7488 66.6211L21.214 67.6172Z" fill="#B9AFBE"/>
<path d="M28.7388 67.6172H24.3525C24.3648 67.3157 24.3722 67.0875 24.375 66.9319L24.3561 66.645L24.6122 66.52C24.7474 66.466 24.8885 66.4389 25.0343 66.4389C25.0379 66.4389 25.041 66.4389 25.0446 66.4389C25.2266 66.4404 25.4056 66.4893 25.5809 66.5855C25.7555 66.6808 25.9131 66.7762 26.0538 66.8712C26.1945 66.9658 26.3053 67.0166 26.3872 67.0237C27.3126 67.041 28.0645 67.2211 28.6497 67.5628C28.6801 67.5801 28.7096 67.5987 28.7388 67.6172Z" fill="#B9AFBE"/>
<path d="M35.6594 67.6172H31.5195C31.6605 67.5294 31.8186 67.4474 31.9928 67.3697C32.607 67.0973 33.2361 66.9624 33.8804 66.9624C33.887 66.9624 33.8931 66.9624 33.9001 66.9624C34.7011 66.9658 35.2852 67.185 35.6594 67.6172Z" fill="#B9AFBE"/>
<path d="M41.8911 67.6172H40.2493C40.0627 67.5696 39.8049 67.546 39.474 67.546C39.4702 67.546 39.4669 67.546 39.4631 67.546C39.3311 67.5463 39.2148 67.5554 39.1151 67.5743L38.8862 67.6172H37.3446C37.3251 67.439 37.3033 67.2942 37.28 67.1831L37.2031 66.4596L37.3175 66.4046C37.4609 66.3452 37.5934 66.3152 37.7149 66.3152C37.7178 66.3152 37.7206 66.3152 37.7235 66.3152C37.8275 66.3165 37.9357 66.3408 38.0492 66.3887C38.1617 66.4363 38.2434 66.4775 38.2942 66.5119C38.3445 66.5463 38.4371 66.6105 38.571 66.7043L38.7025 66.8069L38.9679 66.7809L39.1388 66.7819C40.6016 66.7914 41.5108 67.0694 41.8911 67.6172Z" fill="#B9AFBE"/>
<path d="M46.2259 67.6172H43.024C42.9749 67.604 42.9308 67.5889 42.8923 67.5717C42.8204 67.5396 42.7495 67.4967 42.6816 67.4434L42.7333 66.8845C42.7915 66.8791 42.8746 66.8751 42.982 66.8727C43.0818 66.8707 43.1501 66.8693 43.1876 66.8693C43.1906 66.8693 43.1932 66.8693 43.1957 66.8693L45.9615 66.6972C46.1474 66.677 46.3009 66.6668 46.4229 66.6668C46.4285 66.6668 46.4346 66.6668 46.4402 66.6668C46.8332 66.6699 47.0352 66.7843 47.0499 67.0097C47.056 67.1002 47.0464 67.1805 47.0221 67.2507C46.9968 67.3213 46.9542 67.3776 46.8924 67.4201C46.8311 67.4623 46.7694 67.4981 46.7066 67.5261C46.6437 67.5548 46.5592 67.576 46.4523 67.5905C46.3657 67.6023 46.2897 67.6111 46.2259 67.6172Z" fill="#B9AFBE"/>
<path d="M34.7729 56.1273H35.2163C35.1235 56.6336 35.0432 57.1438 34.9769 57.6514C34.8827 57.1733 34.8159 56.6631 34.7729 56.1273Z" fill="#F9A528"/>
<path d="M4.34603 47.884L7.21673 91.9023C7.25924 92.5547 7.80461 93.0653 8.45834 93.0653H55.5556C56.2093 93.0653 56.7549 92.5543 56.7974 91.9023L59.6678 47.884H4.34603ZM55.5556 94.1055H8.45834C7.25824 94.1055 6.25689 93.1675 6.17895 91.9698L3.27212 47.398C3.26267 47.2545 3.31327 47.1134 3.41147 47.0083C3.50967 46.9038 3.64737 46.8441 3.79086 46.8441H60.2228C60.3663 46.8441 60.5045 46.9038 60.6025 47.0083C60.7005 47.1134 60.7513 47.2545 60.7419 47.398L57.8349 91.9698C57.757 93.1675 56.7555 94.1055 55.5556 94.1055Z" fill="#371A45"/>
<path d="M62.6315 61.2217H1.36897C0.825266 61.2217 0.422337 60.7171 0.540803 60.1879L3.52822 46.9193C3.67404 46.2689 4.25117 45.8076 4.91802 45.8076H59.0823C59.7491 45.8076 60.326 46.2689 60.4718 46.9193L63.4581 60.1879C63.5778 60.7171 63.1748 61.2217 62.6315 61.2217Z" fill="#EF962B"/>
<path d="M34.717 60.7041C34.6989 60.7021 34.6802 60.7011 34.6608 60.7011H1.3687C1.23168 60.7011 1.14969 60.6241 1.1129 60.5783C1.0761 60.5323 1.01871 60.4351 1.0491 60.3015L1.19083 59.6714H56.8145C59.4662 59.6714 61.4352 57.2151 60.8588 54.6266L59.52 48.6169C59.3557 47.8798 58.702 47.3554 57.9467 47.3554H56.1258C56.1723 46.9542 56.1808 46.6008 56.1753 46.3265H59.0826C59.5085 46.3265 59.8716 46.6171 59.9653 47.0328L62.9517 60.3015C62.9819 60.4351 62.9251 60.5323 62.8882 60.5783C62.8514 60.6241 62.7692 60.7011 62.6321 60.7011H34.7732C34.7545 60.7011 34.7358 60.7021 34.717 60.7041ZM40.0482 47.3554H24.1165C24.1344 47.0273 24.1391 46.6848 24.131 46.3265H40.0337C40.0259 46.6848 40.0307 47.0273 40.0482 47.3554ZM8.14887 47.3554H3.96264L4.03557 47.0328C4.12903 46.6171 4.49214 46.3265 4.91844 46.3265H8.09927C8.09353 46.6008 8.10199 46.9542 8.14887 47.3554Z" fill="#F4B66B"/>
<path d="M4.918 46.3264C4.49174 46.3264 4.12857 46.6172 4.03512 47.0325L1.04862 60.3015C1.01826 60.4351 1.07568 60.5324 1.11244 60.5782C1.14921 60.6242 1.23124 60.7011 1.36823 60.7011H34.6601C34.6797 60.7011 34.6986 60.7021 34.7169 60.7041C34.7352 60.7021 34.7542 60.7011 34.7731 60.7011H62.6317C62.7692 60.7011 62.851 60.6242 62.8877 60.5782C62.9249 60.5324 62.9817 60.4351 62.9518 60.3015L59.9651 47.0325C59.8717 46.6172 59.5082 46.3264 59.0825 46.3264H4.918ZM62.6317 61.7412H34.7731C34.7542 61.7412 34.7352 61.7402 34.7169 61.7382C34.6986 61.7402 34.6797 61.7412 34.6601 61.7412H1.36823C0.950466 61.7412 0.560976 61.5539 0.300114 61.2279C0.0391915 60.9016 -0.0579832 60.4807 0.0338161 60.073L3.02026 46.8041C3.22175 45.9105 4.00202 45.2863 4.918 45.2863H59.0825C59.9981 45.2863 60.7786 45.9105 60.9802 46.8041L63.9663 60.073C64.0579 60.4807 63.9608 60.9016 63.7 61.2279C63.4392 61.5539 63.0495 61.7412 62.6317 61.7412Z" fill="#371A45"/>
<path d="M16.4309 53.3936C16.0677 53.3936 15.6914 53.3844 15.302 53.366C12.5721 53.2393 10.8991 52.2738 9.87939 51.0624C11.0235 52.1745 12.6622 52.7837 14.7614 52.8761C15.1142 52.8917 15.4534 52.8993 15.7803 52.8993C18.5955 52.8993 20.4774 52.3216 21.6569 51.1066C22.524 50.2137 22.9979 48.9783 23.0916 47.3543H24.1161C23.8845 51.6491 21.4265 53.3936 16.4309 53.3936Z" fill="#AF6B34"/>
<path d="M24.1167 47.3545H23.0918C23.1108 47.0277 23.1141 46.6847 23.1019 46.3255H24.1309C24.139 46.6839 24.1345 47.0265 24.1167 47.3545Z" fill="#B2805E"/>
<path d="M24.1305 46.3262H23.1012C23.0958 46.1568 23.0869 45.9833 23.0742 45.8066H24.1101C24.1194 45.9833 24.1264 46.1568 24.1305 46.3262Z" fill="#371A45"/>
<path d="M47.7332 53.3936C42.7373 53.3936 40.2791 51.6495 40.0479 47.3547H41.1818C41.275 48.9787 41.7491 50.2141 42.6162 51.1069C43.7962 52.3215 45.6778 52.8992 48.4934 52.8992C48.82 52.8992 49.1593 52.8915 49.5117 52.8762C51.293 52.7978 52.7427 52.3473 53.84 51.5333C52.7986 52.5172 51.2272 53.256 48.8617 53.3662C48.472 53.3842 48.096 53.3936 47.7332 53.3936Z" fill="#AF6B34"/>
<path d="M41.1819 47.3545H40.0476C40.0298 47.0266 40.0251 46.6837 40.0331 46.3252H41.1715C41.1597 46.6846 41.163 47.0275 41.1819 47.3545Z" fill="#B2805E"/>
<path d="M41.1719 46.3262H40.0337C40.0375 46.1568 40.0445 45.9836 40.0539 45.8072H41.1992C41.1865 45.9836 41.1776 46.1568 41.1719 46.3262Z" fill="#371A45"/>
<path d="M8.65475 45.8062C8.65475 45.8062 7.76801 52.0489 14.7849 52.357C20.4909 52.6078 22.9209 50.8172 22.5532 45.8062C22.3166 42.5743 15.8334 42.8143 15.8334 42.8143C15.8334 42.8143 9.09384 42.9376 8.65475 45.8062Z" fill="white"/>
<path d="M9.16948 45.8811C9.15871 45.9681 8.88114 48.2882 10.2927 49.9812C11.2452 51.1234 12.7645 51.7483 14.8079 51.838C17.8775 51.9729 19.8165 51.5104 20.9113 50.3829C21.822 49.445 22.1896 47.9607 22.0349 45.8444C21.8401 43.1921 15.9117 43.3317 15.8522 43.3343C14.2096 43.3653 9.4798 43.8998 9.16948 45.8811ZM15.7806 52.9004C15.4539 52.9004 15.1147 52.8926 14.7617 52.8771C12.4089 52.7737 10.634 52.0203 9.48627 50.6381C7.76183 48.5606 8.12387 45.8479 8.13982 45.7337L8.14068 45.7276C8.63245 42.5184 15.0893 42.3081 15.8242 42.2947C16.0991 42.2848 22.8017 42.0788 23.0719 45.7686C23.2499 48.1977 22.7874 49.9441 21.6574 51.1079C20.4777 52.3228 18.5959 52.9004 15.7806 52.9004Z" fill="#371A45"/>
<path d="M15.7976 51.8584C15.4815 51.8584 15.1516 51.8511 14.8078 51.8356C12.7643 51.746 11.2449 51.1211 10.2926 49.979C8.98711 48.4136 9.12601 46.3122 9.16307 45.9354C9.85757 47.478 11.4026 49.0063 14.7854 49.1542C15.13 49.1692 15.4624 49.177 15.7834 49.177C19.1145 49.177 21.1678 48.3456 22.0636 46.3933C22.1198 48.2185 21.7409 49.5264 20.9112 50.381C19.9389 51.3818 18.3015 51.8584 15.7976 51.8584Z" fill="#B9AFBE"/>
<path d="M15.7825 52.3809C15.4624 52.3809 15.1294 52.373 14.7853 52.3578C7.76781 52.0499 8.65422 45.8072 8.65422 45.8072C8.68966 45.5744 8.76672 45.3593 8.87963 45.1623C8.95257 45.417 9.0457 45.6778 9.16315 45.9382C9.12565 46.3153 8.98719 48.4166 10.2927 49.9817C11.245 51.124 12.764 51.7487 14.8075 51.8385C15.1512 51.8538 15.4813 51.8612 15.7978 51.8612C18.3012 51.8612 19.9389 51.3844 20.911 50.3835C21.741 49.5292 22.1197 48.2212 22.0636 46.3961C22.2247 46.0446 22.3484 45.656 22.4353 45.2303C22.4971 45.4095 22.5388 45.6012 22.5536 45.8072C22.8977 50.5157 20.7742 52.3809 15.7825 52.3809Z" fill="#371A45"/>
<path d="M55.6194 45.8061C55.6194 45.8061 56.5062 52.0489 49.4896 52.3571C43.783 52.6077 41.3537 50.8173 41.7211 45.8061C41.9576 42.5741 48.4414 42.814 48.4414 42.814C48.4414 42.814 55.1803 42.9376 55.6194 45.8061Z" fill="white"/>
<path d="M48.2394 43.3324C47.2121 43.3324 42.414 43.4628 42.2395 45.8443C42.0843 47.9606 42.4518 49.4446 43.3629 50.3828C44.4574 51.5101 46.3964 51.9724 49.4666 51.838C51.5095 51.7483 53.0285 51.1234 53.9814 49.9809C55.3931 48.288 55.1154 45.9674 55.1047 45.881C54.7936 43.8963 50.065 43.364 48.4314 43.3347C48.424 43.3341 48.3563 43.3324 48.2394 43.3324ZM48.4934 52.9004C45.6778 52.9004 43.7964 52.3224 42.6166 51.1076C41.4865 49.9436 41.0242 48.1977 41.202 45.7681C41.4724 42.0787 48.1745 42.2841 48.4601 42.2943C49.1849 42.3078 55.6415 42.5184 56.1332 45.7275L56.1343 45.7331C56.1501 45.8477 56.5125 48.5606 54.7874 50.6379C53.6398 52.0198 51.8651 52.7734 49.5118 52.8767C49.1595 52.8925 48.8203 52.9004 48.4934 52.9004Z" fill="#371A45"/>
<path d="M48.477 51.8584C45.9729 51.8584 44.3348 51.3816 43.3629 50.3808C42.5331 49.5264 42.1538 48.2187 42.21 46.3935C43.1062 48.3456 45.1591 49.1772 48.4909 49.1772C48.8111 49.1772 49.1436 49.1694 49.4884 49.1538C52.8708 49.0062 54.4164 47.4779 55.1104 45.9351C55.1477 46.3122 55.2864 48.4136 53.9814 49.9787C53.0284 51.121 51.5096 51.7459 49.4661 51.8356C49.1225 51.8506 48.7933 51.8584 48.477 51.8584Z" fill="#B9AFBE"/>
<path d="M48.491 52.3809C43.4991 52.3809 41.3757 50.5154 41.72 45.8068C41.7347 45.6008 41.7759 45.4089 41.8379 45.2299C41.9249 45.6555 42.049 46.0444 42.2099 46.3961C42.1535 48.2209 42.5328 49.5287 43.3625 50.3833C44.3345 51.3846 45.9731 51.861 48.4764 51.861C48.793 51.861 49.1221 51.8531 49.4664 51.8384C51.5091 51.7487 53.0286 51.1238 53.9814 49.9814C55.2864 48.4162 55.1475 46.3148 55.1103 45.9377C55.2277 45.6775 55.3208 45.4168 55.3942 45.1622C55.5071 45.3592 55.5838 45.5742 55.6194 45.8068C55.6194 45.8068 56.5056 52.0495 49.4878 52.3577C49.1441 52.373 48.8111 52.3809 48.491 52.3809Z" fill="#371A45"/>
<path d="M24.7043 57.4492C23.3374 57.4492 22.0459 57.3685 20.9769 57.1473C20.9769 57.1473 19.2032 56.5606 20.5741 55.4754C21.4255 54.8012 26.3519 54.3813 30.3471 54.3813C32.7865 54.3813 34.8778 54.5379 35.483 54.8882C37.6219 56.1268 34.8738 56.762 31.6659 57.0356C29.6361 57.2092 27.0598 57.4492 24.7043 57.4492Z" fill="#F4B66B"/>
<path d="M43.225 57.1631C43.1422 57.1631 43.0558 57.1601 42.9661 57.1542C42.9661 57.1542 42.9651 57.1542 42.9641 57.1542C42.849 57.1542 38.205 57.1452 38.7269 55.7011C39.1332 54.5755 40.2499 54.2292 41.384 54.2292C42.2552 54.2292 43.1367 54.4336 43.7142 54.6459C45.3652 55.2521 45.3309 57.1631 43.225 57.1631Z" fill="#F4B66B"/>
<path d="M49.8216 18.1628C49.6208 18.2482 49.3894 18.1543 49.3041 17.9535L44.8604 7.49134C44.7757 7.29057 44.8689 7.05916 45.0696 6.97377C47.1738 6.08008 49.6046 7.06177 50.4982 9.16594L52.0138 12.7335C52.9075 14.8383 51.9264 17.2691 49.8216 18.1628Z" fill="white"/>
<path d="M46.6818 6.73828C46.1553 6.73828 45.6202 6.84137 45.1054 7.05996C45.031 7.09193 44.9736 7.15 44.9436 7.22439C44.9136 7.29943 44.9142 7.38098 44.9456 7.45537L49.3897 17.9175C49.4543 18.0708 49.6311 18.1419 49.7845 18.0773C50.7795 17.6545 51.5501 16.8696 51.9547 15.868C52.3592 14.8651 52.3494 13.7656 51.9272 12.7706L50.4122 9.20275C49.7584 7.66351 48.2576 6.73828 46.6818 6.73828ZM49.6677 18.2881C49.4771 18.2881 49.2964 18.1759 49.2174 17.9906L44.774 7.52845C44.7231 7.40839 44.7218 7.27528 44.7707 7.15457C44.819 7.03386 44.9123 6.93925 45.0323 6.88835C47.181 5.97551 49.6716 6.98101 50.5838 9.12967L52.0995 12.6975C52.5412 13.7382 52.5517 14.8892 52.1282 15.9378C51.7047 16.9864 50.8983 17.8072 49.8575 18.2489C49.7955 18.2757 49.731 18.2881 49.6677 18.2881Z" fill="#371A45"/>
<path d="M49.9788 17.5078C49.8854 16.8351 49.7527 16.1674 49.5819 15.5063C49.5285 15.2754 49.472 15.0456 49.4111 14.8159C50.3578 14.2089 50.9942 13.2549 51.2203 12.1976L51.5348 12.9373C51.9126 13.8274 51.9219 14.8116 51.56 15.7085C51.248 16.4794 50.6938 17.1067 49.9788 17.5078Z" fill="#B9AFBE"/>
<path d="M45.3891 7.40605L49.7322 17.634C50.5673 17.2459 51.2129 16.5662 51.5597 15.7089C51.9215 14.8122 51.9123 13.8277 51.5348 12.9375L50.0193 9.37049C49.2557 7.57189 47.1982 6.70994 45.3891 7.40605ZM49.668 18.7148C49.3121 18.7148 48.9725 18.5057 48.8251 18.1583L44.3816 7.69577C44.2859 7.47029 44.2833 7.22187 44.3757 6.99573C44.4668 6.76894 44.6412 6.59131 44.866 6.49626C47.231 5.49143 49.9721 6.59852 50.977 8.96345L52.4924 12.5318C52.9788 13.6769 52.9899 14.9433 52.5239 16.0976C52.0578 17.2518 51.1703 18.1557 50.0246 18.6427C49.9085 18.6919 49.7873 18.7148 49.668 18.7148Z" fill="#371A45"/>
<path d="M10.5343 21.6418C10.7351 21.5566 10.9666 21.6501 11.052 21.8506L15.4954 32.3132C15.5808 32.5137 15.487 32.7454 15.2865 32.8306C13.1819 33.7244 10.7513 32.7431 9.85758 30.6386L8.3423 27.0705C7.44829 24.9665 8.43001 22.5356 10.5343 21.6418Z" fill="white"/>
<path d="M10.5715 21.7264C9.57655 22.1485 8.80573 22.9335 8.40111 23.9354C7.99609 24.9379 8.00624 26.0374 8.42876 27.0327L9.94409 30.6005C10.3663 31.5952 11.151 32.3657 12.1533 32.7705C13.1557 33.1753 14.2555 33.1653 15.2505 32.7432C15.3244 32.7114 15.3817 32.6529 15.4118 32.5787C15.4422 32.504 15.4415 32.422 15.4098 32.3479L10.9664 21.8859C10.9016 21.7331 10.7241 21.6612 10.5715 21.7264ZM13.669 33.2539C13.1324 33.2539 12.5958 33.1508 12.0834 32.9439C11.0349 32.5202 10.2141 31.7139 9.77198 30.6735L8.25664 27.1057C7.81455 26.0647 7.80441 24.9139 8.22765 23.8657C8.65117 22.817 9.45746 21.9962 10.4982 21.5541C10.746 21.4487 11.0332 21.5647 11.1385 21.8128L15.5819 32.2748C15.6329 32.3947 15.6339 32.5274 15.5852 32.6484C15.5363 32.7694 15.4435 32.8642 15.3234 32.9149C14.7911 33.1413 14.2302 33.2539 13.669 33.2539Z" fill="#371A45"/>
<path d="M13.669 32.6426C13.2104 32.6426 12.7514 32.5544 12.313 32.377C11.4166 32.0151 10.7146 31.3258 10.3366 30.4353L10.0322 29.7186C10.6384 30.0506 11.3252 30.23 12.0261 30.23C12.3798 30.23 12.7369 30.1844 13.0896 30.0901C13.5863 30.9274 14.1425 31.7242 14.7534 32.4748C14.3993 32.5863 14.0342 32.6426 13.669 32.6426Z" fill="#B9AFBE"/>
<path d="M10.6231 22.1706C9.78842 22.559 9.14252 23.2384 8.79623 24.096C8.43412 24.9928 8.44287 25.9766 8.82089 26.8667L10.3362 30.4339C10.7142 31.3246 11.4162 32.0141 12.3126 32.3756C13.1704 32.7226 14.108 32.7293 14.9669 32.3986L10.6231 22.1706ZM13.6686 33.6816C13.0783 33.6816 12.4873 33.5679 11.9234 33.3403C10.7689 32.8745 9.86539 31.9866 9.37907 30.8409L7.86373 27.2731C7.37707 26.1274 7.36558 24.8611 7.83167 23.7064C8.29775 22.5523 9.18535 21.6487 10.3311 21.1622C10.7959 20.9649 11.3335 21.1823 11.5306 21.6465L15.974 32.1093C16.0695 32.3341 16.0718 32.5824 15.9804 32.8089C15.8889 33.0353 15.7148 33.213 15.4896 33.3083C14.9041 33.5572 14.2865 33.6816 13.6686 33.6816Z" fill="#371A45"/>
<path d="M20.5838 38.7607C19.9677 38.3635 19.3743 37.9298 18.8057 37.4628C19.1069 37.2242 19.4415 37.0246 19.8039 36.8729C20.3326 37.1954 20.8795 37.4946 21.443 37.7701C21.5128 37.8045 21.5831 37.8383 21.6538 37.8722C21.2788 38.1684 20.9219 38.4656 20.5838 38.7607ZM46.3966 34.4059C46.0625 34.1693 45.7249 33.9474 45.3842 33.7402L45.6481 33.7099C45.8143 33.6902 45.9806 33.6806 46.1459 33.6806C46.3966 33.6806 46.6448 33.7028 46.8879 33.7463C46.7292 33.9697 46.5654 34.1895 46.3966 34.4059Z" fill="#B9AFBE"/>
<path d="M18.8063 37.4629C18.6693 37.3502 18.5338 37.2361 18.4004 37.1194C18.6688 36.8966 18.9631 36.7023 19.2787 36.542C19.4517 36.6546 19.6268 36.7652 19.8044 36.8728C19.4421 37.0245 19.1072 37.2239 18.8063 37.4629ZM46.8884 33.7462C46.6453 33.7025 46.3972 33.6807 46.1461 33.6807C45.9812 33.6807 45.8147 33.6899 45.6483 33.7097L45.3845 33.7401C45.1906 33.6224 44.9963 33.5092 44.8004 33.4006C44.84 33.358 44.8796 33.3149 44.9192 33.2713L45.5879 33.1931C45.7752 33.1713 45.9614 33.1606 46.1451 33.1606C46.5089 33.1606 46.8645 33.2023 47.2081 33.2814C47.1035 33.4377 46.9975 33.5929 46.8884 33.7462Z" fill="#371A45"/>
<path d="M31.1128 41.8779C27.7204 41.8779 24.4217 40.9794 21.5342 39.3378C21.9169 39.0103 22.3221 38.6824 22.7517 38.3545C25.1334 39.3173 27.6427 39.8027 30.1634 39.8027C32.3378 39.8027 34.5206 39.4419 36.6372 38.7153C39.4574 37.747 41.9712 36.1956 44.0469 34.1767C44.619 34.4792 45.1816 34.8246 45.7353 35.2123C43.5749 37.7031 40.7477 39.6756 37.4026 40.8229C35.3195 41.5385 33.1984 41.8779 31.1128 41.8779Z" fill="#B9AFBE"/>
<path d="M21.5351 39.3359C21.3738 39.2445 21.2145 39.1505 21.0557 39.0546C20.8975 38.9586 20.7407 38.8606 20.585 38.7602C20.9236 38.4647 21.2803 38.1673 21.6551 37.8709C22.0174 38.0432 22.3832 38.204 22.7524 38.3532C22.3229 38.6808 21.9179 39.0089 21.5351 39.3359ZM45.7361 35.2105C45.1824 34.8226 44.6197 34.4774 44.0474 34.175C44.3057 33.9238 44.5574 33.665 44.8011 33.3997C44.997 33.5083 45.1919 33.6218 45.3854 33.7389C45.7265 33.9469 46.0637 34.1684 46.3983 34.4051C46.2913 34.5428 46.1822 34.6789 46.0712 34.8136C45.9617 34.9472 45.8496 35.0799 45.7361 35.2105Z" fill="#371A45"/>
<path d="M48.5012 13.6118C51.9742 23.7308 46.5874 34.749 36.4684 38.222C26.3504 41.695 15.3323 36.3075 11.8591 26.1891C8.38607 16.0708 13.7734 5.05261 23.8917 1.57961C34.0104 -1.89338 45.0282 3.4941 48.5012 13.6118Z" fill="white"/>
<path d="M30.1965 0.613205C28.0892 0.613205 25.9742 0.963211 23.9222 1.66737C19.0522 3.33873 15.1245 6.80709 12.8626 11.4332C10.6011 16.0586 10.2761 21.288 11.9477 26.1585C13.6193 31.0283 17.0873 34.9557 21.713 37.2173C26.3387 39.4796 31.5684 39.8041 36.4384 38.1328C41.3089 36.4614 45.2363 32.993 47.498 28.367C49.7596 23.7416 50.0847 18.5121 48.4134 13.6416C46.7413 8.77185 43.2737 4.84371 38.6476 2.5821C35.971 1.27387 33.0912 0.613205 30.1965 0.613205ZM30.1638 39.374C27.2411 39.374 24.334 38.7071 21.631 37.3858C16.9605 35.1021 13.4586 31.136 11.7708 26.2186C10.083 21.3012 10.4111 16.0213 12.6949 11.3503C14.9784 6.68007 18.9442 3.17857 23.8615 1.49065C28.779 -0.197277 34.0594 0.130642 38.7297 2.41434C43.4 4.69805 46.9022 8.66416 48.5901 13.5816C50.2773 18.4983 49.9494 23.7788 47.6657 28.4498C45.382 33.1201 41.4166 36.6216 36.4992 38.3095C34.4274 39.0206 32.2916 39.374 30.1638 39.374Z" fill="#371A45"/>
<path d="M30.1638 38.7607C28.086 38.7607 26.0167 38.4131 24.0273 37.7218C25.1169 37.8731 26.3087 37.9622 27.5637 37.9622C30.2322 37.9622 33.1865 37.5594 36.0498 36.4992C40.492 34.8535 43.913 32.2594 46.1969 29.8434C43.915 33.5352 40.4586 36.3023 36.2993 37.7299C34.2928 38.4186 32.2245 38.7607 30.1638 38.7607Z" fill="#B9AFBE"/>
<path d="M30.196 1.04112C28.1349 1.04112 26.0668 1.3828 24.0604 2.0717C19.2978 3.70662 15.4571 7.09776 13.2456 11.6213C11.0339 16.1442 10.716 21.2583 12.3509 26.0203C13.9853 30.783 17.3767 34.6239 21.8998 36.8355C26.4231 39.047 31.5371 39.3651 36.2995 37.7302C41.0615 36.0953 44.9024 32.7042 47.1147 28.1806C49.3262 23.6577 49.6436 18.5436 48.0094 13.7816C46.3745 9.01891 42.9833 5.17799 38.4598 2.96644C35.8421 1.68706 33.0262 1.04112 30.196 1.04112ZM30.1629 39.8018C27.1762 39.8018 24.2052 39.1205 21.4432 37.7697C16.67 35.4362 13.0916 31.3832 11.3671 26.3585C9.64214 21.3332 9.97731 15.937 12.311 11.1639C14.6448 6.39153 18.6974 2.81258 23.7226 1.08825C28.7475 -0.636768 34.1434 -0.301331 38.9165 2.03219C43.6896 4.36572 47.2678 8.41872 48.9928 13.4434C50.7172 18.4687 50.3824 23.8649 48.0482 28.638C45.7147 33.4104 41.6624 36.9886 36.637 38.7137C34.5204 39.4407 32.3374 39.8018 30.1629 39.8018Z" fill="#371A45"/>
<path d="M48.6044 14.1023C49.8897 17.6687 49.9243 21.3963 48.9317 24.8494C48.1871 27.4371 43.3802 33.2293 35.8702 36.0111C28.9068 38.5902 21.209 37.155 18.9849 35.6358C16.0183 33.6099 13.6681 30.7162 12.3836 27.1498C8.98403 17.7127 15.6828 10.8799 25.6854 7.2769C35.6882 3.67388 45.2054 4.66513 48.6044 14.1023Z" fill="#371A45"/>
<path d="M35.5767 5.86771C32.6503 5.86771 29.359 6.50637 25.861 7.76648C20.6947 9.62748 16.7399 12.2451 14.4241 15.3377C11.8504 18.7735 11.3282 22.6883 12.8716 26.9734C14.0775 30.3211 16.2924 33.1686 19.2771 35.2065C21.3959 36.6541 28.8997 38.0381 35.6886 35.5232C43.2121 32.7367 47.7676 27.0112 48.4308 24.7057C49.4298 21.2314 49.3205 17.626 48.1141 14.279C46.5711 9.99385 43.6726 7.31133 39.4987 6.30497C38.2857 6.0128 36.9726 5.86771 35.5767 5.86771ZM27.5639 37.9619C23.5019 37.9619 20.1016 37.0298 18.6906 36.0658C15.5239 33.9033 13.1737 30.881 11.8932 27.3266C10.2236 22.6916 10.795 18.4482 13.5914 14.7143C16.0295 11.4587 20.1503 8.71785 25.5083 6.78794C30.8668 4.85737 35.7887 4.34127 39.7426 5.29397C44.2775 6.38712 47.4237 9.29158 49.0933 13.9265C50.3733 17.4809 50.4899 21.3076 49.4305 24.9932C48.6951 27.5492 44.0151 33.5482 36.0497 36.4984C33.187 37.5591 30.2325 37.9619 27.5639 37.9619Z" fill="#371A45"/>
<path d="M42.5209 18.3477C41.2749 18.347 40.0969 17.08 39.8062 15.3535C39.4927 13.4866 40.3349 11.7885 41.6879 11.5609C41.7894 11.5442 41.8902 11.5356 41.9916 11.5356C42.9791 11.5356 43.924 12.3314 44.4181 13.5218C44.5647 14.3603 44.6617 15.2001 44.71 16.0392C44.5041 17.237 43.7954 18.1591 42.8239 18.3223C42.7225 18.339 42.6217 18.3477 42.5209 18.3477Z" fill="#C3BAC7"/>
<path d="M41.7058 23.9336C40.9751 23.9336 40.3691 23.254 40.345 22.3981C40.3208 21.5293 40.9055 20.8087 41.6507 20.788C41.662 20.7874 41.6732 20.7874 41.6839 20.7874C42.4145 20.7874 43.0205 21.467 43.0447 22.3229C43.0688 23.1911 42.4842 23.9128 41.7389 23.933C41.7277 23.9336 41.7164 23.9336 41.7058 23.9336Z" fill="#C3BAC7"/>
<path d="M29.2959 36.8564C37.6712 33.1067 42.9853 26.5612 43.8625 23.5129C44.5568 21.0964 44.8557 18.5742 44.7095 16.0386C44.7906 15.5684 44.7938 15.0557 44.7056 14.5296C44.6451 14.1715 44.5472 13.8333 44.4177 13.5216C44.2032 12.2979 43.8812 11.0787 43.4471 9.87431C43.1232 8.97263 42.7535 8.13277 42.3445 7.35024C45.0154 8.72724 46.9502 11.0478 48.114 14.279C49.3203 17.6262 49.4298 21.2316 48.4302 24.7057C47.7675 27.0114 43.212 32.7371 35.6882 35.5239C33.5654 36.3103 31.373 36.7154 29.2959 36.8564Z" fill="#2A1A3B"/>
<path d="M27.938 37.4287C28.3996 37.2464 28.8522 37.0556 29.2967 36.8564C31.3731 36.7156 33.5656 36.3101 35.6886 35.5237C43.2128 32.7368 47.7678 27.0113 48.4309 24.7059C49.4301 21.232 49.3205 17.6263 48.1149 14.2795C46.9509 11.0475 45.016 8.72719 42.3446 7.35032C42.2045 7.08299 42.0598 6.82215 41.9105 6.5678C44.8855 7.88303 47.2383 10.3124 48.6041 14.1023C49.8889 17.6697 49.9233 21.3974 48.9312 24.8493C48.1863 27.4376 43.3789 33.23 35.869 36.0123C33.2178 36.9953 30.4602 37.395 27.938 37.4287Z" fill="#2A1A3B"/>
<path d="M44.7096 16.0391C44.6617 15.2007 44.5647 14.3599 44.418 13.5221C44.5471 13.8337 44.6453 14.172 44.7059 14.5296C44.7944 15.0564 44.7902 15.5693 44.7096 16.0391Z" fill="#858290"/>
<path d="M10.8476 19.1309C10.7902 19.1309 10.7322 19.1214 10.6748 19.1011C10.4133 19.0086 10.2715 18.7288 10.3495 18.4653C11.8577 12.6106 17.0962 7.67678 24.7235 4.92881C32.3082 2.19704 39.465 2.57272 44.3582 5.96056L44.065 6.38895L43.8826 6.87611C43.8427 6.86124 43.8015 6.8403 43.7657 6.8153C39.1528 3.62205 32.3407 3.29097 25.0759 5.90786C17.7712 8.53895 12.7696 13.216 11.3531 18.7383C11.3491 18.7545 11.3443 18.77 11.3387 18.7849C11.2624 18.9977 11.0616 19.1309 10.8476 19.1309Z" fill="#371A45"/>
<path d="M18.4724 31.2998C18.4724 31.2998 12.1961 23.0427 15.8771 17.5254C19.2473 12.4745 25.5871 9.88055 26.6326 9.88055C26.7288 9.88055 26.7801 9.90255 26.7801 9.94655C26.7801 9.94655 19.4856 14.7605 18.6344 22.2043C17.978 27.9441 18.4724 31.2998 18.4724 31.2998Z" fill="#C3BAC7"/>
<path d="M20.0411 83.1729L19.3825 83.2749C19.2503 83.2951 19.1467 83.3987 19.1266 83.5307L19.0247 84.1895L18.9228 83.5307C18.9024 83.3987 18.7991 83.2951 18.6673 83.2749L18.0083 83.1729L18.6673 83.0713C18.7991 83.0511 18.9024 82.9475 18.9228 82.8155L19.0247 82.1568L19.1266 82.8155C19.1467 82.9475 19.2503 83.0511 19.3825 83.0713L20.0411 83.1729Z" fill="#FFF2BD"/>
<path d="M15.9824 88.3402L15.3644 88.4357C15.2406 88.4546 15.1434 88.5518 15.1241 88.6757L15.0286 89.2939L14.9334 88.6757C14.9142 88.5518 14.817 88.4546 14.6931 88.4357L14.0752 88.3402L14.6931 88.2447C14.817 88.2258 14.9142 88.1286 14.9334 88.0047L15.0286 87.3864L15.1241 88.0047C15.1434 88.1286 15.2406 88.2258 15.3644 88.2447L15.9824 88.3402Z" fill="#FFF2BD"/>
<path d="M13.5555 80.7664L13.0948 80.8377C13.0023 80.8518 12.9298 80.9244 12.9156 81.0169L12.8444 81.4775L12.7732 81.0169C12.759 80.9244 12.6864 80.8518 12.5943 80.8377L12.1333 80.7664L12.5943 80.6952C12.6864 80.6811 12.759 80.6085 12.7732 80.5164L12.8444 80.0554L12.9156 80.5164C12.9298 80.6085 13.0023 80.6811 13.0948 80.6952L13.5555 80.7664Z" fill="#FFF2BD"/>
<path d="M50.8916 84.5235L51.5502 84.6251C51.6825 84.6457 51.7861 84.7493 51.8062 84.8813L51.9082 85.54L52.0096 84.8813C52.0302 84.7493 52.1333 84.6457 52.2657 84.6251L52.9242 84.5235L52.2657 84.4219C52.1333 84.4013 52.0302 84.2977 52.0096 84.1657L51.9082 83.5073L51.8062 84.1657C51.7861 84.2977 51.6825 84.4013 51.5502 84.4219L50.8916 84.5235Z" fill="#FFF2BD"/>
<path d="M43.7222 88.5934L44.3403 88.6886C44.4643 88.7079 44.5613 88.8051 44.5802 88.9289L44.6758 89.5469L44.7714 88.9289C44.7903 88.8051 44.8878 88.7079 45.0113 88.6886L45.6294 88.5934L45.0113 88.4979C44.8878 88.4787 44.7903 88.3815 44.7714 88.2577L44.6758 87.6397L44.5802 88.2577C44.5613 88.3815 44.4643 88.4787 44.3403 88.4979L43.7222 88.5934Z" fill="#FFF2BD"/>
<path d="M46.9922 79.4155L47.4534 79.4867C47.5456 79.5013 47.6182 79.5735 47.6321 79.6659L47.7036 80.127L47.7747 79.6659C47.7891 79.5735 47.8612 79.5013 47.9538 79.4867L48.4146 79.4155L47.9538 79.3447C47.8612 79.3301 47.7891 79.2579 47.7747 79.1655L47.7036 78.7045L47.6321 79.1655C47.6182 79.2579 47.5456 79.3301 47.4534 79.3447L46.9922 79.4155Z" fill="#FFF2BD"/>
<path d="M13.9858 65.7984L13.5204 65.8703C13.4273 65.8848 13.354 65.9581 13.3399 66.0512L13.268 66.5166L13.1961 66.0512C13.1816 65.9581 13.1084 65.8848 13.0152 65.8703L12.5498 65.7984L13.0152 65.7265C13.1084 65.7124 13.1816 65.6391 13.1961 65.546L13.268 65.0806L13.3399 65.546C13.354 65.6391 13.4273 65.7124 13.5204 65.7265L13.9858 65.7984Z" fill="#FFF2BD"/>
<path d="M11.1769 70.1347L10.6939 70.2093C10.5971 70.2241 10.5211 70.3001 10.5063 70.3969L10.4317 70.8799L10.3571 70.3969C10.3423 70.3001 10.2663 70.2241 10.1695 70.2093L9.68652 70.1347L10.1695 70.0601C10.2663 70.0453 10.3423 69.9693 10.3571 69.8725L10.4317 69.3895L10.5063 69.8725C10.5211 69.9693 10.5971 70.0453 10.6939 70.0601L11.1769 70.1347Z" fill="#FFF2BD"/>
<path d="M49.9561 64.8691L50.4214 64.941C50.5147 64.9552 50.5877 65.0284 50.6027 65.1215L50.6741 65.5869L50.7461 65.1215C50.7605 65.0284 50.8335 64.9552 50.9268 64.941L51.3921 64.8691L50.9268 64.7972C50.8335 64.7827 50.7605 64.7095 50.7461 64.6163L50.6741 64.1509L50.6027 64.6163C50.5877 64.7095 50.5147 64.7827 50.4214 64.7972L49.9561 64.8691Z" fill="#FFF2BD"/>
<path d="M52.7642 69.204L53.2471 69.2787C53.344 69.2939 53.42 69.3698 53.4348 69.4663L53.5097 69.9492L53.5841 69.4663C53.5989 69.3698 53.6749 69.2939 53.7718 69.2787L54.2547 69.204L53.7718 69.1295C53.6749 69.1146 53.5989 69.0387 53.5841 68.9418L53.5097 68.4589L53.4348 68.9418C53.42 69.0387 53.344 69.1146 53.2471 69.1295L52.7642 69.204Z" fill="#FFF2BD"/>
<path d="M29.0444 89.2514L29.6197 89.3402C29.7349 89.3581 29.8252 89.4485 29.8431 89.5636L29.9318 90.1387L30.0205 89.5636C30.0384 89.4485 30.1291 89.3581 30.2442 89.3402L30.8191 89.2514L30.2442 89.1627C30.1291 89.1448 30.0384 89.0543 30.0205 88.9393L29.9318 88.3638L29.8431 88.9393C29.8252 89.0543 29.7349 89.1448 29.6197 89.1627L29.0444 89.2514Z" fill="#FFF2BD"/>
<path d="M34.1069 86.0444L34.6819 86.1332C34.7971 86.1511 34.8873 86.2415 34.9052 86.3566L34.9941 86.9316L35.083 86.3566C35.1006 86.2415 35.1912 86.1511 35.3064 86.1332L35.8814 86.0444L35.3064 85.9556C35.1912 85.9378 35.1006 85.8473 35.083 85.7322L34.9941 85.1568L34.9052 85.7322C34.8873 85.8473 34.7971 85.9378 34.6819 85.9556L34.1069 86.0444Z" fill="#FFF2BD"/>
</svg>
