<svg xmlns="http://www.w3.org/2000/svg" xmlns:xlink="http://www.w3.org/1999/xlink" viewBox="0 180 1365 1100">
  <defs>
    <style>
      .cls-1 {
        isolation: isolate;
      }

      .cls-2 {
        fill: #f5dbbc;
      }

      .cls-3 {
        fill: #fcf7ea;
      }

      .cls-4 {
        fill: url(#_ÂÁ_Ï_ÌÌ_È_ËÂÌÚ_548);
      }

      .cls-5 {
        fill: #a6e0d1;
        mix-blend-mode: multiply;
      }

      .cls-6 {
        fill: url(#_ÂÁ_Ï_ÌÌ_È_ËÂÌÚ_574);
      }

      .cls-7 {
        fill: #705718;
      }

      .cls-7, .cls-8 {
        mix-blend-mode: screen;
      }

      .cls-8 {
        fill: url(#_ÂÁ_Ï_ÌÌ_È_ËÂÌÚ_581);
      }

      .cls-9 {
        fill: #095d5e;
      }

      .cls-10 {
        fill: #371a45;
      }

      .cls-11 {
        fill: #fff;
      }

      .cls-12 {
        fill: #bebebf;
      }

      .cls-13 {
        fill: #22a7f0;
      }

      .cls-14, .cls-21 {
        fill: none;
        stroke: #371a45;
      }

      .cls-14 {
        stroke-linecap: round;
        stroke-linejoin: round;
        stroke-width: 37.421px;
      }

      .cls-15 {
        fill: #afafb2;
      }

      .cls-16 {
        fill: #848484;
      }

      .cls-17 {
        fill: #c1c1c1;
      }

      .cls-18 {
        fill: #111a28;
      }

      .cls-19 {
        fill: #bbc5d2;
      }

      .cls-20 {
        fill: #8896b1;
      }

      .cls-21 {
        stroke-miterlimit: 10;
        stroke-width: 4px;
      }

      .cls-22 {
        fill: #5b254e;
      }

      .cls-23 {
        fill: #985965;
      }

      .cls-24 {
        fill: #461642;
      }

      .cls-25 {
        fill: #d2ccbf;
        opacity: 0.2;
        mix-blend-mode: soft-light;
      }

      .cls-26 {
        fill: #b06979;
      }

      .cls-27 {
        fill: #d27f7c;
      }

      .cls-28 {
        fill: #6e3e62;
      }

      .text {
        font-family: "Courier";
        font-size: 40px;
        width: 12.5em;
        position: absolute;
        top: 110px;
        right: 20px;
      }

      #meteorite1,#meteorite2,#meteorite3,#meteorite4,#meteorite5,#meteorite6{
        animation: levitate 3s infinite ease-in-out;
      }
      #right-eye,#left-eye{
        transform-origin: 191px 300px;
        animation: blink-eyes 12s infinite ease-in-out;
      }
      @keyframes blink-eyes {
        0% { transform: rotateX(0deg); }
        2% { transform: rotateX(80deg); }
        4%,20% { transform: rotateX(0deg); }
        22% { transform: rotateX(80deg); }
        24%,30% { transform: rotateX(0deg); }
        32% { transform: rotateX(80deg); }
        34%,70% { transform: rotateX(0deg); }
        72% { transform: rotateX(80deg); }
        74%,100% { transform: rotateX(0deg); }
      }
      @keyframes levitate {
        0% { transform: translate3d(0,0,0);}
        50% { transform: translate3d(0,15px,0)};
      }
    </style>
    <radialGradient id="_ÂÁ_Ï_ÌÌ_È_ËÂÌÚ_548" data-name="¡ÂÁ˚ÏˇÌÌ˚È „‡‰ËÂÌÚ 548" cx="637.173" cy="816.727" r="474.628" gradientTransform="matrix(1.065, -0.42, 0.404, 1.107, -247.906, -25.174)" gradientUnits="userSpaceOnUse">
      <stop offset="0" stop-color="#14d8e0"/>
      <stop offset="0.681" stop-color="#0c6d9e"/>
      <stop offset="0.734" stop-color="#0c76a3"/>
      <stop offset="0.82" stop-color="#0c8db2"/>
      <stop offset="0.927" stop-color="#0bb3c9"/>
      <stop offset="1" stop-color="#0bd1db"/>
    </radialGradient>
    <radialGradient id="_ÂÁ_Ï_ÌÌ_È_ËÂÌÚ_574" data-name="¡ÂÁ˚ÏˇÌÌ˚È „‡‰ËÂÌÚ 574" cx="654.675" cy="808.948" r="577.179" gradientTransform="matrix(1.065, -0.42, 0.404, 1.107, -210.76, -4.202)" gradientUnits="userSpaceOnUse">
      <stop offset="0" stop-color="#cdd40f"/>
      <stop offset="0.681" stop-color="#0e7446"/>
      <stop offset="0.722" stop-color="#177842"/>
      <stop offset="0.787" stop-color="#2e8537"/>
      <stop offset="0.869" stop-color="#549824"/>
      <stop offset="0.963" stop-color="#89b30b"/>
      <stop offset="1" stop-color="#9fbf00"/>
    </radialGradient>
    <linearGradient id="_ÂÁ_Ï_ÌÌ_È_ËÂÌÚ_581" data-name="¡ÂÁ˚ÏˇÌÌ˚È „‡‰ËÂÌÚ 581" x1="439.257" y1="828.351" x2="540.47" y2="953.734" gradientUnits="userSpaceOnUse">
      <stop offset="0" stop-color="#4db089"/>
      <stop offset="1"/>
    </linearGradient>
  </defs>
  <title>astronaut</title>
  <g class="cls-1">
    <g id="astronaut">
      <g>
        <path class="cls-2" d="M1039.153,811.156c-1.041,14.478-3.231,29.519-11.235,41.4-2.451,3.631-5.835,7.149-10.107,7.464a7.239,7.239,0,0,1-5.878-2.751,5.347,5.347,0,0,1-1-5.638c-1.973-.653-3.969,1.286-4.446,3.36-.5,2.1.022,4.263.173,6.4.651,10.193-7.591,24.242-11.712,33.262-2.624,5.728-6.29,9.675-7.917,16.124-1.54,6.043-1.735,12.4-2.993,18.514a54.414,54.414,0,0,1-1.952,6.923c-2.971,8.772-8.22,18.739-13.925,24.107-6.572,6.179-17.2,8.366-20.431,16.935-2.321,6.157.282,13.215-1.128,19.642-2.169,9.855-12.493,14.86-21.559,18.469-4.317,1.714-9.067,3.4-13.426,2.435a10.05,10.05,0,0,1-1.931-.609c-4.88-2.074-7.027-10.328-2.363-12.921a69.662,69.662,0,0,1-23.9,4.8c-2.1.045-4.577-.2-5.683-2.052a5.9,5.9,0,0,1-.542-3.721c.78-8.3,5.878-15.56,11.864-21.107,6.008-5.57,12.992-9.833,19.238-15.086a82.755,82.755,0,0,0,22.341-30.061c4.1-9.358,6.7-19.822,13.664-27.106,3.687-3.856,8.351-6.562,12.146-10.283,14.858-14.5,4.945-51.054.694-68.622-6.138-25.391-14.987-50.716-14.51-77.258.238-13.575,2.993-26.88,4.9-40.275,1.128-7.893-.738-14.455,3.188-21.446,4.143-7.374,11.843-13.282,19.325-16.484a31.007,31.007,0,0,1,3.753-1.331,16.862,16.862,0,0,1,8.784-.361c4.837,1.24,8.654,5.277,11.126,9.765,3.839,6.968,4.881,14.59,4.772,22.528-.216,14.657-4.4,30.4-2.342,45.1.3,2.052.759,4.217,2.169,5.728,2.928,3.157,7.873,1.8,12.081,1.511,11.04-.722,21.039,8.118,25.4,18.672C1040.151,787.771,1039.955,799.7,1039.153,811.156Z" transform="translate(-37.146 -20.972)"/>
        <path class="cls-2" d="M528.762,1019.456a7.509,7.509,0,0,1-3.643,2.729,60.308,60.308,0,0,1-25.9,5.48,43.757,43.757,0,0,1-24.313-7.487c-11.518-8.051-18.176-21.536-24.336-34.457a42.235,42.235,0,0,1-3.861-10.328c-1.605-8.5,2.039-17.387.347-25.889-1.562-7.78-7.526-15.221-5.162-22.776-19.78,3.473-42.316.677-55.937-14.612-10.237-11.524-13.577-28.662-10.281-43.975s12.645-28.752,24.423-38.561c1.431-1.2,3.058-2.864,2.472-4.668-.39-1.173-1.583-1.782-2.6-2.436-6.463-4.058-8.762-13.056-7.4-20.769,1.345-7.734,5.574-14.545,9.739-21.107-18.328-16.146-22.666-46.094-11.821-68.4a64.457,64.457,0,0,1,24.9-26.79,69.531,69.531,0,0,1,6.615-3.541c8.632-4.014,19.759-8.84,28.391-2.39,12.515,9.38,16.528,31.548,18.5,46.409,2.43,18.221.868,36.983-3.47,54.776-3.861,15.875-9.781,31.277-12.059,47.491-3.427,24.31,1.561,49.3,10.953,71.824s23.034,42.846,37.5,62.24c11.843,15.9,24.791,32.383,27.437,52.318A7.876,7.876,0,0,1,528.762,1019.456Z" transform="translate(-37.146 -20.972)"/>
        <path class="cls-3" d="M499.221,1027.665a43.757,43.757,0,0,1-24.313-7.487c-11.518-8.051-18.176-21.536-24.336-34.457a42.235,42.235,0,0,1-3.861-10.328c-1.605-8.5,2.039-17.387.347-25.889-1.562-7.78-7.526-15.221-5.162-22.776-19.78,3.473-42.316.677-55.937-14.612-10.237-11.524-13.577-28.662-10.281-43.975s12.645-28.752,24.423-38.561c1.431-1.2,3.058-2.864,2.472-4.668-.39-1.173-1.583-1.782-2.6-2.436-6.463-4.058-8.762-13.056-7.4-20.769,1.345-7.734,5.574-14.545,9.739-21.107-18.328-16.146-22.666-46.094-11.821-68.4a64.457,64.457,0,0,1,24.9-26.79c5.1,19.573-.759,43.3-12.32,58.969-1.757,2.414-3.774,5.074-3.384,8.051.282,2.188,1.822,3.924,3.124,5.638,14.965,19.777,5.791,49.837,16.028,72.613,4.642,10.373,13.469,20.3,11.062,31.458-2.6,12.133-17.656,19.011-18,31.413-.347,11.862,12.406,18.56,22.492,24.129,6.7,3.721,13.447,8.705,15.963,16.146,2.3,6.788.672,14.252.889,21.446a40.724,40.724,0,0,0,10.346,25.911c5.01,5.547,11.452,9.449,17.243,14.116,8.633,6.924,16.094,15.966,19.239,26.791A36.681,36.681,0,0,1,499.221,1027.665Z" transform="translate(-37.146 -20.972)"/>
        <path class="cls-3" d="M623.2,447.421c-11.707.079-22.993,5.582-31.336,14.1-5.848,5.968-9.762,14.684-8.044,23.013-7.453,1.48-15.309,3.16-20.946,8.441s-7.767,15.447-2.343,20.963c-12.742,3.588-21.715,15.1-29.784,25.963-3.135,4.22-6.354,8.62-7.493,13.819s.418,11.444,4.933,13.975c4.773,2.675,10.624.373,15.513-2.066,19.143-9.552,32.014-23.433,49.591-35.111,7.921-5.263,16.117-10.355,25.181-12.945,15.462-4.416,31.344-.687,46.984-2.824,13.575-1.854,23.189-4.329,37.242-.816l29.1,7.271c10.559,2.639,21.778,5.259,32.1,1.741s18.694-15.722,14.42-26.1c-3.5-8.506-13.867-12.754-16.165-21.693-.638-2.484-.567-5.1-.83-7.654-1.509-14.736-15.8-26.7-29.973-25.094s-25.639,16.507-24.051,31.233c-12.888.137-16.368-8.254-23.188-16.841-6.862-8.64-18.159-7.161-28.148-6.44C644.683,451.165,634.308,447.346,623.2,447.421Z" transform="translate(-37.146 -20.972)"/>
        <ellipse class="cls-4" cx="673.679" cy="766.162" rx="277.048" ry="288.049"/>
        <path class="cls-5" d="M976.865,830.071l4.458-57.375c.516-6.643,2.1-13.821,1.683-20.468a93.37,93.37,0,0,0-1.836-11.834c-.056-.273-1.923-7.1-2.3-6.187q-28.689,68.532-59.159,136.471c-3.931,8.732-7.82,17.555-10.1,26.9-2.169,8.868-2.854,18.057-3.125,27.2a310.742,310.742,0,0,0,.711,32.2c.547,7.379,1.636,15.367,6.712,20.557,12.335-5.951,21.154-17.857,27.145-30.549s9.6-26.431,14.605-39.577c5.569-14.641,12.889-28.635,16.715-43.868C975.107,852.626,975.991,841.315,976.865,830.071Z" transform="translate(-37.146 -20.972)"/>
        <path class="cls-5" d="M670.464,1076.886c23.285,5.541,48.429,5.177,70.279-4.857a113.378,113.378,0,0,1-7.713-36.118c-.361-10.637,1.123-21.244,1.459-31.882.5-15.952-1.573-31.856-3.646-47.67a10.648,10.648,0,0,0-1.231-4.381c-1.863-2.938-5.868-3.119-9.25-2.984-20.674.827-41.4,1.776-62.031.137-10.45-.829-20.915-2.324-31.372-1.6-12.2.845-24.053,4.689-36.237,5.741-15.054,1.3-30.127-1.691-44.858-5.167-16.013-3.779-32.318-8.349-45.6-18.389-15.432-11.664-20.452-27.5-22.479-46.435,5.074-2.448,11.131-.77,16.066,1.968s9.369,6.5,14.612,8.522c5.046,1.95,10.532,2.176,15.911,2.382l39.756,1.516a85.66,85.66,0,0,0,14.983-.3,43.975,43.975,0,0,0,20.937-8.923c4.64-3.626,11.376-8.279,12.117-14.776.374-3.288-.649-6.555-1.658-9.694-4.968-15.453-10.008-31.068-18.284-44.9-5.169-8.643-11.713-16.894-13.393-26.92-2.637-15.734,7.481-30.706,18.772-41.534,5.932-5.687,12.866-15.131,21.086-6.328,3.911,4.189,5.152,10.247,6.54,15.9a156.535,156.535,0,0,0,50.642,82.016c7.778,6.528,17.785,12.511,27.293,9.3,4.6-1.552,8.926-5.206,13.68-4.284,4.728.916,7.473,5.869,10.406,9.831,11.55,15.607,32.154,19.719,50.872,22.72,10.837-29,39.7-45.425,59.867-68.4,10.71-12.2,19.056-26.441,26.486-41.044A423.667,423.667,0,0,0,900.4,670.054c1.978-8.922,3.679-18.062,2.9-27.181-1.5-17.65-11.934-32.854-19.28-48.842-6.938-15.1-12.568-32.958-27.046-40.266-7.5-3.783-16.147-3.958-24.479-3.924-57.305.225-114.945,6.87-169.587,24.825s-106.305,47.577-146.678,89.861C503.24,678.135,491.3,693.252,484,710.859c-7.087,17.073-9.548,35.794-14.958,53.519-8.532,27.954-24.55,54.218-25.045,83.541-.3,17.849,5.282,35.269,12.378,51.525a266.123,266.123,0,0,0,56.556,82.287c24.994,24.756,55.472,39.271,82.469,60.646C615.853,1058.574,645.609,1070.97,670.464,1076.886Z" transform="translate(-37.146 -20.972)"/>
        <path class="cls-6" d="M982.358,730.793a287.178,287.178,0,0,1-10.447,50.03C962.362,792.6,961,808.048,956.424,822.205a114.549,114.549,0,0,1-21.3,45.992c-4.221,8.324-12.493,13.689-13.709,23.7-7.237,18.488,2.355,36.869.8,55.792-.611,9.191,4.138,22.127-2.34,29.292,2.5.678,5.787-2.261,8.1-3.538,3.146-3.774,7.858-4.912,11.5-8.037,12.567-9.232,17.8-25.022,27.041-37.187,5.494-6.681,14.16-7.666,21.167-11.857,5.781-2.4,10.836-7.173,15.783-10.526-3.111-15.247-5.853-31.074-10.162-45.92,4.063-8.5,6.014-18.85,12.955-25.571.586-.811.138-1.912.225-2.815,2.235-20.494-5.763-38.707-13.518-56.825C989.265,760.245,986.017,744.811,982.358,730.793ZM666.789,710.5c-12.026-2.753-27.653-1.263-32.205,12.572a26.56,26.56,0,0,0-1.418,4.757c-3.734,18.167,11.76,34.6,15.71,51.835,6.7,18.077,12.685,40.124,31.492,48.039,5.791,3.913,14.387,6.549,20.238,1.416a42.166,42.166,0,0,0,.688-17.615c-2.364-4.06-3.466-8.473-4.252-13.228a56.809,56.809,0,0,1-.518-13.932c0-.05.018-.079.01-.1.879-13.156,4.135-26.406-2.067-39.13C693.216,728.794,680.071,717.388,666.789,710.5Zm198.929-111.14c-2.179-6.666.937-13.951.322-20.968-.364-3.982-1.9-7.742-3.425-11.409l-9.774-23.519c1.185-.058,2.351-.108,3.535-.166a203.9,203.9,0,0,0-14.831-15.515,83.618,83.618,0,0,0-9.638-7.774c-7.013-4.78-15.731-6.163-22.369-11.7-8.576-7.155-16.955-14.532-25.728-21.465a1.1,1.1,0,0,0-.672-.314.983.983,0,0,0-.651.378,34.488,34.488,0,0,0-6.034,7.617c-7.518-3.689-11.951-11.057-18.247-16.483-1.962-1.686-20.465-20.962-20.647-20.89-8.091,4.4-15.376,15.962-25.065,13.444-4.661-1.2-8.381-4.459-12.063-7.491-1.832-1.521-8.956-5.462-9.753-7.39a16.937,16.937,0,0,0-10.539-9.733c-6.087-4.278-12.554-8.455-18.6-12.556a184.692,184.692,0,0,1-33.5,40.8c-4.62,2.6-9.947,4.652-13.216,9.1-1.265.475-2.67-.828-3.652-1.55-2.4-2.623-6.927-2.957-8.48-6.445-12.555,8.311-18.472,24.252-26.435,36.37-14.3,19.156-37.008,29.907-52.207,48.766-14.235,16.669-28.428,38.218-49.208,45.29-3.239,8.346-5.7,18.629-15.212,21.3-8.353,9.715-18.947,15.9-29.575,22.436,5.473,3.677,8.172,39.711,5.172,44.393-1.49,5-4.832,9.7-6.728,14.356a75.428,75.428,0,0,1,2.686,24.437A225.238,225.238,0,0,0,415.714,759.3c7,14.723,8.379,32.464,13.521,48.067-3.092,10.46,4.959,20.813,3.651,32.161,8.116,16.31-1.9,29.165.006,44.985,9.294,23.854,19.027,47.9,36.1,66.12,1.466,7-7.3,22.881-.167,27.107,6.121,4.434,10.583,11.38,18,13.639,4.037,2.8,5.778,8.259,10.489,10.549,6.686,2.425,7.967,9.615,7.561,16.191.049,1.4.376,5.158-1.431,5.8,12.1,8.66,19.958,3,18.859,22.73.241,2.439.016,5.06,2.467,5.926,6.86,1.44,13.43.437,20.18-.395,11.015,2.019,20.51,20.583,28.637,29.049,11.009-3.527,23.75-6.122,35.1-3.125,1.728-.731,1.78,1.251,2.5,2.148,2.448,2.893,5.009,6.537,8.4,8.312,10.815-2.148,22.733-6.107,33.667-9.965,1.642-.649,6.822-4,8.528-2.186,1.525,6.273,10.409,4.743,15.128,5.147,15.548,2.424,32.719,3.508,47.284-3.112,2.794-1.369,6.063-3.408,9.077-2.017,1.769-1.253,3.84-3.4,6.064-3.914-44.56-9.374-12.892-50.028-22.636-81.278-2.792-5.99,2.857-21.585-8.056-18.24-18.548,2.065-36.932,9.156-55.617,6.4-9.337-3.839-14.531-17.105-25.429-18.23-48.391,8.591-59.154,23.334-108.032-3.2-40.165-8.142-62.43-54.421-65.835-93.723,0-.05-.018-.113-.013-.163,6.737-6.834,16.517,3.3,22.465,6.688,31.867,16.291,91.482,8.068,123.672-5.752a65.93,65.93,0,0,1-7.314-14.624c-2.1-5.42-3.972-11-6.553-16.035a66.887,66.887,0,0,0-7.461-6.2c-8.53-6.328-18.041-12.487-19.424-24.147.44-18.168,4.236-36.36.388-54.452,7.627-13.481,23.023-22.335,36.143-29.035,24.353,23.094,13.613-14.373,41.233-36.954,37.445-15.437,62.819,33.764,78.047,62.366,6.549,28.411-12.679,49.512,7.561,75.894,4.762,12.4,14.151,21.212,20.713,32.443,2.706,4.865,9.323,4.689,13.8,2.848,30.7-11.615,50.083-42.451,72.557-65.654,14.869-18.366,20.9-41.492,29.229-63.211,5.12-13.359,17.265-22.473,24.837-34.581.22-.352.427-.675.646-1.027a41.388,41.388,0,0,0,4.369-8.745,42.257,42.257,0,0,0,1.724-11.921c.32-9.414-1.969-19.365.17-28.435,2.665-11.377-15.009-28.641-21.041-37.4A27.8,27.8,0,0,1,865.718,599.359Z" transform="translate(-37.146 -20.972)"/>
        <path class="cls-7" d="M610.283,486.022a39.783,39.783,0,0,1-8.1-3.268c-.77-.414-2.032-.645-2.224.234a1.475,1.475,0,0,0,0,.469c.459,4.393,2.227,12,6.611,13.78,3.528,1.43,6.136,4.57,9.391,6.582a16.581,16.581,0,0,0,10.107,2.416,33.023,33.023,0,0,0,9.4-2.784q5.169-2.108,10.338-4.215c4.363-1.778,8.989-3.768,11.631-7.792-6.227-4.48-15.812-8.695-23.371-6.753-2.936.754-5.59,2.02-8.4,2.858-2.9.862-6.175.248-9.083-.23-1.377-.227-2.755-.453-4.119-.753Q611.366,486.326,610.283,486.022Z" transform="translate(-37.146 -20.972)"/>
        <path class="cls-7" d="M674.272,456.361c2.553,2.2,5.465,3.925,8.017,6.132,3.11,2.688,5.624,6.042,8.6,8.889a36.513,36.513,0,0,0,8.93,6.286c2.607,1.3,5.577,2.283,8.36,1.472a14.383,14.383,0,0,0,4.81-2.953c-2.166-3.5-5.709-5.805-9.316-7.6s-7.417-3.2-10.775-5.456a12.6,12.6,0,0,1-3.683-3.509c-.75-1.166-1.213-2.514-1.989-3.662a15.215,15.215,0,0,0-3.244-3.19l-5.766-4.63c-4.55-3.653-9.288-7.706-14.671-9.957,1.877,2.7,2.191,6.026,3.654,8.985A29.327,29.327,0,0,0,674.272,456.361Z" transform="translate(-37.146 -20.972)"/>
        <path class="cls-7" d="M622.553,521.578a34.771,34.771,0,0,1-6.654-6.852c-.968-1.266-2.3-2.16-3.3-3.4-.488-.608-1.467-3.353-1.91-3.59,7.606,4.06,15.529,4.175,23.822,5.559a8.373,8.373,0,0,1,3,.928,3.309,3.309,0,0,1,1.688,2.6,4.948,4.948,0,0,1-1.021,2.7q-1.711,2.69-3.6,5.254a3.315,3.315,0,0,1-1.24,1.179,2.851,2.851,0,0,1-1.532.1C628.4,525.57,625.322,523.7,622.553,521.578Z" transform="translate(-37.146 -20.972)"/>
        <path class="cls-7" d="M746.437,482.657a3.444,3.444,0,0,1,.488,2.153,12.423,12.423,0,0,1-.625,1.429c-.533,1.5.551,3.08,1.694,4.15,4.176,3.908,9.967,5.639,13.923,9.786a3.1,3.1,0,0,0,1.7,1.176,2.762,2.762,0,0,0,1.652-.556l8.1-4.843a197.158,197.158,0,0,1-17.356-14.785c-6.364-6.328-11.905-13.551-18.666-19.417.542.47,1.309,4.153,1.68,5.015.565,1.312,1.113,2.622,1.717,3.915C742.618,474.684,744.54,478.665,746.437,482.657Z" transform="translate(-37.146 -20.972)"/>
        <path class="cls-7" d="M804.875,513.365c2.154,1.579,4.035,3.556,6.288,4.978a25.835,25.835,0,0,0,5.364,2.425c6.7,2.325,14,3.806,19.271,8.7,1.784,1.659,3.256,3.648,4.976,5.38a24.477,24.477,0,0,0,6.669,4.771c-1.706-3.2-4.341-5.745-6.932-8.227-4.509-4.32-9.147-8.727-14.819-11.148-2.411-1.029-4.956-1.674-7.4-2.6a34.642,34.642,0,0,1-6.63-3.378,82.59,82.59,0,0,1-9.454-7.6c-2.751-2.446-5.343-4.255-7.65-7.276a33.41,33.41,0,0,0-8.739-8.375C789.227,501.437,796.553,507.263,804.875,513.365Z" transform="translate(-37.146 -20.972)"/>
        <path class="cls-8" d="M526.573,952.535c2.267,1.18,4.72,2.292,7.242,2.029,4-.418,6.875-4.07,9.274-7.431a12.045,12.045,0,0,0,2.549-5.189,11.5,11.5,0,0,0-1.182-5.754A88.519,88.519,0,0,0,516.42,899.5c-6.946-5.306-28.819-20.528-35.635-8.723-4.873,8.436,7.14,24.975,11.529,31.283A96.285,96.285,0,0,0,526.573,952.535Z" transform="translate(-37.146 -20.972)"/>
        <g>
          <path class="cls-9" d="M525.907,576.314c8.974-9.312,17.277-19.324,26.684-28.183,13.837-13.032,29.834-23.29,45.73-33.47,1.7-1.087,3.479-2.2,5.466-2.351q-5.12-11.659-9.555-23.627A64.146,64.146,0,0,0,583.1,508.306c-2.516,7.1-7.642,11.87-13.291,16.765-3.951,3.425-8.269,6.362-12.337,9.637a151.22,151.22,0,0,0-16.737,16.215c-5.019,5.513-10.421,10.419-15.493,15.878-4.578,4.928-9.272,9.581-13.833,14.413q-3.483,3.69-7.074,7.264-.484.48-.97.956c-1.433,1.4-5.981,7.3-7.868,7.408C507.823,596.157,517.676,584.854,525.907,576.314Z" transform="translate(-37.146 -20.972)"/>
          <path class="cls-9" d="M476.41,623.319a11.211,11.211,0,0,0,1.076-1.435A7.59,7.59,0,0,1,482,618.927l-5.55-4.423a4.3,4.3,0,0,1-1.721-2.423,19.925,19.925,0,0,1-1.29,5.535,21.94,21.94,0,0,1-4.03,5.881q-2.282,2.6-4.714,5.044c3.626-.664,6.956-2.454,10.222-4.221A6.272,6.272,0,0,0,476.41,623.319Z" transform="translate(-37.146 -20.972)"/>
          <path class="cls-9" d="M719.77,487.594a87.743,87.743,0,0,1,9.3,6.711c2.147,1.674,3.284,4.78,5.542,5.967a14.048,14.048,0,0,0,4.9,1.159,74.365,74.365,0,0,1,18.174,4.636c-8.8-3.474-14.931-9.948-20.013-17.551a13.882,13.882,0,0,1,5.563-4.411c-1.745.834-6.013-7.008-6.516-8.249-.4-.974-1.45-10.137-1.767-9.947q-2.875,1.719-5.751,3.441c-3.211,1.921-18.382,9.863-16.368,14.8C713.551,485.9,718.286,486.73,719.77,487.594Z" transform="translate(-37.146 -20.972)"/>
          <path class="cls-9" d="M797.544,511.11a100.507,100.507,0,0,1-15.027-19.593c-3.238,4.226-5.925,8.665-8.991,12.922,5.249,1.561,10.593,2.6,15.742,4.713C791.931,510.246,794.707,511.514,797.544,511.11Z" transform="translate(-37.146 -20.972)"/>
          <path class="cls-9" d="M439.531,692.359c2.835-.931,4.38-4.006,5.782-6.732,6.691-13.014,16.816-24.572,19.539-39.054-.373,1.986-10.324,2.576-11.843,2.8-6.2.9-11.974,2.4-18.224.581.829,7.181,3.742,13.542,4.507,20.733C439.532,672.945,441.554,691.694,439.531,692.359Z" transform="translate(-37.146 -20.972)"/>
          <path class="cls-9" d="M675.286,492.853a72.22,72.22,0,0,0-27.4,24.583,58.087,58.087,0,0,1,12.634,6.36,12.509,12.509,0,0,0-5.1,6.4,130.024,130.024,0,0,0,44.921,13.522,98.867,98.867,0,0,1-29.72-18.452A123.152,123.152,0,0,1,691.16,498.8a48.706,48.706,0,0,1-15.544-13.136c1.783,2.3,9.681.366,12.083.459,4.572.178,9.443,1.276,13.945,2.155l-16.979-12.926c-2.652-2.019-5.307-4.04-7.83-6.231a82.827,82.827,0,0,1-11.426-12.211c-1.62-2.118-3.128-4.319-4.572-6.569-2-3.114-1.444-3.9-4.273-2.208-4.349,2.6-8.488,9.752-11.886,13.655-1.649,1.893-9.46,13.378-11.571,13.287a51.905,51.905,0,0,1,24.432,7.386C663.294,485.922,670.687,487.766,675.286,492.853Z" transform="translate(-37.146 -20.972)"/>
          <path class="cls-9" d="M842.671,736.717c-6.83,11.6-11.945,24.208-18.241,36.126a196.959,196.959,0,0,1-64.974,72c-2.008,1.3-4.125,2.618-6.483,2.705-2.7.1-5.192-1.448-7.4-3.109a61.091,61.091,0,0,1-22.617-36.129c-3.814-18.636.991-38.191-2.108-56.965-4.53-27.326-24.77-48.5-44-67.73a35.448,35.448,0,0,0-7.644-6.317c-4.574-2.487-9.988-2.762-15.106-2.164-15.615,1.775-30.216,11.28-38.606,25.086-3.266,5.415-6.968,12.3-13.132,12.132-2.014-.049-3.956-.922-5.956-.808a12.382,12.382,0,0,0-5.34,2.085L570.672,725.44c-5.878,3.406-12.06,7.126-15.3,13.252-4.9,9.268-1.593,20.6-.989,31.147.509,9.014-1.082,18.061-.368,27.066,1.146,14.7,11.525,26.47,24.5,31.259-8.53-6.328-18.041-12.487-19.424-24.147.44-18.169,4.236-36.36.388-54.452,7.627-13.481,23.023-22.335,36.144-29.035,24.352,23.094,13.612-14.373,41.232-36.954,37.445-15.437,62.819,33.763,78.047,62.366,6.549,28.411-12.679,49.512,7.561,75.894,4.762,12.4,14.151,21.212,20.713,32.443,2.706,4.865,9.323,4.689,13.8,2.848,30.7-11.615,50.083-42.451,72.557-65.654,14.869-18.366,20.9-41.492,29.229-63.211,5.12-13.359,17.265-22.473,24.837-34.581.22-.352.427-.675.646-1.027A135.067,135.067,0,0,0,842.671,736.717Z" transform="translate(-37.146 -20.972)"/>
          <path class="cls-9" d="M991.372,904.85a70.751,70.751,0,0,1-14.851-27.427,104.231,104.231,0,0,0,10.492-11.669c1.146-1.486,2.308-3.169,2.261-5.073-.09-3.72-2.108-5.071-.362-8.775,1.3-2.768,3.884-5.268,5.668-7.73,3.468-4.786,7.82-9.019,8.088-15.351-2.975,2.859-7.028,3.173-10.6,5.048-4.808,2.522-9.517,5.258-14.287,7.858a73.94,73.94,0,0,1-6.083-15.285c-3.354,17.933.327,36.661-2.836,54.632a93.036,93.036,0,0,1-24.177,15.549L939.1,875.376a43.2,43.2,0,0,0-8.606,19.137,87.946,87.946,0,0,0-.954,14.876q-.219,29.79-.439,59.58c8.078-4.149,13.734-12.041,18.4-20.052s8.765-16.545,15.045-23.262c8.783-9.392,20.956-14.322,32.73-18.985C993.864,907.254,992.4,906.019,991.372,904.85Z" transform="translate(-37.146 -20.972)"/>
          <path class="cls-9" d="M693.236,798.209c-1.209,6.026-.5,11.2-4.167,16.6a5.348,5.348,0,0,1-1.648,1.713,5.424,5.424,0,0,1-3.959.212c-18.826-4.217-24.882-24.163-27.892-41.549-.668-3.861-1.161-7.815-2.805-11.363-1.426-3.079-3.658-5.7-5.708-8.384a79,79,0,0,1-10.084-17.825c-.808-2.021-1.916-8.168-3.807-9.786-3.734,18.167,11.76,34.6,15.71,51.835,6.7,18.077,12.685,40.124,31.492,48.039,5.791,3.913,14.387,6.549,20.238,1.416a42.166,42.166,0,0,0,.688-17.615c-2.364-4.06-3.466-8.473-4.252-13.228a56.811,56.811,0,0,1-.518-13.932C695.542,789.025,694.169,793.523,693.236,798.209Z" transform="translate(-37.146 -20.972)"/>
          <path class="cls-9" d="M710.718,1052.743c-1.726-9.233.034-18.708,1.021-28.071a173.34,173.34,0,0,0,.237-34.54c-.143-1.536-.361-3.211-1.459-4.249-1.654-1.542-4.236-.86-6.35-.17-10.976,3.49-22.605,3.981-34.085,4.438-6.175.243-12.8.348-17.949-3.213-5.076-3.544-11.67-3.5-17.749-4.45a135.988,135.988,0,0,0-17.679-1.968,68.576,68.576,0,0,0-19.5,2.392c-5.65,1.555-11.134,3.817-16.9,4.935-6.669,1.307-13.532,1-20.306.685-8.514-.378-18-.827-25.331-5.894-3.847-2.654-7.177-5.8-11.247-8.368-4.444-2.829-8.847-5.673-13.316-8.443-8.286-5.219-16.889-10.8-21.8-19.471-3.246-5.714-9.286-8.466-12.949-13.919a96.185,96.185,0,0,1-7.508-14.331c-7.429-16.461-14.849-33.6-15.062-51.777-.019-.813.119-1.832.864-2.079a.086.086,0,0,1,.069,0c0-.05-.018-.113-.013-.163,6.737-6.834,16.517,3.3,22.465,6.688,31.867,16.291,91.482,8.068,123.672-5.752a65.93,65.93,0,0,1-7.314-14.624c.114,2.536.249,5.064.383,7.591a1.643,1.643,0,0,1-.1.811.57.57,0,0,1-.222.281c-1.008.543-3.849-3.232-4.942-3.621a22.425,22.425,0,0,0-14.792.027c-4.272,1.518-8.025,4.327-12.007,6.575-11.925,6.735-25.92,8.5-39.508,8.267-12.681-.227-25.587-2.151-37.006-7.942-7.006-3.554-13.3-8.451-20.155-12.3a8.612,8.612,0,0,0-3.808-1.343c-1.752-.031-3.368.945-5.01,1.593-2.717,1.073-5.546,2.793-7.909,1.024-1.945-1.451-2.633-4.1-3.169-6.516q-3.936-17.731-7.881-35.484a27.543,27.543,0,0,1-.822-5.175,41.284,41.284,0,0,1,1.011-7.9c.83-5.031.756-10.189.883-15.3.05-2.073.167-4.142.275-6.212.263.176.517.355.749.543,2.935,2.381,4.761,5.865,7.634,8.2,4.012-5.379,6.81-12.492,10-18.48.348-.653.9-1.409,1.6-1.24.631.152.856.942,1.009,1.6a16.709,16.709,0,0,0,6.658,9.88,3.03,3.03,0,0,0,4.287-.1c10-7.553,7.69-24.879,16.662-33.72-.686,2.632,2.663,4.807,5.171,4.01s4.112-3.271,5.513-5.576l29-47.757L503.4,719.913c-1.17,1.435-2.445,2.942-4.187,3.451a8.88,8.88,0,0,1-4.527-.288L482.767,720.2a53.442,53.442,0,0,0-6.1,24.164c-.015,1.279-.027,2.687-.838,3.65a4.947,4.947,0,0,1-2.129,1.264L461.356,754a3.669,3.669,0,0,1-2.5.326c-.605-.218-1.093-.751-1.726-.846-.857-.127-1.6.581-2.194,1.234q-4.252,4.647-8.5,9.294l-6.863-8.244c.475-3.389,1.007-6.77,1.64-10.133a75.2,75.2,0,0,1-23.387,14.036c7.217,16.52,11.1,34.717,13.075,52.754.68,6.245,1.041,12.567,2.4,18.69,1.947,8.952,5.916,17.275,8.487,26.029a23.557,23.557,0,0,1,1.23,8.32c-.373,4.633-3.083,8.646-5.262,12.715a12.993,12.993,0,0,0-1.866,5.754,14.327,14.327,0,0,0,1.1,4.92A201.1,201.1,0,0,0,471.258,948.7c2.286,2.764,1.627,6.425.53,9.9-1.106,3.452-2.745,6.969-2.156,10.549.625,3.806,3.585,6.64,6.391,9.175a122.139,122.139,0,0,0,12.167,10.127,21.13,21.13,0,0,1,4.121,3.342c1.087,1.259,1.806,2.785,2.86,4.081,2.135,2.607,5.433,3.885,8.023,6.023a16.272,16.272,0,0,1,5.732,11.944c.041,1.383-.095,2.788.042,4.181a9.953,9.953,0,0,0,3.892,6.906c2.037,1.511,4.58,2.123,6.708,3.5,6.7,4.3,6.621,12.028,6.81,19.214a9.13,9.13,0,0,1,3.808-.563c5.359-.065,10.746-.117,16.112-.162a7.929,7.929,0,0,1,4.385.825c3.846,2.462,6.538,6.465,9.168,10.3a111.978,111.978,0,0,0,14.4,17.061,126.016,126.016,0,0,0,17.894-1.952,33.977,33.977,0,0,1,7.358-.879,31.817,31.817,0,0,1,5.472.879c3.547.818,9.83.87,11.6,4.9.787,1.836,1.35,4.075,3.109,4.827a5.524,5.524,0,0,0,3.722-.167c4.1-1.16,8.18-2.313,12.267-3.445a100.046,100.046,0,0,0,13.474-4.524c4.8-2.161,9.961-5.187,14.968-3.547,1.179,3.226,4.1,3.715,7.373,4.3a153.292,153.292,0,0,0,42.557,1.48,35.682,35.682,0,0,0,6.34-1.128,19.865,19.865,0,0,0,7.641-4.3C719.049,1070.343,712.463,1061.968,710.718,1052.743Zm-99.142-3.963c-1.744.809-3.621,1.578-5.512,1.3-5.664-.842-7.706-10.105-13.426-10.223-2.36-.049-4.406,1.589-6.233,3.143l-8.66,7.365q-5.544-13.638-11.089-27.276a3.422,3.422,0,0,0-.938-1.5,3.2,3.2,0,0,0-2.212-.392c-2.219.148-12.14,1.614-12.875-.447-2.273-6.37-.79-15.9-6.589-21.037,24.916,22.079,57.7,34.334,90.43,33.808A90.682,90.682,0,0,1,611.576,1048.78Z" transform="translate(-37.146 -20.972)"/>
          <path class="cls-9" d="M433.726,731.92a58.665,58.665,0,0,0,5.157-13.291c.88-3.2,4.184-8.907,3.865-12.139-.235-2.385.09-1.051-1.911-.876-1.373.12-2.814.657-4.25.778-2.492.211-3.838-.274-4.2,2.541-.437,3.358,1.654,8.03,1.756,11.581C434.216,723.2,435.034,729.594,433.726,731.92Z" transform="translate(-37.146 -20.972)"/>
        </g>
        <path class="cls-3" d="M933.271,635.193c-11.625,5.66-25.4,4.736-37.523.384-1.822-.655-3.925-1.354-5.574-.316-4.793,3-10.3,15.334-7.678,20.746.976,2.052,2.755,3.564,4.294,5.232,9.436,10.283,8.351,28.91-2.212,37.931-4.62,3.946-11.6,5.953-16.549,2.435-8.957,12.087-19.477,25.1-33.38,28.436a29.444,29.444,0,0,1-4.468.745c-6.9.563-14.705-2.143-17.612-8.683-4.273-9.561,2.3-26.677,8.285-34.186,3.666-4.555,9.067-8.028,14.771-7.758,4.6.2,9.37,2.729,13.6.812,3.059-1.376,4.859-4.848,5.38-8.276.5-3.45-.044-6.946-.37-10.4-.411-3.969-.52-8.05.759-11.794,2.408-6.968,9.5-8.75,15.1-12,5.1-2.954,9.695-8.185,9.478-14.274a27.225,27.225,0,0,1-.195-4.781,11.33,11.33,0,0,1,1.735-4.014c4.555-7.374,10.5-14.049,12.883-22.438s-.585-19.416-8.7-21.739a30.374,30.374,0,0,0-6.247-.722c-26.721-2.006-42.836-35.72-34.4-60.751.824-2.436,1.865-5.074,1.041-7.532-1.475-4.442-7.353-4.578-11.886-4.307a72.719,72.719,0,0,1-25.182-2.909c-4.641-1.376-9.282-3.315-12.688-6.855s-5.313-9-3.643-13.711c1.951-5.571,7.851-8.614,14.662-9.584,10.129-1.466,22.318,1.646,26.678,7.825,2.581,3.675,4.164,8.163,7.526,11.049,6.854,5.864,16.939,2.391,25.572.248,12.732-3.134,28.131-.608,40.776,2.414,5.964,1.421,12.081,3.63,16.18,8.366,4.338,5.028,5.7,12.245,5.119,18.965-.607,6.72-2.95,13.125-5.271,19.439,12.233,2.278,21.777,15.041,20.887,27.94-.52,7.757-5.2,15.853-1.388,23.205,1.692,3.269,4.1,6.111,5.553,9.493C954.852,608.38,946.5,628.744,933.271,635.193Z" transform="translate(-37.146 -20.972)"/>
        <path class="cls-2" d="M935.115,622.362c-3.188,3.766-6.529,7.645-10.91,9.764-10.628,5.12-19.672-2.164-30.062-3.021-5.335-.451-11.039.924-14.792,4.893-6.854,7.261-9.456,23.182-3.166,31.413,2.038,2.684,4.88,4.781,6.268,7.87,3.1,6.923-2.69,14.929-9.37,18.063-6.68,3.157-14.337,3.518-20.952,6.811-6.832,3.4-11.929,9.606-16.809,15.627a8.885,8.885,0,0,0-2.278,4.308c-.217,1.826.716,3.54,1.28,5.3a13.309,13.309,0,0,1,.325,6.652,29.444,29.444,0,0,1-4.468.745c-6.9.563-14.705-2.143-17.612-8.683-4.273-9.561,2.3-26.677,8.285-34.186,3.666-4.555,9.067-8.028,14.771-7.758,4.6.2,9.37,2.729,13.6.812,3.059-1.376,4.859-4.848,5.38-8.276.5-3.45-.044-6.946-.37-10.4-.411-3.969-.52-8.05.759-11.794,2.408-6.968,9.5-8.75,15.1-12,5.1-2.954,9.695-8.185,9.478-14.274a27.225,27.225,0,0,1-.195-4.781,11.33,11.33,0,0,1,1.735-4.014c4.555-7.374,10.5-14.049,12.883-22.438s-.585-19.416-8.7-21.739a30.374,30.374,0,0,0-6.247-.722c-26.721-2.006-42.836-35.72-34.4-60.751.824-2.436,1.865-5.074,1.041-7.532-1.475-4.442-7.353-4.578-11.886-4.307a72.719,72.719,0,0,1-25.182-2.909c-4.641-1.376-9.282-3.315-12.688-6.855s-5.313-9-3.643-13.711c1.951-5.571,7.851-8.614,14.662-9.584.238.609.477,1.24.672,1.894,3.687,11.523,15.161,20,26.873,19.6,2.277-.09,4.837-.383,6.572,1.151,1.41,1.263,1.822,3.314,2.69,5.028,2,3.947,6.55,5.976,8.524,9.945,2.559,5.141,0,11.253-1.193,16.891-5.77,27.421,25.463,55.069,50.254,42.485-6.659-6.066-13.426-12.29-17.742-20.318s-5.747-18.334-1.366-26.34c6.659,19.214,21.668,35.112,40,42.419-3.839,4.509-4.663,11.139-3.514,17.071,1.128,5.908,3.969,11.3,6.768,16.574a13.348,13.348,0,0,0-8.047,10.351c-.76,5.3,1.757,9.223,5.119,12.831C923.706,615.732,933.293,624.527,935.115,622.362Z" transform="translate(-37.146 -20.972)"/>
        <path class="cls-3" d="M555.267,469.739c-5.314,3.924-11.994,7.216-13.8,13.733-.78,2.842-.477,5.841-.737,8.772-.867,9.472-7.7,17.229-15.291,22.506-7.613,5.277-16.245,8.795-23.728,14.23a4.964,4.964,0,0,0-1.931,2.119c-.52,1.4.174,2.932.824,4.308a1.275,1.275,0,0,0,.109.248c4.012,8.727,2.494,19.348-1.735,27.962-5.575,11.321-13.9,23.385-27.285,21.671a21.224,21.224,0,0,1-14.316-8.411,27.341,27.341,0,0,1-4.9-20.476c1.8-11.591,9.7-21.287,18.827-28.233-.542-.226-1.084-.451-1.627-.721a28.2,28.2,0,0,1-9.456-7.442,22.914,22.914,0,0,1-5.553-16.44c.955-10.689,8.264-20.183,17.677-24.558,5.336-2.48,11.192-3.45,16.68-5.479,14.943-5.548,21.971-13.892,39.062-7.623a2.4,2.4,0,0,1,.087-.383,18.752,18.752,0,0,1,1.041-3.631c4.164-10.373,16.788-16.755,27.09-12.786a12.634,12.634,0,0,1,3.883,2.278,7.649,7.649,0,0,1,1.192,1.33C565.244,458.148,560.581,465.815,555.267,469.739Z" transform="translate(-37.146 -20.972)"/>
        <path class="cls-2" d="M555.267,469.739c-5.314,3.924-11.994,7.216-13.8,13.733-.78,2.842-.477,5.841-.737,8.772-.867,9.472-7.7,17.229-15.291,22.506-7.613,5.277-16.245,8.795-23.728,14.23a4.964,4.964,0,0,0-1.931,2.119c-.52,1.4.174,2.932.824,4.308a1.275,1.275,0,0,0,.109.248c4.012,8.727,2.494,19.348-1.735,27.962-5.575,11.321-13.9,23.385-27.285,21.671a21.224,21.224,0,0,1-14.316-8.411,15.078,15.078,0,0,0,2.5.338,29.592,29.592,0,0,0,22.861-9.02c9.434-10.125,10.779-27.331,3.036-38.922a6.549,6.549,0,0,0-1.735-1.917,6.372,6.372,0,0,0-3.882-.609c-3.493.2-6.985.654-10.477.7a28.2,28.2,0,0,1-9.456-7.442c10.714.2,21.494-.587,30.777-5.886,10.606-6.044,17.59-17.026,24.14-27.6,2.148,3.518,7.462,3.36,10.629.812,3.144-2.571,4.662-6.675,6.116-10.554,1.453-3.856,3.1-7.938,6.4-10.306a14.143,14.143,0,0,1-10.107-.947,18.752,18.752,0,0,1,1.041-3.631c3.08-.045,6.182-.112,9.262-.158,4.923-.112,10.085-.248,14.38-2.773a23.317,23.317,0,0,0,7.331-7.577,7.649,7.649,0,0,1,1.192,1.33C565.244,458.148,560.581,465.815,555.267,469.739Z" transform="translate(-37.146 -20.972)"/>
        <path class="cls-3" d="M866.619,967.613c-8.09,10.147-18.219,20.633-17.85,33.8.2,6.495,3.058,12.741,2.776,19.236-.325,7.622-4.88,14.274-9.521,20.183a229.39,229.39,0,0,1-26.375,28.211c-10.649,9.606-23.186,18.513-37.284,18.762-6.16.112-12.254-1.466-18.415-1.4-6.138.067-12.861,2.277-15.941,7.825-1.345,2.39-1.866,5.209-3.037,7.712-3.47,7.464-11.951,10.892-19.867,11.974-13.8,1.894-43.575.135-60.536-10.486-5.118-3.2-9.066-7.194-11.04-12.155-7.743-19.348,31.8-41.583,45.874-27.556,4.619,4.6,6.181,11.748,10.584,16.574,2.841,3.089,15.768,9.607,19.022,4.826,1.128-1.646,1.084-3.856.694-5.841a31.388,31.388,0,0,1-1.02-5.953,15.8,15.8,0,0,1,2.278-7.036c1.692-3.224,3.665-6.4,6.485-8.614,2.842-2.187,6.68-3.27,9.977-1.939-9-5.909-13.165-18.2-13.23-28.888-.044-9.607,3.556-18.92,8.632-26.925.13-.2.26-.406.39-.587a72.4,72.4,0,0,1,17.937-19.01c3.861-2.819,8.459-5.3,13.1-4.42,2.907.542,5.444,2.391,7.678,4.42a47.717,47.717,0,0,1,15.183,37.389c-.109,2.187-.174,4.8,1.561,6a2.244,2.244,0,0,0,.608.315,14.991,14.991,0,0,0,2.863.587,7.3,7.3,0,0,1,5.466,6.449,108.278,108.278,0,0,0,20.843-70.719c-.932-14.793-4.859-29.9-.932-44.154,2.19-7.938,6.658-14.929,11.082-21.807,1.692-2.615,3.406-5.276,5.228-7.892,7.635-10.982,16.657-21.175,29.042-24.288a12.837,12.837,0,0,1,6.962-.18c3.948,1.241,6.442,5.255,8.242,9.133C898.4,902.351,887.853,941.025,866.619,967.613Z" transform="translate(-37.146 -20.972)"/>
        <path class="cls-2" d="M761.534,1043.631c1.431,3.45,3.188,6.923,3.253,10.666.217,10.238-11.04,15.876-20.344,19.168a11.83,11.83,0,0,0-4.924,2.706c-3.666,3.969-1.063,10.87-3.449,15.786-6.333,2.887-12.124,7.4-18.934,8.524-9.24,1.511-18.133-3.428-26.96-6.63-8.85-3.2-20.15-4.059-26.115,3.428a35.429,35.429,0,0,0-3.492,6.156c-5.118-3.2-9.066-7.194-11.04-12.155-7.743-19.348,31.8-41.583,45.874-27.556,4.619,4.6,6.181,11.748,10.584,16.574,2.841,3.089,15.768,9.607,19.022,4.826,1.128-1.646,1.084-3.856.694-5.841a31.388,31.388,0,0,1-1.02-5.953,15.8,15.8,0,0,1,2.278-7.036c1.692-3.224,3.665-6.4,6.485-8.614,2.842-2.187,6.68-3.27,9.977-1.939-9-5.909-13.165-18.2-13.23-28.888-.044-9.607,3.556-18.92,8.632-26.925.13-.2.26-.406.39-.587a43.67,43.67,0,0,0,8.394,22.032c3.1,4.15,6.984,7.69,9.587,12.223C759,1036.73,760.124,1040.248,761.534,1043.631Z" transform="translate(-37.146 -20.972)"/>
        <path class="cls-2" d="M830.463,987.908a56.594,56.594,0,0,0-2.386,12.854c-.152,4.375.716,8.727.933,13.1.651,12.2-3.6,24.062-7.787,35.495a46.68,46.68,0,0,0-30.734,21.468c-.412-6.089-.824-12.2-1.257-18.289-.283-4.217-.565-8.5.259-12.628.911-4.646,3.124-8.84,4.837-13.215.347-.879.673-1.781.955-2.661a14.991,14.991,0,0,0,2.863.587,7.3,7.3,0,0,1,5.466,6.449,108.278,108.278,0,0,0,20.843-70.719c-.932-14.793-4.859-29.9-.932-44.154,2.19-7.938,6.658-14.929,11.082-21.807,1.692-2.615,3.406-5.276,5.228-7.892a84.31,84.31,0,0,0-4.881,40.3,66.964,66.964,0,0,0,10.39,27.985C837.056,963.6,833.608,976.024,830.463,987.908Z" transform="translate(-37.146 -20.972)"/>
        <path class="cls-3" d="M1039.153,811.156c.8-11.456,1-23.385-3.362-33.961-4.359-10.554-14.358-19.394-25.4-18.672-4.208.293-9.153,1.646-12.081-1.511-1.41-1.511-1.865-3.676-2.169-5.728-2.061-14.7,2.126-30.444,2.342-45.1.109-7.938-.933-15.56-4.772-22.528-2.472-4.488-6.289-8.525-11.126-9.765a16.862,16.862,0,0,0-8.784.361,113.883,113.883,0,0,0,5.986,16.981,142.362,142.362,0,0,1,11.191,46.116c.478,6.765.5,13.62,2.126,20.183,1.649,6.562,5.249,12.989,11.04,16.078,5.336,2.864,12.624,3.2,15.465,8.682,1.388,2.684,1.258,5.908.976,8.93a148.577,148.577,0,0,1-5.227,27.918c-2.82,9.742-6.312,21.333-.13,29.226a24.5,24.5,0,0,0-3.3,8.907,7.239,7.239,0,0,0,5.878,2.751,9.457,9.457,0,0,0,4.238-1.439c-.017.127-.034.255-.05.381a4.471,4.471,0,0,0,.477,2.218,4.328,4.328,0,0,0,1.144,1.851,4.125,4.125,0,0,0,1.781,1.19,4.832,4.832,0,0,0,4.265,0,4.131,4.131,0,0,0,1.781-1.19l.865-1.164a5.9,5.9,0,0,0,.756-2.9l-.2-1.529a5.8,5.8,0,0,0-1.423-2.539l-1.121-.9a4.007,4.007,0,0,0-2.057-.683,4.061,4.061,0,0,0-.834-.078c.161-.225.329-.449.483-.677C1035.922,840.675,1038.112,825.634,1039.153,811.156Z" transform="translate(-37.146 -20.972)"/>
        <path class="cls-3" d="M982.088,936.222c-2.971,8.772-8.22,18.739-13.925,24.107-6.572,6.179-17.2,8.366-20.431,16.935-2.321,6.157.282,13.215-1.128,19.642-2.169,9.855-12.493,14.86-21.559,18.469-4.317,1.714-9.067,3.4-13.426,2.435a26.412,26.412,0,0,1,3.752-8.569c4.165-6.269,10.021-11.275,13.665-17.9,2.147-3.924,3.513-8.434,6.55-11.682,3.535-3.743,8.806-5.209,12.688-8.591,8.155-7.126,8.264-20.657,15.682-28.594C970.115,935.861,976.492,934.44,982.088,936.222Z" transform="translate(-37.146 -20.972)"/>
        <path class="cls-3" d="M639.308,1008.2c-8.242,6-18.913,7.4-28.891,6.043-4.9-.676-9.847-2.007-13.946-4.938-2.494-1.8-4.663-4.172-7.483-5.368-5.162-2.209-11.083.136-15.724,3.338-4.642,3.18-8.828,7.307-14.1,9.2-15.053,5.412-26.157-6.585-32.534-20.522a72.08,72.08,0,0,1-5.813-19.573c-.65-4.8-.325-9.7-.846-14.523C518.78,950.7,512.923,947.091,508,938.815c-4.4-7.464-2.711-18.491.521-26.045,3.838-8.976,10.5-16.282,17.481-22.912-13.144-8.682-19.846-25.437-20.3-41.606a72.044,72.044,0,0,1,.239-8.389c1.063-13.282,5.271-26.227,10.129-38.607,5.141-13.124,13.491-27.8,27.112-28.729a18.859,18.859,0,0,1,4.793.293c8.915,1.714,16.484,9.764,19.955,18.807,4.1,10.6,3.9,22.37,4.164,33.8.261,11.838,1.063,23.7,2.408,35.472.737,6.337,1.6,12.854.064,19.033-1.388,5.524-4.619,10.441-5.747,16.033-1.909,9.359,2.3,18.807,6.724,27.2,4.923,9.4,10.5,18.875,19,24.9,9.131,6.472,20.518,8.186,31.059,11.7,8.2,2.751,16.636,7.374,21.342,14.545a22.7,22.7,0,0,1,3.037,6.7C652.668,991.065,647.55,1002.228,639.308,1008.2Z" transform="translate(-37.146 -20.972)"/>
        <path class="cls-2" d="M639.308,1008.2c-8.242,6-18.913,7.4-28.891,6.043-4.9-.676-9.847-2.007-13.946-4.938-2.494-1.8-4.663-4.172-7.483-5.368-5.162-2.209-11.083.136-15.724,3.338-4.642,3.18-8.828,7.307-14.1,9.2-15.053,5.412-26.157-6.585-32.534-20.522a72.08,72.08,0,0,1-5.813-19.573c-.65-4.8-.325-9.7-.846-14.523C518.78,950.7,512.923,947.091,508,938.815c-4.4-7.464-2.711-18.491.521-26.045,3.838-8.976,10.5-16.282,17.481-22.912-13.144-8.682-19.846-25.437-20.3-41.606a72.044,72.044,0,0,1,.239-8.389c.456,1.782,1,3.608,1.692,5.525a71.671,71.671,0,0,0,13.274,22.753c1.714,1.962,18.327,18.086,20.583,15.651-5.639,6.021-7.83,14.613-9.782,22.776-.824,3.45-1.648,6.923-2.472,10.373-2.126,8.84-3.948,19.191,1.627,26.227,1.366,1.736,3.123,3.157,4.142,5.118,2.039,3.9.629,8.66-.108,13.035-2.43,14.59,4.1,30.376,15.941,38.584a12.748,12.748,0,0,0,5.6,2.5c10.086,1.308,16.094-16.3,25.984-13.891,4.88,1.195,7.5,6.923,12.059,9.11,2.69,1.286,5.77,1.218,8.741,1.128,12.016-.361,25.182-1.173,33.988-9.7,4.229-4.081,6.919-9.471,9.738-14.748a22.7,22.7,0,0,1,3.037,6.7C652.668,991.065,647.55,1002.228,639.308,1008.2Z" transform="translate(-37.146 -20.972)"/>
        <path class="cls-3" d="M585,653.437c-2.385,6.043-5.813,12-5.7,18.559.043,2.616.672,5.209.954,7.825.651,6.134-3.384,17.228-9.5,25.662-6.355,8.773-14.965,14.636-22.86,9.021-3.319-2.368-4.729-6.923-4.338-11.073.39-4.171,2.277-8.028,4.446-11.545,3.514-5.773,7.96-10.735,12.407-15.605-12.928-7.713-13.817-22.619-6.442-33.624a30,30,0,0,1,11.582-10.193c6.268-3.134,14.835-3.359,19.151,2.278C588.641,639.861,587.405,647.371,585,653.437Z" transform="translate(-37.146 -20.972)"/>
        <path class="cls-2" d="M570.747,705.483c-6.355,8.773-14.965,14.636-22.86,9.021-3.319-2.368-4.729-6.923-4.338-11.073.39-4.171,2.277-8.028,4.446-11.545,3.514-5.773,7.96-10.735,12.407-15.605-12.928-7.713-13.817-22.619-6.442-33.624.8,3.654.173,8.254.954,11.592a31.311,31.311,0,0,0,7.028,13.733c2.732,3.022,6.289,6.043,6.246,10.17-.044,4.465-4.229,7.442-7.093,10.8a21.119,21.119,0,0,0-4.923,12.448c-.087,1.646.109,3.518,1.345,4.555,3.145,2.729,7.765-2.977,11.647-1.6A3.575,3.575,0,0,1,570.747,705.483Z" transform="translate(-37.146 -20.972)"/>
        <path class="cls-3" d="M840.555,1079.065c-6.624-2.115-13.979,2.417-18.522,7.2-4.313,4.545-9.7,12.508-6.074,18.955,3.776,6.709,13.571,5.3,18.8,1.617a19.379,19.379,0,0,0,7.633-10.965c.085-.06.177-.1.26-.164C848.523,1091.105,848.288,1081.535,840.555,1079.065Z" transform="translate(-37.146 -20.972)"/>
        <path class="cls-3" d="M849.466,1066.894a3.964,3.964,0,0,0-7.25-.69,6.167,6.167,0,0,0-.472,1.214l-.245.784c-.805,2.565,1.792,5.213,4.241,4.41l.761-.249a5.409,5.409,0,0,0,1.169-.489,4.367,4.367,0,0,0,1.8-4.98Z" transform="translate(-37.146 -20.972)"/>
        <path class="cls-3" d="M808.546,1100.86a8.7,8.7,0,0,0-2.133-3.806q-.84-.674-1.679-1.348a8.018,8.018,0,0,0-4.186-1.177,6.048,6.048,0,0,0-3.2.742,6.205,6.205,0,0,0-2.669,1.783,6.484,6.484,0,0,0-1.715,2.776,6.7,6.7,0,0,0-.715,3.322l.3,2.293a8.688,8.688,0,0,0,2.133,3.806l1.678,1.348a8.032,8.032,0,0,0,4.187,1.178,6.056,6.056,0,0,0,3.2-.743,6.208,6.208,0,0,0,2.67-1.783,6.5,6.5,0,0,0,1.715-2.776,6.713,6.713,0,0,0,.714-3.323Q808.7,1102.006,808.546,1100.86Z" transform="translate(-37.146 -20.972)"/>
        <path class="cls-3" d="M420.829,948.377c-2.2-4.18-6-8.532-10.951-8.224-10.345.642-9.732,17.014-3.291,22.1a14.042,14.042,0,0,0,9.915,6.34c3.75.572,6.948-1.508,7.172-5.681A27.723,27.723,0,0,0,420.829,948.377Z" transform="translate(-37.146 -20.972)"/>
        <path class="cls-3" d="M437.976,994.809l-.456-1.124a3.516,3.516,0,0,0-1.167-1.322,3.379,3.379,0,0,0-1.54-.843,2.05,2.05,0,0,0-.684-.109,3.326,3.326,0,0,0-1.816.084c-.067.017-.133.037-.2.055l-.437.119c-.348.153-.7.307-1.046.459A3.372,3.372,0,0,0,429.4,993.3a2.3,2.3,0,0,0-.563,1,3.545,3.545,0,0,0-.377,1.755l.156,1.211.442,1.087a3.4,3.4,0,0,0,1.128,1.279,3.27,3.27,0,0,0,1.489.814,5.393,5.393,0,0,0,3.136.15l1.082-.475a3.477,3.477,0,0,0,1.27-1.213,2.365,2.365,0,0,0,.582-1.039,3.664,3.664,0,0,0,.391-1.814Z" transform="translate(-37.146 -20.972)"/>
        <path class="cls-3" d="M396.986,674.363c-.132-3.3-3.372-6.743-6.8-5.382-3.181,1.264-6.521,2.834-8.941,5.934a14.918,14.918,0,0,0-2.3,13.275,6.684,6.684,0,0,0,6.209,4.914l.553.036c2.713.178,5.577-2.194,6.2-4.908-.365,1.59.141.117.387-.881.048-.2.073-.4.107-.6A17.758,17.758,0,0,0,396.986,674.363Z" transform="translate(-37.146 -20.972)"/>
        <path class="cls-3" d="M581.859,441.886q-.486-.687-1-1.352a4.522,4.522,0,0,0-1.944-1.3,5.208,5.208,0,0,0-2.486-.541,6.519,6.519,0,0,0-4.5,1.936,7.7,7.7,0,0,0-1.727,3.078,7.4,7.4,0,0,0,.056,3.789,6.448,6.448,0,0,0,1.581,2.821,4.6,4.6,0,0,0,1.979,1.322,4.482,4.482,0,0,0,2.369.55,6.854,6.854,0,0,0,5.659-3.379,7.777,7.777,0,0,0,.936-3.507A7.214,7.214,0,0,0,581.859,441.886Z" transform="translate(-37.146 -20.972)"/>
        <path class="cls-3" d="M442.9,604.448a3.173,3.173,0,0,0-4.613,0,2.55,2.55,0,0,0-.674,1.091,2.632,2.632,0,0,0-.281,1.307,3.5,3.5,0,0,0,.955,2.4,3.173,3.173,0,0,0,4.613,0,2.562,2.562,0,0,0,.675-1.091,2.643,2.643,0,0,0,.281-1.307A3.5,3.5,0,0,0,442.9,604.448Z" transform="translate(-37.146 -20.972)"/>
        <path class="cls-3" d="M978.31,616.069a8.238,8.238,0,0,0-.543-.731c-.072-.171-.156-.333-.241-.5-.053-.116-.081-.221-.143-.341l-.025.043a7.7,7.7,0,0,0-1.831-2.145,3.57,3.57,0,0,0-1.589-.963,6.95,6.95,0,0,0-3.733-.512,5.225,5.225,0,0,0-2.679.89,8.518,8.518,0,0,0-3.706,5.313,11.6,11.6,0,0,0-.305,2.581,16.2,16.2,0,0,0,.288,2.276,3.547,3.547,0,0,0,.086.407,8.179,8.179,0,0,0,5.511,5.729,7.648,7.648,0,0,0,4.2,0,5.879,5.879,0,0,0,2.684-1.468,6.12,6.12,0,0,0,2.031-2.3,8.491,8.491,0,0,0,0-8.281Z" transform="translate(-37.146 -20.972)"/>
        <path class="cls-3" d="M822.937,747.827a2.538,2.538,0,0,0-.325-1.247,3.718,3.718,0,0,0-.983-1.591l-.961-.773c-.379-.165-.758-.332-1.136-.5a5.157,5.157,0,0,0-3.663.5l-1.044.57a5.311,5.311,0,0,0-2.533,4.593v.064a4.082,4.082,0,0,0,.435,2.024,3.952,3.952,0,0,0,1.045,1.691l1.022.821a4.879,4.879,0,0,0,2.551.717l.061,0a5.034,5.034,0,0,0,4.417-2.635q.274-.541.548-1.085l.48-1.181A3.89,3.89,0,0,0,822.937,747.827Z" transform="translate(-37.146 -20.972)"/>
        <path class="cls-3" d="M1026.448,878.606a4.443,4.443,0,0,0-.473-2.2,4.312,4.312,0,0,0-1.137-1.84l-1.113-.894a5.315,5.315,0,0,0-2.775-.78l-.493-.063a5.845,5.845,0,0,0-3.054.859,6.219,6.219,0,0,0-2.171,2.257,16.188,16.188,0,0,0-.782,2.024,6.3,6.3,0,0,0,0,3.2,6.069,6.069,0,0,0,1.487,2.653,5.731,5.731,0,0,0,2.552,1.547,5.618,5.618,0,0,0,3.075,0,14.608,14.608,0,0,0,1.947-.814,6.2,6.2,0,0,0,2.171-2.256,6.446,6.446,0,0,0,.826-3.176Z" transform="translate(-37.146 -20.972)"/>
        <path class="cls-3" d="M898.525,1025.305a4.005,4.005,0,0,0-.6-1.945l-.475-1.131-.857-1.153a4.081,4.081,0,0,0-1.763-1.178,2.653,2.653,0,0,0-1.383-.389,3.993,3.993,0,0,0-2.186.1l-.042.007a5.355,5.355,0,0,0-2.387,1.447,5.668,5.668,0,0,0-1.391,2.481l-.007.044c-.066.5-.13,1.01-.2,1.515a4.439,4.439,0,0,0,.472,2.195,2.863,2.863,0,0,0,.705,1.257,4.2,4.2,0,0,0,1.537,1.467l1.088.494,1.2.528a3.681,3.681,0,0,0,2.007.094,2.439,2.439,0,0,0,1.269-.357,3.76,3.76,0,0,0,1.62-1.083c.263-.352.525-.706.787-1.058q.253-.626.508-1.251A4.129,4.129,0,0,0,898.525,1025.305Z" transform="translate(-37.146 -20.972)"/>
      </g>
      <g id="astronaut-2" data-name="astronaut">
        <path class="cls-10" d="M752.748,572.836H632.4a40.512,40.512,0,0,1-40.466-40.466V426.04A40.512,40.512,0,0,1,632.4,385.574H752.748a40.513,40.513,0,0,1,40.466,40.466V532.37A40.513,40.513,0,0,1,752.748,572.836ZM632.4,391.451a34.629,34.629,0,0,0-34.589,34.589V532.37A34.628,34.628,0,0,0,632.4,566.958H752.748a34.627,34.627,0,0,0,34.588-34.588V426.04a34.628,34.628,0,0,0-34.588-34.589Z" transform="translate(-37.146 -20.972)"/>
        <path class="cls-11" d="M590.784,561.2s3.929-111.4,65.352-222.8h76.149c61.423,111.4,65.352,222.8,65.352,222.8" transform="translate(-37.146 -20.972)"/>
        <path class="cls-12" d="M622.965,431.3s-4.478,96.488,68.944,97.5c69.655.961,70.32-85.969,70.32-85.969s13.527,64.976,14.636,92.03-156.783,9.979-156.783,9.979S610.324,488.739,622.965,431.3Z" transform="translate(-37.146 -20.972)"/>
        <polygon class="cls-10" points="580.013 411.994 562.534 448.474 576.499 439.833 581.996 417.845 580.013 411.994"/>
        <path class="cls-11" d="M654.675,510.688c-9.909,4.012-25.245,3.173-35.7,1.907a11.226,11.226,0,0,1-9.749-12.794h0a11.223,11.223,0,0,1,11.62-9.578c9.779.458,24.448.672,33.738-1.388" transform="translate(-37.146 -20.972)"/>
        <path class="cls-10" d="M654.678,510.687c-9.913,4.017-25.249,3.17-35.7,1.912a11.247,11.247,0,0,1-8.594-16.358,11.2,11.2,0,0,0,8.594,5.939c10.436,1.267,25.746,2.105,35.659-1.886Z" transform="translate(-37.146 -20.972)"/>
        <path class="cls-10" d="M634.967,516.578a138.511,138.511,0,0,1-16.346-1.065,14.173,14.173,0,0,1,2.362-28.226c14.377.674,26.084.2,32.963-1.321,1.472-.327,5.114-.352,7.221,6.425,2.1,6.748,1.838,18.1-5.389,21.021h0C649.925,515.781,642.416,516.578,634.967,516.578Zm-14.655-23.429a8.3,8.3,0,0,0-.984,16.529c14.9,1.8,27.062,1.194,34.245-1.714h0c1.871-.757,2.5-3.812,2.68-5.09.7-4.917-.726-9.682-1.7-11.027-9.456,1.945-23.558,1.792-33.843,1.311C620.575,493.152,620.444,493.149,620.312,493.149Zm34.363,17.539h0Z" transform="translate(-37.146 -20.972)"/>
        <path class="cls-11" d="M730.472,510.688c9.909,4.012,25.245,3.173,35.7,1.907a11.226,11.226,0,0,0,9.748-12.794h0a11.223,11.223,0,0,0-11.619-9.578c-9.78.458-24.448.672-33.738-1.388" transform="translate(-37.146 -20.972)"/>
        <path class="cls-10" d="M766.17,512.6c-10.454,1.258-25.79,2.1-35.7-1.912l.044-10.489c9.913,3.991,25.223,3.152,35.659,1.886a11.177,11.177,0,0,0,8.568-5.895,11.229,11.229,0,0,1-8.568,16.41Z" transform="translate(-37.146 -20.972)"/>
        <path class="cls-10" d="M750.179,516.578c-7.449,0-14.957-.8-20.81-3.166h0c-7.226-2.925-7.488-14.274-5.389-21.022,2.108-6.775,5.751-6.751,7.22-6.424,6.879,1.525,18.586,2,32.964,1.321q.341-.016.677-.016a14.173,14.173,0,0,1,1.685,28.242A138.529,138.529,0,0,1,750.179,516.578Zm-18.6-8.614c7.182,2.909,19.344,3.516,34.244,1.714a8.3,8.3,0,0,0-1.38-16.52c-10.282.481-24.386.634-33.842-1.311-.977,1.345-2.4,6.111-1.7,11.028.183,1.278.809,4.332,2.681,5.089Z" transform="translate(-37.146 -20.972)"/>
        <path class="cls-11" d="M734.3,481.613v35.021a11.853,11.853,0,0,1-11.816,11.817h-64.5a11.852,11.852,0,0,1-11.808-11.817V481.613a11.844,11.844,0,0,1,11.808-11.808h64.5A11.841,11.841,0,0,1,734.3,481.613Z" transform="translate(-37.146 -20.972)"/>
        <path class="cls-10" d="M734.3,481.613v35.022a11.848,11.848,0,0,1-11.813,11.814h-64.5a11.848,11.848,0,0,1-11.814-11.814v-13.1c9.687,9.876,28.736,16.076,46.208,16.168a10.62,10.62,0,0,0,10.543-10.01c0-.056.008-.112.013-.168a10.188,10.188,0,0,1,20.281-.135c8.456-10.44,5.981-28.586,8.669-34.9A11.7,11.7,0,0,1,734.3,481.613Z" transform="translate(-37.146 -20.972)"/>
        <path class="cls-10" d="M722.489,531.387h-64.5a14.764,14.764,0,0,1-14.749-14.748V481.612a14.764,14.764,0,0,1,14.749-14.748h64.5a14.764,14.764,0,0,1,14.749,14.748v35.027A14.764,14.764,0,0,1,722.489,531.387Zm-64.5-58.646a8.881,8.881,0,0,0-8.872,8.871v35.027a8.881,8.881,0,0,0,8.872,8.871h64.5a8.881,8.881,0,0,0,8.872-8.871V481.612a8.881,8.881,0,0,0-8.872-8.871Z" transform="translate(-37.146 -20.972)"/>
        <circle class="cls-13" cx="675.943" cy="478.154" r="10.185"/>
        <path class="cls-11" d="M723.274,499.125a10.274,10.274,0,0,1-.2,2.035,10.192,10.192,0,0,0-19.975,0,10.189,10.189,0,1,1,20.174-2.035Z" transform="translate(-37.146 -20.972)"/>
        <path class="cls-10" d="M723.271,499.123a10.184,10.184,0,1,1-20.367,0,9.953,9.953,0,0,1,.7-3.685,10.176,10.176,0,0,0,18.969,0A9.953,9.953,0,0,1,723.271,499.123Z" transform="translate(-37.146 -20.972)"/>
        <path class="cls-10" d="M713.089,511.514a12.389,12.389,0,1,1,12.389-12.389A12.4,12.4,0,0,1,713.089,511.514Zm0-20.37a7.981,7.981,0,1,0,7.981,7.981A7.99,7.99,0,0,0,713.089,491.144Z" transform="translate(-37.146 -20.972)"/>
        <path class="cls-10" d="M684.226,530.653a2.2,2.2,0,0,1-2.2-2.2V504.575L670,495.525a2.2,2.2,0,0,1-.879-1.76V469.8a2.2,2.2,0,1,1,4.408,0v22.863l12.02,9.049a2.2,2.2,0,0,1,.879,1.761v24.974A2.2,2.2,0,0,1,684.226,530.653Z" transform="translate(-37.146 -20.972)"/>
        <path class="cls-14" d="M694.158,548.366" transform="translate(-37.146 -20.972)"/>
        <path class="cls-11" d="M703.168,552.92a52.368,52.368,0,0,0,34.557-13.138c13.252-11.651,35.563-25.545,60.188-16.632a41.508,41.508,0,0,1,21.207,17.385c11.831-27.413,36.651-29.056,47.391-13.518,0,0-18.056,86.145-23.94,88.062-8.431,2.746-28.687-.141-28.687-.141S743.411,605.4,703.168,605.4s-110.715,9.542-110.715,9.542-20.257,2.887-28.687.141c-5.885-1.917-23.941-88.062-23.941-88.062,10.741-15.538,35.561-13.9,47.391,13.518a41.51,41.51,0,0,1,21.208-17.385c24.625-8.913,46.935,4.981,60.188,16.632a52.368,52.368,0,0,0,34.556,13.138Z" transform="translate(-37.146 -20.972)"/>
        <path class="cls-12" d="M866.513,527.014s-18.058,86.147-23.943,88.065c-8.427,2.747-28.689-.14-28.689-.14s-70.47-9.543-110.715-9.543-110.715,9.543-110.715,9.543-20.255,2.887-28.682.14c-5.885-1.918-23.943-88.065-23.943-88.065a23.309,23.309,0,0,1,6.325-6.238c5.79,25.258,14,58.238,17.618,59.413,8.427,2.74,28.682-.147,28.682-.147s70.477-19.087,110.715-19.087,110.715,19.087,110.715,19.087,20.262,2.887,28.689.147c3.614-1.175,11.828-34.155,17.617-59.413A23.3,23.3,0,0,1,866.513,527.014Z" transform="translate(-37.146 -20.972)"/>
        <path class="cls-10" d="M574.631,619.194c-4.42,0-8.738-.331-11.775-1.321-2.211-.72-5.24-1.706-16.124-46.855-5.2-21.569-9.738-43.183-9.782-43.4a2.937,2.937,0,0,1,.458-2.274,25.18,25.18,0,0,1,23.437-11c10.808,1.071,20.4,8.426,26.846,20.414a43.566,43.566,0,0,1,19.733-14.378c16.033-5.8,33.588-3.086,50.774,7.855a2.938,2.938,0,1,1-3.157,4.957c-15.812-10.066-31.161-12.518-45.617-7.285A38.581,38.581,0,0,0,589.7,542.106a2.939,2.939,0,0,1-5.182-.407c-5.471-12.679-14.311-20.516-24.252-21.5a19.3,19.3,0,0,0-17.295,7.5c8.083,38.395,18.4,79.784,22.162,84.727,6.631,1.867,21.582.364,26.906-.395.726-.1,71.151-9.57,111.129-9.57s110.4,9.472,111.11,9.567c5.341.76,20.294,2.265,26.925.4,3.766-4.943,14.079-46.332,22.163-84.727a19.322,19.322,0,0,0-17.295-7.5c-9.941.985-18.781,8.821-24.252,21.5a2.939,2.939,0,0,1-5.182.408,38.577,38.577,0,0,0-19.724-16.194c-14.584-5.278-30.064-2.742-46.012,7.538a2.939,2.939,0,1,1-3.184-4.94c17.324-11.166,35.027-13.976,51.2-8.125a43.564,43.564,0,0,1,19.734,14.378c6.449-11.988,16.038-19.343,26.846-20.414a25.193,25.193,0,0,1,23.437,11,2.937,2.937,0,0,1,.458,2.274c-.045.216-4.583,21.829-9.782,43.4-10.885,45.148-13.913,46.135-16.124,46.855-8.976,2.925-29.157.1-30.012-.026-.683-.093-70.718-9.512-110.3-9.512s-109.618,9.419-110.321,9.514A146.988,146.988,0,0,1,574.631,619.194Zm266.388-6.552Zm-275.7,0Z" transform="translate(-37.146 -20.972)"/>
        <path class="cls-15" d="M837.336,615.079h5.235a15.558,15.558,0,0,0,14.218-9.215c7.836-17.545,22.12-56.1,8.74-79.621q-.585-1.029-1.248-1.98s-12.845-11.684-22.073,4.845C833.587,544.548,815.493,610.571,837.336,615.079Z" transform="translate(-37.146 -20.972)"/>
        <path class="cls-11" d="M837.481,540.112c.231-.37.462-.72.687-1.043,11.347-16.529,27.143-4.845,27.143-4.845a24.689,24.689,0,0,1,1.531,1.98,34.509,34.509,0,0,1,3.842,7.182,43.448,43.448,0,0,0-5.155-17.143q-.585-1.029-1.248-1.98s-12.845-11.684-22.073,4.845A78.575,78.575,0,0,0,837.481,540.112Z" transform="translate(-37.146 -20.972)"/>
        <path class="cls-16" d="M837.336,615.079h5.235a15.558,15.558,0,0,0,14.218-9.215c2.027-4.548,4.489-10.5,6.793-17.235-3.142,5.215-9.526,8.522-16.536,8.522h-6.238c-8.878-1.538-12.218-10.245-12.35-21.658C825.454,594.755,826.28,612.795,837.336,615.079Z" transform="translate(-37.146 -20.972)"/>
        <path class="cls-10" d="M870.615,545.665a3.011,3.011,0,0,1-.488-.04l-32.106-5.361a2.939,2.939,0,1,1,.968-5.8l32.106,5.36a2.939,2.939,0,0,1-.48,5.838Z" transform="translate(-37.146 -20.972)"/>
        <path class="cls-10" d="M870.411,563.012a3.146,3.146,0,0,1-.4-.026l-37.56-5.05a2.939,2.939,0,0,1,.784-5.826l37.56,5.05a2.939,2.939,0,0,1-.388,5.852Z" transform="translate(-37.146 -20.972)"/>
        <path class="cls-10" d="M867.1,580a3.147,3.147,0,0,1-.361-.021l-38.127-4.668a2.939,2.939,0,1,1,.714-5.834l38.128,4.667A2.939,2.939,0,0,1,867.1,580Z" transform="translate(-37.146 -20.972)"/>
        <path class="cls-10" d="M861.05,598.532q-.132,0-.267-.012L826.7,595.444a2.938,2.938,0,0,1,.528-5.853l34.087,3.076a2.938,2.938,0,0,1-.26,5.865Z" transform="translate(-37.146 -20.972)"/>
        <path class="cls-10" d="M842.571,618.018h-5.235a2.964,2.964,0,0,1-.594-.061c-4.338-.895-7.751-3.816-9.867-8.445-9-19.683,5.673-69.132,12.767-81.836,3.318-5.944,7.52-9.369,12.487-10.179,7.612-1.246,13.867,4.353,14.129,4.592a2.892,2.892,0,0,1,.432.492c.491.7.96,1.446,1.395,2.211,13.708,24.1.488,61.891-8.613,82.271A18.518,18.518,0,0,1,842.571,618.018Zm-4.91-5.878h4.91a12.636,12.636,0,0,0,11.534-7.472c6.962-15.592,21.763-54.3,8.87-76.972-.283-.5-.582-.982-.893-1.444-.956-.77-4.854-3.651-9.039-2.949-3.1.518-5.877,2.954-8.269,7.238-7.37,13.2-20.118,59.992-12.555,76.526C833.514,609.9,835.3,611.562,837.661,612.14Z" transform="translate(-37.146 -20.972)"/>
        <path class="cls-15" d="M569,615.079h-5.235a15.556,15.556,0,0,1-14.218-9.215c-7.836-17.545-22.12-56.1-8.74-79.621q.583-1.029,1.247-1.98s12.846-11.684,22.074,4.845C572.75,544.548,590.843,610.571,569,615.079Z" transform="translate(-37.146 -20.972)"/>
        <path class="cls-16" d="M569,615.079h-5.235a15.556,15.556,0,0,1-14.218-9.215c-2.027-4.548-4.489-10.5-6.793-17.235,3.142,5.215,9.525,8.522,16.536,8.522h6.237c8.879-1.538,12.219-10.245,12.351-21.658C580.882,594.755,580.057,612.795,569,615.079Z" transform="translate(-37.146 -20.972)"/>
        <path class="cls-11" d="M568.855,540.112c-.231-.37-.462-.72-.686-1.043-11.347-16.529-27.143-4.845-27.143-4.845a24.472,24.472,0,0,0-1.532,1.98,34.6,34.6,0,0,0-3.842,7.182,43.449,43.449,0,0,1,5.156-17.143q.583-1.029,1.247-1.98s12.846-11.684,22.074,4.845A78.591,78.591,0,0,1,568.855,540.112Z" transform="translate(-37.146 -20.972)"/>
        <path class="cls-10" d="M535.721,545.665a2.939,2.939,0,0,1-.48-5.838l32.108-5.36a2.939,2.939,0,1,1,.967,5.8l-32.107,5.361A3,3,0,0,1,535.721,545.665Z" transform="translate(-37.146 -20.972)"/>
        <path class="cls-10" d="M535.926,563.012a2.939,2.939,0,0,1-.388-5.852l37.559-5.05a2.939,2.939,0,1,1,.784,5.826l-37.559,5.05A3.146,3.146,0,0,1,535.926,563.012Z" transform="translate(-37.146 -20.972)"/>
        <path class="cls-10" d="M539.24,580a2.939,2.939,0,0,1-.354-5.856l38.127-4.667a2.939,2.939,0,1,1,.715,5.834L539.6,579.982A3.147,3.147,0,0,1,539.24,580Z" transform="translate(-37.146 -20.972)"/>
        <path class="cls-10" d="M545.287,598.532a2.938,2.938,0,0,1-.261-5.865l34.087-3.076a2.938,2.938,0,1,1,.528,5.853l-34.088,3.076C545.464,598.528,545.375,598.532,545.287,598.532Z" transform="translate(-37.146 -20.972)"/>
        <path class="cls-10" d="M569,618.018h-5.234a18.52,18.52,0,0,1-16.9-10.957c-9.1-20.378-22.319-58.165-8.61-82.27.434-.764.9-1.509,1.394-2.21a2.892,2.892,0,0,1,.432-.492c.262-.239,6.513-5.835,14.129-4.592,4.967.81,9.169,4.235,12.487,10.179,7.094,12.7,21.77,62.155,12.767,81.837-2.118,4.629-5.53,7.549-9.867,8.444A2.974,2.974,0,0,1,569,618.018Zm-24.746-91.765c-.31.462-.609.945-.89,1.441-12.9,22.674,1.9,61.382,8.867,76.972a12.635,12.635,0,0,0,11.535,7.474h4.909c2.365-.578,4.147-2.24,5.442-5.072,7.563-16.534-5.185-63.33-12.554-76.527-2.392-4.284-5.174-6.72-8.269-7.238C549.126,522.6,545.225,525.471,544.254,526.253Z" transform="translate(-37.146 -20.972)"/>
        <path class="cls-10" d="M628.083,612.867a2.2,2.2,0,0,1-1.951-3.227c9.2-17.583,9.337-37.357.4-58.773a109.748,109.748,0,0,0-16.486-27.315,2.2,2.2,0,0,1,3.306-2.916,112.175,112.175,0,0,1,17.2,28.41c9.382,22.408,9.2,44.068-.514,62.639A2.206,2.206,0,0,1,628.083,612.867Z" transform="translate(-37.146 -20.972)"/>
        <path class="cls-10" d="M779.15,612.867a2.2,2.2,0,0,1-1.955-1.182c-9.719-18.571-9.9-40.231-.514-62.639a112.109,112.109,0,0,1,17.2-28.41,2.2,2.2,0,0,1,3.306,2.916A109.733,109.733,0,0,0,780.7,550.867c-8.934,21.416-8.8,41.19.4,58.773a2.2,2.2,0,0,1-1.95,3.227Z" transform="translate(-37.146 -20.972)"/>
        <path class="cls-11" d="M760.9,437.291c9.092,18.85,9.58,29.964,13.528,47.678-11.491-2.067-15.886-.785-20.18,1.553-10.153,5.526-17.483,13.371-15.389,30.64,2.07,17.069,22.784,16.5,32.01,15.042,10.352-1.636,14.114-9.321,20.755-11.086,3.188-.846,10.907,3.483,10.907,3.483s8.351-9.669,9.731-22.658c3.486-32.822-19.97-79.5-101.716-153.374" transform="translate(-37.146 -20.972)"/>
        <path class="cls-12" d="M813.144,501.274c-1.374,13-9.727,22.665-9.727,22.665s-7.722-4.335-10.91-3.483c-6.642,1.763-10.4,9.448-20.755,11.086-9.227,1.455-29.938,2.021-32.009-15.046a40.416,40.416,0,0,1,.22-12.195c3.012,15.634,22.826,15.053,31.789,13.635,10.352-1.638,14.113-9.323,20.755-11.086a3.5,3.5,0,0,1,.748-.105c9.424-.386,17.592-6.644,19.406-15.9.179-.914.328-1.849.439-2.8A62.856,62.856,0,0,1,813.144,501.274Z" transform="translate(-37.146 -20.972)"/>
        <path class="cls-10" d="M773.1,489.848c1.566-.521,1.217-9.358.73-10.945l-.033-.106a102.946,102.946,0,0,1-2.445-10.138c-.7-3.49-1.4-7.051-2.218-10.6a105.077,105.077,0,0,0-2.924-10.548A73.931,73.931,0,0,0,762,437.365c-.178-.347-1.57-3.212-1.984-3.178-.549.044.058,3.165.1,3.714v.011c.295,3.656.859,7.206,1.392,10.752s1.145,7.053,1.763,10.573S767.3,483.82,768,487.409Z" transform="translate(-37.146 -20.972)"/>
        <path class="cls-11" d="M636.994,387.243s-33.875,19.575-58.194,65.414c-11.4,21.489-14.425,46.134-6.647,58.151,11.271,17.415,50.56,29.893,64.561,21.618,5.657-3.344-5.4-28.5,1.814-30.15,16.313-3.725,28.9-.624,36.851-2.569,17.506-4.281,30.766,22.075-.3,8.547-28.166-12.264-45.986-3.357-69.189-5.322" transform="translate(-37.146 -20.972)"/>
        <path class="cls-12" d="M760.9,399.751q-5.135-13.177-11.257-26.709L732.823,370.5l-13.034-1.97-31.149-4.709-52.225,14.507q-2.881,6.536-5.525,13a164.9,164.9,0,0,0-24.784,22.432l1.385,1a73.467,73.467,0,0,0,10.326,9.479,111.722,111.722,0,0,0,36.711,19.179,135.011,135.011,0,0,0,28.867,5.857,152.254,152.254,0,0,0,19.773.539s22.242,1.638,52.649-12.687a161.768,161.768,0,0,0,15.462-8.358c2.887-1.766,7.94-5.813,10.908-7.885C776.654,413.531,768.167,407.926,760.9,399.751Z" transform="translate(-37.146 -20.972)"/>
        <path class="cls-10" d="M757.684,488.23a25.607,25.607,0,0,0-9.658,10.336,24.585,24.585,0,0,0-2.243,6.774,32.955,32.955,0,0,0-.531,7.306c-.011,1.236.157,2.484.254,3.728a7.564,7.564,0,0,0,.112.885l.133.841c.146.536.23,1.1.423,1.612a11.984,11.984,0,0,0,3.391,5.378c3.195,2.934,8.044,4.286,12.94,4.693a48.125,48.125,0,0,0,7.5,0c1.256-.094,2.511-.232,3.749-.416.639-.083,1.153-.225,1.737-.328.569-.106,1.108-.31,1.665-.453a22.685,22.685,0,0,0,6.224-3.288c2.03-1.434,3.984-3.214,6.531-4.853a16.747,16.747,0,0,1,4.326-2.037,7.48,7.48,0,0,1,1.625-.321,10.249,10.249,0,0,1,1.484.05l.667.085c.214.034.407.08.611.121.412.078.789.18,1.16.285a40.666,40.666,0,0,1,7.954,3.412l-3.661.642c.255-.31.6-.746.9-1.154s.606-.843.907-1.268c.584-.869,1.156-1.751,1.683-2.661a46.849,46.849,0,0,0,2.82-5.627,43.829,43.829,0,0,0,1.949-5.923c.2-1.01.468-2.014.577-3.033.068-.511.153-1.011.208-1.53l.125-1.587a69.649,69.649,0,0,0-3.222-25.372,104.964,104.964,0,0,0-4.587-12.209c-1.734-4.008-3.765-7.9-5.866-11.753a220.941,220.941,0,0,0-14.337-22.209,402.628,402.628,0,0,0-34.474-40.508l-4.635-4.8-4.7-4.737c-3.139-3.153-6.342-6.244-9.638-9.238q-2.469-2.248-4.867-4.57l-2.393-2.33-2.341-2.385c-1.538-1.615-3.044-3.267-4.481-5a47.385,47.385,0,0,1-4.046-5.5l-.006-.009a1.018,1.018,0,0,1,1.32-1.445,47.462,47.462,0,0,1,5.851,3.547,64.31,64.31,0,0,1,5.368,4.1l2.555,2.191c.834.751,1.681,1.487,2.5,2.25q2.448,2.31,4.818,4.7l4.737,4.783c1.582,1.592,3.2,3.144,4.775,4.746l4.743,4.78L755,383.781a408.547,408.547,0,0,1,34.98,41.112,226.88,226.88,0,0,1,14.725,22.819c2.178,3.99,4.286,8.032,6.1,12.229a110.763,110.763,0,0,1,4.834,12.874,75.5,75.5,0,0,1,3.46,27.519l-.14,1.755c-.063.59-.16,1.194-.24,1.791-.137,1.2-.441,2.368-.678,3.547a49.493,49.493,0,0,1-2.236,6.8,52.415,52.415,0,0,1-3.18,6.35c-.594,1.023-1.237,2.018-1.9,3-.344.488-.678.977-1.042,1.458s-.709.936-1.166,1.485a2.879,2.879,0,0,1-3.578.688l-.084-.046a35.41,35.41,0,0,0-6.664-2.878,7.7,7.7,0,0,0-.774-.191c-.122-.024-.252-.058-.366-.076l-.322-.038c-.245-.049-.335,0-.5-.03-.058.047,0-.035-.32.089a10.925,10.925,0,0,0-2.851,1.365c-1.939,1.225-3.953,3.02-6.253,4.666a28.585,28.585,0,0,1-7.831,4.1c-.726.2-1.443.451-2.178.6s-1.5.323-2.18.411q-2.083.309-4.173.464a53.8,53.8,0,0,1-8.43,0,36.244,36.244,0,0,1-8.5-1.686,24.246,24.246,0,0,1-4.131-1.816,18.932,18.932,0,0,1-3.789-2.713,17.915,17.915,0,0,1-5.024-7.936c-.265-.739-.4-1.494-.585-2.242l-.182-1.127a10.429,10.429,0,0,1-.139-1.092c-.115-1.4-.294-2.8-.288-4.221a38.85,38.85,0,0,1,.631-8.559,30.436,30.436,0,0,1,2.759-8.305,30.088,30.088,0,0,1,5.044-7.214" transform="translate(-37.146 -20.972)"/>
        <path class="cls-10" d="M617.372,458.624" transform="translate(-37.146 -20.972)"/>
        <path class="cls-11" d="M807.513,358.992h0a2.334,2.334,0,0,1-2.339-2.33l-.129-67.254a2.334,2.334,0,0,1,2.33-2.339h0a24.5,24.5,0,0,1,24.542,24.448l.044,22.933A24.5,24.5,0,0,1,807.513,358.992Z" transform="translate(-37.146 -20.972)"/>
        <path class="cls-10" d="M807.3,359.56a2.915,2.915,0,0,1-2.7-2.9l-.129-67.253a2.914,2.914,0,0,1,2.9-2.916,25.069,25.069,0,0,1,25.119,25.022l.043,22.933a25.069,25.069,0,0,1-25.022,25.119h0C807.44,359.569,807.368,359.566,807.3,359.56Zm.217-.567h0Zm1.668-71.285q-.894-.065-1.805-.064a1.762,1.762,0,0,0-1.756,1.763l.129,67.254a1.748,1.748,0,0,0,1.763,1.756,23.92,23.92,0,0,0,23.874-23.966l-.044-22.933A23.953,23.953,0,0,0,809.181,287.708Z" transform="translate(-37.146 -20.972)"/>
        <path class="cls-17" d="M831.94,323.7l.023,10.757A24.505,24.505,0,0,1,807.512,359a2.34,2.34,0,0,1-2.34-2.335l-.04-17.879a2.338,2.338,0,0,0,2.127,1.381l1.6-.007A24.475,24.475,0,0,0,831.94,323.7Z" transform="translate(-37.146 -20.972)"/>
        <path class="cls-10" d="M807.1,362.182a5.547,5.547,0,0,1-5.133-5.513l-.129-67.254a5.546,5.546,0,0,1,5.527-5.55,27.7,27.7,0,0,1,27.753,27.646l.044,22.933A27.731,27.731,0,0,1,807.519,362.2h0C807.378,362.2,807.24,362.192,807.1,362.182Zm.41-3.189h0Zm.737-68.7.126,65.481a21.317,21.317,0,0,0,20.381-21.313l-.044-22.933a21.293,21.293,0,0,0-20.463-21.235Z" transform="translate(-37.146 -20.972)"/>
        <path class="cls-11" d="M584.641,294.584h0a2.336,2.336,0,0,1,2.422,2.244l2.565,67.205a2.335,2.335,0,0,1-2.245,2.422h0c-13.518.516-24.895-11.024-25.411-24.542L561.1,319C560.583,305.477,571.123,295.1,584.641,294.584Z" transform="translate(-37.146 -20.972)"/>
        <path class="cls-10" d="M585.493,367.032c-5.989-.219-11.639-3.547-16.081-7.663a24.9,24.9,0,0,1-8.014-17.434l-.874-22.917a24.905,24.905,0,0,1,6.661-17.995c4.551-4.913,10.743-6.759,17.435-7.014a2.86,2.86,0,0,1,2.089.774,2.893,2.893,0,0,1,.93,2.024l2.564,67.2a2.913,2.913,0,0,1-2.8,3.019Q586.445,367.068,585.493,367.032Zm-.694-71.873h-.135c-6.385.244-12.292,1.959-16.634,6.646a23.764,23.764,0,0,0-6.357,17.169l.875,22.917c.5,13.18,11.639,24.493,24.815,23.99a1.764,1.764,0,0,0,1.691-1.826l-2.565-67.2a1.762,1.762,0,0,0-1.69-1.691Zm-1.467-.876h0Z" transform="translate(-37.146 -20.972)"/>
        <path class="cls-17" d="M588.922,345.389l.71,18.644a2.341,2.341,0,0,1-2.249,2.423c-7.1.268-13.608-3.506-18.264-8.165a24.4,24.4,0,0,1-7.143-16.374l-.369-9.657c4.16,8.326,12.936,14.9,22.847,14.525l2.452-.094A2.361,2.361,0,0,0,588.922,345.389Z" transform="translate(-37.146 -20.972)"/>
        <path class="cls-10" d="M585.393,369.659c-6.617-.242-12.86-3.815-17.768-8.362a27.516,27.516,0,0,1-8.853-19.262l-.875-22.917c-.582-15.262,11.36-27.153,26.623-27.735a5.537,5.537,0,0,1,5.745,5.324l2.565,67.2a5.544,5.544,0,0,1-5.322,5.746Q586.446,369.7,585.393,369.659Zm-1.5-71.822c-11.312.889-20.031,9.6-19.6,21.037l.875,22.917a21.15,21.15,0,0,0,6.806,14.806c3.958,3.667,9.053,6.655,14.412,6.673Zm-.563-3.554h0Z" transform="translate(-37.146 -20.972)"/>
        <circle class="cls-11" cx="659.571" cy="300.879" r="114.606"/>
        <path class="cls-10" d="M696.709,437.033a115.182,115.182,0,0,1-.429-230.363h.444a115.182,115.182,0,0,1,.429,230.363Zm.015-229.213h-.439a114.031,114.031,0,0,0,.424,228.061l.44,0a114.03,114.03,0,0,0-.425-228.06Z" transform="translate(-37.146 -20.972)"/>
        <path class="cls-12" d="M810.164,305.556a114.611,114.611,0,1,1-228.057,16.73c-.008-1.82.028-3.642.108-5.437a114.611,114.611,0,0,0,227.949-11.293Z" transform="translate(-37.146 -20.972)"/>
        <path class="cls-10" d="M696.709,439.661a117.81,117.81,0,0,1-.439-235.619h.454a117.81,117.81,0,0,1,.439,235.619Zm.015-229.212H696.3a111.4,111.4,0,0,0,.414,222.8h.43a111.4,111.4,0,0,0-.415-222.8Z" transform="translate(-37.146 -20.972)"/>
        <path class="cls-10" d="M810.967,324.361A102.8,102.8,0,0,1,792.383,385.2c-9.089,13.089-47.026,36.413-94.391,37.734-43.918,1.225-84.325-21.439-93.9-34.175a102.8,102.8,0,0,1-20.87-60.091c-1.121-59.337,49.394-84.9,112.287-86.088S809.846,265.024,810.967,324.361Z" transform="translate(-37.146 -20.972)"/>
        <path class="cls-18" d="M787.773,269.424c14.172,13.02,22.739,31.1,23.193,54.934a102.853,102.853,0,0,1-18.58,60.84c-9.092,13.089-47.032,36.412-94.4,37.738a141.353,141.353,0,0,1-47.134-7.13c58.187-2.87,104.4-31.49,115.667-47.724a130.435,130.435,0,0,0,23.583-77.211A115.994,115.994,0,0,0,787.773,269.424Z" transform="translate(-37.146 -20.972)"/>
        <path class="cls-10" d="M694.488,426.185c-44.126,0-83.141-22.447-92.958-35.5a105.888,105.888,0,0,1-21.513-61.956c-.552-29.188,10.729-51.916,33.529-67.553,19.866-13.624,48.187-21.161,81.9-21.8s62.3,5.825,82.666,18.688c23.375,14.765,35.506,37.05,36.057,66.238h0a105.892,105.892,0,0,1-19.155,62.724c-8.989,12.946-46.65,37.708-96.934,39.11C696.883,426.168,695.68,426.185,694.488,426.185Zm5.493-180.446q-2.19,0-4.413.043c-32.458.612-59.567,7.763-78.4,20.677-20.91,14.34-31.254,35.249-30.747,62.146a99.529,99.529,0,0,0,20.228,58.226c9.109,12.116,48.5,34.11,91.252,32.9,47.409-1.323,83.764-24.717,91.848-36.36a99.532,99.532,0,0,0,18.013-58.948c-.509-26.9-11.636-47.4-33.073-60.941C756.268,251.845,730.507,245.739,699.981,245.739Z" transform="translate(-37.146 -20.972)"/>
        <path class="cls-10" d="M590.841,281.109a3.2,3.2,0,0,1-2.615-5.051c19.6-29.977,58.357-47.688,106.356-48.6,47.724-.9,87.157,14.818,108.166,43.128l-2.557,1.922-2.029,2.481a3.4,3.4,0,0,1-.56-.584c-19.759-26.625-57.248-41.4-102.9-40.54-45.887.868-82.76,17.551-101.163,45.771a3.25,3.25,0,0,1-2.7,1.469Z" transform="translate(-37.146 -20.972)"/>
        <path class="cls-17" d="M609.461,363.481s-19.484-58.188,11.622-82.111,76.5-24.687,75.489-21.756c0,0-50.017,13.114-68.926,53.209C613.064,343.741,609.461,363.481,609.461,363.481Z" transform="translate(-37.146 -20.972)"/>
        <path class="cls-12" d="M623.408,520.451c-14,8.28-39.987,7.775-51.256-9.644-3.857-5.959-5.055-15.024-3.894-25.266a28.135,28.135,0,0,0,3.894,11.483c11.269,17.412,24.831,12.49,38.827,4.217" transform="translate(-37.146 -20.972)"/>
        <path class="cls-10" d="M616.977,535.087c-9.668,0-41.489-13.717-47.291-22.682-8.251-12.748-5.509-38.455,6.519-61.125,24.433-46.055,57.9-65.765,59.319-66.582a2.938,2.938,0,0,1,2.941,5.088c-.4.235-33.5,19.818-57.069,64.248-10.911,20.566-13.824,44.287-6.776,55.177,10.593,16.367,40.7,21.483,52.78,14.344" transform="translate(-37.146 -20.972)"/>
        <path class="cls-10" d="M623.874,427.5c.107,2.621.072,5.215.021,7.8-.072,2.583-.174,5.157-.322,7.718s-.273,5.118-.559,7.637-1.78,13.5-2.267,15.9l1.181-8.41c-.324,1.6-2.5,15.666-2.733,17.281-6.875,46.569-7.266,5.764-7.318,4.435-.109-2.716,4.415-27.482,4.817-30.05s1.012-5.089,1.642-7.6,1.339-5.006,2.105-7.486c.787-2.476,1.61-4.943,2.606-7.376a.43.43,0,0,1,.827.146Z" transform="translate(-37.146 -20.972)"/>
        <path class="cls-10" d="M821.763,541.289a52.43,52.43,0,0,1-1.272,6.069c-.514,2.01-1.15,4-1.741,6l-1.74,6.031c-.567,2.023-1.092,4.058-1.631,6.154l0,.007a.4.4,0,0,1-.783-.007,36.48,36.48,0,0,1-.838-6.52,62.739,62.739,0,0,1,.115-6.536,53.627,53.627,0,0,1,.8-6.449,32.253,32.253,0,0,1,1.811-6.255,2.77,2.77,0,0,1,5.3,1.433Z" transform="translate(-37.146 -20.972)"/>
        <path class="cls-10" d="M590.069,539.781a32.253,32.253,0,0,1,1.811,6.255,53.627,53.627,0,0,1,.795,6.449,62.464,62.464,0,0,1,.114,6.536,36.388,36.388,0,0,1-.837,6.52.4.4,0,0,1-.784.008l0-.008c-.539-2.1-1.064-4.131-1.63-6.154l-1.74-6.031c-.591-2-1.227-3.988-1.742-6a52.636,52.636,0,0,1-1.271-6.069l-.01-.073a2.769,2.769,0,0,1,5.3-1.435Z" transform="translate(-37.146 -20.972)"/>
        <path class="cls-10" d="M754.6,503.207" transform="translate(-37.146 -20.972)"/>
        <polygon class="cls-19" points="557.94 465.292 573.444 578.626 750.323 578.626 768.885 465.619 557.94 465.292"/>
        <path class="cls-20" d="M608.328,579l140.256.064s26.032-.659,39.873-36.248,16.591-54.145,16.591-54.145L788.457,598.831l-177.024-.1Z" transform="translate(-37.146 -20.972)"/>
        <path class="cls-10" d="M595.023,487.605l5.69.027,15.347.071,22.842.107,27.679.129,30.522.143,30.6.143,28.728.134,24.114.113,17.459.082c2.726.012,5.493.162,8.217.038.12,0,.24,0,.36,0L805,486.521l-1.937,11.231-4.652,26.964-5.606,32.5-4.848,28.1-1.6,9.275a44.992,44.992,0,0,0-.766,4.436,1.853,1.853,0,0,1-.033.193l1.579-1.2-4.734.018-12.883.048-18.964.071-23.226.086-25.335.1-25.679.1-23.849.089-20.24.075-14.55.054c-2.274.009-4.6-.119-6.868.026-.1.006-.2,0-.3,0l1.579,1.2-1.542-11.388-3.7-27.341-4.478-33.063L598.508,499.6l-1.276-9.417c-.2-1.471-.3-3-.6-4.452-.013-.066-.018-.134-.027-.2a1.648,1.648,0,0,0-2.014-1.144,1.682,1.682,0,0,0-1.144,2.015l1.542,11.387,3.7,27.341,4.479,33.064,3.858,28.484L608.3,596.1c.2,1.471.3,3,.6,4.452.014.066.018.135.028.2a1.64,1.64,0,0,0,1.579,1.2l4.734-.018,12.884-.048,18.963-.071,23.226-.086,25.336-.1,25.678-.1,23.849-.089,20.241-.075,14.549-.055c2.288-.008,4.582.035,6.869-.025.1,0,.2,0,.3,0a1.656,1.656,0,0,0,1.58-1.2l1.937-11.231,4.652-26.964,5.607-32.5,4.847-28.1c.789-4.57,1.621-9.134,2.366-13.711.01-.064.022-.129.033-.193a1.663,1.663,0,0,0-1.579-2.073l-5.69-.026-15.347-.072-22.843-.107-27.678-.129-30.522-.143-30.6-.143-28.727-.134-24.114-.113L603.6,484.37c-2.738-.013-5.481-.079-8.218-.039-.12,0-.239,0-.359,0A1.638,1.638,0,0,0,595.023,487.605Z" transform="translate(-37.146 -20.972)"/>
        <path class="cls-19" d="M615.783,600.479s-6.92,1.318-6.59,8.238c.3,6.254,6.59,8.238,6.59,8.238l169.049-.329s6.59-2.307,5.931-9.227a7.792,7.792,0,0,0-7.249-7.25Z" transform="translate(-37.146 -20.972)"/>
        <path class="cls-10" d="M615.348,598.9a9.717,9.717,0,0,0-7.615,7.385c-.993,5.369,2.253,10.1,7.135,12.069a4.688,4.688,0,0,0,1.916.238l3.687-.007,14.262-.028L656,618.515l25.748-.051,27.53-.053,26.591-.052,23.126-.045,17.093-.034,8.337-.016a6.7,6.7,0,0,0,3.793-1.69,10.179,10.179,0,0,0,4.055-6.329,10.438,10.438,0,0,0-2.243-8.662,9.623,9.623,0,0,0-6.6-3.071c-.706-.026-1.419,0-2.125,0l-11.82.023-19.669.039-24.751.048-27.321.054-27.138.053-24.2.048-18.7.037-10.56.02-1.365,0a1.638,1.638,0,0,0,0,3.275l5.469-.01,14.7-.029,21.389-.042,25.523-.05,27.1-.054,26.135-.051,22.614-.044,16.541-.033c2.639,0,5.279-.022,7.918-.015h.346c.183,0,.552.131-.035-.015.262.065.536.091.8.155a5.618,5.618,0,0,1,1.971.777,5.486,5.486,0,0,1,1.962,1.906,7.28,7.28,0,0,1,.948,3.8,6.831,6.831,0,0,1-2.821,5.494c.224-.179-.3.208-.366.256q-.216.145-.438.28c-.3.183-.61.345-.924.5-.1.049-.2.086-.3.138-.066.035.441-.132.15-.066-.261.059.381-.009.35-.03-.075-.053-.384,0-.472,0l-2.961.006-12.891.025-20.089.039-24.777.048-26.954.053-26.618.052-23.773.046-18.415.036-10.547.02c-.264,0-1.318-.17-1.539,0,.017-.013.427.077.419.055s-.125-.022-.124-.044a2.383,2.383,0,0,0-.239-.091c-.225-.08.175.075.175.075-.084-.038-.171-.073-.254-.113-.323-.154-.641-.313-.951-.492-.207-.12-.412-.246-.612-.379-.115-.076-.578-.41-.442-.3a7.216,7.216,0,0,1-2.93-6.171,5.714,5.714,0,0,1,.977-3.021,6.4,6.4,0,0,1,1.761-1.665,10.669,10.669,0,0,1,1.091-.6c.093-.044.188-.086.282-.127-.04.018-.336.132-.07.033.145-.054.289-.11.435-.159a6.905,6.905,0,0,1,.915-.258C618.286,601.656,617.411,598.5,615.348,598.9Z" transform="translate(-37.146 -20.972)"/>
      </g>
      <path id="cable" class="cls-21" d="M696.258,611.2s10.5,78.5,78.5,84.5,105.808-157.74,196.5-93.5c72,51-86,77-52.5,140.5,22.788,43.195,149,14,147,68s-197.5,13.5-199.5,36.5" transform="translate(-37.146 -20.972)"/>
      <rect class="cls-10" x="651.613" y="585.725" width="16" height="5" rx="2.5" ry="2.5"/>
      <rect class="cls-10" x="821.613" y="806.725" width="19" height="29" rx="9.5" ry="9.5"/>
    </g>
    <g id="eyes">
      <circle id="left-eye" class="cls-11" cx="615.113" cy="299.225" r="18.5"/>
      <circle id="right-eye" class="cls-11" cx="703.113" cy="299.225" r="18.5"/>
    </g>
    <g id="meteorito-6">
      <g id="meteorite6">
        <path class="cls-22" d="M1123.39,623.574s-18.376-104.258-9.8-137.873l68.576,11.908,20.522-.282-1.328,16.513,78.63,8.5s.657,29.712-13.122,49.8l-26.68,34.65s-16.4,24.315-32.349,28.176C1207.839,634.965,1177.2,651.591,1123.39,623.574Z" transform="translate(-37.146 -20.972)"/>
        <path class="cls-23" d="M1113.59,485.7s-.392,35.964,31,71.833c0,0,48.827,5.972,91.475-6.446V537.141l14.17,7.319a114.554,114.554,0,0,0,29.756-22.124s-41.965-13.233-86.747-16.276l9.445-8.733S1167.388,485.575,1113.59,485.7Z" transform="translate(-37.146 -20.972)"/>
        <path class="cls-24" d="M1144.589,557.534s-19.671,42.24-21.2,66.04c0,0-15.319-71.312-9.8-137.873C1113.59,485.7,1128.333,534.541,1144.589,557.534Z" transform="translate(-37.146 -20.972)"/>
        <path class="cls-24" d="M1236.064,537.141l4.124,15.881-19.263,62.048s26.055-47.47,29.309-70.61Z" transform="translate(-37.146 -20.972)"/>
        <path class="cls-25" d="M1114.178,487.6s17.467,42.177,31.532,55.219,58.742,1.582,62.545-1.283,3.161-9.868,23.662-13.051,22.554-8.347,18.317-10.222-35.118-.919-51.629-5.376-5.49-11.489-15.128-15.294S1128.815,484.592,1114.178,487.6Z" transform="translate(-37.146 -20.972)"/>
        <path class="cls-26" d="M1118.131,499.551s20.7,42.232,31.019,47.877,61.923,10.747,86.914,3.66c0,0-41.458,13.773-91.475,6.446C1144.589,557.534,1127.243,528.394,1118.131,499.551Z" transform="translate(-37.146 -20.972)"/>
        <polygon class="cls-27" points="1103.716 529.973 1105.085 541.832 1113.749 537.154 1103.716 529.973"/>
        <path class="cls-26" d="M1245.775,542.157l2.313,11.816,6.987-12.656S1248.152,540.553,1245.775,542.157Z" transform="translate(-37.146 -20.972)"/>
      </g>
    </g>
    <g id="meteorito-5">
      <g id="meteorite5">
        <path class="cls-22" d="M146.616,486.767s25.91-74.254,43.906-92.624l41.241,34.022,13.749,7.7L238.589,446l49.176,35.686s-10.43,19.4-26.939,27.057l-30.412,12.081s-19.793,9.372-31.814,5.731C198.6,526.556,172.15,525.5,146.616,486.767Z" transform="translate(-37.146 -20.972)"/>
        <path class="cls-23" d="M190.522,394.143s-13.413,23.028-5.659,58.207c0,0,30.281,22.609,63.18,30.991l5.1-8.988,6.744,10.161a87.067,87.067,0,0,0,27.877-2.827s-23.064-24.652-51.727-43.819l9.474-2S226.339,414.731,190.522,394.143Z" transform="translate(-37.146 -20.972)"/>
        <path class="cls-24" d="M184.863,452.35s-28.527,19.666-38.247,34.417c0,0,15.895-51.846,43.906-92.624C190.522,394.143,182.463,431.285,184.863,452.35Z" transform="translate(-37.146 -20.972)"/>
        <path class="cls-24" d="M253.144,474.353l-3.067,11.819-35.5,32.589s34.684-20.584,45.31-34.247Z" transform="translate(-37.146 -20.972)"/>
        <path class="cls-25" d="M190.219,395.591s-3.811,33.894.772,47.7,38.479,23.59,42.056,23.205,5.71-5.146,20.5.68,18.049,3.286,15.917.45-23.013-14.086-32.362-23.3.552-9.514-4.465-15.669S201.051,399.278,190.219,395.591Z" transform="translate(-37.146 -20.972)"/>
        <path class="cls-26" d="M188.476,404.814s-1.681,35.171,3.115,42.774,37.244,30.719,56.452,35.753c0,0-32.6-7.052-63.18-30.991C184.863,452.35,183.987,426.9,188.476,404.814Z" transform="translate(-37.146 -20.972)"/>
        <polygon class="cls-27" points="147.649 425.698 144.222 433.868 151.694 434.182 147.649 425.698"/>
        <path class="cls-26" d="M257.766,481.317l-2.783,8.5,9.273-5.472S259.933,481.2,257.766,481.317Z" transform="translate(-37.146 -20.972)"/>
      </g>
    </g>
    <g id="meteorite-4">
      <g id="meteorite4">
        <path class="cls-22" d="M205.525,886.99,118.131,857.7l-25.122-.4-13.245-2.659s-23.725,12.56-42.477,51.337c0,0,10.545,56.044,30.816,78.883l42.456,31.489Z" transform="translate(-37.146 -20.972)"/>
        <path class="cls-23" d="M110.559,1016.342,78.45,921l41.35-40.048,19.589,9.472,66.136-3.437s-17.137,54.25-44.33,91.671C161.2,978.661,131.166,1010.648,110.559,1016.342Z" transform="translate(-37.146 -20.972)"/>
        <path class="cls-24" d="M78.45,921S56.212,904.2,37.287,905.97c0,0-4.025,37.6,30.816,78.883,0,0,28.085,27.933,42.456,31.489C110.559,1016.342,83.349,954.98,78.45,921Z" transform="translate(-37.146 -20.972)"/>
        <polygon class="cls-28" points="102.243 869.455 129.421 882.598 121.743 868.442 102.243 869.455"/>
        <path class="cls-26" d="M119.8,880.955s-19.632,21.817-21.622,44.714,12.381,90.673,12.381,90.673S79.1,948.823,78.45,921Z" transform="translate(-37.146 -20.972)"/>
        <polygon class="cls-27" points="34.383 895.012 49.981 891.627 42.108 907.909 34.383 895.012"/>
        <polygon class="cls-28" points="42.618 833.661 82.655 859.983 102.243 869.455 168.379 866.019 80.986 836.725 57.256 837.257 42.618 833.661"/>
      </g>
    </g>
    <g id="meteorite-3">
      <g id="meteorite3">
        <path class="cls-22" d="M1141.956,1018.3l-59.114,35.6-12.466,14.119-7.952,6.259s-4.46,19.606,8.312,49.086c0,0,36.8,21.156,59.571,20.675l38.468-8.93Z" transform="translate(-37.146 -20.972)"/>
        <path class="cls-23" d="M1168.775,1135.113l-69.5-27.914-2.484-42.973,14.892-6.57,30.271-39.352s22.3,36.06,30.2,69.692C1172.151,1088,1175.6,1120.61,1168.775,1135.113Z" transform="translate(-37.146 -20.972)"/>
        <path class="cls-24" d="M1099.277,1107.2s-20.324,4.527-28.541,16.169c0,0,19.282,20.52,59.571,20.675,0,0,29.459-2.465,38.468-8.93C1168.775,1135.113,1120.857,1120.876,1099.277,1107.2Z" transform="translate(-37.146 -20.972)"/>
        <polygon class="cls-28" points="1074.539 1036.684 1095.201 1027.567 1083.465 1025.081 1074.539 1036.684"/>
        <path class="cls-26" d="M1096.793,1064.226s2.763,21.761,14.729,33.994,57.253,36.893,57.253,36.893-53.465-14.8-69.5-27.914Z" transform="translate(-37.146 -20.972)"/>
        <polygon class="cls-27" points="1055.925 1087.739 1061.61 1077.21 1066.973 1089.588 1055.925 1087.739"/>
        <polygon class="cls-28" points="1025.278 1053.31 1059.648 1043.254 1074.539 1036.684 1104.81 997.332 1045.696 1032.932 1034.439 1046.712 1025.278 1053.31"/>
      </g>
    </g>
    <g id="meteorito-2">
      <g id="meteorite2">
        <path class="cls-22" d="M625.245,1166.137s-10.026-2.956-36.76,10.534a46.8,46.8,0,0,0-10.582,29.885l6.683,13.361s-3.9,29.256,2.228,46.962c0,0,23.393,21.223,51.8,17.216s65.351-55.74,65.351-55.74Z" transform="translate(-37.146 -20.972)"/>
        <path class="cls-23" d="M703.935,1228.358l-.117.178c0,.059,0,.059-.06.178a55.165,55.165,0,0,1-4.174,7.06c-7.525,10.975-24.927,29.13-52.794,18.391-38.626-14.832-33.452-51.081-33.452-51.081,0-6.764-8.878-23.553-8.878-23.553,2.764-9.433,18.637-12.993,20.636-13.349a.456.456,0,0,1,.176-.059c45.269,17.027,73.665,50.251,73.665,50.251Z" transform="translate(-37.146 -20.972)"/>
        <path class="cls-24" d="M577.9,1206.556s5.384-.5,15.409-10.226,11.14-16.816,11.14-16.816l8.757,21.9s-12.471,14.725-28.623,18.5Z" transform="translate(-37.146 -20.972)"/>
        <path class="cls-24" d="M586.814,1266.879s22.464,6.462,42.144,0,22.944-11.044,22.944-11.044,26.44,9.029,52.061-27.48c0,0-11.882,33.213-61.267,56.244C642.7,1284.6,619.3,1296.2,586.814,1266.879Z" transform="translate(-37.146 -20.972)"/>
        <path class="cls-26" d="M703.758,1228.6v.119l-4.174,7.06c-7.525,10.975-24.927,29.13-52.794,18.391-38.626-14.832-33.452-51.081-33.452-51.081,0-6.764-8.878-23.553-8.878-23.553,2.764-9.433,18.637-12.993,20.636-13.349-1.587.534-12.523,4.687-14.874,11.984-2.587,7.832,3.116,12.341,7.525,27.529,4.351,15.188,19.754,44.615,44.622,44.437C685.709,1249.954,701.818,1230.969,703.758,1228.6Z" transform="translate(-37.146 -20.972)"/>
      </g>
    </g>
    <g id="meteorito-1">
      <g id="meteorite1">
        <path class="cls-22" d="M1374.608,907.359s-3.467-1.021-12.712,3.643a16.185,16.185,0,0,0-3.659,10.334l2.31,4.621s-1.348,10.117.771,16.24c0,0,8.089,7.339,17.912,5.953s22.6-19.275,22.6-19.275Z" transform="translate(-37.146 -20.972)"/>
        <path class="cls-23" d="M1401.819,928.876l-.041.061c0,.021,0,.021-.02.062a19.076,19.076,0,0,1-1.443,2.441c-2.6,3.8-8.62,10.074-18.257,6.36-13.357-5.128-11.568-17.664-11.568-17.664,0-2.339-3.07-8.145-3.07-8.145.956-3.262,6.445-4.493,7.136-4.616a.161.161,0,0,1,.061-.02,68.6,68.6,0,0,1,25.474,17.376Z" transform="translate(-37.146 -20.972)"/>
        <path class="cls-24" d="M1358.237,921.336s1.861-.171,5.328-3.535,3.852-5.816,3.852-5.816l3.028,7.573s-4.312,5.092-9.9,6.4Z" transform="translate(-37.146 -20.972)"/>
        <path class="cls-24" d="M1361.318,942.2s7.768,2.234,14.574,0,7.934-3.819,7.934-3.819,9.143,3.122,18-9.5c0,0-4.109,11.485-21.186,19.449C1380.643,948.324,1372.553,952.336,1361.318,942.2Z" transform="translate(-37.146 -20.972)"/>
        <path class="cls-26" d="M1401.758,928.958V929l-1.443,2.441c-2.6,3.8-8.62,10.074-18.257,6.36-13.357-5.128-11.568-17.664-11.568-17.664,0-2.339-3.07-8.145-3.07-8.145.956-3.262,6.445-4.493,7.136-4.616-.549.185-4.33,1.621-5.144,4.144-.894,2.708,1.078,4.268,2.6,9.52,1.5,5.252,6.831,15.428,15.431,15.366C1395.517,936.344,1401.087,929.779,1401.758,928.958Z" transform="translate(-37.146 -20.972)"/>
      </g>
    </g>
  </g>
</svg>