<svg width="67" height="103" viewBox="0 0 67 103" fill="none" xmlns="http://www.w3.org/2000/svg">
<path d="M27.0576 103C41.8335 103 53.8115 100.711 53.8115 97.8865C53.8115 96.1861 49.469 94.6797 42.788 93.7497C42.789 93.7589 42.7896 93.7681 42.7906 93.7774C42.8608 94.6187 42.5443 95.3765 41.8497 96.0287C40.6606 97.1457 37.8763 98.0062 34.9196 98.0059C33.8777 98.0059 32.8134 97.8992 31.7909 97.6588C30.5366 97.3643 29.4575 96.8973 28.5735 96.2727C28.5712 96.3194 28.5678 96.3658 28.5627 96.4125C28.5226 96.7909 28.3892 97.1536 28.2066 97.4583C28.1184 97.6165 28.0108 97.7481 27.9043 97.8828C27.8499 97.9479 27.7909 98.0038 27.7337 98.0645C27.6764 98.1242 27.6192 98.1845 27.5556 98.235C27.0599 98.6668 26.5252 98.9457 25.9853 99.1789C25.4443 99.4083 24.8936 99.5808 24.3388 99.7209C23.2276 99.9916 22.0981 100.127 20.9651 100.148C20.8964 100.149 20.8277 100.15 20.759 100.15C20.2616 100.15 19.7629 100.127 19.2648 100.081C18.6992 100.019 18.1342 99.9381 17.5749 99.803C16.4585 99.5392 15.3524 99.1131 14.3649 98.4211C13.8754 98.0709 13.4157 97.6619 13.0213 97.1806C12.6326 96.6947 12.3114 96.1469 12.0675 95.565C11.8603 95.0485 11.7063 94.5038 11.6118 93.9495H9.98478C4.07039 94.8873 0.303978 96.3027 0.303978 97.8865C0.303978 100.711 12.2822 103 27.0576 103Z" fill="#7991C5"/>
<path d="M36.3921 42.8884L38.9109 51.3261C42.7736 52.4804 52.4411 50.6457 59.1083 45.7852C61.9838 43.6907 64.3009 41.0329 65.355 37.8105C68.4393 28.3822 60.465 27.8083 57.395 29.8561C55.0069 31.4486 53.2453 33.5672 51.0931 35.66C48.0032 38.6649 44.1061 41.6177 36.3921 42.8884Z" fill="white"/>
<path d="M58.5796 45.4902C58.6576 45.4345 58.735 45.3788 58.8117 45.3226C61.886 43.0836 63.9198 40.4945 64.8568 37.6274C65.6857 35.0935 65.7406 33.0616 65.0333 31.6483C64.9715 32.5891 64.7571 33.666 64.3561 34.8927C64.34 34.9421 64.3226 34.9921 64.3042 35.0431C63.7704 36.5168 62.4624 37.3294 61.1241 37.3294C60.2764 37.3294 59.4164 37.003 58.7334 36.3124C58.4807 36.0564 58.2889 35.8956 58.2063 35.8956C58.178 35.8956 58.1625 35.915 58.1625 35.956C58.1441 39.1758 59.1108 41.7065 58.1093 42.8681C57.7041 43.3379 57.2683 43.7752 56.8081 44.181C56.8148 44.1868 56.8219 44.1926 56.829 44.1989C56.829 44.1983 56.8293 44.1978 56.8293 44.1973C57.0547 44.3891 57.2822 44.5726 57.5101 44.7465C57.5107 44.747 57.5114 44.7476 57.512 44.7481C57.5162 44.7513 57.5204 44.7539 57.5243 44.757C57.5265 44.7591 57.5288 44.7607 57.531 44.7623C57.5336 44.7639 57.5359 44.766 57.5382 44.7675C57.5397 44.7691 57.5417 44.7702 57.5433 44.7718C57.6222 44.8311 57.7009 44.89 57.7799 44.9473C57.845 44.9946 57.9046 45.0466 57.9588 45.1023C58.05 45.1633 58.1425 45.2227 58.236 45.2816C58.3488 45.3525 58.4636 45.4224 58.5796 45.4902Z" fill="#B9AFBE"/>
<path d="M36.3941 42.8879L37.5542 46.7745L38.9128 51.3259C39.5802 51.5253 40.4215 51.635 41.3902 51.6566C46.0273 51.7557 53.5952 49.8054 59.1104 45.7846C54.5896 43.4104 52.2185 38.7303 51.0948 35.6593C49.6543 37.0615 48.0362 38.4508 45.9377 39.6666C44.0368 40.7648 41.7398 41.7186 38.8218 42.4055C38.0578 42.5858 37.2492 42.7467 36.3941 42.8879Z" fill="#4A83FF"/>
<path d="M58.2354 45.2793C58.1418 45.2208 58.0494 45.161 57.9582 45.1003C57.9582 45.1003 57.9584 45.1003 57.9584 45.1007C58.0497 45.161 58.1422 45.2208 58.2354 45.2793Z" fill="#8C7B94"/>
<path d="M41.8534 51.0996C45.01 51.0766 49.4953 50.1533 53.7973 48.2052C53.4405 47.9066 53.0788 47.5854 52.7181 47.2425C52.5898 47.1206 52.4619 46.9957 52.3342 46.8685C50.264 47.6846 48.1694 48.2814 46.224 48.6598C45.7284 48.7563 45.2337 48.8029 44.7456 48.8029C43.2404 48.8029 41.7931 48.3598 40.5468 47.5641C40.5564 47.6066 40.5656 47.6483 40.5753 47.6908C40.5962 47.7041 40.6146 47.7214 40.6297 47.7435C41.0863 48.4001 41.3452 49.1227 41.5497 49.8586C41.6678 50.268 41.7667 50.6823 41.8534 51.0996ZM58.3009 45.6851C58.3944 45.6205 58.4872 45.5553 58.5791 45.4902C58.4631 45.422 58.3483 45.3524 58.2355 45.2811C58.1423 45.223 58.0498 45.1628 57.9586 45.1025C58.1214 45.27 58.2355 45.4707 58.3009 45.6851Z" fill="#435EBE"/>
<path d="M41.7717 52.2305C45.4831 52.231 50.5443 51.0023 54.8811 48.9236C56.5443 48.1281 58.0689 47.226 59.4131 46.2438C62.6771 43.8665 64.8456 41.0895 65.858 37.9923C67.4451 33.1405 66.1437 30.7506 64.7725 29.6003C62.6562 27.8253 59.1043 28.0537 57.1145 29.3813C55.3204 30.5782 53.8982 32.0359 52.3929 33.5787C51.8572 34.1277 51.3031 34.6954 50.7284 35.2538C49.6309 36.3216 48.6516 37.16 47.6463 37.893C44.5399 40.1605 40.9389 41.5715 36.3129 42.3336C36.0237 42.3813 35.8254 42.6679 35.8706 42.9737C35.9157 43.279 36.1862 43.4898 36.4759 43.441C41.2654 42.6526 45.006 41.1822 48.248 38.8154C49.295 38.0527 50.311 37.1831 51.4456 36.079C52.0306 35.5107 52.5896 34.9375 53.1304 34.3835C54.5952 32.8825 55.9789 31.4643 57.6799 30.3289C59.3283 29.2297 62.376 29.02 64.1139 30.4788C65.6953 31.8047 65.952 34.2765 64.8564 37.6256C63.9194 40.4927 61.8856 43.0819 58.8113 45.3214C57.5187 46.2658 56.0495 47.1343 54.4439 47.903C48.4256 50.7871 41.8945 51.6342 39.0575 50.786C38.7757 50.7014 38.4823 50.8749 38.4034 51.173C38.3235 51.4706 38.4875 51.7808 38.7689 51.8643C39.5985 52.1124 40.6202 52.2305 41.7717 52.2305Z" fill="#371A45"/>
<path d="M47.6759 39.0241C48.7687 43.2997 51.5881 46.4168 54.0849 48.4426C54.4956 48.7756 55.0487 48.8361 55.5151 48.5986C56.2549 48.2221 56.9814 47.8182 57.6873 47.3867C58.5534 46.8578 58.6011 45.5479 57.7779 44.946C56.8306 44.2541 55.8855 43.4126 55.0168 42.3918C53.3132 40.3895 52.2376 38.4792 51.5643 36.9464C51.1842 36.0809 50.137 35.8275 49.4433 36.4369C49.044 36.7884 48.6291 37.1353 48.194 37.4763C47.7388 37.8338 47.528 38.4457 47.6759 39.0241Z" fill="white"/>
<path d="M53.7976 48.2041H53.7979C53.4411 47.9053 53.0791 47.5842 52.7185 47.2411C53.0791 47.5842 53.4407 47.9053 53.7976 48.2041Z" fill="#3F4694"/>
<path d="M54.9218 48.7422C55.1242 48.7422 55.3279 48.6947 55.5168 48.5985C55.6663 48.5221 55.8153 48.445 55.9639 48.3661C55.8153 48.4445 55.666 48.5217 55.5165 48.5985C55.3272 48.6943 55.1239 48.7418 54.9214 48.7418C54.6249 48.7418 54.3306 48.6404 54.0863 48.442C53.9905 48.3644 53.8945 48.2855 53.7981 48.2045H53.7978C53.8945 48.2855 53.9905 48.3648 54.0863 48.442C54.3303 48.6404 54.6249 48.7422 54.9218 48.7422Z" fill="#371A45"/>
<path d="M57.958 45.1016C57.9038 45.0455 57.8442 44.9939 57.7791 44.9458C57.7001 44.8888 57.6215 44.8301 57.5425 44.7704C57.6212 44.8301 57.6998 44.8888 57.7785 44.9458C57.8432 44.9934 57.9025 45.045 57.9567 45.1002C57.957 45.1007 57.9573 45.1011 57.958 45.1016Z" fill="#8C7B94"/>
<path d="M57.958 45.1016C57.958 45.1009 57.9576 45.1009 57.9576 45.1009C57.9565 45.1009 57.9561 45.1003 57.9556 45.0996V45.1003C57.9565 45.1009 57.957 45.1009 57.958 45.1016Z" fill="#6E5978"/>
<path d="M58.3018 45.6855C58.2363 45.4711 58.1222 45.2704 57.9594 45.1029C57.9588 45.1029 57.9584 45.1025 57.9578 45.102C58.1215 45.27 58.236 45.4711 58.3018 45.6855Z" fill="#3F4694"/>
<path d="M58.3496 45.8965C58.3383 45.8244 58.3222 45.7532 58.3009 45.6838C58.3222 45.7537 58.3383 45.8244 58.3496 45.8965Z" fill="#371A45"/>
<path d="M57.5081 44.7445C57.2802 44.5709 57.0527 44.3875 56.8273 44.1955C56.8273 44.1959 56.827 44.1963 56.827 44.1968C57.053 44.3884 57.2802 44.5709 57.5081 44.7445Z" fill="#8C7B94"/>
<path d="M54.9202 48.7422C55.1227 48.7422 55.3261 48.6952 55.5153 48.5988C55.6648 48.5225 55.8141 48.4452 55.9627 48.3666C56.5477 48.057 57.1247 47.7307 57.6878 47.3868C58.2116 47.0665 58.436 46.4596 58.3489 45.8978C58.3376 45.8256 58.3215 45.7549 58.3003 45.685C58.2345 45.47 58.12 45.2689 57.9563 45.1014V45.1009C57.9022 45.0455 57.8429 44.9938 57.7781 44.9464C57.6994 44.8891 57.6208 44.8305 57.5421 44.7709C57.5405 44.7695 57.5386 44.7686 57.537 44.7672C57.5347 44.7653 57.5324 44.7634 57.5299 44.7616C57.5276 44.7602 57.5254 44.7583 57.5231 44.7564C57.5192 44.7537 57.5151 44.7504 57.5108 44.7476C57.5102 44.7467 57.5096 44.7462 57.5089 44.7462C57.2811 44.5721 57.0538 44.3897 56.8278 44.1984C56.717 44.4576 56.531 44.6885 56.2715 44.8477C55.5652 45.2787 54.8381 45.6813 54.0993 46.0583C53.9097 46.1547 53.706 46.2022 53.5036 46.2022C53.2067 46.2022 52.9128 46.1002 52.6688 45.9024C51.2679 44.7667 49.7648 43.2851 48.5233 41.4489C49.577 43.8153 51.1383 45.7409 52.7174 47.242C53.0781 47.585 53.4401 47.9062 53.7969 48.205C53.8933 48.286 53.9894 48.3652 54.0851 48.4429C54.3294 48.6407 54.6237 48.7422 54.9202 48.7422Z" fill="#B9AFBE"/>
<path d="M50.3163 36.6613C50.3778 36.6613 50.44 36.6683 50.5019 36.6834C50.7598 36.7446 50.9722 36.926 51.0841 37.1811C51.9421 39.1348 53.1328 41.0132 54.6233 42.7655C55.4527 43.7399 56.4126 44.6284 57.4772 45.4063C57.7177 45.5816 57.8489 45.8609 57.837 46.1718C57.8254 46.4811 57.6742 46.7463 57.4225 46.9005C56.7449 47.3144 56.0261 47.7151 55.2857 48.0918C54.9975 48.2385 54.6613 48.2023 54.408 47.9964C52.1693 46.1803 49.2732 43.1236 48.1879 38.8767C48.0976 38.5231 48.224 38.1499 48.5102 37.9254C48.9367 37.5909 49.3528 37.2444 49.7824 36.8667C49.9353 36.7321 50.1232 36.6613 50.3163 36.6613ZM54.9182 49.3027C55.1986 49.3027 55.481 49.2364 55.7453 49.1023C56.5093 48.7131 57.2523 48.2993 57.9527 47.8708C58.5171 47.5258 58.8694 46.908 58.8959 46.217C58.9223 45.5244 58.617 44.8765 58.0797 44.4842C57.083 43.756 56.185 42.9253 55.4111 42.0157C53.9912 40.3467 52.8588 38.5613 52.0453 36.709C51.7935 36.1359 51.3158 35.7281 50.7343 35.5895C50.1557 35.4519 49.5617 35.603 49.1049 36.0048C48.6907 36.3695 48.2894 36.703 47.8787 37.0249C47.2402 37.5261 46.9601 38.3674 47.1648 39.169C48.3275 43.7188 51.3948 46.9643 53.763 48.8859C54.1027 49.1616 54.5085 49.3027 54.9182 49.3027Z" fill="#371A45"/>
<path d="M5.17336 69.8435C8.22106 74.0455 16.1561 72.5888 16.1561 72.5888L16.2253 44.195L16.2393 38.4603C16.2393 38.4603 11.7129 38.5872 8.27295 40.0902C6.61575 40.8131 5.21186 41.857 4.6868 43.3583C2.85774 48.5749 2.6697 66.3902 5.17336 69.8435Z" fill="white"/>
<path d="M5.36719 69.1348C5.29308 68.6998 5.2364 68.2375 5.19662 67.746C5.05984 67.6873 4.92579 67.6219 4.79555 67.5496C4.96339 68.1908 5.15412 68.7281 5.36719 69.1348Z" fill="#B9AFBE"/>
<path d="M13.0302 73.4014C14.7838 73.4014 16.1103 73.1668 16.2435 73.1426C16.5318 73.0898 16.7253 72.7997 16.6751 72.4949C16.6255 72.1898 16.3506 71.9856 16.0629 72.0381C15.9865 72.0525 8.40625 73.385 5.59106 69.5035C3.27098 66.3042 3.32228 48.8573 5.18068 43.5542C6.65547 39.3445 16.1543 39.0243 16.2502 39.0213C16.543 39.0131 16.7732 38.7554 16.7654 38.4458C16.7576 38.1368 16.5123 37.8944 16.2218 37.9009C15.8014 37.9127 5.90999 38.2482 4.18653 43.165C3.3011 45.6918 2.73293 51.3587 2.77307 57.2674C2.7937 60.3603 3.02788 67.8103 4.75023 70.1853C6.68669 72.8556 10.355 73.4014 13.0302 73.4014Z" fill="#371A45"/>
<path d="M3.89794 57.8253L9.30612 58.254C9.789 58.2929 10.1871 58.6698 10.273 59.1737C10.5886 61.0186 11.1083 65.3204 9.4115 66.7406C8.003 67.9197 5.71628 67.7813 4.3758 66.5817C2.87697 65.2399 2.73033 61.0209 2.75486 58.9326C2.76211 58.2835 3.28626 57.7763 3.89794 57.8253Z" fill="white"/>
<path d="M5.1323 66.4648C5.12182 66.0084 5.12347 65.5308 5.13672 65.031C4.76699 64.8534 4.37685 64.5721 3.97236 64.1563C3.86807 64.0485 3.76763 63.9285 3.67216 63.797C3.91773 64.9372 4.27255 65.7541 4.71898 66.1536C4.84811 66.2692 4.98607 66.3728 5.1323 66.4648Z" fill="#B9AFBE"/>
<path d="M3.81651 58.3811C3.83054 58.3811 3.84455 58.3817 3.85802 58.3828L9.26633 58.812C9.50864 58.8314 9.70833 59.0206 9.75096 59.2722C10.3573 62.8148 10.1071 65.4424 9.08235 66.3001C7.90556 67.285 5.90703 67.2175 4.71789 66.1532C3.77781 65.3112 3.24158 62.6143 3.2842 58.9385C3.28589 58.781 3.34703 58.6357 3.45696 58.5294C3.55625 58.4329 3.68302 58.3811 3.81651 58.3811ZM7.02829 68.1182C8.01437 68.1182 8.9898 67.8073 9.73974 67.179C11.598 65.6238 11.1976 61.4324 10.7943 59.0728C10.6652 58.3187 10.0696 57.7523 9.34542 57.6947L3.93767 57.2652C3.49903 57.2302 3.06433 57.3898 2.74124 57.703C2.41816 58.0159 2.22969 58.4612 2.22464 58.9245C2.19042 61.8435 2.47705 65.6153 4.03302 67.0085C4.85644 67.7455 5.94854 68.1182 7.02829 68.1182Z" fill="#371A45"/>
<path d="M8.24935 62.4806C8.18917 63.1978 8.19296 63.8824 8.1485 64.5614C8.10729 65.2385 8.03518 65.9066 7.87794 66.5339C7.72286 67.1594 7.47669 67.7444 7.1069 68.1845C6.74036 68.6281 6.24966 68.9082 5.70039 69.0467L5.69877 69.047C5.4141 69.1189 5.23788 69.4213 5.30566 69.7223C5.37344 70.0237 5.65973 70.2098 5.94439 70.1379C5.95578 70.1351 5.96771 70.1314 5.97909 70.128C6.3337 70.0114 6.68181 69.8481 6.99955 69.6262C7.31728 69.4053 7.60086 69.1258 7.83022 68.8118C8.29273 68.1794 8.53456 67.4407 8.66849 66.7248C8.80187 66.0038 8.83332 65.2875 8.83386 64.5846C8.83657 63.883 8.7932 63.1845 8.80946 62.5222V62.5144C8.8138 62.3507 8.69126 62.2143 8.53618 62.2099C8.38762 62.2058 8.26291 62.3258 8.24935 62.4806Z" fill="#371A45"/>
<path d="M7.09253 43.1521C7.59012 43.1932 8.09729 43.2546 8.597 43.3272C9.09832 43.3992 9.59698 43.4848 10.093 43.5827C10.589 43.6795 11.0818 43.7904 11.5698 43.9159C12.0583 44.0369 12.5399 44.1832 13.0173 44.3341L13.0264 44.3369C13.3073 44.4252 13.6027 44.2564 13.6868 43.9592C13.7703 43.6626 13.6107 43.3497 13.3297 43.2613C13.3132 43.2557 13.2962 43.2512 13.2791 43.2478C12.7661 43.1426 12.2536 43.0435 11.7385 42.9715C11.2244 42.8949 10.7098 42.8341 10.1946 42.7885C9.67946 42.7413 9.16484 42.7069 8.64969 42.6872C8.13294 42.667 7.62152 42.658 7.09998 42.6692C6.97385 42.672 6.8738 42.7823 6.87646 42.9157C6.87912 43.0407 6.97066 43.1414 7.08614 43.1516L7.09253 43.1521Z" fill="#371A45"/>
<path d="M12.7244 42.8848C12.9441 42.6084 13.1695 42.3315 13.3996 42.0545C13.5724 41.4252 13.7526 40.7915 13.9395 40.1556C13.6688 39.8914 13.4038 39.6188 13.1456 39.3397C11.7905 39.5517 10.1897 39.9018 8.76751 40.4766C10.0086 41.4192 11.335 42.2252 12.7244 42.8848Z" fill="#B9AFBE"/>
<path d="M8.76667 40.4766C10.1893 39.9018 11.7894 39.5512 13.1445 39.3391C12.9943 39.1769 12.8461 39.0119 12.7 38.8441C11.3035 39.0833 9.69502 39.4698 8.27344 40.0911C8.43628 40.2218 8.60069 40.3503 8.76667 40.4766Z" fill="#371A45"/>
<path d="M26.7858 93.2217C29.0988 98.8891 39.0004 97.9561 41.4997 95.6107C44.0597 93.2053 39.4311 90.2033 39.4311 90.2033C40.3983 88.4647 40.9273 85.9888 41.1914 83.3775C41.4926 80.4161 41.4555 77.2836 41.3405 74.8659C41.2227 72.3731 41.021 70.6413 41.021 70.6413L26.425 62.2876C26.435 65.429 26.9324 68.1153 27.3768 70.2686C28.3245 74.8451 28.2632 78.3652 27.8796 81.2411C27.6938 82.6367 27.4322 83.8807 27.1723 85.0196C26.4392 88.2367 25.7248 90.6196 26.7858 93.2217Z" fill="white"/>
<path d="M27.8778 81.241C27.6919 82.6366 27.4301 83.8805 27.1704 85.0195C33.7222 86.2351 38.7371 84.5327 41.1896 83.3774C41.4905 80.416 41.4534 77.2835 41.3384 74.8658C41.2209 72.373 41.0189 70.6412 41.0189 70.6412L26.423 62.2873C26.4329 65.4286 26.9304 68.1151 27.3748 70.2685C28.3226 74.845 28.2612 78.3652 27.8778 81.241Z" fill="#4A83FF"/>
<path d="M34.9184 98.0059C37.8751 98.0062 40.6595 97.1458 41.8485 96.0286C42.543 95.3765 42.8597 94.6186 42.7892 93.7773C42.6483 92.0926 40.9548 90.6369 40.1273 90.0213C43.0593 83.9591 41.6086 71.13 41.544 70.5725C41.5079 70.2655 41.2429 70.0478 40.9535 70.0846C40.6629 70.1227 40.4561 70.4026 40.4922 70.7095C40.5077 70.8462 42.0414 84.405 38.9719 89.919C38.8251 90.1822 38.9052 90.521 39.1514 90.6809C39.8325 91.1241 41.6245 92.5623 41.7336 93.8768C41.773 94.3518 41.5801 94.7816 41.1447 95.1907C39.7305 96.5188 35.5282 97.3888 32.0191 96.5649C30.357 96.1742 28.1837 95.2388 27.2698 92.9984C26.3715 90.7975 26.8416 88.7781 27.4921 85.983C28.3599 82.258 29.439 77.6217 27.8926 70.1489C27.4099 67.8171 26.962 65.2503 26.9528 62.2839C26.9519 61.9751 26.7146 61.7254 26.4231 61.7254H26.4214C26.1287 61.7268 25.8921 61.9782 25.893 62.2878C25.9026 65.3594 26.3623 67.9963 26.8572 70.3884C28.351 77.6067 27.3042 82.1025 26.4633 85.715C25.7898 88.6093 25.2572 90.8953 26.2968 93.4422C27.1604 95.5595 29.0602 97.0179 31.7897 97.6588C32.8122 97.8991 33.8762 98.0059 34.9184 98.0059Z" fill="#371A45"/>
<path d="M30.8117 85.7988C34.03 85.7988 38.4196 85.4197 41.3938 83.6518C41.5855 83.538 41.6529 83.282 41.5459 83.0795C41.438 82.8773 41.1955 82.805 41.0047 82.9189C36.1296 85.8169 26.8348 84.7625 26.7414 84.7512C26.5249 84.726 26.3266 84.8917 26.3026 85.1225C26.2783 85.3533 26.4357 85.5609 26.6538 85.5868C26.8166 85.6059 28.5163 85.7988 30.8117 85.7988Z" fill="#371A45"/>
<path d="M29.8351 78.9423C24.5882 79.3316 20.6018 77.6111 19.2373 76.9692C15.7344 75.321 13.041 72.3299 11.7238 68.3819C9.68996 62.2857 11.1523 48.8073 16.6762 33.5047L34.6314 32.2963C42.8013 48.8073 44.6157 66.869 41.249 72.8092C40.9092 73.4082 40.5364 73.9867 40.0683 74.4973C38.1436 76.599 35.0995 77.8368 32.6357 78.4579L29.8351 78.9423Z" fill="white"/>
<path d="M10.9061 63.5252C11.0151 65.4455 11.2906 67.0815 11.7246 68.3827C13.0411 72.3296 15.7349 75.321 19.2379 76.9692C20.6018 77.6108 24.5882 79.3327 29.8346 78.942L32.6363 78.4583C35.0998 77.8378 38.1445 76.5997 40.0691 74.4977C40.5367 73.987 40.9085 73.4085 41.2482 72.8089C43.2913 69.2046 43.426 61.1351 41.3903 51.6561C40.963 49.6636 40.6569 47.6879 40.033 45.5996C39.7264 44.5686 39.1784 43.451 38.8218 42.4049C37.681 39.0486 36.2875 35.6412 34.6323 32.2962L16.6766 33.506C15.5841 36.5337 14.6495 39.4903 13.8708 42.3316L13.8698 42.3376C11.5509 50.7921 10.6021 58.2323 10.9061 63.5252Z" fill="#4A83FF"/>
<path d="M40.2884 47.8427C40.2649 48.047 40.2629 48.2446 40.2682 48.4395C40.271 48.6349 40.2867 48.8264 40.3053 49.0171C40.3377 49.3993 40.4112 49.7695 40.4812 50.1401C40.6166 50.8827 40.8017 51.6116 40.9735 52.3452C41.1478 53.0775 41.286 53.8188 41.4149 54.5614C41.5467 55.3036 41.6611 56.0483 41.7691 56.7939C42.183 59.7762 42.4182 62.7965 42.2792 65.7861C42.2056 67.2772 42.0411 68.7658 41.6813 70.1804C41.5002 70.8849 41.2735 71.5737 40.963 72.1978C40.8094 72.5001 40.6247 72.8233 40.4339 73.12C40.2427 73.4179 40.0394 73.7005 39.8174 73.9592C38.9051 74.9968 37.7248 75.8126 36.4741 76.4494C36.1604 76.6096 35.8415 76.7596 35.5169 76.8977C35.1939 77.0385 34.8568 77.1441 34.5225 77.2539C34.1886 77.3657 33.8591 77.4891 33.5349 77.6418C33.3736 77.7206 33.2128 77.8034 33.0563 77.9084C32.8995 78.0141 32.7426 78.1218 32.5939 78.2756L32.5878 78.2817C32.5082 78.3636 32.5066 78.4982 32.5842 78.5821C32.6101 78.6104 32.6424 78.6291 32.6759 78.639C33.0745 78.7522 33.4537 78.7433 33.8219 78.6877C34.1886 78.6271 34.5459 78.522 34.8919 78.3843C35.2379 78.2456 35.5755 78.0847 35.9179 77.9364C36.2598 77.7881 36.5998 77.6303 36.9341 77.4591C38.2696 76.7756 39.5498 75.908 40.6037 74.7111C40.8652 74.4059 41.0984 74.0806 41.3111 73.7488C41.5245 73.4154 41.7141 73.0875 41.9012 72.719C42.2614 71.9943 42.508 71.2355 42.7044 70.4724C43.0921 68.9436 43.2607 67.3896 43.3375 65.8433C43.481 62.7465 43.2384 59.6671 42.8172 56.6288C42.7073 55.8696 42.5908 55.112 42.457 54.3575C42.392 53.98 42.3228 53.6034 42.2501 53.2272L42.0431 52.0977C41.9097 51.3431 41.7606 50.5911 41.5487 49.8567C41.3438 49.1205 41.0851 48.398 40.6287 47.7414C40.5669 47.6525 40.4492 47.6332 40.3648 47.6986C40.3219 47.732 40.296 47.782 40.2896 47.8341L40.2884 47.8427Z" fill="#371A45"/>
<path d="M28.2823 79.5615C28.7999 79.5615 29.3295 79.5427 29.8715 79.5026C30.1633 79.4807 30.3835 79.2127 30.3627 78.9043C30.3425 78.5954 30.0917 78.3622 29.7973 78.3844C25.3359 78.7158 21.7088 77.5199 19.4524 76.4583C16.0304 74.8482 13.4635 71.9145 12.2232 68.1966C10.4413 62.8571 11.2518 50.2461 17.0501 34.0423L34.6652 32.8568C34.957 32.8371 35.1787 32.5708 35.16 32.2622C35.1413 31.953 34.8885 31.7186 34.5977 31.7383L16.642 32.9469C16.4349 32.9606 16.2547 33.1012 16.1805 33.306C10.9828 47.7054 8.99068 61.8769 11.2237 68.5696C12.5617 72.5806 15.3311 75.7458 19.022 77.4823C21.1138 78.4669 24.3302 79.5615 28.2823 79.5615Z" fill="#371A45"/>
<path d="M28.2831 79.5596C28.8006 79.5596 29.33 79.5408 29.8718 79.5006C30.1635 79.4791 30.3836 79.2111 30.3629 78.9023C30.3427 78.5938 30.092 78.361 29.7973 78.3824C25.3357 78.7131 21.7092 77.5183 19.4533 76.457C16.0314 74.8473 13.4642 71.9135 12.2236 68.1957C10.2599 62.3087 11.7382 50.1162 15.9905 37.1342C16.0869 36.8417 15.9403 36.5223 15.6636 36.421C15.3865 36.3196 15.085 36.4746 14.9897 36.7672C10.6634 49.9743 9.18554 62.4572 11.2244 68.5686C12.5629 72.5796 15.3321 75.7449 19.0224 77.4808C21.1146 78.4653 24.3308 79.5596 28.2831 79.5596Z" fill="#371A45"/>
<path d="M32.2597 90.45C32.845 90.2475 33.4458 90.1022 34.0432 90.0157C34.6399 89.9226 35.2385 89.896 35.8246 89.9246C36.1187 89.9243 36.4084 89.9802 36.6965 90.0075C36.9821 90.0665 37.2691 90.1012 37.5474 90.1824C37.6862 90.2229 37.8299 90.242 37.9668 90.2894C38.1033 90.3364 38.2414 90.3791 38.3806 90.42C38.5205 90.4568 38.6544 90.5137 38.7902 90.5659C38.9263 90.617 39.064 90.6654 39.2046 90.7097L39.2548 90.7254C39.535 90.814 39.83 90.6453 39.9133 90.3494C39.9865 90.09 39.8733 89.8186 39.6561 89.6956C39.0719 89.3646 38.439 89.1065 37.7786 88.9913C37.4524 88.9122 37.1171 88.8999 36.7863 88.873C36.62 88.8665 36.4537 88.8757 36.2885 88.8788C36.1229 88.8784 35.9585 88.8962 35.7944 88.9146C35.1389 88.981 34.4966 89.1344 33.8886 89.3683C33.281 89.6045 32.7021 89.9049 32.185 90.3105C32.151 90.3372 32.1439 90.3876 32.1691 90.4234C32.1891 90.4517 32.2235 90.4622 32.2536 90.452L32.2597 90.45Z" fill="#371A45"/>
<path d="M34.9447 96.8857C37.5951 96.8857 40.115 96.1603 41.1474 95.1904C41.5829 94.7814 41.7756 94.3515 41.7362 93.8766C41.7268 93.7668 41.7063 93.656 41.6751 93.545C39.9453 94.4742 37.2482 95.2399 34.7217 95.2399C31.9262 95.2399 29.339 94.3024 28.5018 91.6117C27.8683 89.5741 28.6896 88.0257 29.4957 85.7765C29.0766 85.7636 28.6916 85.7451 28.3489 85.725C28.3193 85.9187 28.2874 86.1119 28.2496 86.3046C28.1094 87.0634 27.9442 87.8206 27.7117 88.5617C27.4804 89.3021 27.2152 90.0371 26.8609 90.7335C26.8375 90.7809 26.8134 90.828 26.7892 90.875C26.8326 91.5854 26.9798 92.2819 27.2722 92.9981C28.1861 95.2385 30.3596 96.1739 32.0218 96.5646C32.9685 96.7869 33.9652 96.8857 34.9447 96.8857Z" fill="#B9AFBE"/>
<path d="M29.7816 84.9346C29.9123 84.5272 30.0378 84.0959 30.1509 83.6357C30.5179 82.1423 31.6355 80.9832 33.0477 80.5976C35.8042 79.8453 39.1415 78.3391 40.8428 75.7589C40.8268 75.3171 40.8076 74.8921 40.7864 74.4909C40.7277 74.5658 40.6669 74.6393 40.6049 74.712C39.5509 75.9089 38.2709 76.7765 36.9351 77.46C36.6009 77.6311 36.2611 77.7889 35.919 77.9372C35.5768 78.0855 35.239 78.2464 34.8933 78.3852C34.5471 78.5229 34.1898 78.6279 33.8232 78.6886C33.6617 78.7131 33.4978 78.7285 33.3311 78.7285C33.1185 78.7285 32.9006 78.7032 32.6772 78.6398C32.6436 78.63 32.6112 78.6112 32.5853 78.5829C32.5573 78.5522 32.5397 78.5151 32.5321 78.4762L31.7914 78.604L30.3584 78.8522C30.3608 78.8689 30.3628 78.886 30.3636 78.9033C30.3844 79.2119 30.1641 79.4798 29.8727 79.5016C29.4506 79.5326 29.0361 79.551 28.6288 79.5575C28.7295 81.038 28.7087 82.5309 28.56 84.0158C28.5344 84.3056 28.4997 84.5947 28.4649 84.8841C28.8538 84.9049 29.2975 84.9233 29.7816 84.9346Z" fill="#435EBE"/>
<path d="M34.9373 97.4453C37.715 97.4453 40.3673 96.6725 41.4994 95.6099C42.3063 94.8521 42.3996 94.0349 42.1478 93.2717C41.9996 93.3637 41.8415 93.4551 41.6748 93.5448C41.7062 93.6559 41.7268 93.7667 41.7359 93.8765C41.7755 94.3513 41.5828 94.7812 41.1469 95.1903C40.1147 96.1602 37.5949 96.8856 34.9447 96.8856C33.9653 96.8856 32.9686 96.7867 32.0214 96.5644C30.3597 96.1738 28.1858 95.2383 27.272 92.9979C26.9798 92.2817 26.8325 91.5852 26.7891 90.8748C26.6509 91.1421 26.5035 91.4049 26.3454 91.6616C26.404 92.0223 26.4911 92.3833 26.6112 92.7474C26.6987 92.8254 26.785 92.9052 26.87 92.987C27.298 93.4029 27.7079 93.8553 28.0401 94.4089C28.2052 94.6857 28.3517 94.9878 28.4524 95.3242C28.4727 95.3911 28.4904 95.4596 28.5065 95.5291C30.1892 96.9016 32.6074 97.4453 34.9373 97.4453ZM40.844 75.7583C40.9925 75.5333 41.1279 75.2998 41.2501 75.0581C41.2815 74.9967 41.3124 74.9323 41.3409 74.8652C41.3231 74.4902 41.3033 74.1329 41.2831 73.7961C41.1296 74.0327 40.9657 74.2658 40.7878 74.4905C40.8085 74.8917 40.8279 75.3165 40.844 75.7583Z" fill="#371A45"/>
<path d="M29.4941 85.7783C29.5906 85.5083 29.6875 85.2284 29.7812 84.936C29.2971 84.9247 28.8538 84.9063 28.4646 84.8855C28.4534 84.9782 28.4422 85.0713 28.431 85.1643C28.4029 85.3519 28.3761 85.5393 28.3473 85.7268C28.69 85.7469 29.0753 85.7654 29.4941 85.7783Z" fill="#371A45"/>
<path d="M30.3587 78.8516L31.792 78.6034L30.3587 78.8509C30.3587 78.8512 30.3587 78.8512 30.3587 78.8516Z" fill="#B9AFBE"/>
<path d="M30.3575 78.8516L31.7907 78.6041L32.5313 78.4762C32.5187 78.408 32.5377 78.3347 32.5882 78.2826L32.5943 78.2765C32.7429 78.1227 32.8999 78.015 33.0566 77.9093C33.2129 77.8043 33.374 77.7215 33.5355 77.6427C33.8594 77.49 34.1889 77.3666 34.5229 77.2548C34.8572 77.145 35.194 77.0393 35.5175 76.8985C35.8417 76.7605 36.1607 76.6105 36.4745 76.4502C37.7251 75.8134 38.9054 74.9977 39.8181 73.9599C40.0397 73.7011 40.2433 73.4188 40.4343 73.1207C40.6253 72.8239 40.8098 72.5011 40.9633 72.1987C41.2742 71.5747 41.5007 70.8859 41.6816 70.1812C41.8916 69.3566 42.035 68.5067 42.1327 67.6457C42.1529 66.9675 42.1557 66.2364 42.1416 65.454C42.0875 67.5543 41.7959 69.0738 41.2484 69.963C41.1256 70.162 40.9879 70.3529 40.8389 70.5378C38.3558 73.6247 32.3952 74.8375 29.8342 74.9929C29.3133 75.0246 28.8049 75.0389 28.3102 75.0389C28.2238 75.0389 28.1382 75.0382 28.0526 75.0375C27.967 75.0369 27.8822 75.0355 27.7978 75.0338C28.049 75.7252 28.2076 76.4332 28.3429 77.1481C28.4217 77.5752 28.4826 78.0055 28.5307 78.4373C28.9446 78.4326 29.367 78.4149 29.7971 78.3828C29.81 78.3821 29.8225 78.3814 29.8346 78.3814C30.0381 78.3814 30.2158 78.5021 30.3042 78.6824C30.3301 78.7343 30.3483 78.7912 30.3575 78.8516Z" fill="#435EBE"/>
<path d="M33.3303 78.7295C33.4971 78.7295 33.6609 78.7142 33.8221 78.6896C34.1891 78.6289 34.5463 78.5239 34.8923 78.3862C35.2383 78.2475 35.5756 78.0866 35.9182 77.9382C36.2605 77.79 36.6001 77.6321 36.9344 77.4608C38.27 76.7774 39.5501 75.91 40.6038 74.7131C40.666 74.6406 40.7268 74.5668 40.7856 74.4923C40.9637 74.2675 41.1275 74.0344 41.2812 73.7978C41.2609 73.4659 41.2399 73.1543 41.2186 72.8653C41.2279 72.8471 41.2388 72.8297 41.2482 72.8114C41.7718 71.7748 42.0612 70.0368 42.1328 67.6471C42.035 68.5077 41.8914 69.3577 41.6819 70.1823C41.5004 70.8867 41.274 71.5757 40.9633 72.1997C40.81 72.5018 40.6252 72.8253 40.4344 73.1218C40.2432 73.42 40.0397 73.7022 39.8181 73.9611C38.9054 74.9986 37.725 75.8144 36.4745 76.4511C36.1608 76.6117 35.8418 76.7615 35.5175 76.8995C35.194 77.0402 34.8574 77.1461 34.5227 77.2559C34.1891 77.3677 33.8592 77.491 33.5353 77.6436C33.3738 77.7225 33.213 77.8053 33.0566 77.9103C32.9 78.016 32.7429 78.1237 32.5941 78.2775L32.5881 78.2836C32.5379 78.3358 32.5187 78.4091 32.5315 78.4772C32.5386 78.5161 32.5566 78.5532 32.5843 78.5839C32.6102 78.6122 32.6428 78.631 32.6762 78.6408C32.8996 78.7043 33.1177 78.7295 33.3303 78.7295Z" fill="#371A45"/>
<path d="M17.0942 66.4521C17.0852 66.3176 17.0767 66.1825 17.0686 66.0465C16.8265 61.8271 17.7393 57.2191 17.8164 54.0051C17.7086 54.5499 17.5993 55.0896 17.5009 55.6299C17.3761 56.2956 17.2644 56.9614 17.1646 57.6267C17.0639 58.2915 16.9858 58.9578 16.8979 59.6201C16.852 59.9648 16.8099 60.3084 16.764 60.6531C16.8369 60.8121 16.8704 60.9942 16.8534 61.1828C16.8056 61.7125 16.774 62.2103 16.7541 62.674C16.747 62.8486 16.6964 63.0101 16.615 63.1487C16.5942 63.1842 16.571 63.2187 16.5455 63.2512C16.5237 64.5603 16.6117 65.4537 16.6505 65.7758C16.7513 65.9169 16.913 66.153 17.0942 66.4521ZM17.8093 53.5224C17.8112 53.5224 17.8126 53.5224 17.8145 53.5224C17.8117 53.5109 17.8084 53.5009 17.8041 53.4929L17.8093 53.5224Z" fill="#435EBE"/>
<path d="M28.6291 79.5586C29.0362 79.5521 29.4508 79.5337 29.8727 79.5027C30.1645 79.4808 30.3846 79.2129 30.3639 78.9044C30.3631 78.887 30.3611 78.87 30.3583 78.8533C30.3583 78.8529 30.3583 78.8529 30.3583 78.8526C30.3491 78.7922 30.3312 78.7353 30.3053 78.6835C30.3376 78.75 30.3583 78.8243 30.3635 78.9037C30.3842 79.2126 30.1641 79.4805 29.8723 79.502C29.4504 79.5333 29.0362 79.5518 28.6291 79.5583V79.5586Z" fill="#371A45"/>
<path d="M28.6287 79.5586C29.0356 79.5521 29.4501 79.5337 29.8717 79.5023C30.1636 79.4808 30.3837 79.2129 30.3629 78.9041C30.3581 78.8246 30.3373 78.7503 30.3046 78.6838C30.2163 78.5035 30.0387 78.3828 29.835 78.3828C29.823 78.3828 29.8102 78.3835 29.7975 78.3842C29.3674 78.4162 28.9449 78.434 28.5312 78.4387C28.5672 78.766 28.5959 79.0939 28.6191 79.4226C28.6223 79.4679 28.6255 79.5132 28.6287 79.5586Z" fill="#371A45"/>
<path d="M12.5621 95.3327C14.8765 101.002 24.7783 100.068 27.2755 97.7231C29.836 95.3174 25.2092 92.3158 25.2092 92.3158C26.8395 90.2993 27.6125 87.5258 27.9308 84.7852C28.5103 79.8044 27.5883 74.9349 27.5883 74.9349L12.2029 64.3981C12.2125 67.5412 12.7087 70.2278 13.1548 72.3823C14.2809 77.8258 13.9813 81.7758 13.4074 84.925C12.6061 89.3315 11.2708 92.1699 12.5621 95.3327Z" fill="white"/>
<path d="M13.1547 72.3815C14.2811 77.825 13.9814 81.775 13.4075 84.9242C22.2625 88.204 27.786 84.8714 27.9308 84.7844C28.5103 79.8036 27.5882 74.9342 27.5882 74.9342L21.7356 70.0996L12.2027 64.3973C12.2127 67.5404 12.7087 70.2271 13.1547 72.3815Z" fill="#4A83FF"/>
<path d="M26.1381 85.0635C26.5678 84.9217 26.9926 84.7573 27.4095 84.5681C27.4306 84.3561 27.4484 84.1437 27.4629 83.931C27.0199 84.0333 26.5769 84.1001 26.1381 84.1338V85.0635Z" fill="#435EBE"/>
<path d="M20.7588 99.0303C20.8218 99.0303 20.8854 99.0299 20.9484 99.0292C22.0084 99.0091 23.0699 98.8813 24.0967 98.6311C24.6086 98.5019 25.1115 98.3434 25.5881 98.1408C26.0628 97.9387 26.519 97.6888 26.8706 97.3807C27.232 97.0656 27.4644 96.6835 27.5085 96.2898C27.5175 96.2151 27.5185 96.1387 27.514 96.0607C26.167 96.6692 24.2536 97.0605 22.277 97.0605C19.3621 97.0605 16.3102 96.2103 14.7319 93.9509H12.6913C12.7717 94.3521 12.8884 94.7448 13.0408 95.1256C13.2434 95.6039 13.5041 96.0494 13.8233 96.4503C14.1485 96.8468 14.5338 97.1898 14.9513 97.4897C15.7959 98.0822 16.7829 98.4698 17.8037 98.7101C18.3141 98.8339 18.8374 98.9079 19.3621 98.9662C19.8259 99.0091 20.2921 99.0303 20.7588 99.0303Z" fill="#B9AFBE"/>
<path d="M16.0222 73.4971H16.1084C16.087 73.4262 16.0655 73.3515 16.0441 73.2738C16.0303 73.2946 16.016 73.3154 16.0017 73.3362C16.0089 73.39 16.0155 73.4435 16.0222 73.4971Z" fill="#435EBE"/>
<path d="M15.8817 73.4971H16.0215C16.0148 73.4436 16.0081 73.39 16.001 73.3362C15.9638 73.3897 15.9237 73.4436 15.8817 73.4971Z" fill="#3F4694"/>
<path d="M27.4148 75.0034C27.4058 76.5157 27.4773 78.0006 27.5252 79.4822C27.559 80.9637 27.5696 82.4435 27.4657 83.9125C27.4164 84.6471 27.3266 85.377 27.2022 86.0969C27.0792 86.8173 26.9164 87.5288 26.7022 88.2177C26.487 88.9049 26.2431 89.5833 25.9216 90.2137C25.6046 90.8457 25.2342 91.4423 24.8053 91.9839C24.6153 92.2229 24.6451 92.5795 24.8713 92.7799C24.8895 92.796 24.9076 92.8103 24.9268 92.8232L24.9308 92.8256C25.1329 92.9606 25.3557 93.1277 25.5598 93.2923C25.7669 93.4593 25.9675 93.6349 26.158 93.818C26.5369 94.1848 26.8902 94.5819 27.1452 95.0098C27.4007 95.4355 27.5549 95.89 27.5096 96.2882C27.4657 96.6819 27.2329 97.064 26.8721 97.379C26.5203 97.6871 26.0637 97.9371 25.5895 98.1392C25.1127 98.3417 24.6093 98.5002 24.0978 98.6294C23.0707 98.8796 22.0093 99.0075 20.9495 99.0276C20.4194 99.034 19.8897 99.0133 19.3636 98.9645C18.8384 98.9062 18.3153 98.8323 17.8048 98.7085C16.7843 98.4682 15.7965 98.0806 14.9524 97.4881C14.5346 97.1881 14.1491 96.8452 13.8245 96.4487C13.505 96.0478 13.2445 95.6023 13.0419 95.124C12.6462 94.137 12.4951 93.0718 12.5752 91.9785C12.6478 90.8852 12.8927 89.7749 13.1497 88.6544C13.4092 87.5325 13.6814 86.3963 13.8941 85.24C14.1098 84.0847 14.2725 82.9123 14.3617 81.7328C14.4514 80.5533 14.4691 79.3673 14.4187 78.1867C14.3693 77.0062 14.2539 75.8308 14.0901 74.6649C13.9203 73.5045 13.6784 72.338 13.4576 71.2229C13.2379 70.0969 13.1144 68.9603 12.9632 67.833C12.811 66.7026 12.6775 65.58 12.3792 64.4301L12.3786 64.4288C12.3519 64.3261 12.2511 64.2655 12.1539 64.2938C12.0889 64.3129 12.042 64.3671 12.0259 64.4315C11.7381 65.6018 11.7421 66.7976 11.8475 67.9714C11.9488 69.1485 12.2007 70.3001 12.4185 71.4468C12.6483 72.6018 12.8756 73.7023 13.0424 74.8347C13.2011 75.9638 13.312 77.0983 13.3604 78.2351C13.4622 80.5103 13.2782 82.7848 12.8544 85.0231C12.6483 86.1444 12.3817 87.2581 12.1201 88.3892C11.8621 89.5209 11.6 90.679 11.5179 91.9031C11.4745 92.513 11.4917 93.1409 11.5824 93.7604C11.6726 94.3798 11.8374 94.9896 12.0677 95.5647C12.3116 96.1467 12.6326 96.6945 13.0212 97.1803C13.4158 97.6616 13.8759 98.0707 14.3653 98.4208C15.353 99.1128 16.4592 99.5389 17.575 99.8028C18.1344 99.9378 18.6998 100.018 19.2653 100.081C19.8317 100.133 20.3992 100.155 20.9656 100.148C22.0986 100.127 23.2279 99.9913 24.3392 99.7206C24.894 99.5805 25.4449 99.408 25.9856 99.1786C26.5254 98.9454 27.0606 98.6666 27.556 98.2347C27.6195 98.1842 27.6769 98.1239 27.7338 98.0642C27.7913 98.0035 27.8503 97.9476 27.9047 97.8825C28.011 97.7478 28.1189 97.6163 28.2071 97.4581C28.3895 97.1533 28.5231 96.7906 28.5629 96.4122C28.6052 96.0338 28.5518 95.6588 28.452 95.3244C28.3512 94.9879 28.2046 94.6859 28.0398 94.4091C27.7071 93.8555 27.2974 93.4031 26.8696 92.9872C26.6544 92.7806 26.4316 92.5863 26.2028 92.4015C25.9705 92.2154 25.7467 92.045 25.4847 91.8704L25.6107 92.7125C26.0975 92.0995 26.5112 91.4313 26.8605 90.7335C27.2143 90.0371 27.4794 89.3021 27.7107 88.5617C27.9435 87.8206 28.1088 87.0634 28.2489 86.3045C28.323 85.9255 28.3749 85.5437 28.4318 85.1626C28.4767 84.7804 28.5271 84.3983 28.5603 84.0154C28.7136 82.4848 28.7312 80.9456 28.6198 79.4208C28.5669 78.6582 28.4827 77.8983 28.3441 77.1477C28.2025 76.397 28.0342 75.6546 27.7611 74.9302C27.7243 74.8327 27.6195 74.7853 27.5272 74.8241C27.4577 74.8538 27.4148 74.9243 27.4143 74.9993L27.4148 75.0034Z" fill="#371A45"/>
<path d="M20.7503 86.7129C23.1095 86.7129 25.7197 86.3389 28.1017 85.1628C28.3007 85.0647 28.3868 84.8148 28.2933 84.6044C28.2007 84.3941 27.9641 84.3031 27.7652 84.4012C21.6362 87.4267 13.5948 84.7943 13.5141 84.7674C13.3043 84.6972 13.0816 84.8202 13.0153 85.0411C12.949 85.2623 13.0648 85.4986 13.2741 85.5688C13.4884 85.6404 16.7583 86.7129 20.7503 86.7129Z" fill="#371A45"/>
<path d="M17.2241 93.4238C17.3252 93.4238 17.4272 93.3935 17.5174 93.3297C17.6525 93.2356 20.7991 91.0907 25.0099 92.8692C25.2815 92.9837 25.5899 92.8439 25.6986 92.5565C25.8068 92.2692 25.6745 91.943 25.4029 91.8281C20.654 89.8229 17.0791 92.2917 16.9293 92.3977C16.6861 92.5698 16.6209 92.9179 16.7838 93.1753C16.8859 93.3366 17.0536 93.4238 17.2241 93.4238Z" fill="#371A45"/>
<path d="M8.36773 74.2023C8.36293 74.1969 8.36666 74.1553 8.36879 74.1287L8.37839 74.0359C8.38638 73.9726 8.39704 73.9081 8.40824 73.8434C8.43382 73.7142 8.4674 73.5856 8.50471 73.4581C8.5804 73.2028 8.68914 72.9601 8.81547 72.7293C9.07238 72.2725 9.43591 71.8845 9.88578 71.6405C9.99718 71.5781 10.1123 71.5293 10.2456 71.4748C10.3746 71.4192 10.5057 71.3722 10.6373 71.3251C10.8996 71.229 11.1672 71.1489 11.4369 71.081C11.7061 71.0108 11.979 70.9593 12.2519 70.9188C12.521 70.8823 12.8089 70.8584 13.0578 70.8629H13.0685H13.0834C13.3318 70.8612 13.6191 70.8877 13.8877 70.9266C14.1606 70.9699 14.4325 71.0241 14.7011 71.0967C14.9697 71.1669 15.2357 71.2495 15.4969 71.3476C15.628 71.396 15.7586 71.4445 15.8866 71.501C16.0203 71.5569 16.1328 71.606 16.2426 71.6694C16.6872 71.9142 17.0368 72.3065 17.29 72.7569C17.4121 72.9863 17.5171 73.2277 17.5896 73.4809C17.6258 73.6074 17.6573 73.7353 17.6807 73.8628C17.6914 73.9269 17.7015 73.9906 17.7084 74.0533L17.717 74.1447C17.718 74.1703 17.7212 74.2122 17.7164 74.2149C17.0965 74.5378 16.8412 75.331 17.1466 75.9866C17.452 76.6425 18.202 76.9121 18.8219 76.589C19.3805 76.2978 19.6428 75.6246 19.4658 75.0147L19.1428 73.9009C19.1225 73.8301 19.1076 73.7987 19.09 73.7516L19.0399 73.6259C19.0058 73.5437 18.9696 73.4649 18.9322 73.3872C18.8592 73.2311 18.7819 73.0797 18.6972 72.9331C18.5282 72.6403 18.3433 72.3587 18.1263 72.103C17.7042 71.5859 17.1642 71.1594 16.5619 70.9181C16.4126 70.854 16.2549 70.8063 16.1179 70.7678C15.9766 70.7265 15.8348 70.6856 15.692 70.6491C15.4068 70.5751 15.1206 70.5073 14.8312 70.4528C14.5423 70.3986 14.2523 70.3481 13.9586 70.3177C13.6617 70.2864 13.3792 70.2605 13.0578 70.2704H13.0834C12.7614 70.2629 12.4795 70.2915 12.1831 70.3256C11.8899 70.3587 11.601 70.4115 11.3127 70.4684C11.0243 70.525 10.7391 70.5956 10.455 70.6716C10.3127 70.7095 10.172 70.7514 10.0308 70.794C9.89431 70.8339 9.73866 70.8823 9.59155 70.9467C8.99403 71.1891 8.46794 71.6197 8.04951 72.1307C7.8363 72.3853 7.65561 72.6652 7.48984 72.956C7.40722 73.1019 7.33099 73.2519 7.2601 73.4067C7.22386 73.484 7.18815 73.5621 7.1551 73.6432L7.10606 73.7677C7.089 73.8137 7.07515 73.8454 7.05542 73.9135L6.87686 74.5306C6.73721 75.0157 6.99519 75.5291 7.45412 75.677C7.91252 75.825 8.39811 75.5519 8.53776 75.0668C8.62731 74.7577 8.55055 74.4324 8.36773 74.2023Z" fill="#371A45"/>
<path d="M3.0392 93.3896H23.099C24.4845 93.3896 25.6084 92.2013 25.6084 90.7357V76.7128C25.6084 75.247 24.4845 74.059 23.099 74.059H3.0392C1.65315 74.059 0.529797 75.247 0.529797 76.7128V90.7357C0.529797 92.2013 1.65315 93.3896 3.0392 93.3896Z" fill="#A34F31"/>
<path d="M23.3697 74.6182C24.3122 74.6182 25.079 75.4299 25.079 76.4277V91.0206C25.079 92.0174 24.3122 92.8283 23.3697 92.8283H2.7701C1.82702 92.8283 1.06026 92.0174 1.06026 91.0206V76.4277C1.06026 75.4299 1.82702 74.6182 2.7701 74.6182H23.3697ZM2.7701 93.9492H23.3697C24.8963 93.9492 26.1387 92.6354 26.1387 91.0206V76.4277C26.1387 74.8122 24.8963 73.4977 23.3697 73.4977H2.7701C1.2429 73.4977 0.000581741 74.8122 0.000581741 76.4277V91.0206C0.000581741 92.6354 1.2429 93.9492 2.7701 93.9492Z" fill="#371A45"/>
<path d="M2.76865 92.8291H19.4185C19.3748 92.72 19.3504 92.6 19.3504 92.4742V83.6852H2.76865C2.12358 83.6852 1.53018 83.4509 1.05886 83.0589V84.4518C1.40241 84.8807 1.88736 85.1783 2.43817 85.2646V85.647C2.43817 85.9706 2.61704 86.2508 2.87598 86.3824V90.4213C2.11733 90.4043 1.45125 89.9884 1.05886 89.3639V91.0213C1.05886 92.0181 1.82546 92.8291 2.76865 92.8291ZM17.5469 85.2904V85.647C17.5469 85.9706 17.7258 86.2508 17.9853 86.3824V90.4227H5.06787V85.2904H17.5469ZM21.4742 92.8291H23.3679C24.3106 92.8291 25.0771 92.0181 25.0771 91.0213V89.7617C24.6745 90.1711 24.1277 90.4227 23.5252 90.4227H21.5417V92.4742C21.5417 92.6 21.5179 92.72 21.4742 92.8291Z" fill="#7D3D38"/>
<path d="M2.92979 93.3896H23.5293C24.7663 93.3896 25.7686 92.3281 25.7686 91.0214V88.0535C25.7686 88.7244 25.5053 89.3298 25.0815 89.7608V91.0204C25.0815 92.0171 24.3145 92.8282 23.3722 92.8282H21.4785C21.3465 93.1568 21.0382 93.3886 20.6806 93.3886H20.2198C19.8628 93.3886 19.5544 93.1568 19.4225 92.8282H2.77274C1.82986 92.8282 1.06288 92.0171 1.06288 91.0204V89.3629C0.827585 88.988 0.690521 88.5379 0.690521 88.0535V91.0214C0.690521 92.3281 1.69279 93.3896 2.92979 93.3896ZM1.06288 84.4509V83.058C0.862423 82.8909 0.684238 82.6953 0.53347 82.4767V82.9213C0.53347 83.5045 0.732784 84.0384 1.06288 84.4509Z" fill="#371A45"/>
<path d="M21.5419 85.292H23.3681C24.053 85.292 24.6668 84.9668 25.0771 84.4541V83.0605C24.6062 83.4525 24.0124 83.6867 23.3681 83.6867H21.5419V85.292Z" fill="#923E3A"/>
<path d="M25.0786 84.4531C25.4091 84.0403 25.6084 83.5061 25.6084 82.9228V82.4783C25.4579 82.6968 25.2796 82.8925 25.0786 83.0595V84.4531Z" fill="#471948"/>
<path d="M0.530363 76.4288V80.7568C0.530363 82.0651 1.53264 83.125 2.77021 83.125H23.3691C24.6067 83.125 25.6084 82.0651 25.6084 80.7568V76.4288C25.6084 75.1203 24.6067 74.0591 23.3691 74.0591H2.77021C1.53264 74.0591 0.530363 75.1203 0.530363 76.4288Z" fill="#A34F31"/>
<path d="M9.53286 78.043C11.1387 78.043 12.4402 77.1607 12.4402 76.0732C12.4402 76.063 12.4402 76.0531 12.4385 76.0429H17.9853V74.8112C17.9853 74.7441 17.9932 74.679 18.0074 74.6166H14.2835C13.836 74.772 13.3028 74.8671 12.6697 74.8706C12.6237 74.8709 12.5782 74.8709 12.5322 74.8709C11.6174 74.8709 10.6958 74.8211 9.82758 74.6166H2.76865C1.82546 74.6166 1.05886 75.4282 1.05886 76.4261V76.8822C1.46942 76.3688 2.08269 76.0429 2.76865 76.0429H6.62605C6.62435 76.0531 6.62434 76.063 6.62434 76.0732C6.62434 77.1607 7.92699 78.043 9.53286 78.043ZM25.0771 76.8819V76.4261C25.0771 75.4282 24.3106 74.6166 23.3679 74.6166H21.4963C21.5258 74.7086 21.5417 74.8068 21.5417 74.9091V76.0429H23.3679C24.0533 76.0429 24.6666 76.3688 25.0771 76.8819Z" fill="#BF846F"/>
<path d="M23.3697 74.6193C24.3122 74.6193 25.079 75.431 25.079 76.4289V80.7569C25.079 81.7537 24.3122 82.565 23.3697 82.565H2.7701C1.82702 82.565 1.06026 81.7537 1.06026 80.7569V76.4289C1.06026 75.431 1.82702 74.6193 2.7701 74.6193H23.3697ZM2.7701 83.6855H23.3697C24.8963 83.6855 26.1387 82.3717 26.1387 80.7569V76.4289C26.1387 74.8133 24.8963 73.4988 23.3697 73.4988H2.7701C1.2429 73.4988 0.000581741 74.8133 0.000581741 76.4289V80.7569C0.000581741 82.3717 1.2429 83.6855 2.7701 83.6855Z" fill="#371A45"/>
<path d="M20.2176 93.3896H20.6782C21.1544 93.3896 21.5439 92.9778 21.5439 92.4743V74.9115C21.5439 74.408 21.1544 73.9962 20.6782 73.9962H20.2176C19.7419 73.9962 19.3524 74.408 19.3524 74.9115V92.4743C19.3524 92.9778 19.7419 93.3896 20.2176 93.3896Z" fill="#BF943D"/>
<path d="M17.9865 76.2227H19.3516V76.0437H17.9865V76.2227Z" fill="#7D3D38"/>
<path d="M17.9869 76.0449H19.352V74.9111C19.352 74.8088 19.3678 74.7107 19.3975 74.6186H18.0092C17.9948 74.681 17.9869 74.7461 17.9869 74.8132V76.0449Z" fill="#905F60"/>
<path d="M18.0097 74.6191H19.3981C19.4677 74.4024 19.6129 74.221 19.7998 74.1112C19.6843 74.0382 19.5493 73.9963 19.406 73.9963H18.7589C18.3975 73.9963 18.0928 74.2629 18.0097 74.6191Z" fill="#371A45"/>
<path d="M19.3512 76.2227H20.1777V74.812C20.1777 74.5144 20.0251 74.2523 19.7982 74.1095C19.6114 74.2192 19.4665 74.4006 19.3968 74.6174C19.3672 74.7094 19.3512 74.8076 19.3512 74.9099V76.0437V76.2227Z" fill="#906940"/>
<path d="M20.1782 86.4414C20.5183 86.3562 20.7725 86.0313 20.7725 85.6471V81.9835C20.7725 81.5993 20.5183 81.2744 20.1782 81.1892V86.4414Z" fill="#A66F42"/>
<path d="M20.2176 93.3896H20.6787C21.1544 93.3896 21.5439 92.9778 21.5439 92.4743V74.9115C21.5439 74.408 21.1544 73.9962 20.6787 73.9962H20.2176C19.7419 73.9962 19.3524 74.408 19.3524 74.9115V92.4743C19.3524 92.9778 19.7419 93.3896 20.2176 93.3896Z" fill="#EC1C24"/>
<path d="M5.11213 93.3896H5.57326C6.04918 93.3896 6.43848 92.9779 6.43848 92.4744V74.9116C6.43848 74.408 6.04918 73.9963 5.57326 73.9963H5.11213C4.63621 73.9963 4.24691 74.408 4.24691 74.9116V92.4744C4.24691 92.9779 4.63621 93.3896 5.11213 93.3896Z" fill="#EC1C24"/>
<path d="M20.6792 74.5558C20.8609 74.5558 21.0147 74.7185 21.0147 74.9108V92.4734C21.0147 92.6661 20.8609 92.8284 20.6792 92.8284H20.2181C20.0363 92.8284 19.8831 92.6661 19.8831 92.4734V74.9108C19.8831 74.7185 20.0363 74.5558 20.2181 74.5558H20.6792ZM20.2181 93.9492H20.6792C21.4483 93.9492 22.0742 93.2872 22.0742 92.4734V74.9108C22.0742 74.097 21.4483 73.4353 20.6792 73.4353H20.2181C19.449 73.4353 18.8231 74.097 18.8231 74.9108V92.4734C18.8231 93.2872 19.449 93.9492 20.2181 93.9492Z" fill="#371A45"/>
<path d="M5.57332 74.5558C5.75533 74.5558 5.90867 74.7184 5.90867 74.9107V92.4734C5.90867 92.6661 5.75533 92.8283 5.57332 92.8283H5.11222C4.93021 92.8283 4.77688 92.6661 4.77688 92.4734V74.9107C4.77688 74.7184 4.93021 74.5558 5.11222 74.5558H5.57332ZM5.11222 93.9492H5.57332C6.34274 93.9492 6.96875 93.2872 6.96875 92.4734V74.9107C6.96875 74.0969 6.34274 73.4353 5.57332 73.4353H5.11222C4.3428 73.4353 3.71679 74.0969 3.71679 74.9107V92.4734C3.71679 93.2872 4.3428 93.9492 5.11222 93.9492Z" fill="#371A45"/>
<path d="M4.59532 86.4385H6.08982C6.56574 86.4385 6.95508 86.0267 6.95508 85.5236V82.0556C6.95508 81.5524 6.56574 81.1406 6.08982 81.1406H4.59532C4.1194 81.1406 3.73006 81.5524 3.73006 82.0556V85.5236C3.73006 86.0267 4.1194 86.4385 4.59532 86.4385Z" fill="#FFCE00"/>
<path d="M6.08925 81.7008C6.27064 81.7008 6.42485 81.8634 6.42485 82.0557V85.5236C6.42485 85.7159 6.27064 85.8785 6.08925 85.8785H4.59482C4.41287 85.8785 4.25977 85.7159 4.25977 85.5236V82.0557C4.25977 81.8634 4.41287 81.7008 4.59482 81.7008H6.08925ZM4.59482 86.999H6.08925C6.85865 86.999 7.48438 86.337 7.48438 85.5236V82.0557C7.48438 81.2419 6.85865 80.5803 6.08925 80.5803H4.59482C3.82542 80.5803 3.19969 81.2419 3.19969 82.0557V85.5236C3.19969 86.337 3.82542 86.999 4.59482 86.999Z" fill="#371A45"/>
<path d="M19.7773 86.4639H21.2714C21.7476 86.4639 22.1367 86.0521 22.1367 85.5486V82.081C22.1367 81.5774 21.7476 81.1656 21.2714 81.1656H19.7773C19.3015 81.1656 18.912 81.5774 18.912 82.081V85.5486C18.912 86.0521 19.3015 86.4639 19.7773 86.4639Z" fill="#FFCE00"/>
<path d="M21.2527 81.7008C21.4346 81.7008 21.5879 81.8634 21.5879 82.0557V85.5237C21.5879 85.7159 21.4346 85.8785 21.2527 85.8785H19.7581C19.5767 85.8785 19.4225 85.7159 19.4225 85.5237V82.0557C19.4225 81.8634 19.5767 81.7008 19.7581 81.7008H21.2527ZM19.7581 86.999H21.2527C22.0219 86.999 22.6475 86.337 22.6475 85.5237V82.0557C22.6475 81.2419 22.0219 80.5803 21.2527 80.5803H19.7581C18.989 80.5803 18.3629 81.2419 18.3629 82.0557V85.5237C18.3629 86.337 18.989 86.999 19.7581 86.999Z" fill="#371A45"/>
<path d="M5.66137 66.2359C5.77039 73.4524 8.81803 74.3326 12.6693 74.3132C15.8858 74.2951 16.1001 71.6899 16.1001 71.6899C16.1001 71.6899 17.2809 71.3729 17.6102 69.95C17.9086 68.6655 16.6457 66.7152 16.2577 66.1547C16.187 66.0542 16.1454 65.9986 16.1454 65.9986C16.1454 65.9986 16.0132 65.1481 16.0121 63.6802C16.0121 63.3949 16.0165 63.0853 16.0278 62.7546C16.1087 60.516 16.5049 57.2814 17.8223 53.5897L14.644 41.4316C9.00963 47.85 6.4925 53.9053 5.81195 62.457C5.78065 62.845 5.75204 63.2384 5.72938 63.6365C5.71804 63.8275 5.70779 64.0197 5.69808 64.2137C5.66246 64.9377 5.65004 65.611 5.66137 66.2359Z" fill="white"/>
<path d="M12.528 73.751C12.574 73.751 12.62 73.7506 12.666 73.7503C15.2904 73.7367 15.5509 71.8505 15.5717 71.6398C15.5905 71.4063 15.7504 71.2086 15.9644 71.1465C16.0002 71.136 16.8502 70.8772 17.0963 69.815C17.154 69.5634 17.1241 69.2501 17.0364 68.9106C16.9224 68.9686 16.8021 68.9903 16.686 68.9903C16.3158 68.9903 15.981 68.7684 15.981 68.7684C15.981 68.7684 15.8857 72.2937 12.6692 72.3117C12.6275 72.3117 12.5863 72.3121 12.5451 72.3121C9.84911 72.3121 7.5623 71.8382 6.42666 69.0002C6.68182 70.4439 7.13918 71.5232 7.80462 72.2613C8.96915 73.5522 10.7606 73.751 12.528 73.751Z" fill="#B9AFBE"/>
<path d="M5.7295 63.6361C9.46458 63.4019 14.0063 63.5791 16.0122 63.6797C16.0105 61.4608 16.3103 57.8277 17.8223 53.589L16.7918 47.9092L14.6442 41.4311C8.7539 48.1413 6.27086 54.4535 5.7295 63.6361Z" fill="#4A83FF"/>
<path d="M6.64525 59.6797C6.95206 59.6639 7.27168 59.6515 7.60143 59.643C8.34952 53.0022 10.3462 47.8629 14.2627 42.7249C14.2606 42.7226 14.2579 42.7204 14.2558 42.7181C9.88891 47.9425 7.57796 53.0219 6.64525 59.6797Z" fill="#C8DAFF"/>
<path d="M16.6262 61.6057C16.7349 60.9439 16.8116 60.2815 16.8987 59.6191C16.9873 58.9567 17.0649 58.2902 17.1659 57.6253C17.2655 56.9604 17.3771 56.2945 17.5025 55.6285C17.6237 54.9611 17.7616 54.2946 17.8937 53.6186C17.9028 53.575 17.876 53.532 17.8348 53.5228C17.8013 53.5152 17.7683 53.5325 17.752 53.5623C17.4302 54.166 17.152 54.7945 16.8977 55.4346C16.6478 56.0762 16.4251 56.7315 16.235 57.3984C16.0454 58.0654 15.8764 58.7415 15.7634 59.4297C15.6499 60.1169 15.5704 60.8122 15.5699 61.5126C15.5699 61.823 15.8079 62.0747 16.1014 62.0752C16.3643 62.0752 16.5822 61.8741 16.6258 61.6093L16.6262 61.6057Z" fill="#371A45"/>
<path d="M12.5351 74.8721C12.5808 74.8721 12.627 74.8721 12.6727 74.8718C15.5634 74.8568 16.3543 72.9266 16.5599 72.103C17.0229 71.8797 17.8394 71.3213 18.1266 70.0821C18.4911 68.5079 17.0631 66.3517 16.6519 65.7732C16.6035 65.3699 16.4778 64.0714 16.5866 62.1818C16.6045 61.8729 16.3821 61.6074 16.0899 61.5883C15.7957 61.5699 15.5465 61.8048 15.5291 62.1137C15.3888 64.5402 15.614 66.0258 15.6232 66.0879C15.6379 66.1809 15.6749 66.2692 15.7298 66.3435C16.3701 67.205 17.3074 68.9094 17.0974 69.8155C16.8515 70.8778 16.0018 71.1366 15.9654 71.1471C15.7516 71.2092 15.5917 71.4068 15.5726 71.6404C15.5525 71.851 15.2919 73.7372 12.6672 73.7509C10.8553 73.7611 9.0003 73.5866 7.80573 72.2619C6.54642 70.8645 6.03019 68.2416 6.2282 64.2426C6.69602 54.7866 9.16512 48.4979 15.0341 41.8123C15.2332 41.5856 15.2207 41.2312 15.0063 41.0207C14.792 40.8101 14.4564 40.8234 14.2573 41.05C8.20066 47.9497 5.65213 54.4356 5.16962 64.1839C4.95258 68.5675 5.54659 71.3803 7.03926 73.0354C8.47808 74.6307 10.5229 74.8721 12.5351 74.8721Z" fill="#371A45"/>
<path d="M15.6848 68.6074L15.5713 71.625L15.5709 71.6356C15.5594 71.9462 15.7878 72.2076 16.0814 72.2203C16.3754 72.2325 16.6225 71.9908 16.6345 71.6803C16.6354 71.6503 16.634 71.6172 16.6306 71.5882L16.2758 68.5764C16.2552 68.4045 16.1072 68.2825 15.9449 68.304C15.7983 68.3231 15.6906 68.4519 15.6848 68.6026V68.6074Z" fill="#371A45"/>
<path d="M58.0501 36.8232C58.6726 34.5781 56.5197 32.7412 56.5197 32.7412C56.5197 32.7412 58.4621 29.0486 56.9474 28.0475C56.1361 27.5114 53.8852 30.0387 53.3624 31.6949C52.8392 33.3505 52.8386 34.9428 52.8386 34.9428L58.0501 36.8232Z" fill="white"/>
<path d="M58.1343 36.85C58.1781 36.7595 58.2213 36.6668 58.261 36.5713C58.2807 36.5233 58.3026 36.4753 58.3203 36.4257C58.3344 36.376 58.3467 36.3252 58.3587 36.2739C58.3812 36.1718 58.4128 36.0675 58.427 35.9621L58.4527 35.6409C58.465 35.2105 58.3941 34.7723 58.2577 34.3651C58.1185 33.96 57.9229 33.5815 57.6927 33.2349C57.5763 33.0616 57.4526 32.8955 57.3201 32.736C57.256 32.6549 57.1837 32.5799 57.1135 32.5031C57.0384 32.4253 56.9736 32.358 56.8779 32.2714L57.0184 33.0351C57.3107 32.48 57.5331 31.9331 57.7172 31.3404C57.8948 30.7499 58.0418 30.1374 58.056 29.4509C58.0608 29.1099 58.0222 28.7357 57.8687 28.3583C57.8358 28.2639 57.7775 28.1728 57.7294 28.0823C57.6669 27.9979 57.6124 27.9057 57.5364 27.8323L57.4258 27.7198L57.305 27.6232C57.2495 27.5724 57.0712 27.4626 56.9397 27.4383C56.6532 27.3677 56.4266 27.4218 56.2425 27.4786C56.0575 27.541 55.8986 27.6193 55.7564 27.7054C55.4676 27.8759 55.2269 28.0729 54.9957 28.2777C54.5387 28.6905 54.1409 29.1457 53.7902 29.6446C53.6129 29.8924 53.4508 30.1534 53.3028 30.4277C53.1529 30.7019 53.0205 30.9905 52.9137 31.3056C52.888 31.3835 52.8609 31.4695 52.8406 31.5446L52.7823 31.7681C52.7445 31.9171 52.7155 32.0677 52.6862 32.2184C52.6336 32.5203 52.5988 32.8238 52.5824 33.1273C52.5576 33.7365 52.585 34.3447 52.7497 34.9434C52.7636 34.9947 52.8148 35.0245 52.8635 35.0091C52.8931 35.0002 52.9147 34.9771 52.9244 34.9484L52.9263 34.9434C53.1123 34.3767 53.2648 33.8237 53.4269 33.2851C53.5088 33.0158 53.5868 32.7493 53.6719 32.4871C53.7138 32.3558 53.7557 32.225 53.7999 32.0964L53.8656 31.9027C53.8882 31.8398 53.9088 31.7891 53.9323 31.7311C54.0303 31.5054 54.1535 31.2759 54.2856 31.0496C54.4201 30.8244 54.5686 30.6032 54.7221 30.3852C55.0341 29.9542 55.3751 29.537 55.7442 29.1783C55.9279 29.0017 56.1207 28.8345 56.3096 28.7136C56.4033 28.6502 56.4959 28.6049 56.5722 28.5757C56.6483 28.5453 56.7041 28.5481 56.6874 28.5453C56.6844 28.5426 56.6796 28.5393 56.6699 28.5365C56.669 28.537 56.6574 28.5238 56.6674 28.5321L56.6893 28.5497L56.735 28.5823C56.7469 28.5961 56.7596 28.6093 56.7728 28.622C56.8024 28.6436 56.8163 28.6816 56.8427 28.7076C56.8585 28.7462 56.8849 28.7727 56.8978 28.8163C56.9671 28.9736 56.9987 29.1921 56.99 29.431C56.9755 29.9122 56.834 30.4398 56.6545 30.9481C56.5629 31.2036 56.4624 31.458 56.354 31.7096C56.2499 31.9596 56.1287 32.219 56.0198 32.4474L56.004 32.4805C55.8815 32.7366 55.953 33.0429 56.1603 33.2117C56.2054 33.2487 56.2744 33.3122 56.3321 33.3673L56.5104 33.5467C56.63 33.667 56.7441 33.7945 56.8508 33.9275C57.0687 34.1912 57.2634 34.471 57.4355 34.7646C57.6047 35.061 57.7333 35.3749 57.8336 35.7105C57.9293 36.0487 57.9567 36.4058 57.9648 36.7971L57.9651 36.8086C57.9661 36.8611 58.007 36.9024 58.0566 36.9013C58.0905 36.9008 58.1198 36.8798 58.1343 36.85Z" fill="#371A45"/>
<path d="M6.18955 66.2939C7.59022 66.1467 9.30471 66.0689 11.0616 66.0689C12.6307 66.0689 14.2331 66.131 15.6777 66.2616C15.6504 66.2077 15.6316 66.149 15.6219 66.0884C15.6144 66.0407 15.4809 65.157 15.4819 63.6544C14.1494 63.593 12.1136 63.5204 9.95167 63.5204C8.90023 63.5204 7.81875 63.5374 6.77482 63.5818C6.59886 63.5967 6.4272 63.6131 6.26036 63.6302C6.24802 63.8334 6.23676 64.0369 6.22657 64.2431C6.19062 64.972 6.17828 65.6555 6.18955 66.2939Z" fill="#B9AFBE"/>
<path d="M15.4814 63.6523V63.652C14.1489 63.591 12.1131 63.518 9.95107 63.518C8.90041 63.518 7.81884 63.5354 6.77511 63.5794C6.77511 63.5794 6.77457 63.5797 6.77404 63.5797C7.81831 63.5354 8.89988 63.5183 9.95107 63.5183C12.1131 63.5183 14.1489 63.591 15.4814 63.6523Z" fill="#435EBE"/>
<path d="M15.4814 63.6523C15.4814 63.6305 15.4814 63.6087 15.4814 63.5865C14.0888 63.4676 12.5597 63.411 11.061 63.411C9.542 63.411 8.05501 63.4689 6.77526 63.5797C7.81898 63.5358 8.9 63.5184 9.95064 63.5184C12.1132 63.5184 14.1484 63.5913 15.4814 63.6523Z" fill="#9597BE"/>
<path d="M6.00797 66.3076C6.03981 66.3076 6.0722 66.3059 6.10458 66.3025C6.13318 66.2995 6.16179 66.2964 6.18985 66.2936C6.17852 65.6552 6.19093 64.9717 6.22709 64.2428C6.23734 64.0366 6.24813 63.833 6.26055 63.6299C6.2082 63.6353 6.15639 63.6408 6.10458 63.6462C6.0722 63.6496 6.03981 63.6513 6.00797 63.6513C5.91137 63.6513 5.81854 63.636 5.73111 63.6071C5.73057 63.6166 5.73003 63.6261 5.72949 63.6357C5.71816 63.8266 5.70791 64.0188 5.69819 64.2128C5.66257 64.9368 5.65016 65.6101 5.66149 66.235C5.76835 66.2827 5.88546 66.3076 6.00797 66.3076ZM15.8153 66.2701C15.9739 66.2701 16.1256 66.2286 16.2578 66.1539C16.1871 66.0533 16.1456 65.9977 16.1456 65.9977C16.1456 65.9977 16.0133 65.1472 16.0123 63.6793C16.0123 63.6507 16.0123 63.6217 16.0123 63.5924C15.9491 63.6067 15.8838 63.6138 15.8174 63.6138C15.7904 63.6138 15.7629 63.6128 15.7354 63.6101C15.6517 63.6026 15.567 63.5951 15.4823 63.5879C15.4823 63.6101 15.4823 63.6319 15.4823 63.6537V63.6541C15.4812 65.1568 15.615 66.0404 15.6226 66.0881C15.6318 66.1488 15.6512 66.2074 15.6782 66.2613C15.6971 66.263 15.7165 66.265 15.7354 66.2667C15.7624 66.2691 15.7888 66.2701 15.8153 66.2701Z" fill="#371A45"/>
<path d="M6.10271 63.6471C8.77509 63.3581 12.6296 63.3253 15.7335 63.6103C16.264 63.659 16.7287 63.235 16.7531 62.6725C16.7727 62.2092 16.8042 61.7111 16.852 61.1814C16.9004 60.6496 16.546 60.1706 16.0455 60.1001C12.9035 59.6588 8.89194 59.5237 6.13532 59.7122C5.68639 59.7433 5.32279 60.11 5.26898 60.5821C5.19398 61.2329 5.13039 61.8963 5.07658 62.5733C5.02767 63.193 5.51844 63.7102 6.10271 63.6471Z" fill="white"/>
<path d="M5.7294 63.6084C5.7294 63.6081 5.7294 63.6081 5.7294 63.6081C5.51953 63.5385 5.34111 63.392 5.22343 63.1996C5.34111 63.392 5.51953 63.5389 5.7294 63.6084ZM16.0103 63.5938C16.2224 63.5463 16.4105 63.423 16.5439 63.2505V63.2501C16.4105 63.423 16.2229 63.5461 16.0103 63.5934V63.5938Z" fill="#371A45"/>
<path d="M6.25991 63.6299C6.42712 63.6129 6.59862 63.5965 6.77441 63.5815C6.77227 63.5815 6.77066 63.5815 6.76852 63.5815C6.59487 63.5968 6.42551 63.6129 6.25991 63.6295V63.6299Z" fill="#8C7B94"/>
<path d="M15.4814 63.5898C15.4814 63.5895 15.4814 63.5892 15.4814 63.5892C14.0897 63.4702 12.5611 63.4136 11.0628 63.4136C9.54107 63.4136 8.05185 63.4722 6.76989 63.5834C6.77202 63.5834 6.77362 63.5834 6.77575 63.583C8.05557 63.4722 9.54267 63.4143 11.0612 63.4143C12.56 63.4143 14.0892 63.4709 15.4814 63.5898Z" fill="#746B94"/>
<path d="M6.00748 63.6514C6.03929 63.6514 6.0711 63.6497 6.10399 63.6463C6.15576 63.6408 6.20752 63.6354 6.25982 63.6299V63.6296C6.20752 63.6351 6.15576 63.6405 6.10399 63.6463C6.0711 63.6497 6.03875 63.6514 6.00694 63.6514C5.91096 63.6514 5.81822 63.6357 5.73033 63.6067C5.73033 63.6067 5.73033 63.6067 5.73033 63.6071C5.81822 63.636 5.91096 63.6514 6.00748 63.6514ZM15.8165 63.6139C15.8834 63.6139 15.9481 63.6067 16.0117 63.5924V63.5921C15.9486 63.606 15.8839 63.6132 15.8176 63.6132C15.7901 63.6132 15.7626 63.6122 15.7346 63.6095C15.651 63.602 15.5663 63.5945 15.4817 63.5873C15.4817 63.5873 15.4817 63.5876 15.4817 63.588C15.5663 63.5951 15.651 63.6027 15.7346 63.6101C15.7621 63.6129 15.7896 63.6139 15.8165 63.6139Z" fill="#371A45"/>
<path d="M5.13428 61.9121C5.16305 61.5978 5.19345 61.2863 5.22656 60.9777C5.19345 61.2863 5.16251 61.5978 5.13428 61.9121Z" fill="#B9AFBE"/>
<path d="M6.00723 59.7295C6.04915 59.7204 6.09215 59.7141 6.13569 59.7113C6.22921 59.7045 6.32327 59.6988 6.41895 59.6931C6.41895 59.6931 6.41895 59.6931 6.41895 59.6925C6.32381 59.6988 6.22867 59.705 6.13623 59.7107C6.09215 59.7136 6.04915 59.7204 6.00723 59.7295Z" fill="#371A45"/>
<path d="M6.00791 63.6514C6.03996 63.6514 6.07256 63.6497 6.10462 63.6462C6.15623 63.6404 6.20839 63.635 6.26109 63.6296C6.42625 63.6129 6.59577 63.5968 6.76963 63.5815H6.77071C8.05291 63.4704 9.54211 63.4118 11.0639 63.4118C12.5618 63.4118 14.0907 63.4683 15.4826 63.5873C15.5674 63.5945 15.6516 63.602 15.7358 63.6095C15.7635 63.6122 15.7912 63.6132 15.8184 63.6132C15.8847 63.6132 15.9499 63.606 16.0123 63.5921C16.2248 63.5447 16.4128 63.4216 16.5464 63.2488C16.5714 63.2164 16.5948 63.1823 16.6154 63.1465C16.6969 63.0081 16.7469 62.8465 16.754 62.6713C16.7643 62.4279 16.7784 62.1739 16.7969 61.9111C15.3832 61.7874 13.8239 61.7284 12.2978 61.7284C10.5049 61.7284 8.75704 61.8095 7.34064 61.9619C7.30804 61.9656 7.27599 61.9673 7.24393 61.9673C6.70225 61.9673 6.26815 61.4737 6.31379 60.8877C6.34639 60.4851 6.3817 60.0873 6.42028 59.6936C6.32411 59.6994 6.23012 59.7051 6.13722 59.7114C6.09321 59.7149 6.05029 59.7206 6.00845 59.7298C5.62053 59.8154 5.31954 60.1555 5.27118 60.5812C5.25597 60.7125 5.24076 60.8444 5.22664 60.977C5.1935 61.2855 5.16307 61.5971 5.13428 61.9114C5.11472 62.1303 5.09624 62.3505 5.0794 62.5721C5.06147 62.7937 5.11254 63.002 5.21197 63.1751C5.21631 63.183 5.2212 63.1905 5.22555 63.1984C5.34345 63.3906 5.52165 63.5372 5.73137 63.6067C5.81884 63.6357 5.91174 63.6514 6.00791 63.6514Z" fill="#B9AFBE"/>
<path d="M6.0506 63.0886C5.8866 63.106 5.77781 63.0215 5.72806 62.969C5.64005 62.8779 5.59522 62.7501 5.60561 62.6192C5.65864 61.9493 5.7226 61.2863 5.79585 60.6488C5.81936 60.4429 5.9768 60.2841 6.17086 60.2711C9.01354 60.0761 12.9545 60.2302 15.9764 60.655C16.1935 60.6853 16.3471 60.8929 16.3263 61.1274C16.2798 61.6374 16.246 62.1484 16.2246 62.6465C16.2197 62.7624 16.1716 62.8684 16.0885 62.9451C16.0032 63.0239 15.8944 63.0617 15.7807 63.0515C12.7462 62.7723 8.83587 62.7876 6.0506 63.0886ZM6.00796 64.2119C6.0577 64.2119 6.108 64.2092 6.15829 64.2037C8.88343 63.9092 12.7139 63.8945 15.6894 64.1679C16.0874 64.2044 16.487 64.066 16.7872 63.7881C17.0889 63.5083 17.2655 63.1207 17.2835 62.6969C17.3043 62.2176 17.3366 61.7251 17.3808 61.2338C17.4563 60.3965 16.9014 59.6541 16.1164 59.5436C13.0321 59.1105 9.00752 58.9532 6.10198 59.1527C5.39952 59.2007 4.82879 59.7734 4.74406 60.5142C4.66917 61.1653 4.60357 61.842 4.54945 62.5258C4.51282 62.9901 4.6719 63.4431 4.98514 63.7687C5.26066 64.0548 5.62693 64.2119 6.00796 64.2119Z" fill="#371A45"/>
<path d="M15.491 36.9515C18.9976 40.1625 33.7745 56.9775 33.7745 56.9775L38.0283 40.1714C37.0523 37.543 35.9219 34.9005 34.6331 32.2967L16.6771 33.5063C16.2584 34.6658 15.8633 35.8154 15.491 36.9515Z" fill="white"/>
<path d="M15.491 36.9515C18.9976 40.1625 33.7745 56.9775 33.7745 56.9775L38.0283 40.1714C37.0523 37.543 35.9219 34.9005 34.6331 32.2967L16.6771 33.5063C16.2584 34.6658 15.8633 35.8154 15.491 36.9515Z" fill="white"/>
<path d="M37.4706 40.2035L33.5093 55.8541C30.6603 52.621 19.568 40.077 16.1077 36.7797C16.4121 35.8608 16.7284 34.9424 17.0506 34.0413L34.3216 32.8781C35.4765 35.239 36.5351 37.7013 37.4706 40.2035ZM33.7735 57.5371C33.8162 57.5371 33.8589 57.5313 33.9016 57.5203C34.0883 57.4709 34.2352 57.3187 34.2854 57.1212L38.5396 40.3148C38.5689 40.1993 38.5624 40.077 38.5207 39.9651C37.5128 37.2523 36.3628 34.5842 35.1022 32.0358C35.0048 31.8394 34.8062 31.7234 34.5987 31.7365L16.643 32.9459C16.4359 32.96 16.2557 33.1002 16.1817 33.305C15.7721 34.4388 15.3709 35.604 14.9895 36.7671C14.919 36.9835 14.9796 37.224 15.1435 37.3742C18.5878 40.5285 33.2377 57.19 33.3857 57.358C33.487 57.4736 33.628 57.5371 33.7735 57.5371Z" fill="#371A45"/>
<path d="M37.4706 40.2035L33.5093 55.8541C31.4483 53.5168 24.9443 46.1625 20.2869 41.1303C18.3714 39.0608 16.9682 37.6 16.1077 36.7797C16.4121 35.8608 16.7284 34.9424 17.0506 34.0413L34.3216 32.8781C35.4765 35.239 36.5351 37.7013 37.4706 40.2035ZM33.7735 57.5371C33.8162 57.5371 33.8589 57.5313 33.9016 57.5203C34.0883 57.4709 34.2352 57.3187 34.2854 57.1212L38.5396 40.3148C38.5689 40.1993 38.5624 40.077 38.5207 39.9651C37.5128 37.2523 36.3628 34.5842 35.1022 32.0358C35.0048 31.8394 34.8062 31.7234 34.5987 31.7365L16.643 32.9459C16.4359 32.96 16.2557 33.1002 16.1817 33.305C15.7721 34.4388 15.3709 35.604 14.9895 36.7671C14.919 36.9835 14.9796 37.224 15.1435 37.3742C15.9424 38.1057 17.418 39.6332 19.5297 41.9143C25.0938 47.9259 33.3033 57.2641 33.3857 57.358C33.487 57.4736 33.628 57.5371 33.7735 57.5371Z" fill="#371A45"/>
<path d="M33.0035 43.2837L33.9939 44.6748C34.1803 44.9368 34.2174 45.285 34.0905 45.584L33.4018 47.2078C33.2702 47.5177 32.9849 47.7226 32.6643 47.7381L31.5622 47.7911C31.3045 47.8034 31.056 47.6916 30.8851 47.4871L29.7212 46.0887C29.464 45.7797 29.4381 45.3252 29.6582 44.9861L30.7401 43.3166C30.8985 43.0715 31.1608 42.9255 31.4413 42.9255H32.3243C32.5914 42.9255 32.843 43.0583 33.0035 43.2837Z" fill="#EC1C24"/>
<path d="M32.5807 43.6199L33.5708 45.0114C33.6412 45.1098 33.6551 45.2413 33.6073 45.3539L32.9186 46.9776C32.869 47.0949 32.7625 47.1716 32.6407 47.1772L31.5386 47.2305C31.4403 47.2351 31.3481 47.1933 31.2838 47.116L30.1194 45.7177C30.0225 45.6009 30.0125 45.4303 30.0955 45.302L31.1773 43.6323C31.2368 43.5399 31.3359 43.4847 31.4416 43.4847H32.3247C32.4247 43.4847 32.5207 43.5353 32.5807 43.6199ZM31.5229 48.3516C31.5442 48.3516 31.5655 48.3511 31.5868 48.3502L32.689 48.2973C33.2125 48.272 33.6712 47.9419 33.8855 47.436L34.5747 45.8129C34.7803 45.3273 34.7199 44.7617 34.4173 44.3368L33.4277 42.9458H33.4273C33.1681 42.5816 32.756 42.3641 32.3247 42.3641H31.4416C30.9864 42.3641 30.5607 42.6014 30.3033 42.9987L29.2216 44.6683C28.8642 45.2201 28.9064 45.9563 29.3242 46.4585L30.4881 47.8563C30.7516 48.1736 31.1259 48.3516 31.5229 48.3516Z" fill="#371A45"/>
<path d="M33.2728 78.8467C33.5183 78.8467 33.7388 78.665 33.7912 78.4005C36.0409 66.9693 34.3115 56.9725 34.2939 56.8729C34.2397 56.5689 33.9627 56.3685 33.6753 56.4258C33.3879 56.4832 33.1984 56.7761 33.2522 57.0805C33.2694 57.1777 34.9588 66.9673 32.7536 78.1721C32.6938 78.4751 32.8777 78.7717 33.164 78.8348C33.2006 78.8429 33.2369 78.8467 33.2728 78.8467Z" fill="#371A45"/>
<path d="M25.502 48.4844C24.5818 47.459 23.6413 46.4153 22.7157 45.3951C19.961 44.5487 17.3879 43.14 15.1473 41.2514C15.2068 41.439 15.1696 41.6547 15.0328 41.8105C14.969 41.8831 14.9062 41.9557 14.8428 42.0283L15.4262 43.7866C15.4262 43.7871 15.4267 43.7871 15.4272 43.7871C18.3661 46.2824 21.854 47.8797 25.502 48.4844Z" fill="#435EBE"/>
<path d="M14.2185 41.0947C14.2311 41.0798 14.2443 41.0654 14.2569 41.0504C14.3617 40.9314 14.5034 40.8717 14.6457 40.8717C14.6676 40.8717 14.6895 40.8727 14.7109 40.8758C14.5965 40.7738 14.4835 40.6718 14.3714 40.5672C14.3198 40.7439 14.2686 40.919 14.2185 41.0947Z" fill="#371A45"/>
<path d="M15.4268 43.79L14.8435 42.0317C14.6926 42.2062 14.5426 42.3808 14.3961 42.5548C14.3518 42.6125 14.3075 42.6696 14.2637 42.7273C14.6405 43.098 15.029 43.4528 15.4268 43.79Z" fill="#435EBE"/>
<path d="M14.265 42.7285C14.3089 42.6708 14.3532 42.6137 14.3975 42.556C14.3507 42.6111 14.3045 42.6662 14.2582 42.7213C14.2606 42.7239 14.2626 42.7259 14.265 42.7285Z" fill="#9597BE"/>
<path d="M14.2554 42.7178C14.3014 42.6624 14.3479 42.607 14.3943 42.5517C14.5411 42.3778 14.6908 42.2029 14.842 42.0286C14.9051 41.9561 14.9682 41.8832 15.0318 41.8107C15.1688 41.6555 15.206 41.4397 15.1463 41.2519C14.9996 41.1277 14.8533 41.0009 14.7094 40.8731C14.6879 40.8705 14.6659 40.869 14.6444 40.869C14.502 40.869 14.3601 40.929 14.2554 41.048C14.2427 41.063 14.23 41.0775 14.2167 41.0925C14.0983 41.5065 13.9824 41.9194 13.8703 42.3292L13.8718 42.3302C13.998 42.4611 14.1257 42.5905 14.2554 42.7178Z" fill="#371A45"/>
<path d="M39.977 45.417C40.0161 45.3916 40.0552 45.3658 40.0943 45.3399C40.4182 45.1238 40.7363 44.9025 41.0446 44.6746C41.6782 44.2057 42.2819 43.7067 42.8546 43.1795C43.6814 42.4165 44.4437 41.597 45.1377 40.7288C43.8422 41.3922 42.4601 41.9476 40.966 42.4057C40.7821 42.5354 40.5861 42.6697 40.3742 42.8112C40.3178 42.8483 40.2605 42.8854 40.2041 42.922C39.8877 43.126 39.5674 43.3214 39.2422 43.508C39.503 44.1493 39.7785 44.7972 39.977 45.417Z" fill="#435EBE"/>
<path d="M40.9683 42.4062C42.4624 41.9484 43.8444 41.393 45.1399 40.7298C45.4174 40.3821 45.684 40.0271 45.9395 39.6646C44.8786 40.2773 43.6949 40.8451 42.3489 41.3468C42.021 41.6192 41.6876 41.8808 41.3512 42.129C41.2286 42.22 41.1016 42.3119 40.9683 42.4062Z" fill="#371A45"/>
<path d="M36.8199 47.1074C36.9038 47.0716 36.9878 47.035 37.0717 46.9974C37.2335 46.9254 37.3941 46.8516 37.5542 46.7737C38.3232 46.4101 39.0776 45.9922 39.8161 45.5203C39.8705 45.4868 39.924 45.4529 39.9775 45.4184C39.7789 44.7985 39.5036 44.151 39.2428 43.5094C38.6742 43.8363 38.0928 44.1361 37.5037 44.406L36.8199 47.1074Z" fill="#435EBE"/>
<path d="M28.8236 48.7607C29.1487 48.7607 29.4742 48.7527 29.8001 48.737C30.2073 48.716 30.6153 48.6842 31.0246 48.6408C32.1441 48.5163 33.2606 48.2997 34.3641 47.9828C34.7789 47.8641 35.192 47.7316 35.6025 47.5857L36.2764 44.9245C35.7511 45.1268 35.2157 45.309 34.6748 45.4688C34.6549 45.5861 34.6218 45.7016 34.5749 45.8135L33.8858 47.4371C33.6712 47.9429 33.2128 48.2728 32.6888 48.2979L31.5871 48.3507C31.5655 48.3521 31.5443 48.3525 31.5232 48.3525C31.1262 48.3525 30.7516 48.1743 30.4883 47.8574L29.3243 46.459C29.2854 46.412 29.2494 46.3632 29.2168 46.3122C29.0856 46.3149 28.9544 46.3162 28.8236 46.3162C27.4027 46.3162 25.9984 46.1698 24.6287 45.8874C25.4778 46.8279 26.3268 47.7728 27.1488 48.6909C27.705 48.7375 28.2637 48.7607 28.8236 48.7607Z" fill="#B9AFBE"/>
<path d="M27.1488 48.6924C26.3271 47.7737 25.478 46.8287 24.6289 45.8884C24.628 45.8879 24.6267 45.8875 24.6263 45.8875C25.4745 46.8278 26.3232 47.7727 27.1466 48.6924C27.1471 48.6924 27.1484 48.6924 27.1488 48.6924ZM25.5032 48.4881C24.5823 47.4617 23.6423 46.4184 22.717 45.3984C22.7166 45.398 22.7162 45.398 22.7157 45.398C23.6414 46.4188 24.5819 47.4622 25.5023 48.4877C25.5028 48.4881 25.5028 48.4881 25.5032 48.4881Z" fill="#371A45"/>
<path d="M27.146 48.6924C26.323 47.7728 25.4739 46.8278 24.6256 45.888C23.981 45.7546 23.3442 45.5913 22.7165 45.3985C23.6417 46.4184 24.5817 47.4622 25.5026 48.4881C26.0472 48.5783 26.5953 48.6468 27.146 48.6924ZM35.6021 47.5869C36.011 47.4415 36.4173 47.2819 36.8201 47.1085L37.5039 44.4071C37.4287 44.4412 37.3538 44.4757 37.2781 44.5088C36.9493 44.656 36.6148 44.7954 36.2759 44.9256L35.6021 47.5869Z" fill="#371A45"/>
<path d="M31.5225 47.2334C31.5279 47.2334 31.5329 47.2334 31.5383 47.233L32.6402 47.1799C32.7618 47.1737 32.8684 47.0974 32.9182 46.9798L33.4189 45.7991C32.6489 45.975 31.8648 46.1075 31.077 46.1948C30.904 46.2133 30.7297 46.2295 30.5555 46.2444L31.2832 47.1184C31.3441 47.1917 31.43 47.2334 31.5225 47.2334Z" fill="#AD1B30"/>
<path d="M31.5241 48.3535C31.5453 48.3535 31.5666 48.3531 31.5878 48.3518L32.6902 48.2989C33.2137 48.2737 33.6722 47.9436 33.8868 47.438L34.5758 45.8146C34.6228 45.7026 34.6558 45.5871 34.6758 45.4699C34.6183 45.4866 34.5612 45.5034 34.5037 45.5197C34.1465 45.6224 33.7851 45.7154 33.4208 45.7987L32.9199 46.9796C32.8703 47.0968 32.7636 47.1735 32.6419 47.1793L31.5399 47.2322C31.5349 47.2326 31.5295 47.2326 31.5245 47.2326C31.432 47.2326 31.3457 47.1912 31.2848 47.118L30.5576 46.2439C30.3129 46.2642 30.0682 46.2805 29.8244 46.2928C29.6219 46.3025 29.4197 46.3096 29.218 46.3131C29.2505 46.3642 29.2864 46.4132 29.3255 46.4603L30.4896 47.8581C30.7526 48.1754 31.1273 48.3535 31.5241 48.3535Z" fill="#371A45"/>
<path d="M48.915 30.7752C47.7133 34.3324 45.6668 37.5865 42.8557 40.1749C42.2823 40.7023 41.6795 41.2018 41.0452 41.6704C40.7373 41.899 40.4192 42.1198 40.0949 42.3362C39.1144 42.9818 38.1042 43.5322 37.072 43.9908C36.183 44.3885 35.277 44.716 34.3635 44.9776C33.2604 45.2936 32.1432 45.5114 31.0237 45.6347C30.6153 45.6786 30.2069 45.7106 29.7989 45.7314C22.3287 46.0921 14.8991 42.291 10.6655 35.0992C4.4284 24.5063 7.49242 10.572 17.5071 3.97564C19.4361 2.70653 21.4845 1.79788 23.5762 1.24252C23.8201 1.17515 24.0674 1.11496 24.3147 1.05978C24.976 0.909294 25.6401 0.792488 26.3057 0.710079C27.8449 0.519463 29.3914 0.510143 30.9157 0.672813C32.4394 0.833332 33.9444 1.16727 35.3985 1.66674C35.8607 1.82512 36.3181 1.99925 36.771 2.19201C37.4492 2.4808 38.1145 2.804 38.7653 3.16803C42.0102 4.971 44.8587 7.68335 46.9358 11.2126C50.5244 17.3059 51.0337 24.5035 48.915 30.7752Z" fill="white"/>
<path d="M48.8639 30.7589C47.6416 34.3774 45.5516 37.6195 42.8198 40.1345C42.2409 40.6672 41.6333 41.1691 41.0138 41.6258C40.7304 41.8366 40.42 42.0538 40.0655 42.2904C39.1017 42.9249 38.0873 43.4806 37.0507 43.9409C36.1823 44.3287 35.2736 44.66 34.3489 44.9245C33.2671 45.2357 32.146 45.4558 31.0176 45.5813C30.6127 45.624 30.2014 45.6567 29.7955 45.6771C22.0936 46.0481 14.7796 41.985 10.7107 35.0714C4.49902 24.5228 7.56048 10.596 17.5346 4.0251C19.4273 2.78047 21.4645 1.86348 23.5884 1.29924C23.8209 1.23471 24.0616 1.17521 24.3246 1.11713C24.9815 0.968006 25.6499 0.850426 26.3111 0.767975C27.8319 0.580132 29.3791 0.567944 30.9096 0.73069C32.4261 0.890572 33.9305 1.22396 35.381 1.72224C35.8474 1.88212 36.308 2.05849 36.7503 2.24634C37.4391 2.53957 38.1086 2.86722 38.7397 3.22068C42.0717 5.07185 44.8899 7.84647 46.8899 11.2441C50.3493 17.1189 51.069 24.231 48.8639 30.7589ZM28.8221 45.8135C29.1477 45.8135 29.4735 45.8057 29.8007 45.7897C30.2085 45.7692 30.6214 45.7365 31.0285 45.6932C32.1628 45.5676 33.2894 45.3461 34.3769 45.0342C35.3062 44.7675 36.2197 44.4348 37.0919 44.0448C38.1337 43.5817 39.1533 43.0239 40.1222 42.3858C40.4784 42.1485 40.7901 41.9298 41.075 41.7183C41.6975 41.2595 42.3083 40.7547 42.8901 40.2191C45.6354 37.6919 47.7358 34.4333 48.9645 30.7969C51.1802 24.2368 50.4573 17.088 46.9802 11.1846C44.9704 7.76976 42.1381 4.9808 38.7894 3.1203C38.1553 2.76612 37.4826 2.43633 36.7903 2.14166C36.3454 1.95238 35.8825 1.7753 35.4139 1.6147C33.9562 1.11426 32.4442 0.779446 30.9202 0.618851C29.3817 0.454666 27.8268 0.467567 26.2989 0.656124C25.6343 0.738575 24.9625 0.856873 24.3029 1.00743C24.0378 1.06551 23.7958 1.12502 23.5619 1.18954C21.4279 1.75665 19.3806 2.67866 17.4783 3.92975C7.45405 10.5329 4.37768 24.5293 10.6199 35.1309C14.5369 41.7857 21.4448 45.8135 28.8221 45.8135Z" fill="#371A45"/>
<path d="M28.8155 45.1963C29.1338 45.1963 29.4528 45.1883 29.7723 45.1729C29.8201 45.1704 29.8678 45.168 29.9155 45.1649C26.5403 44.8811 23.3024 43.7934 20.5156 41.9486C17.9069 40.2226 15.7935 37.9401 14.2366 35.1965C13.6167 35.7961 12.9154 36.2073 12.1605 36.416C16.0822 41.9215 22.2553 45.1963 28.8155 45.1963ZM31.6989 44.1197C33.4258 44.1197 35.1754 43.9012 36.9042 43.458C37.9041 43.0117 38.8827 42.4743 39.811 41.863C40.1588 41.631 40.4624 41.4186 40.7407 41.2118C41.3305 40.7766 41.9094 40.2995 42.4619 39.7948C39.1322 41.8477 35.4225 42.9286 31.7303 42.9286C29.8078 42.9286 27.89 42.6356 26.0339 42.0336C21.5598 40.5833 18.0291 37.5351 15.8512 33.3702C15.7871 33.3086 15.7237 33.2471 15.6602 33.1843C15.4635 33.5924 15.2377 33.9741 14.9839 34.3268C16.471 37.0512 18.5239 39.3085 21.0779 40.9988C24.1842 43.0548 27.8848 44.1197 31.6989 44.1197ZM8.22937 19.7257C8.47324 19.6217 8.72352 19.5404 8.9802 19.4826C8.87951 18.6497 8.82305 17.815 8.81024 16.9816C8.56229 17.8821 8.36848 18.7987 8.22937 19.7257Z" fill="#B9AFBE"/>
<path d="M48.5292 30.6317C47.3272 34.1893 45.2726 37.3771 42.5869 39.85C42.0177 40.3737 41.4201 40.8664 40.8112 41.3159C40.5314 41.5238 40.2261 41.7381 39.8768 41.9705C38.9307 42.5934 37.9331 43.14 36.9139 43.5924C36.06 43.9744 35.1664 44.2995 34.2571 44.5606C33.1934 44.8656 32.0917 45.0828 30.9819 45.2051C30.5845 45.2475 30.1799 45.2799 29.7802 45.2993C22.2076 45.6647 15.0168 41.6691 11.0157 34.8719C4.9083 24.4999 7.91847 10.8062 17.725 4.34635C19.5865 3.12214 21.5894 2.22015 23.6773 1.66559C23.9072 1.60229 24.1418 1.54475 24.3996 1.48793C25.0477 1.33976 25.7047 1.22467 26.3545 1.14411C27.8491 0.959255 29.3702 0.946312 30.8756 1.10743C32.367 1.26423 33.8461 1.59222 35.2725 2.08205C35.7312 2.23886 36.1841 2.4122 36.6189 2.59706C37.2961 2.88549 37.954 3.20772 38.5742 3.55442C41.8511 5.37492 44.6218 8.10315 46.5881 11.4442C49.9897 17.22 50.6972 24.2136 48.5292 30.6317ZM28.8239 46.1914C29.1549 46.1914 29.4863 46.1836 29.8186 46.1675C30.2335 46.1468 30.6528 46.1137 31.0661 46.0693C32.221 45.9415 33.3662 45.7162 34.4721 45.3988C35.4169 45.1281 36.3456 44.79 37.233 44.393C38.2915 43.9233 39.3278 43.3558 40.3128 42.707C40.6762 42.4653 40.9923 42.2431 41.2821 42.028C41.9142 41.5619 42.535 41.0491 43.1262 40.5046C45.9179 37.9346 48.0537 34.6216 49.3028 30.9238C51.5556 24.2546 50.8204 16.987 47.2856 10.9853C45.242 7.51262 42.3623 4.67793 38.9575 2.78623C38.3131 2.42587 37.6291 2.09068 36.9254 1.79146C36.4729 1.5987 36.0023 1.41888 35.5259 1.2556C34.0441 0.74707 32.5069 0.406132 30.9574 0.242855C29.3941 0.0759811 27.813 0.0889282 26.259 0.280975C25.583 0.36441 24.9002 0.484528 24.2296 0.637737C23.9609 0.696716 23.7127 0.757858 23.4733 0.824032C21.3065 1.39946 19.2253 2.33668 17.2911 3.60909C7.09962 10.3221 3.97178 24.5531 10.3186 35.3308C14.3006 42.0963 21.3235 46.1914 28.8239 46.1914Z" fill="#371A45"/>
<path d="M48.4179 30.5883C47.2227 34.1252 45.1798 37.2949 42.5098 39.7532C41.9435 40.2738 41.3495 40.7649 40.7438 41.212C40.4656 41.4187 40.162 41.6311 39.8142 41.8629C38.8739 42.4822 37.8821 43.0251 36.8687 43.4751C36.0194 43.8553 35.131 44.1786 34.2272 44.4371C33.1696 44.741 32.074 44.9563 30.9706 45.0787C30.5758 45.1212 30.1732 45.1529 29.7757 45.1723C22.2427 45.5385 15.0958 41.5627 11.1177 34.8035C5.04524 24.4916 8.03823 10.8754 17.7893 4.45254C19.6398 3.23493 21.6313 2.33846 23.7071 1.7869C23.9359 1.72354 24.1694 1.66594 24.4247 1.60977C25.0702 1.46288 25.7233 1.34767 26.3693 1.26775C27.8556 1.08413 29.3679 1.07189 30.8646 1.23102C32.3477 1.38799 33.8184 1.71346 35.2367 2.20021C35.6928 2.35647 36.1431 2.52928 36.5753 2.71289C37.2487 2.99948 37.9031 3.31989 38.5197 3.6648C41.7779 5.47502 44.5328 8.18746 46.4881 11.5098C49.8701 17.2529 50.5734 24.2065 48.4179 30.5883ZM28.8252 46.3164C29.1578 46.3164 29.4908 46.3086 29.8251 46.2922C30.2421 46.271 30.6637 46.238 31.0792 46.1936C32.2406 46.0651 33.3923 45.8381 34.5044 45.519C35.454 45.2472 36.3881 44.9066 37.2803 44.5077C38.3443 44.0353 39.3865 43.4651 40.3767 42.8127C40.7422 42.5693 41.0603 42.3461 41.3517 42.1301C41.9868 41.6613 42.6107 41.1458 43.2055 40.5985C46.0124 38.0143 48.1598 34.6826 49.4159 30.9649C51.6809 24.2598 50.9418 16.9527 47.3875 10.9172C45.3329 7.42636 42.4373 4.57568 39.0139 2.67329C38.3662 2.3111 37.6784 1.97412 36.9708 1.67313C36.5157 1.47944 36.0425 1.29871 35.5635 1.13454C34.0737 0.622578 32.5281 0.280548 30.9703 0.116375C29.3982 -0.0513954 27.8085 -0.0384369 26.2461 0.154537C25.5663 0.238785 24.8796 0.35976 24.2048 0.51313C23.9352 0.572895 23.6854 0.634815 23.4443 0.701061C21.2663 1.27927 19.1734 2.22181 17.2289 3.50063C6.98156 10.2511 3.83674 24.5593 10.2183 35.3961C14.2223 42.1992 21.2833 46.3164 28.8252 46.3164Z" fill="#371A45"/>
<path d="M46.4264 35.9336C35.3919 47.0958 17.6137 43.3271 14.4212 27.6935C12.249 17.0573 20.4194 6.59635 30.212 5.04419C37.3394 3.91433 44.7651 6.10934 49.4467 17.3286C49.4467 17.3286 50.7941 22.6342 49.9357 26.453C49.0773 30.2718 47.6332 33.8325 47.6332 33.8325L46.4264 35.9336Z" fill="#371A45"/>
<path d="M14.4227 27.6935C17.6152 43.327 35.3938 47.0952 46.4279 35.9349L46.6719 35.5085C33.4368 40.3011 18.6155 33.8987 15.1095 18.1551C14.0667 21.1458 13.7532 24.4115 14.4227 27.6935Z" fill="#220F2D"/>
<path d="M36.9074 43.4579C31.3596 44.8805 25.5932 43.9851 21.0808 40.9987C16.771 38.1464 13.8882 33.6793 12.7444 28.0783C11.6971 22.9534 12.8041 17.5539 15.862 12.8753C19.2084 7.75256 24.5137 4.17017 30.0539 3.29249C33.1515 2.80149 36.0164 2.93631 38.5696 3.69266C41.8052 5.50266 44.5425 8.20452 46.4881 11.5095C49.8701 17.2531 50.5734 24.2071 48.418 30.5879C47.2228 34.1255 45.1798 37.295 42.5099 39.7535C41.9435 40.2743 41.3494 40.7653 40.7438 41.2123C40.4656 41.4187 40.162 41.6316 39.8142 41.8629C38.8859 42.4745 37.9072 43.0116 36.9074 43.4579ZM31.7048 45.2402C33.5286 45.2402 35.3759 45.0082 37.1997 44.5364C37.2268 44.5293 37.2532 44.5201 37.279 44.5087C38.3443 44.0355 39.3864 43.465 40.3766 42.813C40.7421 42.5696 41.0603 42.3468 41.3517 42.1304C41.9867 41.6614 42.6108 41.1456 43.2055 40.5992C46.0124 38.0144 48.1598 34.6832 49.4159 30.9653C51.6809 24.2596 50.9418 16.9522 47.3875 10.917C45.3329 7.42617 42.4373 4.5753 39.0138 2.67378C38.9813 2.65533 38.9474 2.64114 38.912 2.6305C36.1998 1.81597 33.1666 1.66555 29.8969 2.18421C24.0723 3.10659 18.4999 6.86565 14.9898 12.2382C11.7642 17.175 10.5989 22.8846 11.7079 28.3153C12.9141 34.2178 15.9613 38.9326 20.5186 41.9488C23.7946 44.1163 27.6924 45.2402 31.7048 45.2402Z" fill="#371A45"/>
<path d="M46.0116 35.5812C40.5555 41.0672 33.027 43.1295 26.3463 40.9634C20.4446 39.0497 16.2868 34.1708 14.9406 27.5774C14.0133 23.0343 14.9949 18.2472 17.7052 14.0988C20.6739 9.55568 25.3793 6.3788 30.2923 5.6C38.7952 4.252 45.0714 8.26096 48.9465 17.5154C49.0655 18.0054 50.2007 22.8611 49.4219 26.3254C48.6297 29.8507 47.3129 33.2 47.1621 33.5785L46.0116 35.5812ZM31.7325 42.9297C37.129 42.9297 42.5639 40.6199 46.7943 36.3411C46.8278 36.3068 46.8568 36.2682 46.881 36.2268L48.0878 34.1253C48.1007 34.1029 48.112 34.0797 48.1216 34.0552C48.1816 33.908 49.5941 30.4065 50.4531 26.5848C51.3321 22.6726 50.0167 17.4074 49.9603 17.1852C49.9532 17.1579 49.9442 17.1305 49.9332 17.1039C45.8427 7.3013 39.1826 3.05822 30.135 4.49174C24.9378 5.3154 19.9654 8.66893 16.8336 13.4623C13.955 17.868 12.9144 22.9649 13.9046 27.8136C15.3343 34.8151 19.7566 39.9989 26.0361 42.0345C27.8922 42.6367 29.81 42.9297 31.7325 42.9297Z" fill="#371A45"/>
<path d="M4.91592 28.2395C5.30346 32.6779 8.10617 36.1554 11.1765 36.0082C14.2462 35.8604 16.421 32.1424 16.0334 27.7046C15.6459 23.2662 12.8426 19.7881 9.77286 19.9359C6.70312 20.0837 4.52839 23.8011 4.91592 28.2395Z" fill="white"/>
<path d="M9.96277 20.4937C12.6847 20.4937 15.1516 23.7028 15.5056 27.7581C15.7156 30.1673 15.1209 32.4808 13.9139 33.9457C13.1445 34.8804 12.1896 35.4004 11.1521 35.4503C8.36765 35.5846 5.8051 32.3273 5.44374 28.1896C5.23318 25.781 5.82843 23.4675 7.03488 22.002C7.80484 21.0679 8.75917 20.5473 9.79717 20.498C9.85237 20.495 9.90814 20.4937 9.96277 20.4937ZM10.9911 36.5752C11.0605 36.5752 11.13 36.5734 11.2005 36.5698C12.5339 36.506 13.7483 35.853 14.7129 34.6824C16.1276 32.9653 16.8008 30.4038 16.5606 27.6552C16.1481 22.93 13.0955 19.216 9.7488 19.3785C8.41545 19.4423 7.20048 20.0953 6.23589 21.2659C4.82174 22.983 4.14795 25.5439 4.3881 28.2925C4.79214 32.919 7.72971 36.5752 10.9911 36.5752Z" fill="#371A45"/>
<path d="M4.82403 31.5137C6.12606 34.7001 8.93954 36.0771 11.1081 34.5885C13.2772 33.1005 13.9799 29.3113 12.6784 26.1249C11.377 22.9385 8.56293 21.5615 6.39436 23.0495C4.22523 24.5376 3.52256 28.3273 4.82403 31.5137Z" fill="white"/>
<path d="M8.26944 22.5057C8.61181 22.5057 8.96027 22.5613 9.30984 22.673C10.6976 23.1164 11.9067 24.3829 12.6268 26.1466C13.9167 29.303 13.2214 33.0673 11.0776 34.5385C10.2009 35.1398 9.20309 35.2867 8.19145 34.9626C6.80369 34.5186 5.59514 33.2527 4.87499 31.4891C3.58514 28.3326 4.27984 24.5689 6.4237 23.0977C6.99673 22.704 7.6223 22.5057 8.26944 22.5057ZM9.23296 35.248C9.90112 35.248 10.546 35.0427 11.1379 34.6368C13.3249 33.1363 14.0389 29.3066 12.7286 26.1004C11.9952 24.3045 10.7607 23.0147 9.34192 22.5613C8.2982 22.2267 7.26831 22.3788 6.36342 22.9989C4.17641 24.4999 3.4629 28.3291 4.77267 31.5359C5.50664 33.3311 6.74063 34.621 8.15936 35.0749C8.52055 35.1901 8.87952 35.248 9.23296 35.248Z" fill="#371A45"/>
<path d="M11.6161 34.248C12.4346 33.6027 13.0338 32.5167 13.2406 31.1062C13.2552 31.0067 13.2678 30.9073 13.2783 30.8072C13.0555 32.1964 12.4855 33.4297 11.6161 34.248Z" fill="#B9AFBE"/>
<path d="M9.71616 34.9219C10.0788 34.9219 10.4289 34.8586 10.7592 34.7368C10.8673 34.6782 10.9732 34.6126 11.0774 34.5412C12.5599 33.524 13.3495 31.4112 13.2699 29.1604C13.2068 28.5952 13.0856 28.0358 12.9122 27.4979C12.4425 29.5457 11.0878 30.7816 9.48627 30.7816C8.9749 30.7816 8.4383 30.6557 7.89731 30.39C6.45265 29.6809 5.30867 28.1373 4.73421 26.3489C4.69416 26.519 4.66179 26.6971 4.6349 26.8793C4.18664 29.9362 5.75035 33.3627 8.12775 34.5302C8.66819 34.7965 9.20479 34.9219 9.71616 34.9219Z" fill="#B9AFBE"/>
<path d="M10.7587 34.7354C11.0635 34.6223 11.352 34.4601 11.6169 34.2502C12.4862 33.4319 13.0565 32.1987 13.2789 30.8093C13.3357 30.2636 13.3301 29.7081 13.2692 29.1592C13.349 31.4096 12.5594 33.5228 11.0768 34.5396C10.9725 34.6115 10.8666 34.6764 10.7587 34.7354Z" fill="#371A45"/>
<path d="M8.22738 22.6636C10.2325 22.6636 12.0863 25.2701 12.3839 28.5419C12.5686 30.5707 12.1091 32.4701 11.1552 33.6237C10.6257 34.2642 9.98054 34.6172 9.28806 34.6442C9.25803 34.6454 9.22688 34.646 9.19685 34.646C7.19173 34.646 5.33789 32.0395 5.03977 28.7677C4.8551 26.7395 5.31453 24.8395 6.26843 23.6859C6.79793 23.0459 7.44369 22.693 8.13561 22.6654C8.16564 22.6642 8.19679 22.6636 8.22738 22.6636ZM9.20241 35.7666C9.24413 35.7666 9.28584 35.766 9.32811 35.7643C10.3193 35.7248 11.227 35.2401 11.9528 34.3613C13.0953 32.9801 13.6509 30.7642 13.439 28.4342C13.0836 24.533 10.6869 21.4354 8.09612 21.5454C7.10496 21.5848 6.19723 22.0701 5.47082 22.9477C4.32838 24.3295 3.77273 26.5454 3.98464 28.8754C4.3345 32.7131 6.65999 35.7666 9.20241 35.7666Z" fill="#371A45"/>
<path d="M45.6628 29.3867C47.6655 26.8211 48.6325 24.0923 48.2212 20.5494C48.18 20.1995 48.1249 19.8415 48.0575 19.4754C48.0423 19.3908 48.0255 19.3075 48.0072 19.2243L48.0056 19.2195C47.8199 18.488 47.5418 17.5371 47.143 16.4915C45.9424 13.3391 43.6554 9.32783 39.5363 7.89645C37.6815 7.25149 35.8971 7.00311 34.2632 7.00311C29.1108 7.00311 25.4466 9.4713 25.7397 9.77315C25.7397 9.77315 26.3873 9.71426 27.4521 9.71426C30.5041 9.71426 36.9873 10.1934 41.5061 13.8981C41.5125 13.9035 41.5189 13.9089 41.5254 13.9136C42.8073 14.9667 43.7966 16.3683 44.3996 17.9614C45.1968 20.0696 45.4543 21.6458 45.6303 23.0426C46.1641 27.2901 45.6628 29.3867 45.6628 29.3867Z" fill="#C3BAC7"/>
<path d="M19.8001 24.749C21.2387 24.749 22.5201 23.4213 22.7407 21.6262C22.9776 19.6985 21.9019 17.962 20.338 17.747C20.2305 17.7323 20.1236 17.725 20.0179 17.725C18.5794 17.725 17.298 19.0527 17.0773 20.8478C16.8404 22.7749 17.9156 24.512 19.4795 24.727C19.5875 24.7417 19.6944 24.749 19.8001 24.749Z" fill="#C3BAC7"/>
<path d="M19.9488 28.5557C20.1048 28.3627 20.2228 28.1182 20.2799 27.8413C20.4407 27.057 20.0551 26.3023 19.4188 26.1563C19.3463 26.1401 19.2738 26.1317 19.2014 26.1317C18.93 26.1317 18.6671 26.2458 18.4518 26.4427C18.9178 27.184 19.4182 27.8894 19.9488 28.5557Z" fill="#C3BAC7"/>
<path d="M19.0561 29.0234C19.3924 29.0234 19.7155 28.8478 19.9512 28.5574C19.4209 27.8911 18.9206 27.1853 18.4546 26.4444C18.2258 26.6535 18.0513 26.9556 17.9775 27.3136C17.8162 28.098 18.2021 28.8523 18.8384 28.9983C18.9106 29.0151 18.9838 29.0234 19.0561 29.0234Z" fill="#BCB7C0"/>
<path d="M33.8475 58.0068C33.9989 58.0068 34.1465 57.9377 34.2494 57.8119L38.8324 52.183C38.9523 52.0359 38.9913 51.833 38.9353 51.6471L38.3811 49.808L39.8022 48.9872C39.9724 48.8893 40.0781 48.7004 40.0781 48.4955V42.6851C40.0781 42.3754 39.8407 42.1248 39.5479 42.1248C39.2555 42.1248 39.0181 42.3754 39.0181 42.6851V48.1629L37.4898 49.0459C37.2665 49.1747 37.1617 49.4521 37.2388 49.7081L37.8358 51.6893L33.6806 56.7923L24.9242 53.6039L24.5782 50.7298C24.5523 50.5165 24.4137 50.3375 24.2209 50.2689L18.3325 48.1833L18.0665 42.5131C18.0519 42.2039 17.8004 41.9632 17.5113 41.9811C17.2189 41.9966 16.9937 42.2596 17.0083 42.5688L17.2922 48.6213C17.303 48.8515 17.4464 49.0514 17.6532 49.1244L23.5689 51.22L23.9149 54.0916C23.9403 54.3034 24.0775 54.4814 24.2679 54.5505L33.675 57.976C33.7314 57.9964 33.7897 58.0068 33.8475 58.0068Z" fill="#371A45"/>
<path d="M31.0024 47.6038L30.4795 53.2515L33.7731 56.9775L34.9727 52.2381L33.2985 47.3875L31.0024 47.6038Z" fill="#EC1C24"/>
<path d="M34.4202 52.263L33.5106 55.8561L31.0331 53.0525L31.4899 48.1197L32.9428 47.9826L34.4202 52.263ZM33.7752 57.5371C33.8181 57.5371 33.8615 57.5315 33.904 57.5202C34.0906 57.4709 34.2378 57.3182 34.2873 57.1214L35.487 52.382C35.5148 52.2708 35.5103 52.1531 35.4727 52.0445L33.7989 47.1939C33.7167 46.9556 33.4926 46.8055 33.2541 46.828L30.9582 47.0443C30.7046 47.0685 30.5025 47.28 30.478 47.5478L29.9549 53.1957C29.9397 53.3557 29.9913 53.5149 30.0951 53.6326L33.3883 57.3593C33.4897 57.474 33.6308 57.5371 33.7752 57.5371Z" fill="#371A45"/>
<path d="M29.5095 49.9834C29.6719 49.9834 29.8305 49.9045 29.9333 49.7593L31.3097 47.8233C31.4854 47.5757 31.4385 47.2244 31.2044 47.0391C30.9703 46.8528 30.6386 46.9024 30.4625 47.15L29.3555 48.7072L24.9648 46.3058C24.7052 46.1642 24.3849 46.2715 24.251 46.5462C24.1163 46.8208 24.2182 47.159 24.4783 47.3015L29.2664 49.9203C29.344 49.9627 29.4276 49.9834 29.5095 49.9834Z" fill="#371A45"/>
<path d="M34.6958 49.0381C34.8374 49.0381 34.9777 48.9781 35.0808 48.8629L36.7959 46.9427C36.9967 46.7176 36.9872 46.3629 36.7743 46.1505C36.5619 45.9382 36.2265 45.9482 36.0253 46.1729L34.6071 47.7612L33.6577 47.1406C33.4089 46.9786 33.0826 47.0596 32.9285 47.3232C32.7749 47.5864 32.8519 47.9319 33.1008 48.0944L34.4171 48.9544C34.5036 49.0105 34.5997 49.0381 34.6958 49.0381Z" fill="#371A45"/>
<path d="M31.4552 60.1782C31.4552 60.6622 31.8263 61.0547 32.284 61.0547C32.7412 61.0547 33.1123 60.6622 33.1123 60.1782C33.1123 59.6942 32.7412 59.3018 32.284 59.3018C31.8263 59.3018 31.4552 59.6942 31.4552 60.1782Z" fill="#371A45"/>
<path d="M31.4552 64.8931C31.4552 65.3771 31.8263 65.7695 32.284 65.7695C32.7412 65.7695 33.1123 65.3771 33.1123 64.8931C33.1123 64.4087 32.7412 64.0166 32.284 64.0166C31.8263 64.0166 31.4552 64.4087 31.4552 64.8931Z" fill="#371A45"/>
<path d="M31.3167 69.7599C31.3167 70.2442 31.6878 70.6367 32.1454 70.6367C32.6029 70.6367 32.9736 70.2442 32.9736 69.7599C32.9736 69.2761 32.6029 68.8835 32.1454 68.8835C31.6878 68.8835 31.3167 69.2761 31.3167 69.7599Z" fill="#371A45"/>
</svg>
