<svg width="107" height="117" viewBox="0 0 107 117" fill="none" xmlns="http://www.w3.org/2000/svg">
<path d="M59.9909 60.6633C59.9909 60.6633 64.5613 66.6829 64.6793 68.8414C64.7968 70.9997 61.0244 68.873 61.0244 68.873L59.9909 60.6633Z" fill="white"/>
<path d="M60.9072 62.9898L61.5983 68.4799C62.6286 69.0111 63.7343 69.3244 64.0184 69.1478C64.0456 69.131 64.0695 69.03 64.0614 68.8756C64.0022 67.7958 62.4205 65.183 60.9072 62.9898ZM60.7151 69.4087C60.5476 69.312 60.4346 69.1425 60.4108 68.9504L59.3767 60.741C59.3423 60.4635 59.4983 60.1966 59.7568 60.0914C60.0164 59.9854 60.3139 60.0667 60.4832 60.2899C60.9629 60.9212 65.1719 66.5264 65.2964 68.8081C65.3403 69.6096 64.9807 70.0066 64.6714 70.1986C63.5433 70.9 61.3623 69.7736 60.7207 69.412L60.7151 69.4087Z" fill="#371A45"/>
<path d="M42.3356 32.7429C38.9775 33.1462 31.9996 40.2714 29.6637 45.5712C27.3275 50.8715 35.9266 56.3336 41.0608 59.0825C46.1949 61.8314 52.7581 50.4231 54.4548 47.3321C57.1044 42.5044 47.3122 32.1451 42.3356 32.7429Z" fill="white"/>
<path d="M32.7963 52.6522C30.5691 50.484 29.2263 48.0966 30.2295 45.8213C30.3815 45.4763 30.5542 45.123 30.7453 44.7638C30.7589 45.2749 30.9094 45.7538 31.2347 46.181C31.5135 46.5475 31.8175 46.8261 32.1448 47.0151C32.4965 47.2182 32.8754 47.3181 33.278 47.3146C34.0115 47.3078 34.7753 46.9689 35.6396 46.2395C35.6406 46.384 35.6537 46.5319 35.679 46.6828C35.1956 47.3687 34.7453 48.0791 34.3371 48.8172C33.9702 49.4901 33.6395 50.185 33.3513 50.9021C33.1332 51.4705 32.9426 52.0529 32.7963 52.6522ZM38.1052 43.4993C38.2291 43.335 38.3557 43.1653 38.484 42.9895C38.9111 42.4061 38.8945 41.6015 38.4442 41.0328L38.2744 40.8183C40.3818 38.8126 42.2735 37.5133 43.8756 36.6742C44.2854 37.1618 44.6928 37.6515 45.0887 38.1451C44.62 38.4354 44.1564 38.735 43.6953 39.0354C41.786 40.3035 40.0009 41.7662 38.4013 43.4152C38.343 43.4293 38.2391 43.4561 38.1052 43.4993ZM45.6476 37.8056C45.3127 37.2982 44.9714 36.7989 44.628 36.3031C45.7554 35.781 46.7128 35.4945 47.4696 35.3397C47.8706 35.6318 48.2722 35.951 48.6688 36.293C48.3124 36.4343 47.961 36.5879 47.6138 36.7485C46.9396 37.0658 46.2871 37.4252 45.6476 37.8056Z" fill="#CDC6D0"/>
<path d="M46.1169 34.4545C44.7299 33.6537 43.4211 33.236 42.41 33.3576C39.3089 33.73 32.4791 40.719 30.2303 45.8216C28.1324 50.5811 36.2976 55.8308 41.3533 58.5379C45.8331 60.9359 52.0989 50.3391 53.9129 47.0345C54.7398 45.5287 54.1641 43.1114 52.3337 40.4021C50.6333 37.8853 48.2805 35.7036 46.1169 34.4545ZM38.9783 58.6331C32.8871 55.1163 26.9352 50.2292 29.0981 45.3223C31.3578 40.1949 38.4127 32.5916 42.2625 32.1292C45.6752 31.719 50.6799 35.7446 53.3588 39.7095C55.4885 42.8619 56.0709 45.675 54.9976 47.6303C51.8896 53.2922 45.9087 62.3801 40.7693 59.6282C40.176 59.3108 39.5764 58.9784 38.9783 58.6331Z" fill="#371A45"/>
<path d="M38.0004 41.3956L36.2781 39.212C35.8888 38.7186 35.1545 38.6763 34.7137 39.1242C33.1968 40.6659 30.3035 44.0058 31.6837 45.8279C33.3564 48.0369 35.6128 45.9386 38.0241 42.6594C38.3017 42.2813 38.2908 41.7637 38.0004 41.3956Z" fill="white"/>
<path d="M32.7129 46.0206C32.517 45.9075 32.3287 45.7314 32.145 45.4894C31.7533 44.9753 31.8576 44.2036 32.2632 43.3264C32.3158 43.4425 32.3819 43.5536 32.4631 43.6598C32.6983 43.969 32.9449 44.1935 33.2019 44.3419C34.48 45.0798 36.009 43.9321 37.6444 41.961C37.6648 42.0828 37.6372 42.2114 37.5614 42.3146C36.866 43.2653 34.7493 46.158 33.2676 46.1715C33.0753 46.1736 32.8908 46.1234 32.7129 46.0206Z" fill="#CDC6D0"/>
<path d="M35.686 39.4465C35.6223 39.4097 35.5504 39.3881 35.4736 39.3841C35.3945 39.3804 35.2423 39.3926 35.1132 39.5245C33.0709 41.6098 31.219 44.2719 32.1454 45.489C32.4972 45.9515 32.8648 46.1752 33.268 46.1712C34.7493 46.1576 36.8663 43.265 37.5619 42.3142C37.6859 42.1448 37.6805 41.9101 37.5484 41.7431L35.821 39.5637C35.7829 39.5155 35.7371 39.4759 35.686 39.4465ZM32.1457 47.015C31.8184 46.826 31.514 46.5481 31.2354 46.1813C29.7019 44.1668 32.0537 41.0141 34.2964 38.7249C34.62 38.394 35.0711 38.218 35.5338 38.2425C35.9977 38.2667 36.4284 38.4891 36.7177 38.8537L38.4447 41.0329C38.8951 41.6016 38.9114 42.4064 38.4844 42.9899C36.2757 46.0077 34.7192 47.3014 33.2784 47.3148C32.8761 47.3183 32.4974 47.2181 32.1457 47.015Z" fill="#371A45"/>
<path d="M42.002 32.5654L43.9348 35.3048C44.574 36.2235 45.2134 37.1359 45.8291 38.0822C45.9224 38.2256 45.8816 38.417 45.7382 38.5103C45.6033 38.598 45.4257 38.5675 45.3274 38.4439L45.3241 38.4397C44.6395 37.5744 43.9167 36.7219 43.1995 35.8709L41.0287 33.3294L41.0248 33.3249C40.8024 33.0651 40.8333 32.6739 41.0936 32.4517C41.3534 32.2299 41.7446 32.2605 41.9665 32.5205C41.9788 32.5352 41.9911 32.5504 42.002 32.5654Z" fill="#371A45"/>
<path d="M83.4294 54.3335C80.8485 56.7966 71.0769 58.4768 61.4483 53.284C60.516 52.7829 59.5861 52.2158 58.6638 51.5793L59.9025 47.4826L60.8939 44.203C60.8939 44.203 62.5195 44.7842 64.8381 45.4101C66.6694 45.9069 68.9329 46.4315 71.1698 46.7231C73.2786 46.998 75.3665 47.0659 77.0436 46.7038C77.0436 46.7038 78.8185 43.7678 79.8361 43.9518C81.0778 44.1757 80.6337 46.7053 80.6337 46.7053C80.6337 46.7053 84.3619 45.6483 85.5919 46.6689C87.4215 48.1859 86.2619 51.6328 83.4294 54.3335Z" fill="white"/>
<path d="M62.2017 52.9825C62.5261 52.0492 62.8289 51.1061 63.0775 50.1372C63.9396 50.9058 64.8535 51.5576 65.7983 52.1031C72.2111 55.8062 80.1149 54.6708 83.9133 52.9176C83.6341 53.2485 83.3302 53.5726 83.0028 53.8845C80.7594 56.0244 71.5285 57.7904 62.2017 52.9825Z" fill="#B9AFBE"/>
<path d="M60.3863 53.4014C59.6917 53.0003 59.0005 52.5646 58.3124 52.09C58.0314 51.896 57.961 51.5107 58.155 51.2298C58.3485 50.9485 58.7328 50.8761 59.0156 51.0719C69.3304 58.1888 80.5041 56.2698 83.003 53.8856C84.7872 52.1841 85.9064 50.1104 85.8535 48.6026C85.8322 47.9791 85.6116 47.4891 85.1978 47.1459C84.5232 46.5858 82.2207 46.9002 80.8026 47.3012L79.8542 47.5693L80.0247 46.5993C80.1596 45.8214 80.1145 44.6517 79.7364 44.5626C79.3612 44.5987 78.334 45.7655 77.5725 47.0234L77.4347 47.2513L77.1735 47.3077C71.3626 48.5608 61.1195 44.9407 60.6864 44.7866C60.3642 44.671 60.1968 44.3175 60.312 43.9958C60.4267 43.6739 60.7809 43.5068 61.1023 43.6212C61.2035 43.6576 71.1349 47.1668 76.6586 46.1491C77.3349 45.0747 78.743 43.1263 79.946 43.343C81.1658 43.563 81.3534 44.9367 81.3296 45.8968C82.6361 45.6137 84.9048 45.2956 85.9874 46.1935C86.6748 46.7637 87.0561 47.582 87.0904 48.5597C87.1553 50.433 85.9165 52.8168 83.8568 54.7812C80.9723 57.5319 70.4498 59.2108 60.3863 53.4014Z" fill="#371A45"/>
<path d="M61.1862 70.154C61.1862 70.154 44.9649 67.6264 40.5242 64.5729C36.0846 61.5208 31.4994 57.8914 36.3199 48.9079C39.3167 43.3241 45.1468 39.4935 49.129 37.3961C51.5543 36.1178 53.295 35.4819 53.295 35.4819L65.721 43.5274C65.721 43.5274 65.3811 44.2309 64.8377 45.4099C64.4984 46.1468 64.0805 47.0677 63.6185 48.1192C62.9544 49.6284 62.1973 51.4037 61.4474 53.2836C60.2991 56.1633 59.1693 59.2861 58.4154 62.0616C58.0884 63.262 62.295 66.0713 61.1862 70.154Z" fill="white"/>
<path d="M63.2226 49.5445C62.7999 51.3832 62.1627 53.1205 61.529 54.8579C60.9007 56.5966 60.24 58.3209 59.6648 60.0704C59.5227 60.5085 59.3869 60.9473 59.254 61.3872L59.0625 62.0482L59.0155 62.2136L59.0125 62.224L59.014 62.2224L59.0166 62.2191L59.0184 62.2117L59.0165 62.2045L59.0188 62.2089C59.0205 62.2123 59.0186 62.2136 59.0182 62.2194C59.0221 62.2295 59.0249 62.2403 59.0266 62.2509C59.0259 62.268 59.0467 62.3085 59.0546 62.3379C59.108 62.4772 59.2146 62.6586 59.3304 62.8357C59.4465 63.0154 59.5769 63.1997 59.7106 63.3865C59.9782 63.7602 60.2579 64.1464 60.5224 64.5504C61.0497 65.3563 61.5313 66.2467 61.7893 67.2422C61.9188 67.7385 61.9904 68.2565 61.9897 68.7769C61.9899 69.2979 61.9173 69.818 61.7838 70.3168L61.6402 70.854L61.0921 70.7659C58.5198 70.3509 55.9738 69.8736 53.4297 69.3374C50.8879 68.7972 48.3555 68.1999 45.8502 67.4475C44.5986 67.0664 43.352 66.6556 42.1279 66.1208C41.516 65.8548 40.9086 65.5622 40.3183 65.1748C40.1639 65.0802 40.0388 64.9886 39.9025 64.8953L39.5013 64.6147C39.2335 64.4261 38.9665 64.235 38.7023 64.0371C37.646 63.2504 36.6103 62.3841 35.7325 61.3304C35.2955 60.8044 34.9016 60.2312 34.5803 59.6127C34.2589 58.9947 34.0122 58.332 33.8558 57.6494C33.6994 56.9668 33.6394 56.2672 33.6505 55.5766C33.6636 54.8859 33.7402 54.2003 33.8853 53.5368L33.9353 53.2865L33.9985 53.0407L34.1264 52.5495L34.2767 52.067L34.3527 51.8263L34.4389 51.5902L34.6117 51.1182C34.672 50.9623 34.7387 50.8094 34.802 50.6552C34.926 50.3446 35.0676 50.0437 35.2091 49.7432C35.7724 48.5471 36.45 47.3801 37.2339 46.3059C38.0152 45.2284 38.891 44.2267 39.8287 43.2939C41.7048 41.4259 43.8256 39.8421 46.0486 38.4494C47.1602 37.7534 48.274 37.0526 49.4607 36.4889C50.6469 35.928 51.8769 35.4475 53.2239 35.2889C53.3404 35.275 53.4454 35.3574 53.4593 35.4739C53.4687 35.5532 53.433 35.6276 53.3728 35.671L53.3657 35.676C52.2959 36.4422 51.1773 37.0536 50.0522 37.6546C48.9343 38.2671 47.7862 38.8258 46.7042 39.502C44.5422 40.8488 42.4944 42.3869 40.7008 44.1718C39.804 45.0632 38.9726 46.0155 38.235 47.0329C37.4942 48.0496 36.8672 49.1283 36.3271 50.2724C36.1935 50.5574 36.0592 50.8414 35.9435 51.132C35.8843 51.2764 35.8212 51.4205 35.765 51.5661L35.6042 52.005L35.5241 52.2246L35.4541 52.4464L35.3158 52.8904L35.1992 53.3379L35.1418 53.5621L35.097 53.7876C34.9647 54.3871 34.8996 54.9939 34.8877 55.5956C34.8777 56.1973 34.9301 56.7956 35.0619 57.375C35.3248 58.5351 35.9025 59.6063 36.6844 60.5398C37.4641 61.4781 38.4254 62.2887 39.4407 63.0444C39.6943 63.2345 39.9532 63.4197 40.214 63.6036L40.608 63.8789C40.7392 63.9685 40.8751 64.0676 40.9976 64.1408C41.1253 64.2175 41.2421 64.3037 41.3784 64.3739L41.7793 64.5932C42.0581 64.727 42.3329 64.8669 42.6236 64.9875C43.7712 65.4889 44.9861 65.8918 46.2082 66.2631C48.6592 66.9993 51.1671 67.592 53.6863 68.1272C56.2049 68.6583 58.746 69.1347 61.282 69.5432L60.59 69.9928C60.806 69.1939 60.8057 68.3616 60.5921 67.5546C60.3838 66.7457 59.976 65.9731 59.4866 65.2284C59.2428 64.8545 58.977 64.4873 58.7038 64.1055C58.5675 63.9147 58.4288 63.7196 58.2922 63.5093C58.1565 63.2965 58.0177 63.0795 57.9014 62.7859C57.8743 62.7048 57.8435 62.6398 57.824 62.5413L57.7945 62.4025C57.7877 62.3514 57.785 62.2941 57.7822 62.2392C57.7699 62.1431 57.8014 61.9826 57.8218 61.8896L57.8686 61.7192L58.0561 61.0389C58.1854 60.5873 58.3184 60.1366 58.4579 59.6884C58.7345 58.7919 59.0186 57.8991 59.3264 57.0146C59.632 56.1306 59.9669 55.2569 60.3164 54.3904C61.0207 52.6597 61.7997 50.959 62.8437 49.3815C62.9078 49.2852 63.0374 49.2589 63.1339 49.3225C63.209 49.3719 63.2412 49.462 63.2226 49.5445Z" fill="#371A45"/>
<path d="M19.0558 81.7789L16.5551 80.8108C15.4236 80.373 14.6238 79.3491 14.4728 78.1456C14.0236 74.5607 14.564 70.9215 16.0349 67.6222C16.529 66.5142 17.5918 65.7668 18.8015 65.6765L21.4757 65.4768L19.0558 81.7789Z" fill="#00AAFF"/>
<path d="M16.5734 67.9346C16.5825 67.9142 16.5915 67.8941 16.6006 67.8737C17.0022 66.9723 17.8634 66.3668 18.8476 66.2929L20.4143 66.1762C20.2622 66.486 20.117 66.7983 19.9785 67.1133L18.4759 67.2256C17.8082 67.2758 17.1806 67.5069 16.6503 67.8791C16.6243 67.8973 16.5989 67.9158 16.5734 67.9346Z" fill="#99DDFF"/>
<path d="M16.4658 79.2959C15.8096 78.917 15.3061 78.3241 15.0366 77.6219C14.9154 76.4277 14.9066 75.2294 15.009 74.0419C15.2957 74.6097 15.7434 75.0869 16.3014 75.4091C16.4468 75.4931 16.6002 75.5665 16.7595 75.6283L17.941 76.0852C17.8973 77.3861 17.9588 78.6865 18.1247 79.9798L16.9258 79.5158C16.7654 79.4538 16.6118 79.3802 16.4658 79.2959Z" fill="#1378BE"/>
<path d="M29.1609 65.2126C29.3175 62.1868 27.015 56.734 16.0287 57.1937C15.8844 57.2 15.8224 57.381 15.9326 57.474C17.1328 58.4849 22.808 63.1915 22.0706 67.1303L29.1609 65.2126Z" fill="#EC1C24"/>
<path d="M17.8687 58.3586C17.6673 58.1703 17.4576 57.9794 17.2404 57.7858C20.5088 57.7808 23.1762 58.3543 25.1096 59.4705C25.7312 59.8294 26.2776 60.2448 26.7427 60.7148C27.2741 61.2514 27.6528 61.8058 27.9209 62.3386C27.7423 62.3845 27.5678 62.4313 27.3962 62.4782C26.8111 61.6111 25.9636 60.7796 24.7718 60.0915C23.1635 59.163 20.9292 58.4962 17.8687 58.3586Z" fill="#F7A4A7"/>
<path d="M21.7617 67.6662C21.5406 67.5386 21.4136 67.2813 21.4632 67.0164C21.7095 65.6999 21.2749 62.777 15.592 57.995L15.5348 57.9471C15.2878 57.7395 15.1959 57.4074 15.3005 57.1014C15.4051 56.7955 15.6808 56.5891 16.0037 56.5755C21.3444 56.3522 25.2529 57.4514 27.6222 59.844C29.712 61.9547 29.8266 64.3241 29.7792 65.2447C29.7616 65.5856 29.4706 65.8477 29.1295 65.8304C28.788 65.8125 28.5262 65.5216 28.5438 65.1807C28.583 64.4241 28.4857 62.4748 26.7429 60.7148C24.8301 58.783 21.5602 57.7789 17.2405 57.7855C22.3214 62.31 23.0226 65.4103 22.6793 67.2441C22.6162 67.5799 22.2931 67.8012 21.9575 67.7385C21.8866 67.725 21.8207 67.7002 21.7617 67.6662Z" fill="#371A45"/>
<path d="M26.3795 83.9504C25.6502 86.8911 21.8387 91.6072 11.4591 87.9755C11.3235 87.9281 11.3164 87.7369 11.4488 87.6798C12.891 87.0612 19.7153 84.0286 20.1535 80.0453L26.3795 83.9504Z" fill="#D25658"/>
<path d="M11.4593 87.9768C11.3237 87.928 11.3168 87.7373 11.4492 87.6802C12.1876 87.3633 14.3386 86.4129 16.3196 85.0256C18.1925 83.7154 19.9133 82.0134 20.1478 80.0882C20.1499 80.0747 20.1509 80.0594 20.153 80.0459L20.1911 80.0694L26.379 83.9502C26.1744 84.7757 25.7269 85.7411 24.9584 86.6224C22.9931 88.8815 18.9262 90.5883 11.4593 87.9768Z" fill="#EC1C24"/>
<path d="M16.9648 85.3223C17.8951 84.6434 18.7641 83.8772 19.4385 83.0355C20.3092 83.845 21.8623 85.1453 24.1647 86.5637C24.1016 86.626 24.0363 86.6883 23.9682 86.7501C22.037 86.9027 19.709 86.5365 16.9648 85.3223Z" fill="#AD1B30"/>
<path d="M11.1214 88.4984C10.8922 88.3661 10.7446 88.1255 10.7355 87.8524C10.7246 87.5299 10.9086 87.2389 11.205 87.1116C13.0637 86.3139 19.158 83.4431 19.5393 79.9781C19.5767 79.6383 19.8823 79.3933 20.2215 79.4307C20.5615 79.4682 20.8067 79.7739 20.7688 80.1131C20.3812 83.6392 15.6726 86.3888 12.7812 87.7579C16.8582 88.9985 20.2562 88.974 22.6568 87.6762C24.9735 86.4242 25.6324 84.3939 25.7795 83.8016C25.8619 83.4701 26.1974 83.268 26.5287 83.3499C26.8602 83.4322 27.0626 83.7675 26.9804 84.0993C26.7525 85.018 25.9326 87.3118 23.245 88.7646C20.2721 90.3719 16.238 90.303 11.2555 88.5596C11.2081 88.5432 11.1634 88.5227 11.1214 88.4984Z" fill="#371A45"/>
<path d="M77.8438 82.1079C77.8438 82.1079 68.0186 94.2693 45.9246 92.5297C27.1023 91.0467 18.9 81.6877 18.9 81.6877C18.1615 78.1791 18.2359 74.5739 19.0787 71.1408C19.5689 69.147 20.3184 67.2117 21.3212 65.3852C21.3212 65.3852 26.0368 62.4508 34.6671 61.7119C34.9637 61.6869 35.2666 61.6634 35.5727 61.6436C38.9017 61.4265 42.7742 61.539 47.1476 62.2532C48.1795 62.4204 49.2393 62.6233 50.3263 62.8615C50.3695 62.8706 50.412 62.8808 50.4545 62.8911C54.8369 63.8624 58.5679 65.234 61.7328 66.8006C61.8343 66.8506 61.9341 66.9009 62.0338 66.9514C74.1944 73.0936 77.8438 82.1079 77.8438 82.1079Z" fill="white"/>
<path d="M60.5323 91.6913C63.3555 84.1444 64.5521 76.0828 64.0438 68.0393C74.7238 74.1106 77.998 82.1983 77.998 82.1983C77.998 82.1983 72.5161 88.9843 60.5323 91.6913Z" fill="#EC1C24"/>
<path d="M76.3562 81.153C74.7804 78.5286 71.2858 73.8203 64.747 69.7856C64.7404 69.5759 64.7323 69.3652 64.7231 69.155C71.7509 73.4162 75.2745 78.4973 76.6656 80.9386C76.5645 81.0096 76.4616 81.0811 76.3562 81.153Z" fill="#F7A4A7"/>
<path d="M64.7229 69.1556C65.0461 76.5573 63.9658 83.8338 61.5071 90.8216C70.0081 88.6481 74.9551 84.423 76.731 82.6532C77.0674 82.3189 77.1424 81.8133 76.9185 81.3954C75.7323 79.1857 72.2249 73.7043 64.7229 69.1556ZM59.5523 92.5477L59.9533 91.475C62.7645 83.9597 63.9327 76.088 63.4267 68.0787L63.3542 66.9359L64.3495 67.502C72.8207 72.311 76.721 78.4116 78.0082 80.8102C78.4928 81.7136 78.3308 82.8065 77.6047 83.53C75.6763 85.4509 70.1659 90.1501 60.669 92.2953L59.5523 92.5477Z" fill="#371A45"/>
<path d="M19.6271 81.4845C20.0908 81.9725 22.08 83.9494 25.7258 86.0543C25.7751 86.0828 25.8251 86.1113 25.875 86.1397C29.8294 88.3986 36.5536 91.2498 46.127 92.004C51.0365 92.3903 55.7258 92.1075 60.0703 91.1624C62.7589 83.846 63.8944 76.1962 63.4478 68.4132C59.5648 66.2466 55.1598 64.6134 50.3496 63.5575C33.462 59.8499 23.2112 65.2034 21.9369 65.9239C20.6595 68.2901 19.8117 70.838 19.4164 73.5007C19.0213 76.1628 19.0925 78.8481 19.6271 81.4845ZM25.1043 87.1238C20.7298 84.5982 18.6768 82.2837 18.591 82.1859L18.4843 82.0643L18.4511 81.9056C17.8546 79.0717 17.7679 76.1827 18.1929 73.319C18.6179 70.4547 19.5401 67.7159 20.9337 65.1791L21.0119 65.0371L21.1493 64.9515C21.2608 64.8824 23.936 63.241 28.9258 62.0939C33.5008 61.0426 40.9778 60.2332 50.6148 62.3492C55.6674 63.4583 60.2889 65.1921 64.3507 67.5019L64.641 67.6669L64.6621 68.0002C65.1786 76.1702 63.9897 84.2001 61.1283 91.8676L61.0526 92.2087L60.6698 92.2966C56.1127 93.3269 51.1872 93.6434 46.0297 93.2372C36.1932 92.4621 29.2741 89.5154 25.2018 87.1801C25.1693 87.1613 25.1368 87.1426 25.1043 87.1238Z" fill="#371A45"/>
<path d="M15.7852 81.1256C14.7338 80.5187 14.0142 79.4513 13.8601 78.2226C13.3968 74.5258 13.9538 70.7731 15.471 67.3701C16.0585 66.0524 17.3172 65.1671 18.7563 65.0596L21.4305 64.8598C21.7711 64.8346 22.0679 65.0901 22.0931 65.4308C22.1187 65.7713 21.8632 66.0681 21.5224 66.0935L18.8483 66.2931C17.8638 66.3668 17.0027 66.9725 16.6012 67.8741C15.1757 71.0706 14.6523 74.5957 15.0875 78.0685C15.2102 79.0481 15.8577 79.8777 16.779 80.2338L19.2799 81.2019C19.5983 81.3247 19.7569 81.6833 19.6334 82.0021C19.51 82.3206 19.1518 82.4789 18.8333 82.3554L16.3323 81.3876C16.1418 81.3138 15.9588 81.2259 15.7852 81.1256Z" fill="#371A45"/>
<path d="M46.5787 86.4565C44.7262 85.387 43.3442 83.6516 42.7084 81.6231C42.7185 81.6142 42.7281 81.6054 42.7377 81.5963C43.0685 81.299 43.3276 80.9529 43.5454 80.5977C43.5531 80.5844 43.5614 80.571 43.5694 80.5583C43.8397 81.4953 44.2786 82.3863 44.8777 83.1935C45.5625 84.1179 46.414 84.8739 47.3814 85.4325C48.2716 85.9464 49.2594 86.2926 50.3065 86.4483C53.7212 86.9552 56.9663 85.2878 58.6321 82.4901C57.1331 85.9284 53.47 88.0782 49.5826 87.5009C48.4911 87.3389 47.4788 86.9762 46.5787 86.4565Z" fill="#B9AFBE"/>
<path d="M50.3979 85.8367C46.2171 85.2161 43.3321 81.3246 43.9524 77.1442C44.5731 72.9641 48.4644 70.0781 52.645 70.699C56.8251 71.3196 59.7107 75.2111 59.0904 79.3915C58.4697 83.5715 54.5779 86.4573 50.3979 85.8367Z" fill="#EC1C24"/>
<path d="M48.6851 72.0947C48.7043 72.0741 48.7237 72.054 48.7429 72.0334C48.8507 71.9172 48.9551 71.7983 49.0561 71.677C50.1594 71.2626 51.3556 71.1327 52.5538 71.3106C53.4531 71.4439 54.2869 71.7433 55.03 72.1723C56.7479 73.1641 57.9787 74.8492 58.3978 76.7905C57.7932 75.077 56.59 73.6172 55.0032 72.7011C54.1932 72.2334 53.2831 71.9076 52.3016 71.7621C51.0433 71.5749 49.8106 71.7059 48.6851 72.0947Z" fill="#F7A4A7"/>
<path d="M48.0001 84.3609C47.1778 83.8862 46.4535 83.2428 45.8705 82.4565C44.9343 81.1938 44.4565 79.6893 44.4865 78.1425C44.6345 77.4991 44.7327 76.8518 44.7947 76.2051C44.8309 76.0857 44.8703 75.9681 44.9124 75.8513C44.6759 78.8513 46.2225 81.6347 48.7162 83.0744C49.5268 83.5425 50.4365 83.868 51.4183 84.0139C53.4745 84.319 55.4621 83.7745 57.023 82.645C55.5098 84.5411 53.0549 85.6054 50.4878 85.2245C49.5971 85.0924 48.7569 84.7978 48.0001 84.3609Z" fill="#AD1B30"/>
<path d="M55.0295 72.1727C54.2862 71.7436 53.4525 71.4444 52.553 71.3111C50.695 71.0352 48.8404 71.4995 47.331 72.6185C45.8224 73.7375 44.8393 75.3773 44.5632 77.2351C44.2879 79.0938 44.7521 80.9485 45.8709 82.4573C46.9895 83.9663 48.6295 84.9493 50.4876 85.225C54.3241 85.7948 57.9078 83.1367 58.4773 79.3009C58.9134 76.364 57.4576 73.5746 55.0295 72.1727ZM47.3812 85.4332C46.4136 84.8746 45.5624 84.1187 44.8773 83.1942C43.5614 81.4197 43.0152 79.2387 43.3396 77.0538C43.6641 74.8686 44.8199 72.9407 46.5944 71.6246C48.3687 70.3089 50.5498 69.7629 52.7347 70.0873C57.2454 70.7566 60.3706 74.9716 59.7008 79.4825C59.0316 83.9934 54.8169 87.1186 50.3059 86.4487C49.2593 86.2935 48.271 85.947 47.3812 85.4332Z" fill="#371A45"/>
<path d="M50.9095 83.0057C48.2498 82.6106 46.4143 80.135 46.8091 77.4758C47.2035 74.8163 49.6797 72.9807 52.339 73.3753C54.9982 73.7701 56.8338 76.2457 56.4394 78.9052C56.0444 81.5647 53.5687 83.4005 50.9095 83.0057Z" fill="#6BD6F0"/>
<path d="M49.1903 82.409C47.9583 81.6977 47.0893 80.4705 46.8338 79.0641C47.0895 80.4703 47.9582 81.6969 49.1906 82.4084C49.706 82.706 50.2848 82.9134 50.9094 83.0062C52.3114 83.2142 53.6626 82.8022 54.685 81.9762C53.6626 82.8022 52.3112 83.2145 50.9086 83.0065C50.2845 82.914 49.7052 82.7063 49.1903 82.409ZM54.6908 81.9713C54.6924 81.9696 54.6943 81.9684 54.6957 81.967C54.6943 81.9684 54.6923 81.9699 54.6908 81.9713ZM54.6969 81.9661C54.6987 81.965 54.7 81.9638 54.7014 81.9624C54.7 81.9638 54.6986 81.9652 54.6969 81.9661ZM54.7025 81.9615C54.7044 81.9603 54.7051 81.9592 54.7068 81.9583C54.7055 81.9595 54.7044 81.9603 54.7025 81.9615ZM54.7144 81.9525C54.7156 81.9513 54.7164 81.9499 54.7182 81.949C54.7164 81.9499 54.7152 81.9511 54.7144 81.9525ZM54.7541 81.9192C54.755 81.9186 54.7557 81.9175 54.7566 81.9169C54.7555 81.9178 54.755 81.9186 54.7541 81.9192ZM54.765 81.9097C54.7658 81.9093 54.7669 81.9085 54.7672 81.9079C54.7667 81.9088 54.766 81.9091 54.765 81.9097ZM46.8435 77.2713C46.9021 76.9641 46.9889 76.6687 47.1012 76.3875C46.9896 76.6686 46.9021 76.9641 46.8435 77.2713ZM54.8147 81.8674C54.8149 81.8671 54.8152 81.8666 54.816 81.8663C54.8152 81.8666 54.815 81.8669 54.8147 81.8674Z" fill="#F26166"/>
<path d="M49.1907 82.4085C47.9586 81.6971 47.0899 80.4705 46.834 79.0642C46.7408 78.5532 46.7284 78.0186 46.8088 77.4761C46.8137 77.4457 46.8182 77.4148 46.8237 77.3843C46.9532 77.1694 47.0992 76.9658 47.2592 76.7756C47.2649 78.5294 48.2183 80.1203 49.694 80.9723C50.2096 81.27 50.7882 81.4773 51.4126 81.5699C53.1482 81.8281 54.8049 81.1359 55.8564 79.8854C55.8572 80.128 55.8398 80.3738 55.8029 80.6211C55.7986 80.6526 55.7933 80.6838 55.788 80.715C55.5262 81.1464 55.2008 81.5309 54.8259 81.8577L54.8258 81.858C54.8243 81.8594 54.8229 81.8608 54.821 81.862C54.8208 81.8623 54.8207 81.8626 54.8205 81.8628C54.8191 81.8643 54.8174 81.8652 54.8161 81.8663C54.8153 81.8666 54.815 81.8672 54.8148 81.8675C54.8136 81.8686 54.8121 81.8701 54.8108 81.8712C54.8101 81.8716 54.8099 81.8718 54.8091 81.8721C54.8078 81.8733 54.8066 81.8744 54.8053 81.8756C54.805 81.8761 54.8042 81.8765 54.8039 81.877C54.8026 81.8781 54.8013 81.8793 54.7996 81.8802C54.7993 81.8808 54.799 81.8814 54.7988 81.8816C54.7975 81.8828 54.7956 81.884 54.7944 81.8851C54.7936 81.8854 54.7933 81.886 54.7931 81.8863C54.7918 81.8874 54.7905 81.8886 54.7893 81.8897C54.7885 81.89 54.7882 81.8906 54.7874 81.8909C54.7861 81.892 54.7849 81.8932 54.7837 81.8941C54.7833 81.8949 54.7825 81.8952 54.7815 81.8958C54.7809 81.8969 54.7798 81.8978 54.7787 81.8987C54.7777 81.8993 54.7772 81.9001 54.7763 81.9007C54.7752 81.9016 54.7741 81.9024 54.773 81.9033C54.772 81.9039 54.7715 81.9048 54.7706 81.9053C54.7697 81.9059 54.7684 81.9071 54.7677 81.9082C54.7669 81.9085 54.7658 81.9094 54.7655 81.9099C54.764 81.9105 54.7631 81.912 54.7622 81.9126C54.7612 81.9132 54.7603 81.9138 54.7598 81.9146C54.7587 81.9154 54.7576 81.9163 54.7567 81.9169C54.7562 81.9178 54.755 81.9186 54.7541 81.9192C54.753 81.9201 54.7521 81.9207 54.7514 81.9218C54.7503 81.9227 54.7494 81.9233 54.7483 81.9241C54.7478 81.925 54.7464 81.9253 54.7459 81.9262C54.7448 81.927 54.7437 81.9279 54.7425 81.9288C54.7421 81.9296 54.7411 81.9302 54.7402 81.9308C54.7391 81.9317 54.7384 81.9328 54.7369 81.9334C54.7364 81.9342 54.7356 81.9346 54.7347 81.9351C54.734 81.9363 54.7327 81.9374 54.7312 81.938C54.7307 81.9389 54.7303 81.9395 54.7294 81.9401C54.7283 81.9409 54.727 81.9421 54.7255 81.9427C54.725 81.9435 54.7246 81.9441 54.7239 81.9444C54.7226 81.9456 54.7215 81.9464 54.7202 81.9476C54.7194 81.9479 54.719 81.9487 54.7182 81.949C54.7169 81.9501 54.7156 81.9513 54.7144 81.9525C54.7137 81.9525 54.7134 81.9531 54.7131 81.9536C54.7118 81.9548 54.7101 81.9556 54.7088 81.9568C54.708 81.9571 54.7077 81.9577 54.7068 81.9583C54.7055 81.9595 54.7044 81.9603 54.703 81.9617C54.7024 81.9617 54.702 81.9623 54.7019 81.9626C54.7004 81.964 54.6987 81.965 54.6973 81.9664C54.6967 81.9664 54.6963 81.967 54.6962 81.9672C54.6947 81.9687 54.6928 81.9699 54.6908 81.9713C54.6908 81.9713 54.6908 81.9713 54.6906 81.9716C54.6892 81.973 54.6871 81.9745 54.6853 81.9756C54.6851 81.976 54.6851 81.976 54.6849 81.9762C53.6631 82.8025 52.3116 83.2143 50.9093 83.0061C50.2849 82.9135 49.7063 82.7062 49.1907 82.4085ZM46.8349 77.3199C46.8377 77.3035 46.8405 77.2872 46.8436 77.2713C46.9024 76.9643 46.9896 76.6686 47.1011 76.3875C47.1716 76.212 47.251 76.042 47.3401 75.8784C47.3307 75.927 47.323 75.9761 47.3152 76.0262C47.0983 76.4239 46.9347 76.858 46.8349 77.3199ZM56.3833 79.2136C56.3914 79.1692 56.3984 79.1246 56.4054 79.08C56.4077 79.076 56.41 79.0721 56.4123 79.0681C56.403 79.1167 56.3937 79.1653 56.3833 79.2136Z" fill="#98E2F5"/>
<path d="M46.8194 77.3899C46.8243 77.3667 46.829 77.3438 46.8339 77.3206C46.8301 77.3419 46.8264 77.3631 46.8231 77.3845C46.8219 77.3865 46.8209 77.3882 46.8194 77.3899ZM55.7595 80.869C55.7692 80.8176 55.7787 80.7665 55.7873 80.7149C56.061 80.2639 56.2648 79.7622 56.3812 79.222C56.2726 79.821 56.0587 80.3758 55.7595 80.869Z" fill="#AD1B30"/>
<path d="M46.8234 77.3843C46.8272 77.3631 46.8309 77.3419 46.8347 77.3207C46.8344 77.3201 46.8346 77.3199 46.8347 77.3196C46.8308 77.3411 46.8269 77.3626 46.8236 77.384L46.8234 77.3843ZM47.259 76.7753C47.2589 76.5326 47.2762 76.2868 47.3128 76.039C47.3134 76.0348 47.3142 76.0304 47.315 76.0259C48.2641 74.2824 50.2301 73.2298 52.3077 73.5381C52.9321 73.6308 53.5108 73.8382 54.026 74.1356C55.7055 75.1053 56.7097 77.0319 56.4074 79.067C56.4068 79.0711 56.406 79.0756 56.4059 79.08C56.2491 79.3683 56.0646 79.6375 55.8564 79.8851C55.8514 78.131 54.8973 76.5397 53.4215 75.6876C52.9062 75.3901 52.3275 75.1828 51.7036 75.0904C49.9679 74.8319 48.3103 75.5243 47.259 76.7753ZM55.7879 80.7148C56.063 80.2614 56.2673 79.7568 56.3833 79.2134C56.3829 79.2162 56.3825 79.219 56.3819 79.222C56.2654 79.7621 56.0616 80.2639 55.7879 80.7148Z" fill="#5994B4"/>
<path d="M46.8235 77.3846C46.8268 77.3631 46.8308 77.3416 46.8347 77.3201C46.9345 76.8582 47.0985 76.4244 47.3149 76.0264C47.3142 76.0309 47.3134 76.0354 47.3128 76.0396C47.2762 76.2874 47.2588 76.5332 47.259 76.7759C47.0995 76.9663 46.9535 77.1699 46.8235 77.3846ZM55.7879 80.7154C55.7933 80.6841 55.7986 80.6529 55.8029 80.6214C55.8398 80.3741 55.8571 80.1283 55.8563 79.8857C56.0646 79.638 56.2491 79.3688 56.4058 79.0805C56.3988 79.1252 56.3913 79.1695 56.3833 79.2139C56.2673 79.7573 56.063 80.2619 55.7879 80.7154Z" fill="#769CB8"/>
<path d="M53.751 74.5096C53.294 74.2458 52.7862 74.068 52.2483 73.9879C49.9306 73.6439 47.7653 75.2497 47.421 77.5672C47.0772 79.885 48.6827 82.0509 51.0005 82.3946C53.3182 82.7387 55.4835 81.1329 55.8278 78.8153C55.9944 77.6927 55.714 76.5721 55.0373 75.6601C54.6856 75.1854 54.248 74.7965 53.751 74.5096ZM48.8784 82.9448C48.2367 82.5744 47.6721 82.0726 47.2174 81.4591C46.3443 80.2821 45.9821 78.8351 46.1975 77.3855C46.6414 74.3932 49.4377 72.32 52.4298 72.764C53.8801 72.9796 55.159 73.7463 56.0314 74.9234C56.9045 76.1005 57.2663 77.5471 57.0514 78.997C56.6074 81.9893 53.8111 84.0626 50.819 83.6186C50.1245 83.5152 49.4689 83.2858 48.8784 82.9448Z" fill="#371A45"/>
<path d="M69.4599 77.256C68.6876 76.8102 67.7872 75.7512 67.2978 75.4434C66.1883 74.7455 65.4023 73.9024 65.8881 73.0786C66.2357 72.4884 67.0953 72.7027 68.3256 73.4007C68.3328 73.4048 68.3394 73.4087 68.3466 73.4128C69.5332 74.0979 71.1467 76.0765 70.6008 77.0953C70.3458 77.5713 69.9259 77.5251 69.4599 77.256Z" fill="#F04950"/>
<path d="M72.3727 80.4623C72.0021 80.2482 71.647 79.4162 71.417 79.216C70.9267 78.7887 70.6287 78.201 71.0043 77.4633C71.2311 77.0178 71.5701 76.9936 72.004 77.244C72.0841 77.2903 72.1679 77.3463 72.2547 77.4107C72.7907 77.8081 73.3761 79.2296 72.9378 80.1396C72.7552 80.5197 72.5623 80.5717 72.3727 80.4623Z" fill="#F04950"/>
<path d="M25.7015 85.4345C22.0487 83.3255 20.0386 81.3569 19.496 80.7886C19.2339 79.2606 19.1268 77.7184 19.1754 76.1759C19.6754 76.3541 20.1929 76.4914 20.7205 76.5697C21.7449 76.7223 22.7416 76.6399 23.648 76.4403C24.8761 78.6271 26.689 80.503 28.9651 81.817C29.0702 81.8777 29.1771 81.9376 29.2838 81.9954C33.6894 84.393 40.2091 86.8492 49.0963 87.5497C53.7331 87.9149 57.8285 87.668 61.407 87.0497C61.0627 88.2631 60.6767 89.4692 60.2493 90.6659C56.313 91.4982 51.6979 91.8872 46.3673 91.4673C36.8879 90.72 30.1024 87.9753 25.7015 85.4345Z" fill="#B9AFBE"/>
<path d="M61.6751 90.338C62.0768 89.1639 62.4392 87.9822 62.7633 86.7926C68.8699 85.535 73.3584 83.2088 76.3567 81.1533C76.6149 81.583 76.8217 81.9571 76.982 82.2628C76.9475 82.3572 76.8991 82.4474 76.8378 82.5304C74.5795 84.611 69.6335 88.3617 61.6751 90.338Z" fill="#AD1B30"/>
<path d="M76.9825 82.2632C76.8222 81.9575 76.615 81.5832 76.3568 81.1535C76.4621 81.0814 76.5654 81.0102 76.6664 80.9391C76.7602 81.1035 76.8441 81.2556 76.919 81.3951C77.0669 81.671 77.0845 81.9852 76.9825 82.2632Z" fill="#B47485"/>
<path d="M61.6747 90.3381C62.076 89.1641 62.4389 87.9819 62.7628 86.7927L62.7633 86.793C62.4388 87.9822 62.0762 89.1638 61.6747 90.3381ZM76.8374 82.5305C76.8987 82.4474 76.9471 82.3573 76.9821 82.2631C77.0839 81.9851 77.0662 81.6707 76.9184 81.3949C76.8436 81.2555 76.7591 81.103 76.6658 80.9389C76.8389 80.8167 77.0077 80.6957 77.1704 80.5761C77.456 81.0741 77.6606 81.4741 77.7951 81.7524C77.7789 81.7186 77.7614 81.6832 77.7428 81.646C77.5147 81.884 77.2128 82.184 76.8374 82.5305Z" fill="#371A45"/>
<path d="M19.4966 80.7879C19.3949 80.6817 19.3446 80.6244 19.3446 80.6244C19.0255 79.1096 18.8584 77.5773 18.8391 76.0484C18.9505 76.0926 19.0628 76.1353 19.1759 76.1753C19.1273 77.7178 19.2345 79.26 19.4966 80.7879ZM60.2501 90.6654C60.6772 89.4686 61.0632 88.2624 61.4079 87.0493C61.8676 86.9695 62.3201 86.8837 62.7629 86.7923C62.4393 87.9817 62.0766 89.164 61.6749 90.3378C61.2102 90.4531 60.7346 90.5626 60.2501 90.6654Z" fill="#371A45"/>
<path d="M20.042 70.5866C20.4997 68.9717 21.1329 67.4117 21.9364 65.924C22.0317 65.87 22.1781 65.7897 22.3736 65.6894C22.3309 65.847 22.29 66.0048 22.2509 66.1633C22.2424 66.1977 22.2344 66.2319 22.2261 66.2664C21.8681 67.7517 21.762 69.2481 21.8846 70.7087C21.7898 70.6906 21.6938 70.6744 21.5972 70.6601C21.0822 70.5838 20.5598 70.5641 20.042 70.5866Z" fill="#B9AFBE"/>
<path d="M19.395 70.6357C19.4022 70.6021 19.4097 70.5691 19.4172 70.5357C19.8389 69.0192 20.4119 67.5407 21.1347 66.1227L21.5223 66.0937C21.863 66.0682 22.1185 65.7713 22.093 65.4306C22.0864 65.3381 22.0593 65.2519 22.0168 65.1757C22.1778 65.0917 22.3739 64.9925 22.6052 64.882C22.5927 64.888 22.5812 64.8934 22.5687 64.8994C22.5596 64.936 22.5493 64.9723 22.54 65.0092C22.532 65.0434 22.5235 65.0777 22.5153 65.1122C22.4901 65.2166 22.4693 65.3211 22.4467 65.4258C22.4221 65.5134 22.3978 65.6013 22.3739 65.689C22.1784 65.7892 22.032 65.8696 21.9367 65.9236C21.1332 67.4113 20.5 68.9712 20.0423 70.5861C19.8255 70.5956 19.609 70.6125 19.395 70.6357Z" fill="#371A45"/>
<path d="M21.1343 66.1229C21.2448 65.9061 21.3586 65.6907 21.4759 65.477C21.4759 65.477 21.6584 65.3635 22.0164 65.176C22.0588 65.2522 22.086 65.3384 22.0926 65.4309C22.1181 65.7715 21.8626 66.0684 21.5219 66.0939L21.1343 66.1229Z" fill="#371A45"/>
<path d="M20.7211 76.5691C16.9902 76.0143 13.7549 72.5159 13.7549 72.5159C13.7549 72.5159 13.7706 72.5065 13.7996 72.4911C14.2529 72.2342 18.0934 70.1413 21.5973 70.6598C24.9597 71.1578 27.3 73.9901 27.7063 74.5132C27.7475 74.567 27.7689 74.5962 27.7689 74.5962C27.7689 74.5962 24.4266 77.1214 20.7211 76.5691Z" fill="#EC1C24"/>
<path d="M13.9021 72.8305C13.8442 72.7714 13.8141 72.7389 13.8141 72.7389C13.8141 72.7389 13.8307 72.7299 13.8594 72.7135C13.8745 72.7052 13.8936 72.6943 13.9163 72.6819C13.9185 72.684 13.9203 72.6862 13.9225 72.6882C13.9155 72.7357 13.9086 72.7832 13.9021 72.8305Z" fill="#FFEEBA"/>
<path d="M14.2852 73.2069C14.1101 73.0417 13.9798 72.9114 13.9012 72.8305C13.9077 72.7834 13.9146 72.7361 13.9216 72.6888C14.0319 72.7996 14.1946 72.9588 14.4027 73.1499C14.3624 73.1693 14.3231 73.1884 14.2852 73.2069Z" fill="#AFA3B5"/>
<path d="M27.2645 75.1966C27.2187 75.1438 27.1693 75.0872 27.1155 75.0277C27.3975 74.857 27.5968 74.7202 27.6965 74.6496C27.7236 74.6834 27.7468 74.7124 27.7654 74.7367C27.8082 74.7911 27.8295 74.8199 27.8295 74.8199C27.8295 74.8199 27.6257 74.9736 27.2645 75.1966Z" fill="white"/>
<path d="M14.1714 72.5449C15.2486 71.9841 18.5826 70.428 21.6571 70.8832C22.7262 71.0414 23.6918 71.4356 24.5244 71.9163C26.0299 72.7854 27.1022 73.9381 27.5684 74.4931L26.4319 74.3275C25.8885 73.8139 25.175 73.2313 24.3228 72.7392C23.4899 72.2584 22.5244 71.8639 21.455 71.7055C19.251 71.3789 16.9135 72.0864 15.3701 72.7191L14.1714 72.5449Z" fill="#F7A4A7"/>
<path d="M17.2973 75.2952C16.0474 74.5735 15.0234 73.7186 14.4033 73.1493C14.6707 73.0207 14.9974 72.8721 15.3702 72.7191L26.4321 74.3278C26.7037 74.585 26.9329 74.8246 27.1153 75.0269C25.9649 75.7222 23.4407 76.9742 20.7211 76.569C20.1936 76.4909 19.676 76.3535 19.1762 76.1755C19.0629 76.1353 18.9506 76.0927 18.8393 76.0484C18.5383 75.929 18.2445 75.7956 17.9596 75.6526C17.733 75.5388 17.5119 75.419 17.2973 75.2952ZM13.9159 72.6819C13.811 72.5761 13.7549 72.5158 13.7549 72.5158C13.7549 72.5158 13.7706 72.5064 13.7996 72.4911L14.1717 72.5451C14.0621 72.6018 13.9761 72.6488 13.9159 72.6819ZM27.6966 74.6489C27.661 74.6045 27.6183 74.5523 27.5689 74.4934L27.7063 74.5131C27.7476 74.5669 27.769 74.5961 27.769 74.5961C27.769 74.5961 27.7445 74.6149 27.6966 74.6489Z" fill="#AD1B30"/>
<path d="M14.4036 73.1503C14.1916 72.9554 14.0268 72.7939 13.916 72.6828C13.9765 72.6498 14.0624 72.6028 14.1717 72.5459L15.3705 72.7201C14.9975 72.873 14.6709 73.0217 14.4036 73.1503ZM27.1155 75.0279C26.9326 74.8254 26.7037 74.5856 26.4323 74.3286L27.5689 74.4939C27.6184 74.5533 27.661 74.6055 27.6968 74.6495C27.597 74.7205 27.3977 74.8573 27.1155 75.0279Z" fill="#B47485"/>
<path d="M14.799 72.6709C15.8649 73.6511 18.2394 75.5754 20.8116 75.9578C23.3759 76.3393 25.804 75.1005 26.853 74.4604C26.0358 73.5434 24.0721 71.6524 21.5072 71.2719C18.9346 70.8911 16.1034 72.0424 14.799 72.6709ZM16.978 75.8284C14.863 74.6073 13.3922 73.035 13.3008 72.9357L12.7783 72.3708L13.4424 71.9823C13.6181 71.8793 17.7873 69.4701 21.6885 70.0483C25.6067 70.6287 28.1619 74.0853 28.2689 74.2321L28.6265 74.7237L28.1419 75.0895C27.9969 75.1992 24.5478 77.7644 20.6296 77.1818C19.3101 76.9854 18.0596 76.4529 16.978 75.8284Z" fill="#371A45"/>
<path d="M35.0115 81.6445C33.3148 80.6649 31.9525 78.8797 31.6916 76.6183C31.3998 74.0769 32.3169 71.8705 33.298 70.3442C34.4447 68.5616 35.7828 67.0021 35.6608 65.1011C35.6092 64.2814 35.3209 63.396 34.9471 62.4242C35.3196 62.3925 35.699 62.3654 36.0857 62.3424C36.355 62.7334 36.6059 63.1246 36.809 63.5169C36.9615 63.8153 37.0792 64.1152 37.1311 64.3894C37.146 64.4593 37.1485 64.519 37.1564 64.5905L37.1601 64.8236C37.1635 64.9011 37.15 64.9789 37.1467 65.0566C37.1438 65.1344 37.1323 65.2124 37.1178 65.2901C37.0255 65.9133 36.7402 66.5329 36.3904 67.1405C36.0374 67.7494 35.6155 68.3494 35.1983 68.9754L34.8869 69.4498C34.7832 69.6154 34.6791 69.7807 34.5828 69.9511C34.3879 70.2905 34.2064 70.6381 34.0473 70.9972C33.7207 71.711 33.4789 72.4678 33.3174 73.2434C33.1648 74.0211 33.1026 74.8212 33.1465 75.6173C33.1664 75.8163 33.1736 76.0136 33.2054 76.2138L33.3069 76.8138C33.3456 77.0127 33.4113 77.206 33.4633 77.4021C33.5111 77.6001 33.5904 77.7874 33.666 77.9759C33.9687 78.7275 34.3842 79.4401 34.923 80.0462C35.4567 80.6558 36.0861 81.1795 36.7859 81.59C36.7996 81.5979 36.8132 81.6058 36.8269 81.6137C37.4505 81.9737 38.1308 82.245 38.8452 82.3968C38.831 82.3995 38.8169 82.4019 38.8027 82.4046C37.5508 82.6213 36.199 82.33 35.0115 81.6445Z" fill="#CDC6D0"/>
<path d="M34.9468 62.4241C34.8578 62.1919 34.7635 61.9549 34.6668 61.7127C34.9633 61.6879 35.2662 61.6644 35.5722 61.6442C35.579 61.644 35.5858 61.6437 35.5924 61.6433C35.6118 61.6705 35.6315 61.6973 35.651 61.7245C35.7978 61.9307 35.9443 62.1367 36.0857 62.3422C35.699 62.3652 35.3193 62.3926 34.9468 62.4241Z" fill="#371A45"/>
<path d="M44.2411 73.7902C44.3131 74.639 44.3888 81.2381 40.916 81.8384C37.8744 82.3644 34.2477 79.8956 33.8045 76.0523C33.5131 73.5107 34.4296 71.3043 35.4106 69.7776C36.5578 67.9953 37.8957 66.4355 37.7736 64.5347C37.6359 62.3695 33.9128 59.4414 33.2299 55.9596C32.8263 53.9087 33.6188 51.064 35.4785 48.0932C36.0438 47.1912 36.7078 46.2763 37.4677 45.3684C40.6936 41.513 45.6386 37.7914 52.0227 35.6538C52.0227 35.6538 50.0135 42.6793 48.4727 49.0631C47.3978 53.5125 46.5514 57.6506 46.7727 58.8732C46.8014 59.0365 46.8506 59.1466 46.9191 59.2005C47.7608 59.8559 48.5102 60.6298 49.1365 61.5093C49.6962 62.2966 50.1669 63.1793 50.4283 64.1339C51.3784 67.6231 48.8836 72.0868 46.3377 73.0098C45.3348 73.3736 44.2411 73.7902 44.2411 73.7902Z" fill="white"/>
<path d="M49.9888 60.8372L46.7729 58.8733C46.725 58.6108 46.7268 58.2139 46.7697 57.7086L47.7908 58.3869C47.8534 58.4355 47.9192 58.4805 47.9893 58.5224C48.1549 58.6215 48.3211 58.719 48.4879 58.8153C48.6408 58.9036 48.7942 58.9911 48.9478 59.0768C49.0688 59.2679 49.1887 59.4532 49.3077 59.6332C49.5492 59.9975 49.786 60.3386 50.0129 60.6547L49.9888 60.8372Z" fill="#CDC6D0"/>
<path d="M37.4473 80.5433C37.4349 80.5361 37.4221 80.5287 37.4095 80.521C36.8287 80.1805 36.3033 79.7431 35.858 79.2359C35.4075 78.7314 35.0663 78.139 34.815 77.517C34.3012 76.2784 34.2686 74.8396 34.5303 73.4868C34.6721 72.8093 34.8838 72.1416 35.1754 71.5049C35.3168 71.1847 35.48 70.8734 35.6548 70.5688C35.741 70.4159 35.8346 70.2672 35.9277 70.1176L36.2278 69.6614C36.6335 69.051 37.0688 68.4359 37.4616 67.7601C37.6592 67.4241 37.8403 67.0647 37.996 66.6875C38.153 66.3116 38.275 65.9051 38.3398 65.4828C38.3586 65.3777 38.3742 65.2719 38.3797 65.1638C38.3853 65.0564 38.4 64.9495 38.3972 64.8414L38.3918 64.5175C38.3815 64.4045 38.3712 64.2781 38.348 64.1669C38.261 63.7102 38.0942 63.3154 37.9103 62.9532C37.5359 62.2327 37.0908 61.6141 36.657 61.0037C35.7862 59.7929 34.9154 58.6233 34.3363 57.3517C34.0522 56.7212 33.8383 56.0613 33.7741 55.4128C33.7055 54.7541 33.7661 54.0613 33.9018 53.3793C34.038 52.6955 34.2488 52.0176 34.5038 51.3537C34.7693 50.6923 35.0771 50.0445 35.4214 49.4132C35.6731 48.9584 35.9429 48.5127 36.228 48.0762C37.27 49.7878 39.4601 51.2525 40.9036 52.0859C40.9447 52.1096 40.9859 52.1334 41.026 52.156C42.3739 52.9239 44.0452 53.6917 45.4282 54.0878L45.093 54.7115C44.6682 55.5028 44.9115 56.4745 45.6597 56.9712L46.7695 57.7081C46.7265 58.2134 46.725 58.6103 46.7724 58.8731L44.3536 57.3959C43.8453 57.0579 43.6768 56.3875 43.9664 55.8492L44.5238 54.8122C43.3241 54.4371 41.8301 53.7753 40.4014 52.9504C38.9429 52.1089 37.5523 51.096 36.6119 50.0425C35.5602 52.26 35.1625 54.3125 35.4719 55.8918C36.155 59.3737 39.9004 59.8788 40.57 63.4512C40.9876 65.6852 38.7998 67.9275 37.6532 69.71C36.6718 71.2362 34.7361 73.1885 35.0267 75.7277C35.2396 77.5754 36.513 79.0026 38.116 79.9281C39.1223 80.5091 40.2582 80.8925 41.3435 81.0589C41.2856 81.0858 41.2267 81.1098 41.166 81.1306L41.0659 81.1679C41.0317 81.1787 40.9958 81.1844 40.9609 81.1929C40.8879 81.2066 40.827 81.2322 40.7415 81.2361C40.5803 81.2501 40.4205 81.2778 40.2585 81.2843C40.0954 81.281 39.9321 81.2844 39.7685 81.2783L39.2779 81.2206C38.6397 81.1083 38.0172 80.8723 37.4473 80.5433Z" fill="#CDC6D0"/>
<path d="M63.6198 48.1193C63.7748 47.766 63.9253 47.4277 64.0695 47.1054C65.5023 47.2197 66.9546 47.1502 68.3958 46.8926C68.9293 46.999 69.4717 47.097 70.0181 47.1842C67.9777 47.9119 65.8003 48.2355 63.6198 48.1193Z" fill="#CDC6D0"/>
<path d="M68.395 46.8926C68.8365 46.814 69.2762 46.7177 69.7145 46.6033C69.7916 46.5834 69.8683 46.5632 69.9448 46.5424C70.3518 46.6092 70.7611 46.6701 71.1694 46.7233C70.7913 46.8915 70.4066 47.0453 70.0173 47.1844C69.4708 47.0967 68.9284 46.9989 68.395 46.8926Z" fill="#371A45"/>
<path d="M56.3147 45.9442C56.2817 45.9252 56.2491 45.9064 56.2161 45.8873C54.1082 44.6509 52.3793 43.0161 51.0693 41.134C50.9404 40.9493 50.7986 40.7783 50.6468 40.6215C50.7838 40.116 50.9147 39.6349 51.0373 39.1869C52.4413 41.4329 54.3916 43.383 56.83 44.8142C56.8664 44.8353 56.902 44.8558 56.9384 44.8768C59.1572 46.1579 61.5842 46.9082 64.0682 47.1063C63.9241 47.4282 63.7738 47.7666 63.6185 48.1198C62.3731 48.0528 61.1261 47.8432 59.9018 47.4832C58.674 47.1235 57.4706 46.6116 56.3147 45.9442Z" fill="#CDC6D0"/>
<path d="M40.1213 44.8201C39.8343 44.5441 39.6094 44.3103 39.4388 44.1242C40.9344 42.6055 42.6003 41.2483 44.3795 40.0668C45.5878 39.2488 46.8928 38.5911 48.192 37.9365C48.7641 37.6433 49.3391 37.3612 49.9134 37.0682C50.237 37.7977 50.6121 38.5054 51.0378 39.1865C50.915 39.6346 50.7841 40.1157 50.6472 40.6212C50.3823 40.3481 50.0846 40.1187 49.7655 39.9345C48.4081 39.1508 46.6531 39.1824 45.297 40.1548C43.28 41.6012 41.5478 43.1929 40.1213 44.8201Z" fill="#CDC6D0"/>
<path d="M47.2566 59.2063C47.9574 59.5989 48.5913 60.115 49.1473 60.7088C49.702 61.3029 50.1913 61.9699 50.5627 62.7208C50.7477 63.0955 50.9067 63.4882 51.0313 63.895C51.1542 64.3087 51.232 64.7375 51.2717 65.1629C51.3482 66.0187 51.2543 66.867 51.0603 67.6784C50.8584 68.4882 50.5583 69.2658 50.1683 69.9952C49.784 70.7272 49.3138 71.4162 48.7415 72.0323C48.1693 72.6443 47.4999 73.2082 46.6468 73.5505L44.4591 74.3668L44.8556 73.736C44.8721 73.956 44.8754 74.1429 44.8785 74.3396C44.8791 74.5332 44.8779 74.726 44.8722 74.9182C44.8625 75.3026 44.8405 75.6857 44.8066 76.0686C44.7399 76.8348 44.6225 77.6004 44.4344 78.3614C44.2402 79.1204 43.9799 79.8819 43.5445 80.5967C43.3264 80.9518 43.0678 81.2982 42.7371 81.5954C42.4096 81.8934 42.0149 82.1409 41.5843 82.2941L41.4232 82.3516C41.3691 82.3686 41.3128 82.3791 41.258 82.3931C41.149 82.4163 41.0322 82.4518 40.9318 82.4579C40.7238 82.4794 40.515 82.5116 40.307 82.5197C40.0993 82.5179 39.8901 82.5209 39.6834 82.5121L39.0677 82.4392C38.2558 82.2968 37.4841 81.9988 36.7848 81.5889C36.0851 81.1786 35.4557 80.6548 34.922 80.0452C34.3832 79.4392 33.968 78.7267 33.6651 77.9751C33.5893 77.7864 33.5101 77.5992 33.4624 77.4012C33.4105 77.2052 33.3446 77.0117 33.3062 76.813L33.2042 76.2127C33.1726 76.0127 33.1657 75.8155 33.1459 75.6166C33.102 74.8205 33.1639 74.0202 33.3163 73.2424C33.4777 72.4667 33.7201 71.7103 34.0462 70.9962C34.2056 70.6374 34.3873 70.2895 34.5819 69.9503C34.6784 69.7801 34.7823 69.6145 34.8859 69.4487L35.1974 68.9744C35.6143 68.3486 36.0366 67.7488 36.3895 67.1395C36.7396 66.532 37.0244 65.9125 37.1169 65.2892C37.1313 65.2114 37.1432 65.1338 37.1459 65.0557C37.1494 64.9781 37.1627 64.9002 37.159 64.8226L37.1554 64.5896C37.1475 64.5183 37.1452 64.4582 37.1299 64.3884C37.0781 64.1145 36.9606 63.8146 36.8082 63.5161C36.4979 62.9171 36.0772 62.3219 35.6499 61.7236C34.793 60.5261 33.8666 59.3006 33.2086 57.8621C32.8853 57.1407 32.6275 56.3711 32.5422 55.5378C32.4585 54.7174 32.5346 53.9133 32.6866 53.141C32.8405 52.3681 33.0738 51.6236 33.3508 50.9014C33.639 50.1839 33.9696 49.4891 34.3362 48.8168C35.0779 47.476 35.9576 46.2262 36.9238 45.0538C38.8713 42.7209 41.1747 40.7082 43.6942 39.0344C44.9608 38.2101 46.2415 37.3933 47.6128 36.748C48.985 36.1126 50.4239 35.5947 51.9562 35.4579C52.0728 35.4475 52.1758 35.5333 52.1862 35.6499C52.1933 35.7318 52.1538 35.8065 52.0891 35.8481L52.0875 35.8489C50.8051 36.6623 49.4891 37.2697 48.1911 37.9352C46.892 38.59 45.5869 39.248 44.3786 40.0658C41.9519 41.6772 39.7363 43.615 37.8759 45.8439C36.9534 46.9631 36.1173 48.1532 35.4208 49.4125C35.0764 50.0443 34.7683 50.6918 34.5026 51.353C34.2481 52.0176 34.0371 52.6948 33.9007 53.3785C33.7651 54.061 33.7045 54.7532 33.7731 55.4124C33.8376 56.0609 34.0512 56.7206 34.3354 57.3512C34.9142 58.6225 35.7849 59.7921 36.6562 61.0032C37.0901 61.6138 37.5349 62.2324 37.9091 62.9526C38.093 63.3147 38.2603 63.7097 38.347 64.1665C38.37 64.2779 38.3803 64.404 38.3905 64.5169L38.3966 64.841C38.3994 64.9491 38.3844 65.0558 38.3784 65.1636C38.3731 65.2712 38.3575 65.3769 38.3392 65.4821C38.274 65.9048 38.152 66.3108 37.9951 66.6872C37.8395 67.0645 37.6585 67.4236 37.4604 67.7593C37.0677 68.4354 36.6325 69.0503 36.2269 69.6608L35.9269 70.1172C35.834 70.2666 35.7399 70.4152 35.6539 70.5682C35.4792 70.8729 35.3157 71.184 35.1745 71.5043C34.8828 72.141 34.6709 72.8086 34.5291 73.4861C34.2677 74.839 34.3001 76.2777 34.8139 77.5163C35.0654 78.1384 35.4069 78.7309 35.8572 79.2354C36.3024 79.7425 36.828 80.1799 37.4083 80.5203C37.9885 80.8609 38.6245 81.1051 39.277 81.22L39.7676 81.2776C39.931 81.2837 40.0944 81.2803 40.2575 81.2836C40.4197 81.2772 40.5793 81.2494 40.7405 81.2354C40.8259 81.2315 40.8872 81.2061 40.9598 81.1922C40.9946 81.1837 41.0308 81.1781 41.0651 81.1673L41.1654 81.1302C41.7033 80.9424 42.1546 80.5118 42.4891 79.9512C42.8293 79.3961 43.0623 78.7376 43.2344 78.0605C43.4021 77.3795 43.5121 76.673 43.5743 75.9593C43.6056 75.6027 43.6265 75.2443 43.6358 74.8864C43.6411 74.7073 43.642 74.5286 43.6411 74.3511C43.6391 74.1764 43.6343 73.9918 43.6229 73.8419L43.5875 73.3717L44.0191 73.2104L46.1951 72.399C46.7888 72.163 47.3515 71.7168 47.8284 71.1931C48.7858 70.1347 49.4578 68.7728 49.7732 67.376C49.9276 66.6757 50.0001 65.9628 49.9499 65.2688C49.9269 64.9212 49.869 64.5822 49.7854 64.2474C49.6993 63.9077 49.5816 63.5718 49.4391 63.2437C49.1549 62.5862 48.7923 61.9421 48.3788 61.3242C47.9641 60.7062 47.4969 60.1159 46.9961 59.5259L46.995 59.5247C46.9202 59.4367 46.9307 59.3046 47.019 59.2294C47.0874 59.172 47.1827 59.1654 47.2566 59.2063Z" fill="#371A45"/>
<path d="M37.2583 66.6897C37.0602 66.5753 36.9724 66.3295 37.0616 66.1117C39.106 61.1278 43.1057 60.5225 44.7305 60.4936C47.4247 60.4461 49.8985 61.725 50.7477 63.6041C50.8534 63.8376 50.7497 64.1125 50.5161 64.2175C50.2827 64.3238 50.0085 64.22 49.9024 63.9863C49.2123 62.4596 47.044 61.3813 44.7471 61.4218C43.3057 61.447 39.7553 61.9893 37.92 66.4641C37.8228 66.701 37.5515 66.8142 37.3146 66.7171C37.2949 66.7093 37.2761 66.7 37.2583 66.6897Z" fill="#371A45"/>
<path d="M45.016 74.1479C44.928 74.1695 44.8717 74.1794 44.8017 74.1923C44.7351 74.2045 44.669 74.2124 44.6029 74.2213C44.471 74.2392 44.3391 74.2474 44.2075 74.2541C43.9444 74.2682 43.6803 74.2554 43.417 74.2331C42.8915 74.1795 42.3661 74.0541 41.8716 73.8384C41.3806 73.6221 40.9107 73.3245 40.5576 72.9168C40.2022 72.5157 39.9597 72.0276 39.8853 71.5213C40.2806 71.8515 40.6393 72.1366 41.034 72.3397C41.2248 72.4473 41.4222 72.5353 41.6211 72.6135C41.8186 72.6934 42.0206 72.7599 42.2295 72.8065C42.6441 72.9062 43.0723 72.9564 43.5057 72.9688C43.7221 72.98 43.9394 72.9736 44.1567 72.9698L44.4807 72.9541L44.7823 72.9333L44.8281 72.9302C45.1689 72.9067 45.4643 73.1636 45.488 73.5041C45.509 73.81 45.3043 74.0786 45.016 74.1479Z" fill="#371A45"/>
<path d="M77.3658 41.798C77.2 41.716 77.1327 41.5161 77.2144 41.3509L81.479 32.7385C81.5609 32.5728 81.7614 32.5058 81.926 32.5872C83.6587 33.4452 84.3674 35.5451 83.5102 37.2775L82.0559 40.2144C81.1978 41.947 79.0979 42.6557 77.3658 41.798Z" fill="white"/>
<path d="M82.0946 32.7527C82.0301 32.7155 81.9644 32.6804 81.8969 32.6472C81.7644 32.5815 81.604 32.6355 81.5386 32.7675L77.2744 41.3806C77.2425 41.4445 77.2376 41.5168 77.2604 41.5849C77.2835 41.6524 77.331 41.7065 77.3952 41.7392C79.0918 42.5786 81.156 41.8817 81.9963 40.1849L83.4507 37.248C83.8573 36.4261 83.9205 35.4948 83.6268 34.6261C83.357 33.8275 82.8172 33.1699 82.0946 32.7527ZM77.3132 41.845C77.2292 41.7965 77.1662 41.7204 77.1349 41.6272C77.1009 41.526 77.1079 41.4174 77.1551 41.3219L81.4199 32.7091C81.5175 32.5112 81.7578 32.4304 81.9557 32.528C82.8097 32.9503 83.4476 33.6805 83.7524 34.5837C84.0569 35.4861 83.9919 36.4532 83.569 37.3069L82.1152 40.2442C81.2424 42.006 79.0986 42.7306 77.3362 41.8576C77.3283 41.8538 77.3208 41.8494 77.3132 41.845Z" fill="#371A45"/>
<path d="M78.1504 41.4385C78.6225 40.9037 79.0626 40.3375 79.4698 39.7402C80.2266 39.9229 81.0097 39.8429 81.6994 39.5395L81.501 39.9394C80.8787 41.1969 79.4554 41.8001 78.1504 41.4385Z" fill="#B9AFBE"/>
<path d="M81.9006 33.2813L77.9013 41.358C79.2697 41.8757 80.8384 41.2781 81.5008 39.9409L82.955 37.0034C83.2965 36.3138 83.349 35.5322 83.1025 34.8031C82.8873 34.1647 82.4653 33.6327 81.9006 33.2813ZM77.0357 42.3238C76.8353 42.2081 76.6856 42.0258 76.611 41.8041C76.5294 41.563 76.5472 41.3046 76.6603 41.0772L80.9248 32.4645C81.1579 31.9941 81.7299 31.8008 82.2003 32.0339C83.186 32.5216 83.9229 33.3646 84.2751 34.4075C84.627 35.4495 84.5521 36.5667 84.0635 37.5526L82.6096 40.4896C81.6016 42.5249 79.1262 43.3608 77.0906 42.3533C77.072 42.344 77.0537 42.3342 77.0357 42.3238Z" fill="#371A45"/>
<path d="M53.4978 18.5102C53.663 18.5921 53.7303 18.7922 53.6487 18.9572L49.3838 27.5701C49.3024 27.7353 49.102 27.8027 48.9368 27.7208C47.2045 26.8635 46.4955 24.7635 47.3534 23.0307L48.8073 20.0942C49.6654 18.3616 51.7652 17.6527 53.4978 18.5102Z" fill="white"/>
<path d="M53.4691 18.5702C51.7721 17.7298 49.7077 18.4272 48.8675 20.1242L47.4133 23.0611C46.5732 24.7575 47.2724 26.8233 48.9671 27.6623C49.0312 27.6937 49.1037 27.6988 49.1711 27.6761C49.2388 27.6529 49.2935 27.6053 49.3254 27.5409L53.5897 18.9285C53.655 18.7964 53.6038 18.6374 53.4691 18.5702ZM48.7057 27.672C47.0912 26.7406 46.4564 24.695 47.2948 23.0018L48.7486 20.0648C49.6216 18.3025 51.7651 17.5786 53.5279 18.4513C53.7194 18.5456 53.8064 18.7897 53.7088 18.9873L49.444 27.6002C49.3969 27.6954 49.3151 27.7671 49.2133 27.8017C49.1124 27.8354 49.0039 27.8286 48.9083 27.7812C48.839 27.7469 48.7716 27.7101 48.7057 27.672Z" fill="#371A45"/>
<path d="M48.7534 26.8857C47.6695 26.0682 47.2834 24.567 47.9076 23.3067L48.1068 22.9042C48.3125 23.6026 48.735 24.2358 49.3363 24.6953C49.0909 25.4176 48.8969 26.1496 48.7534 26.8857Z" fill="#B9AFBE"/>
<path d="M52.9621 18.951C51.5934 18.434 50.0245 19.0311 49.3623 20.3688L47.9081 23.3058C47.2456 24.6433 47.7218 26.2533 48.9627 27.0281L52.9621 18.951ZM48.4288 28.1502C46.5647 27.074 45.831 24.7125 46.7994 22.7568L48.2533 19.8196C49.2613 17.7843 51.7369 16.9484 53.7724 17.9564C54.2441 18.1896 54.436 18.7615 54.2035 19.2322L49.9387 27.8449C49.8259 28.0729 49.6311 28.243 49.3902 28.3245C49.1492 28.406 48.891 28.3886 48.6628 28.276C48.5828 28.2363 48.5049 28.1941 48.4288 28.1502Z" fill="#371A45"/>
<path d="M79.558 38.4457C74.9788 46.2465 64.9444 48.8586 57.1434 44.2801C49.343 39.7018 46.7307 29.6666 51.3091 21.8661C55.8873 14.0656 65.9226 11.4531 73.7233 16.0316C81.5239 20.6099 84.1363 30.6452 79.558 38.4457Z" fill="white"/>
<path d="M73.5875 16.0295C65.8453 11.5595 55.899 14.1774 51.3665 21.8997C46.8139 29.6565 49.4207 39.6705 57.1774 44.2227C60.93 46.4265 65.3261 47.0384 69.5428 45.9412C73.7589 44.8438 77.2957 42.1698 79.5008 38.4123C81.7059 34.6549 82.3159 30.2633 81.219 26.0476C80.121 21.8311 77.447 18.2943 73.6899 16.0886C73.6557 16.0689 73.6218 16.0493 73.5875 16.0295ZM57.2148 44.3984C57.1797 44.3781 57.1452 44.3582 57.1105 44.3373C49.2908 39.7479 46.6626 29.6525 51.252 21.8328C55.8215 14.0477 65.8494 11.4086 73.6539 15.9145C73.6887 15.9346 73.7224 15.954 73.7569 15.9748C77.5455 18.1979 80.2403 21.7634 81.3474 26.0137C82.4536 30.2642 81.8381 34.6915 79.6151 38.4799C77.3918 42.2674 73.8266 44.9631 69.5761 46.0693C65.3647 47.1655 60.9795 46.5719 57.2148 44.3984Z" fill="#371A45"/>
<path d="M57.5663 43.8099C57.5301 43.789 57.4932 43.7671 57.4569 43.7455C54.4918 42.0054 52.3056 39.439 51.0186 36.5089C52.5502 38.7391 54.8385 41.1479 57.7825 42.8471C57.8717 42.8986 57.962 42.9501 58.0526 43.0001C61.3189 44.8129 64.6222 45.5982 67.3239 45.8027C63.9511 46.2172 60.5524 45.5339 57.5663 43.8099Z" fill="#B9AFBE"/>
<path d="M73.3108 16.5067C65.8308 12.1881 56.2216 14.717 51.8423 22.1779C47.444 29.6718 49.9624 39.3469 57.4565 43.7455C61.0821 45.8771 65.3289 46.4659 69.4031 45.4056C73.4766 44.3449 76.8933 41.7619 79.0237 38.1314C81.1544 34.5017 81.7436 30.2584 80.6836 26.1851C79.6229 22.1116 77.0399 18.6949 73.4098 16.5639C73.3767 16.5448 73.3439 16.5258 73.3108 16.5067ZM56.9379 44.8758C56.9017 44.8549 56.866 44.8343 56.8299 44.8126C48.7477 40.0689 46.0319 29.634 50.7749 21.5521C55.4979 13.5057 65.8629 10.7778 73.9295 15.4351C73.9654 15.4558 74 15.4758 74.0358 15.4973C77.9512 17.7953 80.7371 21.48 81.8805 25.8735C83.0247 30.2668 82.3889 34.8425 80.0909 38.7579C77.7929 42.6732 74.1082 45.4591 69.7143 46.603C65.3614 47.7355 60.8292 47.1224 56.9379 44.8758Z" fill="#371A45"/>
<path d="M79.2998 38.7819C77.7199 41.5696 75.3472 43.6453 72.5857 44.9094C70.5153 45.8571 64.152 45.9635 58.2314 42.678C52.7425 39.6311 49.4234 33.9028 49.1729 31.6394C48.8389 28.6207 49.4008 25.5192 50.9815 22.7305C55.1634 15.3527 63.2357 15.8871 71.0559 20.3194C78.8763 24.7518 83.4817 31.4034 79.2998 38.7819Z" fill="#371A45"/>
<path d="M71.0842 20.7614C71.0129 20.7202 70.9427 20.6797 70.8738 20.6407C66.8227 18.3452 62.9518 17.2465 59.6787 17.4647C56.0317 17.7084 53.2134 19.5416 51.302 22.9136C49.8111 25.5436 49.2017 28.547 49.5398 31.599C49.7757 33.7337 52.9359 39.1973 58.1568 42.2124C58.2413 42.2612 58.3253 42.3082 58.411 42.3561C64.364 45.6599 70.5762 45.424 72.4319 44.5745C75.2239 43.2962 77.488 41.2306 78.9784 38.6003C84.068 29.6214 75.3324 23.2141 71.0842 20.7614ZM57.7826 42.8487C52.2762 39.6696 49.0633 34.0096 48.8058 31.6806C48.4511 28.4728 49.0924 25.315 50.6602 22.5491C52.7014 18.9476 55.7192 16.9892 59.6295 16.7286C63.0466 16.5006 67.061 17.6312 71.2378 19.9985C75.4107 22.3613 78.4472 25.2293 80.0072 28.2783C81.7921 31.7669 81.6622 35.3622 79.6206 38.9642C78.0527 41.7301 75.6729 43.9025 72.7391 45.2458C70.7055 46.1767 64.3101 46.4743 58.0522 43.0013C57.9622 42.9516 57.8717 42.9001 57.7826 42.8487Z" fill="#371A45"/>
<path d="M73.6276 37.5486C73.5517 37.5048 73.4793 37.4538 73.4105 37.3966C72.5196 36.654 72.6281 35.055 73.6532 33.8257C74.599 32.6912 75.9948 32.2673 76.9049 32.7928C76.9808 32.8366 77.0535 32.887 77.1223 32.9443C77.8419 33.5444 77.909 34.7041 77.3676 35.7757C76.9105 36.3314 76.4251 36.856 75.9134 37.3493C75.126 37.8203 74.2596 37.9135 73.6276 37.5486Z" fill="#C0C1C2"/>
<path d="M69.4511 39.9832C69.3633 39.9325 69.2826 39.8684 69.2123 39.7907C68.7883 39.3241 68.8853 38.5456 69.4295 38.0514C69.8824 37.6397 70.5032 37.5559 70.9427 37.8096C71.0305 37.8603 71.1107 37.9242 71.1815 38.0021C71.6055 38.4687 71.5082 39.2477 70.9643 39.7414C70.5111 40.1536 69.8906 40.2369 69.4511 39.9832Z" fill="#C1C1C3"/>
<path d="M58.1577 42.2113C56.5243 41.2683 55.0931 40.0857 53.8899 38.8402C60.9653 42.2379 68.1928 42.0478 70.652 40.9218C72.5846 40.0369 74.367 38.8388 75.9136 37.3492C76.2597 37.1419 76.5905 36.8619 76.8799 36.5152C77.0762 36.2795 77.2393 36.0296 77.3677 35.7758C78.0345 34.964 78.6394 34.0861 79.1729 33.1444C79.6001 32.3918 79.9542 31.6441 80.2407 30.9039C80.8146 33.183 80.5863 35.7631 78.9786 38.5992C77.4884 41.2294 75.2239 43.2951 72.432 44.5736C70.5767 45.4227 64.3644 45.6583 58.4109 42.3546C58.3256 42.3075 58.242 42.26 58.1577 42.2113Z" fill="#2A1A3B"/>
<path d="M57.9686 42.5295C55.9918 41.3882 54.3064 39.9028 52.9542 38.3702C53.2655 38.5339 53.5776 38.6907 53.8896 38.8409C55.0932 40.0862 56.5244 41.2687 58.1574 42.2115C58.2417 42.2602 58.3257 42.308 58.411 42.355C64.3642 45.6585 70.5765 45.4233 72.4326 44.5738C75.2238 43.2956 77.4883 41.2293 78.9789 38.5995C80.5864 35.7634 80.8146 33.1835 80.2408 30.9041C80.3137 30.7148 80.3828 30.5255 80.4471 30.3371C81.2423 32.9699 80.9793 35.8173 79.2999 38.7805C77.7196 41.5695 75.347 43.6448 72.5863 44.9093C70.515 45.8572 64.1519 45.9629 58.2313 42.6775C58.143 42.6295 58.0557 42.5798 57.9686 42.5295Z" fill="#2A1A3B"/>
<path d="M75.9131 37.3496C76.4244 36.857 76.9103 36.3326 77.3672 35.7764C77.2383 36.0304 77.0754 36.2805 76.879 36.5161C76.5898 36.8627 76.2588 37.1426 75.9131 37.3496Z" fill="#858290"/>
<path d="M55.3042 17.5797C55.1836 17.5102 55.086 17.4003 55.0334 17.2599C54.9202 16.9543 55.0634 16.6162 55.3547 16.4821C59.9956 14.1986 66.1058 14.8442 72.1215 18.2538C78.0984 21.6371 81.8289 26.4832 82.3618 31.5415C82.3972 31.8223 82.2365 32.1008 81.9598 32.2014C81.6417 32.3176 81.289 32.1566 81.17 31.8392C81.1514 31.7897 81.1384 31.7357 81.1325 31.6827C80.6464 27.0226 77.1449 22.5235 71.5117 19.33C65.8528 16.1233 60.1589 15.4918 55.8898 17.5978C55.884 17.6007 55.8783 17.6035 55.8721 17.6062C55.8588 17.6124 55.8427 17.6187 55.8291 17.624C55.6494 17.6907 55.4581 17.6686 55.3042 17.5797Z" fill="#371A45"/>
<path d="M51.6728 28.9226C51.6728 28.9226 53.5134 20.3485 59.08 19.6713C63.2318 19.1666 67.4231 20.8243 69.1452 21.8185C69.7319 22.1572 70.0321 22.4189 69.9462 22.4917C69.9462 22.4917 62.8413 20.4633 57.5971 24.0169C53.5535 26.7571 51.6728 28.9226 51.6728 28.9226Z" fill="#C0C3C0"/>
<path d="M62.3814 56.1089L61.0553 59.292L60.0245 61.7683C59.744 62.4408 58.9932 62.7836 58.3007 62.5514C57.8554 62.4032 57.3053 62.2125 56.6791 61.9819C54.4494 61.1611 51.2414 59.8303 48.2694 58.0535C47.631 57.6708 47.4099 56.852 47.7652 56.1973L51.141 49.9927C51.5211 49.2942 52.4084 49.0561 53.087 49.4716C55.1385 50.7272 59.2488 53.1922 61.6842 54.3145C62.3618 54.6262 62.6692 55.4197 62.3814 56.1089Z" fill="white"/>
<path d="M52.9939 49.4198L50.4132 48.2759C49.8478 48.0247 49.1841 48.2525 48.8911 48.7975L45.574 54.9707C45.2842 55.5092 45.4529 56.1789 45.9615 56.5169L48.1266 57.9546L52.9939 49.4198Z" fill="white"/>
<path d="M47.0665 56.5951L46.2632 56.0619C45.9874 55.879 45.898 55.5209 46.0544 55.2289L46.5379 54.3293C46.5383 54.3295 46.5383 54.3295 46.5385 54.3292C46.7561 54.8944 46.9901 55.4385 47.2342 55.9594C47.2401 55.9726 47.2467 55.9862 47.2526 55.9994C47.1569 56.1918 47.0953 56.3929 47.0665 56.5951Z" fill="#CDC6D0"/>
<path d="M52.7827 49.9267C52.5879 49.8142 52.3622 49.7839 52.1439 49.8431C51.9182 49.9032 51.7326 50.0495 51.6208 50.2549L48.2449 56.4595C48.0276 56.8586 48.1612 57.3535 48.5491 57.5853C52.2759 59.8137 56.3678 61.33 58.4744 62.0348C58.8916 62.1745 59.3515 61.9655 59.5206 61.5585L61.878 55.8996C62.0527 55.4788 61.8658 55.0003 61.4558 54.8108C59.0249 53.6903 54.9906 51.277 52.8023 49.938C52.7959 49.9343 52.7891 49.9304 52.7827 49.9267ZM48.4875 58.816C48.3205 58.7195 48.1546 58.622 47.989 58.523C47.0961 57.9887 46.7872 56.8534 47.2853 55.9374L50.6617 49.733C50.9178 49.262 51.3438 48.9266 51.8615 48.7879C52.3787 48.6489 52.9177 48.7282 53.372 49.0064C55.5403 50.3327 59.5324 52.7217 61.9131 53.8189C62.863 54.2565 63.2877 55.3536 62.8862 56.3197L60.5288 61.9787C60.1403 62.9114 59.086 63.391 58.1283 63.0704C56.0724 62.383 52.1624 60.9376 48.4875 58.816Z" fill="#371A45"/>
<path d="M47.854 58.4269C47.8438 58.421 47.8343 58.415 47.8246 58.4084L45.6597 56.9708C44.9112 56.4743 44.668 55.5029 45.0932 54.7116L48.4104 48.5385C48.8356 47.7462 49.8127 47.4112 50.6348 47.7757L53.2154 48.92C53.4904 49.0414 53.6156 49.3647 53.4932 49.6406C53.371 49.9162 53.0485 50.0408 52.7726 49.9184L50.192 48.7741C49.8892 48.6397 49.5293 48.7635 49.3718 49.0551L46.055 55.2285C45.8982 55.5199 45.988 55.8783 46.2637 56.0614L48.4287 57.499C48.68 57.6659 48.7486 58.0043 48.5814 58.256C48.4214 58.4972 48.1019 58.57 47.854 58.4269Z" fill="#371A45"/>
<path d="M53.0997 61.18C52.8514 61.0367 52.7548 60.7221 52.8855 60.4623L54.4936 57.2594L53.5357 55.2954C53.462 55.1441 53.462 54.9674 53.5358 54.816L55.4336 50.9357C55.566 50.6655 55.893 50.553 56.1642 50.6856C56.4382 50.8197 56.5473 51.1452 56.4146 51.4158L54.6339 55.0562L55.5935 57.0237C55.6683 57.1767 55.6673 57.356 55.5906 57.5078L53.8615 60.952C53.7262 61.2217 53.3979 61.3302 53.1286 61.1951C53.1187 61.1905 53.1091 61.1854 53.0997 61.18Z" fill="#371A45"/>
<path d="M60.3959 58.7331C60.307 58.9322 59.3104 60.4133 59.3104 60.4133C59.3104 60.4133 58.8016 60.1856 58.1768 59.9071C57.3966 59.5582 57.1249 58.468 57.5699 57.4713C58.0153 56.4748 59.0083 55.9493 59.7887 56.2977C60.3153 56.5329 60.9219 56.8037 60.9219 56.8037C60.9219 56.8037 60.5403 58.4089 60.3959 58.7331Z" fill="#22A7F0"/>
<path d="M60.3948 58.7328C60.3064 58.9321 59.3101 60.4134 59.3101 60.4134C59.3101 60.4134 59.2973 60.4077 59.2728 60.3963C59.5577 59.9673 59.8903 59.4547 59.94 59.3436C60.0853 59.0199 60.4664 57.4144 60.4664 57.4144C60.4664 57.4144 59.8599 57.1436 59.3333 56.9084C58.7885 56.6644 58.1377 56.8483 57.6434 57.3208C58.1161 56.4222 59.0479 55.9669 59.7881 56.2977C60.3144 56.5333 60.9216 56.8039 60.9216 56.8039C60.9216 56.8039 60.5401 58.4091 60.3948 58.7328Z" fill="white"/>
<path d="M60.3798 57.0697L59.5992 56.7212C59.3551 56.6121 59.0607 56.6365 58.7704 56.79C58.4427 56.9638 58.1666 57.2729 57.9936 57.6606C57.8206 58.0483 57.7744 58.46 57.8642 58.8201C57.9432 59.1389 58.1221 59.3745 58.3661 59.483L59.142 59.8299C59.6921 59.0048 59.9331 58.6212 59.9732 58.5411C60.0217 58.43 60.1532 57.9866 60.3798 57.0697ZM57.8286 60.2494C57.4018 60.003 57.0973 59.5815 56.964 59.0443C56.8243 58.4845 56.8887 57.8582 57.1463 57.2826C57.4036 56.7062 57.826 56.2397 58.3364 55.9698C58.8845 55.6803 59.4673 55.6459 59.9777 55.8742L60.7689 56.2276C61.1749 56.4084 61.3891 56.851 61.2831 57.2802C60.9522 58.6243 60.8518 58.8484 60.8192 58.9223C60.7932 58.981 60.7316 59.1186 59.907 60.3553C59.6593 60.7272 59.1831 60.8644 58.7747 60.6817L57.9878 60.3307C57.9327 60.3062 57.8797 60.2789 57.8286 60.2494Z" fill="#371A45"/>
<path d="M61.5279 59.2391C61.083 60.2356 60.0895 60.7613 59.3089 60.4128C58.529 60.0641 58.2568 58.9737 58.7022 57.9774C59.1473 56.9805 60.1405 56.4552 60.9207 56.8035C61.7009 57.1517 61.9731 58.2421 61.5279 59.2391Z" fill="#22A7F0"/>
<path d="M61.5279 59.2387C61.4741 59.3593 61.4123 59.4731 61.343 59.5786C61.5827 58.6946 61.2907 57.8183 60.6057 57.5113C59.9186 57.206 59.0685 57.5746 58.5713 58.346C58.605 58.2222 58.6479 58.0981 58.7029 57.9765C59.1473 56.9801 60.1413 56.4549 60.9216 56.8039C61.7015 57.1515 61.9728 58.2425 61.5279 59.2387Z" fill="white"/>
<path d="M60.8012 57.263C60.7787 57.2499 60.756 57.2391 60.7322 57.2282C60.1957 56.9888 59.4606 57.4185 59.1261 58.1669C58.9531 58.5551 58.9072 58.9668 58.9966 59.3271C59.0761 59.6454 59.2551 59.881 59.4987 59.9899C59.7432 60.0992 60.0377 60.0746 60.3279 59.921C60.6554 59.7479 60.9316 59.4386 61.1046 59.0505C61.4239 58.3353 61.2827 57.5409 60.8012 57.263ZM58.9615 60.7563C58.5345 60.5098 58.2302 60.0883 58.0964 59.5514C57.957 58.9908 58.0214 58.3651 58.279 57.7891C58.8273 56.5603 60.0979 55.9284 61.1107 56.3809C62.1211 56.8309 62.5006 58.2004 61.9523 59.4292C61.6945 60.0056 61.2717 60.4715 60.7618 60.7412C60.2142 61.0312 59.631 61.0651 59.1206 60.8374C59.0658 60.8125 59.0125 60.7858 58.9615 60.7563Z" fill="#371A45"/>
<path d="M38.565 43.9384C38.565 43.9384 40.9277 47.2322 48.6848 51.3626C48.6848 51.3626 49.3072 53.5028 47.2768 53.8015C45.246 54.0999 37.037 50.2068 36.2467 46.7364C35.747 44.539 38.565 43.9384 38.565 43.9384Z" fill="white"/>
<path d="M41.3973 51.0998C39.18 49.8197 37.1285 48.1541 36.7784 46.6153C36.6844 46.2013 36.7349 45.8488 36.933 45.5369C37.0099 45.4162 37.1036 45.3077 37.2082 45.2098C37.6568 46.8875 39.8014 48.6535 42.1155 49.9895C43.335 50.6936 44.6013 51.278 45.6917 51.6682C45.8181 52.1709 45.9599 52.6611 46.1155 53.1384C44.911 52.843 43.1047 52.0856 41.3973 51.0998Z" fill="#CDC6D0"/>
<path d="M38.3657 44.5641C37.9624 44.7002 37.275 45.0001 36.9338 45.537C36.7352 45.8487 36.6848 46.2016 36.7791 46.6155C37.5025 49.7944 45.4835 53.5135 47.1971 53.2612C47.6098 53.2003 47.8884 53.0495 48.0491 52.7999C48.2573 52.4758 48.2457 52.0136 48.2029 51.7245C41.8454 48.3079 39.1388 45.4784 38.3657 44.5641ZM40.9037 52.0869C39.1276 51.0614 36.2199 49.079 35.7143 46.8578C35.5538 46.1528 35.6552 45.5096 36.0151 44.9463C36.7625 43.7762 38.3823 43.419 38.4511 43.4044L38.8006 43.3302L39.0079 43.6198C39.0439 43.6688 41.4472 46.8906 48.9411 50.8804L49.1445 50.9888L49.2086 51.2103C49.2459 51.3374 49.5532 52.4785 48.9678 53.3897C48.7367 53.7499 48.269 54.2073 47.356 54.3417C45.9943 54.5418 43.1199 53.3498 41.0261 52.157C40.9859 52.1343 40.9448 52.1106 40.9037 52.0869Z" fill="#371A45"/>
<path d="M53.4871 70.1568C52.7642 69.7394 52.1653 69.1997 51.8134 68.5359C51.4502 67.8511 51.3078 67.223 51.2485 66.6308C51.3043 66.1483 51.317 65.6572 51.2729 65.1645C51.233 64.7384 51.1551 64.3097 51.0326 63.8966C51.0119 63.8294 50.9907 63.7631 50.9681 63.6972C51.4195 63.8017 51.8669 63.911 52.3104 64.026C52.5783 65.0173 52.4915 65.8812 52.9748 67.1152C53.0694 67.356 53.1856 67.6104 53.33 67.8836C53.6816 68.5467 54.2042 69.0417 54.8168 69.3954C55.6402 69.8708 56.6262 70.0906 57.5803 70.1189C58.4635 70.1454 59.3198 70.0073 59.9931 69.7565C60.7161 69.4874 61.2964 69.2093 61.678 68.7845C61.3682 69.9035 60.5437 70.5764 59.4621 70.9789C58.4613 71.3507 56.798 71.3231 55.248 70.884C54.7785 70.6466 54.2813 70.452 53.7613 70.3061C53.6681 70.2583 53.5768 70.2086 53.4871 70.1568Z" fill="#CDC6D0"/>
<path d="M50.9677 63.6963C50.8803 63.4373 50.7798 63.1847 50.6674 62.939C51.1279 63.0429 51.5821 63.1515 52.0287 63.2641C52.0433 63.2878 52.0549 63.3076 52.0617 63.3231C52.1701 63.5675 52.2493 63.7999 52.3103 64.0248C51.8664 63.9101 51.4191 63.8007 50.9677 63.6963Z" fill="#371A45"/>
<path d="M53.7612 70.3057C54.2815 70.4514 54.7785 70.6465 55.2478 70.8835C54.7302 70.737 54.225 70.5445 53.7612 70.3057Z" fill="#371A45"/>
<path d="M51.2483 66.6311C51.1364 65.5053 51.3279 64.511 50.883 63.5101C50.8434 63.4209 50.6889 63.2121 50.454 62.8925C50.525 62.9083 50.5964 62.9242 50.6672 62.9403C50.7794 63.1858 50.8806 63.4386 50.9676 63.6976C50.9903 63.7633 51.0114 63.8298 51.032 63.8965C51.1545 64.3103 51.2327 64.7389 51.2725 65.1645C51.3167 65.6574 51.304 66.1485 51.2483 66.6311Z" fill="#371A45"/>
<path d="M53.6117 44.2586C54.7703 51.8175 59.7746 58.931 61.7307 64.9715C62.8023 68.2824 61.8894 69.0502 59.9937 69.7564C58.0509 70.4794 54.5915 70.2628 53.3301 67.883C52.2762 65.8952 52.7412 64.8526 52.0631 63.3244C51.7955 62.7214 45.5069 56.4637 45.0939 47.6584L53.6117 44.2586Z" fill="white"/>
<path d="M52.0289 63.2647C51.9911 63.2059 51.9285 63.1225 51.845 63.0161C51.9285 63.1225 51.9911 63.2059 52.0293 63.2649C52.0287 63.2651 52.0293 63.2649 52.0289 63.2647Z" fill="#371A45"/>
<path d="M61.6781 68.7839C61.6783 68.7834 61.6783 68.7834 61.6783 68.7834C61.8631 68.5775 62.0012 68.3374 62.0862 68.0469C62.0867 68.0471 62.0869 68.0467 62.0874 68.047C62.0016 68.3376 61.8631 68.5775 61.6781 68.7839Z" fill="#CDC6D0"/>
<path d="M45.0942 47.6592C45.0938 47.659 45.094 47.6596 45.0938 47.659L45.2405 47.6003L45.0942 47.6592Z" fill="#CDC6D0"/>
<path d="M57.5803 70.1185C58.4642 70.1447 59.3198 70.0072 59.9937 69.7565C60.7168 69.4868 61.2964 69.2086 61.6781 68.7838C61.6781 68.7838 61.6781 68.7838 61.6779 68.7842C61.2961 69.209 60.7165 69.4873 59.9933 69.7562C59.3198 70.0072 58.4635 70.1449 57.5803 70.1185ZM52.975 67.1149C52.4915 65.8811 52.5786 65.0169 52.3107 64.0255C52.3112 64.0258 52.3112 64.0258 52.3112 64.0258C52.5786 65.0169 52.492 65.8802 52.975 67.1149Z" fill="#A79BAD"/>
<path d="M52.3105 64.0252C52.2494 63.7997 52.1706 63.5675 52.0618 63.3228C52.055 63.3074 52.0438 63.2878 52.0287 63.2639C52.0291 63.2641 52.0285 63.2643 52.0291 63.2641C52.0442 63.288 52.0558 63.3078 52.0624 63.3237C52.171 63.5678 52.2502 63.8001 52.3109 64.0254C52.3105 64.0252 52.3105 64.0252 52.3105 64.0252Z" fill="#371A45"/>
<path d="M54.8164 69.396C54.2037 69.0423 53.6817 68.5469 53.3298 67.8837C53.1853 67.6111 53.0696 67.3562 52.9748 67.1158C52.4916 65.881 52.5785 65.0178 52.3111 64.0267C52.25 63.8016 52.1707 63.5695 52.0624 63.3255C52.0558 63.3091 52.044 63.2891 52.0289 63.2654C51.9908 63.2069 51.9282 63.1234 51.8442 63.0169C51.4115 62.4676 50.4108 61.2993 49.3073 59.6338C49.1881 59.4543 49.0682 59.2688 48.9475 59.0775C48.7998 58.8437 48.651 58.6015 48.5026 58.3511C48.2629 57.9468 48.0235 57.5211 47.7886 57.0753C47.6064 56.7281 47.4273 56.3702 47.2534 56.0002C47.2472 55.9871 47.2404 55.973 47.2347 55.9601C46.1339 53.6104 45.2413 50.7964 45.094 47.6593L45.2404 47.6007C47.0474 55.0883 51.6728 58.1445 53.4418 62.4323C54.079 63.9771 54.0096 64.3275 55.0643 66.3152C55.4155 66.9786 55.9382 67.4738 56.5509 67.8275C58.1361 68.7427 60.3259 68.7103 61.7268 68.1884C61.8513 68.1429 61.971 68.0964 62.0857 68.0482C62.0006 68.3387 61.8626 68.5788 61.6778 68.7847C61.2961 69.2094 60.7161 69.4878 59.9935 69.757C59.3194 70.0075 58.4637 70.1453 57.5801 70.1196C56.6262 70.0912 55.6397 69.8714 54.8164 69.396Z" fill="#CDC6D0"/>
<path d="M53.8154 44.2268C54.3363 45.3554 54.6544 46.4799 55.0405 47.6037C55.4071 48.7278 55.8047 49.8475 56.2116 50.9677C56.6409 52.0815 57.118 53.1782 57.6278 54.2655C58.1295 55.3553 58.6584 56.4386 59.1832 57.5261C59.7071 58.616 60.2391 59.7035 60.7378 60.8163C60.8664 61.0921 60.9891 61.3718 61.1085 61.6531C61.2286 61.9343 61.3523 62.2133 61.4688 62.4966C61.6932 63.0684 61.9287 63.6347 62.1233 64.2226C62.3332 64.7987 62.52 65.4033 62.658 66.035C62.6874 66.1963 62.7197 66.3555 62.7455 66.5189C62.763 66.6871 62.7859 66.8524 62.7962 67.0237L62.8008 67.2864L62.8023 67.4176C62.8006 67.4625 62.795 67.5087 62.7911 67.5542L62.7651 67.827C62.7509 67.9196 62.726 68.0139 62.7059 68.1072C62.6128 68.4765 62.4364 68.8647 62.1668 69.1592C61.9052 69.4553 61.5976 69.682 61.2948 69.85C60.9917 70.0165 60.6883 70.1521 60.3931 70.2641C60.2502 70.3235 60.0885 70.3767 59.9257 70.4288C59.7647 70.4861 59.6024 70.5173 59.4403 70.5589C58.7911 70.7049 58.135 70.7563 57.4796 70.7303C56.8245 70.7027 56.1679 70.5952 55.5309 70.3825C54.8963 70.17 54.2772 69.8458 53.7496 69.3831L53.5577 69.2034C53.4928 69.1443 53.4295 69.0836 53.3754 69.0131C53.2655 68.8754 53.1428 68.7461 53.047 68.5984C52.9539 68.4493 52.8562 68.2976 52.7715 68.1485C52.6998 68.0021 52.6229 67.8593 52.557 67.709C52.4227 67.4106 52.3027 67.1012 52.2087 66.7832C52.1156 66.4657 52.0418 66.1419 51.9906 65.8251C51.8863 65.1904 51.8429 64.6156 51.6922 64.1134C51.6765 64.0488 51.652 63.9876 51.6319 63.9253C51.612 63.8625 51.5909 63.8009 51.5643 63.7403L51.5267 63.6486L51.5084 63.603L51.4992 63.5802C51.4952 63.5694 51.498 63.5813 51.4978 63.5806C51.499 63.5849 51.5008 63.589 51.5039 63.592L51.4829 63.5635C51.466 63.5405 51.4541 63.5215 51.4305 63.4923C51.2636 63.2746 51.0646 63.0348 50.8762 62.7999C50.4933 62.3248 50.1155 61.8399 49.7519 61.3451C48.2954 59.3661 47.0354 57.2223 46.1111 54.9236C45.8762 54.3511 45.6718 53.7654 45.4789 53.1767C45.2969 52.5834 45.0975 51.9945 44.9502 51.3894C44.8716 51.0875 44.8089 50.7822 44.7657 50.4736C44.7402 50.3201 44.7169 50.166 44.7061 50.0101C44.6913 49.855 44.678 49.6994 44.6695 49.5437C44.6498 49.2329 44.6685 48.9173 44.6938 48.6048C44.7314 48.291 44.7883 47.9781 44.8882 47.6682C44.9251 47.552 45.0493 47.4885 45.1644 47.5254C45.2234 47.5443 45.2689 47.5857 45.2941 47.6371L45.2998 47.6482C45.4431 47.9403 45.5313 48.2308 45.6241 48.5185C45.7218 48.8049 45.7848 49.0929 45.8602 49.3784C45.8966 49.5213 45.9276 49.6641 45.9576 49.8076C45.9865 49.951 46.0248 50.0926 46.0543 50.2358C46.0877 50.3787 46.1182 50.5213 46.1445 50.665C46.1762 50.8076 46.2084 50.9505 46.2372 51.0939C46.3505 51.668 46.4866 52.2402 46.6592 52.8015C46.8403 53.3605 47.0351 53.9158 47.2587 54.4607C48.1376 56.6469 49.3429 58.7024 50.7479 60.6119C51.0997 61.0896 51.4638 61.5575 51.8392 62.0235C52.0286 62.2589 52.2155 62.4839 52.4166 62.7448C52.4402 62.7741 52.471 62.8179 52.4985 62.856C52.5131 62.8778 52.5238 62.8906 52.5424 62.92C52.5646 62.9558 52.5856 62.9926 52.6058 63.0297C52.6135 63.0456 52.6288 63.0725 52.6307 63.0796L52.6432 63.1092L52.667 63.1682L52.7152 63.2865C52.7802 63.4436 52.8317 63.6073 52.8805 63.7694C53.0737 64.4289 53.1162 65.0671 53.2109 65.6221C53.3011 66.1798 53.454 66.6936 53.6837 67.1979C53.7386 67.3243 53.8064 67.4473 53.8663 67.5724L54.0647 67.8946C54.1309 68.0004 54.2223 68.0888 54.2976 68.1884C54.3346 68.2393 54.3807 68.2828 54.4282 68.3247L54.5666 68.4541C54.9478 68.7889 55.4167 69.0397 55.9244 69.2097C56.9415 69.5458 58.1069 69.5863 59.1674 69.3519C59.2975 69.3178 59.4331 69.2941 59.5562 69.2481C59.6815 69.2076 59.8068 69.1683 59.9432 69.1119C60.212 69.01 60.46 68.8961 60.6866 68.7723C60.912 68.6484 61.0916 68.5046 61.2308 68.3502C61.3733 68.1984 61.4496 68.0162 61.5056 67.8053C61.611 67.3791 61.5654 66.832 61.4471 66.2876C61.3269 65.739 61.1586 65.1869 60.9552 64.6289C60.7701 64.0695 60.5418 63.5201 60.3249 62.9676C60.2119 62.6929 60.0904 62.4194 59.9734 62.1455C59.8573 61.8709 59.737 61.5975 59.6102 61.3258C59.122 60.2346 58.5916 59.1518 58.0698 58.0654C57.5444 56.977 57.0136 55.8896 56.505 54.7856C55.9882 53.6864 55.5122 52.5637 55.0248 51.4429C54.5612 50.3111 54.1044 49.1676 53.8084 47.9683C53.4748 46.7849 53.303 45.5397 53.408 44.2896C53.4173 44.1731 53.5199 44.0863 53.6362 44.0961C53.7152 44.1025 53.7804 44.1516 53.8113 44.2183L53.8154 44.2268Z" fill="#371A45"/>
<path d="M46.9845 56.4803C46.9475 56.4589 46.9124 56.4325 46.88 56.4014C46.6622 56.193 46.6544 55.8478 46.8625 55.6299C47.0792 55.403 52.1936 50.1348 56.4881 52.6142C56.5116 52.6278 56.5343 52.6409 56.5576 52.6548C56.8166 52.8095 56.901 53.1449 56.7463 53.404C56.5912 53.6628 56.2549 53.7513 55.997 53.5921C52.4397 51.4591 47.6991 56.3354 47.6521 56.3848C47.4741 56.5703 47.1976 56.6033 46.9845 56.4803Z" fill="#371A45"/>
<path d="M70.1395 56.8177C70.061 56.7724 69.9934 56.707 69.9435 56.6237C68.3323 53.9075 71.8792 47.3612 72.2896 46.6237C72.4357 46.3602 72.7686 46.2651 73.0319 46.4116C73.292 46.552 73.3905 46.8906 73.2444 47.1542C72.2155 49.0063 69.7863 54.2184 70.883 56.0668C71.0367 56.3257 70.951 56.6609 70.692 56.8145C70.5158 56.9192 70.3049 56.9132 70.1395 56.8177Z" fill="#371A45"/>
<path d="M81.0381 46.982C81.026 47.0141 80.9967 47.0705 80.9734 47.1175L80.8988 47.2679C80.8508 47.37 80.7971 47.4707 80.7499 47.5746C80.6488 47.781 80.559 47.9934 80.4722 48.2093C80.3839 48.4257 80.3112 48.6486 80.2303 48.8789C80.1378 49.1102 80.0716 49.3496 79.9502 49.6189C79.7835 49.3832 79.6855 49.1133 79.6384 48.8386C79.6106 48.6998 79.6061 48.5616 79.6016 48.4214C79.6069 48.2831 79.6091 48.1423 79.6293 48.0049C79.6612 47.727 79.728 47.4544 79.8218 47.1917C79.8725 47.0616 79.9242 46.9308 79.9908 46.8066C80.0237 46.744 80.0567 46.6814 80.0959 46.6212C80.1347 46.5574 80.1707 46.505 80.2278 46.4306C80.3915 46.2172 80.6974 46.1772 80.9108 46.3409C81.0853 46.4751 81.1438 46.7043 81.0692 46.9003L81.0381 46.982Z" fill="#371A45"/>
</svg>
