<svg width="104" height="224" viewBox="0 0 104 224" fill="none" xmlns="http://www.w3.org/2000/svg">
<circle cx="2" cy="122" r="2" fill="#6B04BB"/>
<circle cx="22" cy="122" r="2" fill="#6B04BB"/>
<circle cx="42" cy="122" r="2" fill="#6B04BB"/>
<circle cx="2" cy="142" r="2" fill="#6B04BB"/>
<circle cx="22" cy="142" r="2" fill="#6B04BB"/>
<circle cx="42" cy="142" r="2" fill="#6B04BB"/>
<circle cx="2" cy="162" r="2" fill="#6B04BB"/>
<circle cx="22" cy="162" r="2" fill="#6B04BB"/>
<circle cx="42" cy="162" r="2" fill="#6B04BB"/>
<circle cx="2" cy="182" r="2" fill="#6B04BB"/>
<circle cx="22" cy="182" r="2" fill="#6B04BB"/>
<circle cx="42" cy="182" r="2" fill="#6B04BB"/>
<circle cx="2" cy="202" r="2" fill="#6B04BB"/>
<circle cx="22" cy="202" r="2" fill="#6B04BB"/>
<circle cx="42" cy="202" r="2" fill="#6B04BB"/>
<circle cx="2" cy="222" r="2" fill="#6B04BB"/>
<circle cx="22" cy="222" r="2" fill="#6B04BB"/>
<circle cx="42" cy="222" r="2" fill="#6B04BB"/>
<circle cx="2" cy="2" r="2" fill="#6B04BB"/>
<circle cx="22" cy="2" r="2" fill="#6B04BB"/>
<circle cx="42" cy="2" r="2" fill="#6B04BB"/>
<circle cx="2" cy="22" r="2" fill="#6B04BB"/>
<circle cx="22" cy="22" r="2" fill="#6B04BB"/>
<circle cx="42" cy="22" r="2" fill="#6B04BB"/>
<circle cx="2" cy="42" r="2" fill="#6B04BB"/>
<circle cx="22" cy="42" r="2" fill="#6B04BB"/>
<circle cx="42" cy="42" r="2" fill="#6B04BB"/>
<circle cx="2" cy="62" r="2" fill="#6B04BB"/>
<circle cx="22" cy="62" r="2" fill="#6B04BB"/>
<circle cx="42" cy="62" r="2" fill="#6B04BB"/>
<circle cx="2" cy="82" r="2" fill="#6B04BB"/>
<circle cx="22" cy="82" r="2" fill="#6B04BB"/>
<circle cx="42" cy="82" r="2" fill="#6B04BB"/>
<circle cx="2" cy="102" r="2" fill="#6B04BB"/>
<circle cx="22" cy="102" r="2" fill="#6B04BB"/>
<circle cx="42" cy="102" r="2" fill="#6B04BB"/>
<circle cx="2" cy="122" r="2" fill="#6B04BB"/>
<circle cx="22" cy="122" r="2" fill="#6B04BB"/>
<circle cx="42" cy="122" r="2" fill="#6B04BB"/>
<circle cx="2" cy="142" r="2" fill="#6B04BB"/>
<circle cx="22" cy="142" r="2" fill="#6B04BB"/>
<circle cx="42" cy="142" r="2" fill="#6B04BB"/>
<circle cx="2" cy="162" r="2" fill="#6B04BB"/>
<circle cx="22" cy="162" r="2" fill="#6B04BB"/>
<circle cx="42" cy="162" r="2" fill="#6B04BB"/>
<circle cx="2" cy="182" r="2" fill="#6B04BB"/>
<circle cx="22" cy="182" r="2" fill="#6B04BB"/>
<circle cx="42" cy="182" r="2" fill="#6B04BB"/>
<circle cx="2" cy="202" r="2" fill="#6B04BB"/>
<circle cx="22" cy="202" r="2" fill="#6B04BB"/>
<circle cx="42" cy="202" r="2" fill="#6B04BB"/>
<circle cx="2" cy="222" r="2" fill="#6B04BB"/>
<circle cx="22" cy="222" r="2" fill="#6B04BB"/>
<circle cx="42" cy="222" r="2" fill="#6B04BB"/>
<circle cx="2" cy="2" r="2" fill="#6B04BB"/>
<circle cx="22" cy="2" r="2" fill="#6B04BB"/>
<circle cx="42" cy="2" r="2" fill="#6B04BB"/>
<circle cx="2" cy="22" r="2" fill="#6B04BB"/>
<circle cx="22" cy="22" r="2" fill="#6B04BB"/>
<circle cx="42" cy="22" r="2" fill="#6B04BB"/>
<circle cx="2" cy="42" r="2" fill="#6B04BB"/>
<circle cx="22" cy="42" r="2" fill="#6B04BB"/>
<circle cx="42" cy="42" r="2" fill="#6B04BB"/>
<circle cx="2" cy="62" r="2" fill="#6B04BB"/>
<circle cx="22" cy="62" r="2" fill="#6B04BB"/>
<circle cx="42" cy="62" r="2" fill="#6B04BB"/>
<circle cx="2" cy="82" r="2" fill="#6B04BB"/>
<circle cx="22" cy="82" r="2" fill="#6B04BB"/>
<circle cx="42" cy="82" r="2" fill="#6B04BB"/>
<circle cx="2" cy="102" r="2" fill="#6B04BB"/>
<circle cx="22" cy="102" r="2" fill="#6B04BB"/>
<circle cx="42" cy="102" r="2" fill="#6B04BB"/>
<circle cx="62" cy="122" r="2" fill="#6B04BB"/>
<circle cx="82" cy="122" r="2" fill="#6B04BB"/>
<circle cx="102" cy="122" r="2" fill="#6B04BB"/>
<circle cx="62" cy="142" r="2" fill="#6B04BB"/>
<circle cx="82" cy="142" r="2" fill="#6B04BB"/>
<circle cx="102" cy="142" r="2" fill="#6B04BB"/>
<circle cx="62" cy="162" r="2" fill="#6B04BB"/>
<circle cx="82" cy="162" r="2" fill="#6B04BB"/>
<circle cx="102" cy="162" r="2" fill="#6B04BB"/>
<circle cx="62" cy="182" r="2" fill="#6B04BB"/>
<circle cx="82" cy="182" r="2" fill="#6B04BB"/>
<circle cx="102" cy="182" r="2" fill="#6B04BB"/>
<circle cx="62" cy="202" r="2" fill="#6B04BB"/>
<circle cx="82" cy="202" r="2" fill="#6B04BB"/>
<circle cx="102" cy="202" r="2" fill="#6B04BB"/>
<circle cx="62" cy="222" r="2" fill="#6B04BB"/>
<circle cx="82" cy="222" r="2" fill="#6B04BB"/>
<circle cx="102" cy="222" r="2" fill="#6B04BB"/>
<circle cx="62" cy="2" r="2" fill="#6B04BB"/>
<circle cx="82" cy="2" r="2" fill="#6B04BB"/>
<circle cx="102" cy="2" r="2" fill="#6B04BB"/>
<circle cx="62" cy="22" r="2" fill="#6B04BB"/>
<circle cx="82" cy="22" r="2" fill="#6B04BB"/>
<circle cx="102" cy="22" r="2" fill="#6B04BB"/>
<circle cx="62" cy="42" r="2" fill="#6B04BB"/>
<circle cx="82" cy="42" r="2" fill="#6B04BB"/>
<circle cx="102" cy="42" r="2" fill="#6B04BB"/>
<circle cx="62" cy="62" r="2" fill="#6B04BB"/>
<circle cx="82" cy="62" r="2" fill="#6B04BB"/>
<circle cx="102" cy="62" r="2" fill="#6B04BB"/>
<circle cx="62" cy="82" r="2" fill="#6B04BB"/>
<circle cx="82" cy="82" r="2" fill="#6B04BB"/>
<circle cx="102" cy="82" r="2" fill="#6B04BB"/>
<circle cx="62" cy="102" r="2" fill="#6B04BB"/>
<circle cx="82" cy="102" r="2" fill="#6B04BB"/>
<circle cx="102" cy="102" r="2" fill="#6B04BB"/>
<circle cx="62" cy="122" r="2" fill="#6B04BB"/>
<circle cx="82" cy="122" r="2" fill="#6B04BB"/>
<circle cx="102" cy="122" r="2" fill="#6B04BB"/>
<circle cx="62" cy="142" r="2" fill="#6B04BB"/>
<circle cx="82" cy="142" r="2" fill="#6B04BB"/>
<circle cx="102" cy="142" r="2" fill="#6B04BB"/>
<circle cx="62" cy="162" r="2" fill="#6B04BB"/>
<circle cx="82" cy="162" r="2" fill="#6B04BB"/>
<circle cx="102" cy="162" r="2" fill="#6B04BB"/>
<circle cx="62" cy="182" r="2" fill="#6B04BB"/>
<circle cx="82" cy="182" r="2" fill="#6B04BB"/>
<circle cx="102" cy="182" r="2" fill="#6B04BB"/>
<circle cx="62" cy="202" r="2" fill="#6B04BB"/>
<circle cx="82" cy="202" r="2" fill="#6B04BB"/>
<circle cx="102" cy="202" r="2" fill="#6B04BB"/>
<circle cx="62" cy="222" r="2" fill="#6B04BB"/>
<circle cx="82" cy="222" r="2" fill="#6B04BB"/>
<circle cx="102" cy="222" r="2" fill="#6B04BB"/>
<circle cx="62" cy="2" r="2" fill="#6B04BB"/>
<circle cx="82" cy="2" r="2" fill="#6B04BB"/>
<circle cx="102" cy="2" r="2" fill="#6B04BB"/>
<circle cx="62" cy="22" r="2" fill="#6B04BB"/>
<circle cx="82" cy="22" r="2" fill="#6B04BB"/>
<circle cx="102" cy="22" r="2" fill="#6B04BB"/>
<circle cx="62" cy="42" r="2" fill="#6B04BB"/>
<circle cx="82" cy="42" r="2" fill="#6B04BB"/>
<circle cx="102" cy="42" r="2" fill="#6B04BB"/>
<circle cx="62" cy="62" r="2" fill="#6B04BB"/>
<circle cx="82" cy="62" r="2" fill="#6B04BB"/>
<circle cx="102" cy="62" r="2" fill="#6B04BB"/>
<circle cx="62" cy="82" r="2" fill="#6B04BB"/>
<circle cx="82" cy="82" r="2" fill="#6B04BB"/>
<circle cx="102" cy="82" r="2" fill="#6B04BB"/>
<circle cx="62" cy="102" r="2" fill="#6B04BB"/>
<circle cx="82" cy="102" r="2" fill="#6B04BB"/>
<circle cx="102" cy="102" r="2" fill="#6B04BB"/>
</svg>
