<svg width="149" height="147" viewBox="0 0 149 147" fill="none" xmlns="http://www.w3.org/2000/svg">
<mask id="mask0_1122_369" style="mask-type:alpha" maskUnits="userSpaceOnUse" x="0" y="0" width="149" height="147">
<path d="M2 145L2 2L146.301 2L146.301 145L2 145Z" fill="#1A0820" stroke="#313960" stroke-width="4"/>
</mask>
<g mask="url(#mask0_1122_369)">
<path fill-rule="evenodd" clip-rule="evenodd" d="M87.1587 119.682C87.1587 87.3512 60.9496 61.142 28.6189 61.142C-3.71173 61.142 -29.9209 87.3512 -29.9209 119.682C-29.9209 152.013 -3.71173 178.222 28.6189 178.222C60.9496 178.222 87.1587 152.013 87.1587 119.682ZM69.1459 119.024C69.1459 96.5017 51.0011 78.2437 28.6183 78.2437C6.23558 78.2437 -11.9092 96.5017 -11.9092 119.024C-11.9092 141.547 6.23558 159.805 28.6183 159.805C51.0011 159.805 69.1459 141.547 69.1459 119.024Z" fill="#340559"/>
<path fill-rule="evenodd" clip-rule="evenodd" d="M148.301 120.332C148.301 53.8748 94.427 0.00035318 27.9696 0.000352387C-38.4879 0.000351595 -92.3623 53.8748 -92.3623 120.332C-92.3623 186.79 -38.4879 240.664 27.9696 240.664C94.427 240.664 148.301 186.79 148.301 120.332ZM111.277 118.98C111.277 72.684 73.979 35.1535 27.97 35.1535C-18.039 35.1535 -55.3366 72.684 -55.3366 118.98C-55.3366 165.276 -18.039 202.807 27.97 202.807C73.979 202.807 111.277 165.276 111.277 118.98Z" fill="#340559"/>
</g>
</svg>
