<svg width="307" height="169" viewBox="0 0 307 169" fill="none" xmlns="http://www.w3.org/2000/svg">
<mask id="mask0_1108_128" style="mask-type:alpha" maskUnits="userSpaceOnUse" x="0" y="0" width="307" height="169">
<path d="M0 10C0 4.47716 4.47715 0 10 0H297C302.523 0 307 4.47715 307 10V159C307 164.523 302.523 169 297 169H10C4.47715 169 0 164.523 0 159V10Z" fill="#405082"/>
</mask>
<g mask="url(#mask0_1108_128)">
<path d="M184.97 20.464C183.949 2.79454 193.962 -1.18084 199.742 -0.884353H307.642V169.894L84.1363 169.894C81.5672 166.633 86.705 154.772 89.2735 152.105C96.9809 144.1 112.394 161 110.467 144.1C108.541 127.2 125.683 126.287 126.525 113.857C128.451 85.39 138.085 79.1637 145.792 72.9374C153.677 66.5675 149.004 52.4795 154.142 37.3584C159.28 22.2374 186.255 42.6953 184.97 20.464Z" fill="#405082"/>
</g>
</svg>
