<svg width="61" height="55" viewBox="0 0 61 55" fill="none" xmlns="http://www.w3.org/2000/svg">
<path d="M10.0114 39.07C20.5765 32.7061 28.4046 15.6605 28.4447 7.78143L36.2388 8.44695C34.8705 19.7084 48.7193 33.5498 54.6228 39.3659L10.0114 39.07Z" fill="white"/>
<path d="M15.5108 29.0459C16.0583 24.6493 21.3885 23.8053 22.8692 24.3092L27.7126 38.981L10.011 39.0701C8.58763 31.6871 11.9023 28.4749 15.5108 29.0459Z" fill="white"/>
<path d="M43.6434 25.2979C42.9474 23.2871 39.9985 23.1541 38.611 23.339L40.7587 39.2015L54.6212 39.3672C58.0003 33.0272 53.1646 29.1129 50.3766 28.082C49.4009 24.005 45.4813 24.5272 43.6434 25.2979Z" fill="white"/>
</svg>
