<svg width="22" height="40" viewBox="0 0 22 40" fill="none" xmlns="http://www.w3.org/2000/svg">
<path fill-rule="evenodd" clip-rule="evenodd" d="M0.0320606 -9.60249e-07C0.464128 5.83691 5.20957 10.4348 11 10.4348C16.7904 10.4348 21.5359 5.83691 21.9679 -1.40141e-09L22 0L22 39.1304C22 32.8872 17.0751 27.8261 11 27.8261C4.92487 27.8261 -1.43755e-06 32.8872 -1.71045e-06 39.1304L0 -9.61651e-07L0.0320606 -9.60249e-07ZM-1.71045e-06 39.1304C-1.72323e-06 39.423 0.0108148 39.713 0.0320589 40L-3.6558e-06 40L-1.71045e-06 39.1304ZM22 39.1304L22 40L21.9679 40C21.9892 39.713 22 39.423 22 39.1304Z" fill="white"/>
</svg>
